<?xml version="1.0" encoding="utf-8" standalone="no"?>
<!DOCTYPE svg PUBLIC "-//W3C//DTD SVG 1.1//EN"
  "http://www.w3.org/Graphics/SVG/1.1/DTD/svg11.dtd">
<!-- Created with matplotlib (http://matplotlib.org/) -->
<svg height="345.6pt" version="1.1" viewBox="0 0 460.8 345.6" width="460.8pt" xmlns="http://www.w3.org/2000/svg" xmlns:xlink="http://www.w3.org/1999/xlink">
 <defs>
  <style type="text/css">
*{stroke-linecap:butt;stroke-linejoin:round;}
  </style>
 </defs>
 <g id="figure_1">
  <g id="patch_1">
   <path d="M 0 345.6 
L 460.8 345.6 
L 460.8 0 
L 0 0 
z
" style="fill:#ffffff;"/>
  </g>
  <g id="axes_1">
   <g id="patch_2">
    <path d="M 38.27 294.01 
L 444.96 294.01 
L 444.96 13.32 
L 38.27 13.32 
z
" style="fill:#ffffff;"/>
   </g>
   <g id="matplotlib.axis_1">
    <g id="xtick_1">
     <g id="line2d_1">
      <defs>
       <path d="M 0 0 
L 0 3.5 
" id="m00f2de1e9a" style="stroke:#000000;stroke-width:0.8;"/>
      </defs>
      <g>
       <use style="stroke:#000000;stroke-width:0.8;" x="38.27" xlink:href="#m00f2de1e9a" y="294.01"/>
      </g>
     </g>
     <g id="text_1">
      <!-- A1 -->
      <defs>
       <path d="M 34.1875 63.1875 
L 20.796875 26.90625 
L 47.609375 26.90625 
z
M 28.609375 72.90625 
L 39.796875 72.90625 
L 67.578125 0 
L 57.328125 0 
L 50.6875 18.703125 
L 17.828125 18.703125 
L 11.1875 0 
L 0.78125 0 
z
" id="DejaVuSans-41"/>
       <path d="M 12.40625 8.296875 
L 28.515625 8.296875 
L 28.515625 63.921875 
L 10.984375 60.40625 
L 10.984375 69.390625 
L 28.421875 72.90625 
L 38.28125 72.90625 
L 38.28125 8.296875 
L 54.390625 8.296875 
L 54.390625 0 
L 12.40625 0 
z
" id="DejaVuSans-31"/>
      </defs>
      <g transform="translate(41.029375 314.213125)rotate(-90)scale(0.1 -0.1)">
       <use xlink:href="#DejaVuSans-41"/>
       <use x="68.408203" xlink:href="#DejaVuSans-31"/>
      </g>
     </g>
    </g>
    <g id="xtick_2">
     <g id="line2d_2">
      <g>
       <use style="stroke:#000000;stroke-width:0.8;" x="56.755909" xlink:href="#m00f2de1e9a" y="294.01"/>
      </g>
     </g>
     <g id="text_2">
      <!-- A7 -->
      <defs>
       <path d="M 8.203125 72.90625 
L 55.078125 72.90625 
L 55.078125 68.703125 
L 28.609375 0 
L 18.3125 0 
L 43.21875 64.59375 
L 8.203125 64.59375 
z
" id="DejaVuSans-37"/>
      </defs>
      <g transform="translate(59.515284 314.213125)rotate(-90)scale(0.1 -0.1)">
       <use xlink:href="#DejaVuSans-41"/>
       <use x="68.408203" xlink:href="#DejaVuSans-37"/>
      </g>
     </g>
    </g>
    <g id="xtick_3">
     <g id="line2d_3">
      <g>
       <use style="stroke:#000000;stroke-width:0.8;" x="75.241818" xlink:href="#m00f2de1e9a" y="294.01"/>
      </g>
     </g>
     <g id="text_3">
      <!-- A13 -->
      <defs>
       <path d="M 40.578125 39.3125 
Q 47.65625 37.796875 51.625 33 
Q 55.609375 28.21875 55.609375 21.1875 
Q 55.609375 10.40625 48.1875 4.484375 
Q 40.765625 -1.421875 27.09375 -1.421875 
Q 22.515625 -1.421875 17.65625 -0.515625 
Q 12.796875 0.390625 7.625 2.203125 
L 7.625 11.71875 
Q 11.71875 9.328125 16.59375 8.109375 
Q 21.484375 6.890625 26.8125 6.890625 
Q 36.078125 6.890625 40.9375 10.546875 
Q 45.796875 14.203125 45.796875 21.1875 
Q 45.796875 27.640625 41.28125 31.265625 
Q 36.765625 34.90625 28.71875 34.90625 
L 20.21875 34.90625 
L 20.21875 43.015625 
L 29.109375 43.015625 
Q 36.375 43.015625 40.234375 45.921875 
Q 44.09375 48.828125 44.09375 54.296875 
Q 44.09375 59.90625 40.109375 62.90625 
Q 36.140625 65.921875 28.71875 65.921875 
Q 24.65625 65.921875 20.015625 65.03125 
Q 15.375 64.15625 9.8125 62.3125 
L 9.8125 71.09375 
Q 15.4375 72.65625 20.34375 73.4375 
Q 25.25 74.21875 29.59375 74.21875 
Q 40.828125 74.21875 47.359375 69.109375 
Q 53.90625 64.015625 53.90625 55.328125 
Q 53.90625 49.265625 50.4375 45.09375 
Q 46.96875 40.921875 40.578125 39.3125 
z
" id="DejaVuSans-33"/>
      </defs>
      <g transform="translate(78.001193 320.575625)rotate(-90)scale(0.1 -0.1)">
       <use xlink:href="#DejaVuSans-41"/>
       <use x="68.408203" xlink:href="#DejaVuSans-31"/>
       <use x="132.03125" xlink:href="#DejaVuSans-33"/>
      </g>
     </g>
    </g>
    <g id="xtick_4">
     <g id="line2d_4">
      <g>
       <use style="stroke:#000000;stroke-width:0.8;" x="93.727727" xlink:href="#m00f2de1e9a" y="294.01"/>
      </g>
     </g>
     <g id="text_4">
      <!-- A19 -->
      <defs>
       <path d="M 10.984375 1.515625 
L 10.984375 10.5 
Q 14.703125 8.734375 18.5 7.8125 
Q 22.3125 6.890625 25.984375 6.890625 
Q 35.75 6.890625 40.890625 13.453125 
Q 46.046875 20.015625 46.78125 33.40625 
Q 43.953125 29.203125 39.59375 26.953125 
Q 35.25 24.703125 29.984375 24.703125 
Q 19.046875 24.703125 12.671875 31.3125 
Q 6.296875 37.9375 6.296875 49.421875 
Q 6.296875 60.640625 12.9375 67.421875 
Q 19.578125 74.21875 30.609375 74.21875 
Q 43.265625 74.21875 49.921875 64.515625 
Q 56.59375 54.828125 56.59375 36.375 
Q 56.59375 19.140625 48.40625 8.859375 
Q 40.234375 -1.421875 26.421875 -1.421875 
Q 22.703125 -1.421875 18.890625 -0.6875 
Q 15.09375 0.046875 10.984375 1.515625 
z
M 30.609375 32.421875 
Q 37.25 32.421875 41.125 36.953125 
Q 45.015625 41.5 45.015625 49.421875 
Q 45.015625 57.28125 41.125 61.84375 
Q 37.25 66.40625 30.609375 66.40625 
Q 23.96875 66.40625 20.09375 61.84375 
Q 16.21875 57.28125 16.21875 49.421875 
Q 16.21875 41.5 20.09375 36.953125 
Q 23.96875 32.421875 30.609375 32.421875 
z
" id="DejaVuSans-39"/>
      </defs>
      <g transform="translate(96.487102 320.575625)rotate(-90)scale(0.1 -0.1)">
       <use xlink:href="#DejaVuSans-41"/>
       <use x="68.408203" xlink:href="#DejaVuSans-31"/>
       <use x="132.03125" xlink:href="#DejaVuSans-39"/>
      </g>
     </g>
    </g>
    <g id="xtick_5">
     <g id="line2d_5">
      <g>
       <use style="stroke:#000000;stroke-width:0.8;" x="112.213636" xlink:href="#m00f2de1e9a" y="294.01"/>
      </g>
     </g>
     <g id="text_5">
      <!-- A25 -->
      <defs>
       <path d="M 19.1875 8.296875 
L 53.609375 8.296875 
L 53.609375 0 
L 7.328125 0 
L 7.328125 8.296875 
Q 12.9375 14.109375 22.625 23.890625 
Q 32.328125 33.6875 34.8125 36.53125 
Q 39.546875 41.84375 41.421875 45.53125 
Q 43.3125 49.21875 43.3125 52.78125 
Q 43.3125 58.59375 39.234375 62.25 
Q 35.15625 65.921875 28.609375 65.921875 
Q 23.96875 65.921875 18.8125 64.3125 
Q 13.671875 62.703125 7.8125 59.421875 
L 7.8125 69.390625 
Q 13.765625 71.78125 18.9375 73 
Q 24.125 74.21875 28.421875 74.21875 
Q 39.75 74.21875 46.484375 68.546875 
Q 53.21875 62.890625 53.21875 53.421875 
Q 53.21875 48.921875 51.53125 44.890625 
Q 49.859375 40.875 45.40625 35.40625 
Q 44.1875 33.984375 37.640625 27.21875 
Q 31.109375 20.453125 19.1875 8.296875 
z
" id="DejaVuSans-32"/>
       <path d="M 10.796875 72.90625 
L 49.515625 72.90625 
L 49.515625 64.59375 
L 19.828125 64.59375 
L 19.828125 46.734375 
Q 21.96875 47.46875 24.109375 47.828125 
Q 26.265625 48.1875 28.421875 48.1875 
Q 40.625 48.1875 47.75 41.5 
Q 54.890625 34.8125 54.890625 23.390625 
Q 54.890625 11.625 47.5625 5.09375 
Q 40.234375 -1.421875 26.90625 -1.421875 
Q 22.3125 -1.421875 17.546875 -0.640625 
Q 12.796875 0.140625 7.71875 1.703125 
L 7.71875 11.625 
Q 12.109375 9.234375 16.796875 8.0625 
Q 21.484375 6.890625 26.703125 6.890625 
Q 35.15625 6.890625 40.078125 11.328125 
Q 45.015625 15.765625 45.015625 23.390625 
Q 45.015625 31 40.078125 35.4375 
Q 35.15625 39.890625 26.703125 39.890625 
Q 22.75 39.890625 18.8125 39.015625 
Q 14.890625 38.140625 10.796875 36.28125 
z
" id="DejaVuSans-35"/>
      </defs>
      <g transform="translate(114.973011 320.575625)rotate(-90)scale(0.1 -0.1)">
       <use xlink:href="#DejaVuSans-41"/>
       <use x="68.408203" xlink:href="#DejaVuSans-32"/>
       <use x="132.03125" xlink:href="#DejaVuSans-35"/>
      </g>
     </g>
    </g>
    <g id="xtick_6">
     <g id="line2d_6">
      <g>
       <use style="stroke:#000000;stroke-width:0.8;" x="130.699545" xlink:href="#m00f2de1e9a" y="294.01"/>
      </g>
     </g>
     <g id="text_6">
      <!-- A31 -->
      <g transform="translate(133.45892 320.575625)rotate(-90)scale(0.1 -0.1)">
       <use xlink:href="#DejaVuSans-41"/>
       <use x="68.408203" xlink:href="#DejaVuSans-33"/>
       <use x="132.03125" xlink:href="#DejaVuSans-31"/>
      </g>
     </g>
    </g>
    <g id="xtick_7">
     <g id="line2d_7">
      <g>
       <use style="stroke:#000000;stroke-width:0.8;" x="149.185455" xlink:href="#m00f2de1e9a" y="294.01"/>
      </g>
     </g>
     <g id="text_7">
      <!-- A37 -->
      <g transform="translate(151.94483 320.575625)rotate(-90)scale(0.1 -0.1)">
       <use xlink:href="#DejaVuSans-41"/>
       <use x="68.408203" xlink:href="#DejaVuSans-33"/>
       <use x="132.03125" xlink:href="#DejaVuSans-37"/>
      </g>
     </g>
    </g>
    <g id="xtick_8">
     <g id="line2d_8">
      <g>
       <use style="stroke:#000000;stroke-width:0.8;" x="167.671364" xlink:href="#m00f2de1e9a" y="294.01"/>
      </g>
     </g>
     <g id="text_8">
      <!-- A43 -->
      <defs>
       <path d="M 37.796875 64.3125 
L 12.890625 25.390625 
L 37.796875 25.390625 
z
M 35.203125 72.90625 
L 47.609375 72.90625 
L 47.609375 25.390625 
L 58.015625 25.390625 
L 58.015625 17.1875 
L 47.609375 17.1875 
L 47.609375 0 
L 37.796875 0 
L 37.796875 17.1875 
L 4.890625 17.1875 
L 4.890625 26.703125 
z
" id="DejaVuSans-34"/>
      </defs>
      <g transform="translate(170.430739 320.575625)rotate(-90)scale(0.1 -0.1)">
       <use xlink:href="#DejaVuSans-41"/>
       <use x="68.408203" xlink:href="#DejaVuSans-34"/>
       <use x="132.03125" xlink:href="#DejaVuSans-33"/>
      </g>
     </g>
    </g>
    <g id="xtick_9">
     <g id="line2d_9">
      <g>
       <use style="stroke:#000000;stroke-width:0.8;" x="186.157273" xlink:href="#m00f2de1e9a" y="294.01"/>
      </g>
     </g>
     <g id="text_9">
      <!-- A49 -->
      <g transform="translate(188.916648 320.575625)rotate(-90)scale(0.1 -0.1)">
       <use xlink:href="#DejaVuSans-41"/>
       <use x="68.408203" xlink:href="#DejaVuSans-34"/>
       <use x="132.03125" xlink:href="#DejaVuSans-39"/>
      </g>
     </g>
    </g>
    <g id="xtick_10">
     <g id="line2d_10">
      <g>
       <use style="stroke:#000000;stroke-width:0.8;" x="204.643182" xlink:href="#m00f2de1e9a" y="294.01"/>
      </g>
     </g>
     <g id="text_10">
      <!-- A55 -->
      <g transform="translate(207.402557 320.575625)rotate(-90)scale(0.1 -0.1)">
       <use xlink:href="#DejaVuSans-41"/>
       <use x="68.408203" xlink:href="#DejaVuSans-35"/>
       <use x="132.03125" xlink:href="#DejaVuSans-35"/>
      </g>
     </g>
    </g>
    <g id="xtick_11">
     <g id="line2d_11">
      <g>
       <use style="stroke:#000000;stroke-width:0.8;" x="223.129091" xlink:href="#m00f2de1e9a" y="294.01"/>
      </g>
     </g>
     <g id="text_11">
      <!-- A61 -->
      <defs>
       <path d="M 33.015625 40.375 
Q 26.375 40.375 22.484375 35.828125 
Q 18.609375 31.296875 18.609375 23.390625 
Q 18.609375 15.53125 22.484375 10.953125 
Q 26.375 6.390625 33.015625 6.390625 
Q 39.65625 6.390625 43.53125 10.953125 
Q 47.40625 15.53125 47.40625 23.390625 
Q 47.40625 31.296875 43.53125 35.828125 
Q 39.65625 40.375 33.015625 40.375 
z
M 52.59375 71.296875 
L 52.59375 62.3125 
Q 48.875 64.0625 45.09375 64.984375 
Q 41.3125 65.921875 37.59375 65.921875 
Q 27.828125 65.921875 22.671875 59.328125 
Q 17.53125 52.734375 16.796875 39.40625 
Q 19.671875 43.65625 24.015625 45.921875 
Q 28.375 48.1875 33.59375 48.1875 
Q 44.578125 48.1875 50.953125 41.515625 
Q 57.328125 34.859375 57.328125 23.390625 
Q 57.328125 12.15625 50.6875 5.359375 
Q 44.046875 -1.421875 33.015625 -1.421875 
Q 20.359375 -1.421875 13.671875 8.265625 
Q 6.984375 17.96875 6.984375 36.375 
Q 6.984375 53.65625 15.1875 63.9375 
Q 23.390625 74.21875 37.203125 74.21875 
Q 40.921875 74.21875 44.703125 73.484375 
Q 48.484375 72.75 52.59375 71.296875 
z
" id="DejaVuSans-36"/>
      </defs>
      <g transform="translate(225.888466 320.575625)rotate(-90)scale(0.1 -0.1)">
       <use xlink:href="#DejaVuSans-41"/>
       <use x="68.408203" xlink:href="#DejaVuSans-36"/>
       <use x="132.03125" xlink:href="#DejaVuSans-31"/>
      </g>
     </g>
    </g>
    <g id="xtick_12">
     <g id="line2d_12">
      <g>
       <use style="stroke:#000000;stroke-width:0.8;" x="241.615" xlink:href="#m00f2de1e9a" y="294.01"/>
      </g>
     </g>
     <g id="text_12">
      <!-- A67 -->
      <g transform="translate(244.374375 320.575625)rotate(-90)scale(0.1 -0.1)">
       <use xlink:href="#DejaVuSans-41"/>
       <use x="68.408203" xlink:href="#DejaVuSans-36"/>
       <use x="132.03125" xlink:href="#DejaVuSans-37"/>
      </g>
     </g>
    </g>
    <g id="xtick_13">
     <g id="line2d_13">
      <g>
       <use style="stroke:#000000;stroke-width:0.8;" x="260.100909" xlink:href="#m00f2de1e9a" y="294.01"/>
      </g>
     </g>
     <g id="text_13">
      <!-- B2 -->
      <defs>
       <path d="M 19.671875 34.8125 
L 19.671875 8.109375 
L 35.5 8.109375 
Q 43.453125 8.109375 47.28125 11.40625 
Q 51.125 14.703125 51.125 21.484375 
Q 51.125 28.328125 47.28125 31.5625 
Q 43.453125 34.8125 35.5 34.8125 
z
M 19.671875 64.796875 
L 19.671875 42.828125 
L 34.28125 42.828125 
Q 41.5 42.828125 45.03125 45.53125 
Q 48.578125 48.25 48.578125 53.8125 
Q 48.578125 59.328125 45.03125 62.0625 
Q 41.5 64.796875 34.28125 64.796875 
z
M 9.8125 72.90625 
L 35.015625 72.90625 
Q 46.296875 72.90625 52.390625 68.21875 
Q 58.5 63.53125 58.5 54.890625 
Q 58.5 48.1875 55.375 44.234375 
Q 52.25 40.28125 46.1875 39.3125 
Q 53.46875 37.75 57.5 32.78125 
Q 61.53125 27.828125 61.53125 20.40625 
Q 61.53125 10.640625 54.890625 5.3125 
Q 48.25 0 35.984375 0 
L 9.8125 0 
z
" id="DejaVuSans-42"/>
      </defs>
      <g transform="translate(262.860284 314.233437)rotate(-90)scale(0.1 -0.1)">
       <use xlink:href="#DejaVuSans-42"/>
       <use x="68.603516" xlink:href="#DejaVuSans-32"/>
      </g>
     </g>
    </g>
    <g id="xtick_14">
     <g id="line2d_14">
      <g>
       <use style="stroke:#000000;stroke-width:0.8;" x="278.586818" xlink:href="#m00f2de1e9a" y="294.01"/>
      </g>
     </g>
     <g id="text_14">
      <!-- B8 -->
      <defs>
       <path d="M 31.78125 34.625 
Q 24.75 34.625 20.71875 30.859375 
Q 16.703125 27.09375 16.703125 20.515625 
Q 16.703125 13.921875 20.71875 10.15625 
Q 24.75 6.390625 31.78125 6.390625 
Q 38.8125 6.390625 42.859375 10.171875 
Q 46.921875 13.96875 46.921875 20.515625 
Q 46.921875 27.09375 42.890625 30.859375 
Q 38.875 34.625 31.78125 34.625 
z
M 21.921875 38.8125 
Q 15.578125 40.375 12.03125 44.71875 
Q 8.5 49.078125 8.5 55.328125 
Q 8.5 64.0625 14.71875 69.140625 
Q 20.953125 74.21875 31.78125 74.21875 
Q 42.671875 74.21875 48.875 69.140625 
Q 55.078125 64.0625 55.078125 55.328125 
Q 55.078125 49.078125 51.53125 44.71875 
Q 48 40.375 41.703125 38.8125 
Q 48.828125 37.15625 52.796875 32.3125 
Q 56.78125 27.484375 56.78125 20.515625 
Q 56.78125 9.90625 50.3125 4.234375 
Q 43.84375 -1.421875 31.78125 -1.421875 
Q 19.734375 -1.421875 13.25 4.234375 
Q 6.78125 9.90625 6.78125 20.515625 
Q 6.78125 27.484375 10.78125 32.3125 
Q 14.796875 37.15625 21.921875 38.8125 
z
M 18.3125 54.390625 
Q 18.3125 48.734375 21.84375 45.5625 
Q 25.390625 42.390625 31.78125 42.390625 
Q 38.140625 42.390625 41.71875 45.5625 
Q 45.3125 48.734375 45.3125 54.390625 
Q 45.3125 60.0625 41.71875 63.234375 
Q 38.140625 66.40625 31.78125 66.40625 
Q 25.390625 66.40625 21.84375 63.234375 
Q 18.3125 60.0625 18.3125 54.390625 
z
" id="DejaVuSans-38"/>
      </defs>
      <g transform="translate(281.346193 314.233437)rotate(-90)scale(0.1 -0.1)">
       <use xlink:href="#DejaVuSans-42"/>
       <use x="68.603516" xlink:href="#DejaVuSans-38"/>
      </g>
     </g>
    </g>
    <g id="xtick_15">
     <g id="line2d_15">
      <g>
       <use style="stroke:#000000;stroke-width:0.8;" x="297.072727" xlink:href="#m00f2de1e9a" y="294.01"/>
      </g>
     </g>
     <g id="text_15">
      <!-- B14 -->
      <g transform="translate(299.832102 320.595937)rotate(-90)scale(0.1 -0.1)">
       <use xlink:href="#DejaVuSans-42"/>
       <use x="68.603516" xlink:href="#DejaVuSans-31"/>
       <use x="132.226562" xlink:href="#DejaVuSans-34"/>
      </g>
     </g>
    </g>
    <g id="xtick_16">
     <g id="line2d_16">
      <g>
       <use style="stroke:#000000;stroke-width:0.8;" x="315.558636" xlink:href="#m00f2de1e9a" y="294.01"/>
      </g>
     </g>
     <g id="text_16">
      <!-- B20 -->
      <defs>
       <path d="M 31.78125 66.40625 
Q 24.171875 66.40625 20.328125 58.90625 
Q 16.5 51.421875 16.5 36.375 
Q 16.5 21.390625 20.328125 13.890625 
Q 24.171875 6.390625 31.78125 6.390625 
Q 39.453125 6.390625 43.28125 13.890625 
Q 47.125 21.390625 47.125 36.375 
Q 47.125 51.421875 43.28125 58.90625 
Q 39.453125 66.40625 31.78125 66.40625 
z
M 31.78125 74.21875 
Q 44.046875 74.21875 50.515625 64.515625 
Q 56.984375 54.828125 56.984375 36.375 
Q 56.984375 17.96875 50.515625 8.265625 
Q 44.046875 -1.421875 31.78125 -1.421875 
Q 19.53125 -1.421875 13.0625 8.265625 
Q 6.59375 17.96875 6.59375 36.375 
Q 6.59375 54.828125 13.0625 64.515625 
Q 19.53125 74.21875 31.78125 74.21875 
z
" id="DejaVuSans-30"/>
      </defs>
      <g transform="translate(318.318011 320.595937)rotate(-90)scale(0.1 -0.1)">
       <use xlink:href="#DejaVuSans-42"/>
       <use x="68.603516" xlink:href="#DejaVuSans-32"/>
       <use x="132.226562" xlink:href="#DejaVuSans-30"/>
      </g>
     </g>
    </g>
    <g id="xtick_17">
     <g id="line2d_17">
      <g>
       <use style="stroke:#000000;stroke-width:0.8;" x="334.044545" xlink:href="#m00f2de1e9a" y="294.01"/>
      </g>
     </g>
     <g id="text_17">
      <!-- B26 -->
      <g transform="translate(336.80392 320.595937)rotate(-90)scale(0.1 -0.1)">
       <use xlink:href="#DejaVuSans-42"/>
       <use x="68.603516" xlink:href="#DejaVuSans-32"/>
       <use x="132.226562" xlink:href="#DejaVuSans-36"/>
      </g>
     </g>
    </g>
    <g id="xtick_18">
     <g id="line2d_18">
      <g>
       <use style="stroke:#000000;stroke-width:0.8;" x="352.530455" xlink:href="#m00f2de1e9a" y="294.01"/>
      </g>
     </g>
     <g id="text_18">
      <!-- B32 -->
      <g transform="translate(355.28983 320.595937)rotate(-90)scale(0.1 -0.1)">
       <use xlink:href="#DejaVuSans-42"/>
       <use x="68.603516" xlink:href="#DejaVuSans-33"/>
       <use x="132.226562" xlink:href="#DejaVuSans-32"/>
      </g>
     </g>
    </g>
    <g id="xtick_19">
     <g id="line2d_19">
      <g>
       <use style="stroke:#000000;stroke-width:0.8;" x="371.016364" xlink:href="#m00f2de1e9a" y="294.01"/>
      </g>
     </g>
     <g id="text_19">
      <!-- B38 -->
      <g transform="translate(373.775739 320.595937)rotate(-90)scale(0.1 -0.1)">
       <use xlink:href="#DejaVuSans-42"/>
       <use x="68.603516" xlink:href="#DejaVuSans-33"/>
       <use x="132.226562" xlink:href="#DejaVuSans-38"/>
      </g>
     </g>
    </g>
    <g id="xtick_20">
     <g id="line2d_20">
      <g>
       <use style="stroke:#000000;stroke-width:0.8;" x="389.502273" xlink:href="#m00f2de1e9a" y="294.01"/>
      </g>
     </g>
     <g id="text_20">
      <!-- B44 -->
      <g transform="translate(392.261648 320.595937)rotate(-90)scale(0.1 -0.1)">
       <use xlink:href="#DejaVuSans-42"/>
       <use x="68.603516" xlink:href="#DejaVuSans-34"/>
       <use x="132.226562" xlink:href="#DejaVuSans-34"/>
      </g>
     </g>
    </g>
    <g id="xtick_21">
     <g id="line2d_21">
      <g>
       <use style="stroke:#000000;stroke-width:0.8;" x="407.988182" xlink:href="#m00f2de1e9a" y="294.01"/>
      </g>
     </g>
     <g id="text_21">
      <!-- B50 -->
      <g transform="translate(410.747557 320.595937)rotate(-90)scale(0.1 -0.1)">
       <use xlink:href="#DejaVuSans-42"/>
       <use x="68.603516" xlink:href="#DejaVuSans-35"/>
       <use x="132.226562" xlink:href="#DejaVuSans-30"/>
      </g>
     </g>
    </g>
    <g id="xtick_22">
     <g id="line2d_22">
      <g>
       <use style="stroke:#000000;stroke-width:0.8;" x="426.474091" xlink:href="#m00f2de1e9a" y="294.01"/>
      </g>
     </g>
     <g id="text_22">
      <!-- B56 -->
      <g transform="translate(429.233466 320.595937)rotate(-90)scale(0.1 -0.1)">
       <use xlink:href="#DejaVuSans-42"/>
       <use x="68.603516" xlink:href="#DejaVuSans-35"/>
       <use x="132.226562" xlink:href="#DejaVuSans-36"/>
      </g>
     </g>
    </g>
    <g id="xtick_23">
     <g id="line2d_23">
      <g>
       <use style="stroke:#000000;stroke-width:0.8;" x="444.96" xlink:href="#m00f2de1e9a" y="294.01"/>
      </g>
     </g>
     <g id="text_23">
      <!-- B62 -->
      <g transform="translate(447.719375 320.595937)rotate(-90)scale(0.1 -0.1)">
       <use xlink:href="#DejaVuSans-42"/>
       <use x="68.603516" xlink:href="#DejaVuSans-36"/>
       <use x="132.226562" xlink:href="#DejaVuSans-32"/>
      </g>
     </g>
    </g>
    <g id="text_24">
     <!-- Residue index -->
     <defs>
      <path d="M 44.390625 34.1875 
Q 47.5625 33.109375 50.5625 29.59375 
Q 53.5625 26.078125 56.59375 19.921875 
L 66.609375 0 
L 56 0 
L 46.6875 18.703125 
Q 43.0625 26.03125 39.671875 28.421875 
Q 36.28125 30.8125 30.421875 30.8125 
L 19.671875 30.8125 
L 19.671875 0 
L 9.8125 0 
L 9.8125 72.90625 
L 32.078125 72.90625 
Q 44.578125 72.90625 50.734375 67.671875 
Q 56.890625 62.453125 56.890625 51.90625 
Q 56.890625 45.015625 53.6875 40.46875 
Q 50.484375 35.9375 44.390625 34.1875 
z
M 19.671875 64.796875 
L 19.671875 38.921875 
L 32.078125 38.921875 
Q 39.203125 38.921875 42.84375 42.21875 
Q 46.484375 45.515625 46.484375 51.90625 
Q 46.484375 58.296875 42.84375 61.546875 
Q 39.203125 64.796875 32.078125 64.796875 
z
" id="DejaVuSans-52"/>
      <path d="M 56.203125 29.59375 
L 56.203125 25.203125 
L 14.890625 25.203125 
Q 15.484375 15.921875 20.484375 11.0625 
Q 25.484375 6.203125 34.421875 6.203125 
Q 39.59375 6.203125 44.453125 7.46875 
Q 49.3125 8.734375 54.109375 11.28125 
L 54.109375 2.78125 
Q 49.265625 0.734375 44.1875 -0.34375 
Q 39.109375 -1.421875 33.890625 -1.421875 
Q 20.796875 -1.421875 13.15625 6.1875 
Q 5.515625 13.8125 5.515625 26.8125 
Q 5.515625 40.234375 12.765625 48.109375 
Q 20.015625 56 32.328125 56 
Q 43.359375 56 49.78125 48.890625 
Q 56.203125 41.796875 56.203125 29.59375 
z
M 47.21875 32.234375 
Q 47.125 39.59375 43.09375 43.984375 
Q 39.0625 48.390625 32.421875 48.390625 
Q 24.90625 48.390625 20.390625 44.140625 
Q 15.875 39.890625 15.1875 32.171875 
z
" id="DejaVuSans-65"/>
      <path d="M 44.28125 53.078125 
L 44.28125 44.578125 
Q 40.484375 46.53125 36.375 47.5 
Q 32.28125 48.484375 27.875 48.484375 
Q 21.1875 48.484375 17.84375 46.4375 
Q 14.5 44.390625 14.5 40.28125 
Q 14.5 37.15625 16.890625 35.375 
Q 19.28125 33.59375 26.515625 31.984375 
L 29.59375 31.296875 
Q 39.15625 29.25 43.1875 25.515625 
Q 47.21875 21.78125 47.21875 15.09375 
Q 47.21875 7.46875 41.1875 3.015625 
Q 35.15625 -1.421875 24.609375 -1.421875 
Q 20.21875 -1.421875 15.453125 -0.5625 
Q 10.6875 0.296875 5.421875 2 
L 5.421875 11.28125 
Q 10.40625 8.6875 15.234375 7.390625 
Q 20.0625 6.109375 24.8125 6.109375 
Q 31.15625 6.109375 34.5625 8.28125 
Q 37.984375 10.453125 37.984375 14.40625 
Q 37.984375 18.0625 35.515625 20.015625 
Q 33.0625 21.96875 24.703125 23.78125 
L 21.578125 24.515625 
Q 13.234375 26.265625 9.515625 29.90625 
Q 5.8125 33.546875 5.8125 39.890625 
Q 5.8125 47.609375 11.28125 51.796875 
Q 16.75 56 26.8125 56 
Q 31.78125 56 36.171875 55.265625 
Q 40.578125 54.546875 44.28125 53.078125 
z
" id="DejaVuSans-73"/>
      <path d="M 9.421875 54.6875 
L 18.40625 54.6875 
L 18.40625 0 
L 9.421875 0 
z
M 9.421875 75.984375 
L 18.40625 75.984375 
L 18.40625 64.59375 
L 9.421875 64.59375 
z
" id="DejaVuSans-69"/>
      <path d="M 45.40625 46.390625 
L 45.40625 75.984375 
L 54.390625 75.984375 
L 54.390625 0 
L 45.40625 0 
L 45.40625 8.203125 
Q 42.578125 3.328125 38.25 0.953125 
Q 33.9375 -1.421875 27.875 -1.421875 
Q 17.96875 -1.421875 11.734375 6.484375 
Q 5.515625 14.40625 5.515625 27.296875 
Q 5.515625 40.1875 11.734375 48.09375 
Q 17.96875 56 27.875 56 
Q 33.9375 56 38.25 53.625 
Q 42.578125 51.265625 45.40625 46.390625 
z
M 14.796875 27.296875 
Q 14.796875 17.390625 18.875 11.75 
Q 22.953125 6.109375 30.078125 6.109375 
Q 37.203125 6.109375 41.296875 11.75 
Q 45.40625 17.390625 45.40625 27.296875 
Q 45.40625 37.203125 41.296875 42.84375 
Q 37.203125 48.484375 30.078125 48.484375 
Q 22.953125 48.484375 18.875 42.84375 
Q 14.796875 37.203125 14.796875 27.296875 
z
" id="DejaVuSans-64"/>
      <path d="M 8.5 21.578125 
L 8.5 54.6875 
L 17.484375 54.6875 
L 17.484375 21.921875 
Q 17.484375 14.15625 20.5 10.265625 
Q 23.53125 6.390625 29.59375 6.390625 
Q 36.859375 6.390625 41.078125 11.03125 
Q 45.3125 15.671875 45.3125 23.6875 
L 45.3125 54.6875 
L 54.296875 54.6875 
L 54.296875 0 
L 45.3125 0 
L 45.3125 8.40625 
Q 42.046875 3.421875 37.71875 1 
Q 33.40625 -1.421875 27.6875 -1.421875 
Q 18.265625 -1.421875 13.375 4.4375 
Q 8.5 10.296875 8.5 21.578125 
z
M 31.109375 56 
z
" id="DejaVuSans-75"/>
      <path id="DejaVuSans-20"/>
      <path d="M 54.890625 33.015625 
L 54.890625 0 
L 45.90625 0 
L 45.90625 32.71875 
Q 45.90625 40.484375 42.875 44.328125 
Q 39.84375 48.1875 33.796875 48.1875 
Q 26.515625 48.1875 22.3125 43.546875 
Q 18.109375 38.921875 18.109375 30.90625 
L 18.109375 0 
L 9.078125 0 
L 9.078125 54.6875 
L 18.109375 54.6875 
L 18.109375 46.1875 
Q 21.34375 51.125 25.703125 53.5625 
Q 30.078125 56 35.796875 56 
Q 45.21875 56 50.046875 50.171875 
Q 54.890625 44.34375 54.890625 33.015625 
z
" id="DejaVuSans-6e"/>
      <path d="M 54.890625 54.6875 
L 35.109375 28.078125 
L 55.90625 0 
L 45.3125 0 
L 29.390625 21.484375 
L 13.484375 0 
L 2.875 0 
L 24.125 28.609375 
L 4.6875 54.6875 
L 15.28125 54.6875 
L 29.78125 35.203125 
L 44.28125 54.6875 
z
" id="DejaVuSans-78"/>
     </defs>
     <g transform="translate(206.297813 332.194375)scale(0.1 -0.1)">
      <use xlink:href="#DejaVuSans-52"/>
      <use x="69.419922" xlink:href="#DejaVuSans-65"/>
      <use x="130.943359" xlink:href="#DejaVuSans-73"/>
      <use x="183.042969" xlink:href="#DejaVuSans-69"/>
      <use x="210.826172" xlink:href="#DejaVuSans-64"/>
      <use x="274.302734" xlink:href="#DejaVuSans-75"/>
      <use x="337.681641" xlink:href="#DejaVuSans-65"/>
      <use x="399.205078" xlink:href="#DejaVuSans-20"/>
      <use x="430.992188" xlink:href="#DejaVuSans-69"/>
      <use x="458.775391" xlink:href="#DejaVuSans-6e"/>
      <use x="522.154297" xlink:href="#DejaVuSans-64"/>
      <use x="585.630859" xlink:href="#DejaVuSans-65"/>
      <use x="647.138672" xlink:href="#DejaVuSans-78"/>
     </g>
    </g>
   </g>
   <g id="matplotlib.axis_2">
    <g id="ytick_1">
     <g id="line2d_24">
      <defs>
       <path d="M 0 0 
L -3.5 0 
" id="m248ed4127b" style="stroke:#000000;stroke-width:0.8;"/>
      </defs>
      <g>
       <use style="stroke:#000000;stroke-width:0.8;" x="38.27" xlink:href="#m248ed4127b" y="266.945016"/>
      </g>
     </g>
     <g id="text_25">
      <!-- 3 -->
      <g transform="translate(24.9075 270.744235)scale(0.1 -0.1)">
       <use xlink:href="#DejaVuSans-33"/>
      </g>
     </g>
    </g>
    <g id="ytick_2">
     <g id="line2d_25">
      <g>
       <use style="stroke:#000000;stroke-width:0.8;" x="38.27" xlink:href="#m248ed4127b" y="222.660599"/>
      </g>
     </g>
     <g id="text_26">
      <!-- 4 -->
      <g transform="translate(24.9075 226.459818)scale(0.1 -0.1)">
       <use xlink:href="#DejaVuSans-34"/>
      </g>
     </g>
    </g>
    <g id="ytick_3">
     <g id="line2d_26">
      <g>
       <use style="stroke:#000000;stroke-width:0.8;" x="38.27" xlink:href="#m248ed4127b" y="178.376181"/>
      </g>
     </g>
     <g id="text_27">
      <!-- 5 -->
      <g transform="translate(24.9075 182.1754)scale(0.1 -0.1)">
       <use xlink:href="#DejaVuSans-35"/>
      </g>
     </g>
    </g>
    <g id="ytick_4">
     <g id="line2d_27">
      <g>
       <use style="stroke:#000000;stroke-width:0.8;" x="38.27" xlink:href="#m248ed4127b" y="134.091764"/>
      </g>
     </g>
     <g id="text_28">
      <!-- 6 -->
      <g transform="translate(24.9075 137.890983)scale(0.1 -0.1)">
       <use xlink:href="#DejaVuSans-36"/>
      </g>
     </g>
    </g>
    <g id="ytick_5">
     <g id="line2d_28">
      <g>
       <use style="stroke:#000000;stroke-width:0.8;" x="38.27" xlink:href="#m248ed4127b" y="89.807346"/>
      </g>
     </g>
     <g id="text_29">
      <!-- 7 -->
      <g transform="translate(24.9075 93.606565)scale(0.1 -0.1)">
       <use xlink:href="#DejaVuSans-37"/>
      </g>
     </g>
    </g>
    <g id="ytick_6">
     <g id="line2d_29">
      <g>
       <use style="stroke:#000000;stroke-width:0.8;" x="38.27" xlink:href="#m248ed4127b" y="45.522929"/>
      </g>
     </g>
     <g id="text_30">
      <!-- 8 -->
      <g transform="translate(24.9075 49.322148)scale(0.1 -0.1)">
       <use xlink:href="#DejaVuSans-38"/>
      </g>
     </g>
    </g>
    <g id="text_31">
     <!-- RMSF -->
     <defs>
      <path d="M 9.8125 72.90625 
L 24.515625 72.90625 
L 43.109375 23.296875 
L 61.8125 72.90625 
L 76.515625 72.90625 
L 76.515625 0 
L 66.890625 0 
L 66.890625 64.015625 
L 48.09375 14.015625 
L 38.1875 14.015625 
L 19.390625 64.015625 
L 19.390625 0 
L 9.8125 0 
z
" id="DejaVuSans-4d"/>
      <path d="M 53.515625 70.515625 
L 53.515625 60.890625 
Q 47.90625 63.578125 42.921875 64.890625 
Q 37.9375 66.21875 33.296875 66.21875 
Q 25.25 66.21875 20.875 63.09375 
Q 16.5 59.96875 16.5 54.203125 
Q 16.5 49.359375 19.40625 46.890625 
Q 22.3125 44.4375 30.421875 42.921875 
L 36.375 41.703125 
Q 47.40625 39.59375 52.65625 34.296875 
Q 57.90625 29 57.90625 20.125 
Q 57.90625 9.515625 50.796875 4.046875 
Q 43.703125 -1.421875 29.984375 -1.421875 
Q 24.8125 -1.421875 18.96875 -0.25 
Q 13.140625 0.921875 6.890625 3.21875 
L 6.890625 13.375 
Q 12.890625 10.015625 18.65625 8.296875 
Q 24.421875 6.59375 29.984375 6.59375 
Q 38.421875 6.59375 43.015625 9.90625 
Q 47.609375 13.234375 47.609375 19.390625 
Q 47.609375 24.75 44.3125 27.78125 
Q 41.015625 30.8125 33.5 32.328125 
L 27.484375 33.5 
Q 16.453125 35.6875 11.515625 40.375 
Q 6.59375 45.0625 6.59375 53.421875 
Q 6.59375 63.09375 13.40625 68.65625 
Q 20.21875 74.21875 32.171875 74.21875 
Q 37.3125 74.21875 42.625 73.28125 
Q 47.953125 72.359375 53.515625 70.515625 
z
" id="DejaVuSans-53"/>
      <path d="M 9.8125 72.90625 
L 51.703125 72.90625 
L 51.703125 64.59375 
L 19.671875 64.59375 
L 19.671875 43.109375 
L 48.578125 43.109375 
L 48.578125 34.8125 
L 19.671875 34.8125 
L 19.671875 0 
L 9.8125 0 
z
" id="DejaVuSans-46"/>
     </defs>
     <g transform="translate(18.827813 167.503281)rotate(-90)scale(0.1 -0.1)">
      <use xlink:href="#DejaVuSans-52"/>
      <use x="69.482422" xlink:href="#DejaVuSans-4d"/>
      <use x="155.761719" xlink:href="#DejaVuSans-53"/>
      <use x="219.238281" xlink:href="#DejaVuSans-46"/>
     </g>
    </g>
   </g>
   <g id="line2d_30">
    <path clip-path="url(#p9244a63ab8)" d="M 38.27 180.521954 
L 41.350985 241.257184 
L 44.43197 260.788142 
L 47.512955 267.318662 
L 50.593939 274.409847 
L 53.674924 272.384806 
L 56.755909 268.717641 
L 59.836894 281.251364 
L 62.917879 264.892571 
L 65.998864 211.732538 
L 69.079848 146.583766 
L 72.160833 157.15343 
L 75.241818 165.592985 
L 78.322803 199.271443 
L 81.403788 245.072933 
L 84.484773 272.053554 
L 87.565758 267.0777 
L 90.646742 265.515972 
L 93.727727 263.205721 
L 96.808712 217.702562 
L 99.889697 221.387925 
L 102.970682 207.587576 
L 106.051667 182.462955 
L 109.132652 148.689446 
L 112.213636 171.996013 
L 115.294621 152.477095 
L 118.375606 188.351802 
L 121.456591 192.59495 
L 124.537576 185.383273 
L 127.618561 200.140626 
L 130.699545 250.685796 
L 133.78053 248.058487 
L 136.861515 251.585716 
L 139.9425 249.056962 
L 143.023485 239.242923 
L 146.10447 240.717581 
L 149.185455 224.742324 
L 152.266439 219.615763 
L 155.347424 233.055054 
L 158.428409 261.370496 
L 161.509394 264.631616 
L 164.590379 265.577809 
L 167.671364 266.125116 
L 170.752348 257.595891 
L 173.833333 260.959568 
L 176.914318 269.253846 
L 179.995303 264.647809 
L 183.076288 252.328684 
L 186.157273 265.300311 
L 189.238258 268.473714 
L 192.319242 252.380296 
L 195.400227 243.375284 
L 198.481212 242.629026 
L 201.562197 212.726943 
L 204.643182 214.397099 
L 207.724167 174.570736 
L 210.805152 194.885988 
L 213.886136 195.554652 
L 216.967121 231.840835 
L 220.048106 243.890057 
L 223.129091 217.852884 
L 226.210076 217.713225 
L 229.291061 227.991859 
L 232.372045 242.949484 
L 235.45303 230.352248 
L 238.534015 237.678815 
L 241.615 226.96014 
L 244.695985 221.263041 
L 247.77697 201.688162 
L 250.857955 172.480184 
L 253.938939 127.940012 
L 257.019924 26.078636 
L 260.100909 29.756024 
L 263.181894 38.784971 
L 266.262879 80.735126 
L 269.343864 46.040111 
L 272.424848 49.816055 
L 275.505833 35.788132 
L 278.586818 130.667719 
L 281.667803 163.917695 
L 284.748788 158.92847 
L 287.829773 145.982626 
L 293.991742 184.934616 
L 297.072727 172.925626 
L 300.153712 166.08499 
L 303.234697 185.014692 
L 306.315682 191.015512 
L 309.396667 174.994657 
L 312.477652 179.639209 
L 315.558636 200.852264 
L 318.639621 195.268194 
L 321.720606 183.28806 
L 324.801591 196.645984 
L 327.882576 207.977884 
L 330.963561 191.146911 
L 334.044545 182.97913 
L 337.12553 194.044616 
L 340.206515 195.01975 
L 343.2875 166.901488 
L 346.368485 146.837434 
L 349.44947 156.007374 
L 352.530455 141.960211 
L 355.611439 120.774674 
L 358.692424 105.970557 
L 361.773409 107.515871 
L 364.854394 83.591033 
L 367.935379 96.591289 
L 371.016364 130.389474 
L 374.097348 112.823274 
L 377.178333 98.436781 
L 380.259318 126.238537 
L 383.340303 137.984069 
L 386.421288 105.097214 
L 389.502273 101.140733 
L 392.583258 131.884065 
L 395.664242 122.713432 
L 398.745227 93.154155 
L 401.826212 105.403861 
L 404.907197 133.890448 
L 407.988182 100.305847 
L 411.069167 82.19971 
L 414.150152 114.848897 
L 417.231136 119.874575 
L 420.312121 79.534931 
L 423.393106 85.026613 
L 426.474091 95.15235 
L 429.555076 116.179468 
L 432.636061 131.159821 
L 435.717045 123.458611 
L 438.79803 114.12203 
L 441.879015 83.833335 
L 444.96 33.583421 
L 444.96 33.583421 
" style="fill:none;stroke:#666666;stroke-dasharray:1,1.65;stroke-dashoffset:0;"/>
    <defs>
     <path d="M 0 0.5 
C 0.132602 0.5 0.25979 0.447317 0.353553 0.353553 
C 0.447317 0.25979 0.5 0.132602 0.5 0 
C 0.5 -0.132602 0.447317 -0.25979 0.353553 -0.353553 
C 0.25979 -0.447317 0.132602 -0.5 0 -0.5 
C -0.132602 -0.5 -0.25979 -0.447317 -0.353553 -0.353553 
C -0.447317 -0.25979 -0.5 -0.132602 -0.5 0 
C -0.5 0.132602 -0.447317 0.25979 -0.353553 0.353553 
C -0.25979 0.447317 -0.132602 0.5 0 0.5 
z
" id="mc264cf3a34" style="stroke:#666666;"/>
    </defs>
    <g clip-path="url(#p9244a63ab8)">
     <use style="fill:#666666;stroke:#666666;" x="38.27" xlink:href="#mc264cf3a34" y="180.521954"/>
     <use style="fill:#666666;stroke:#666666;" x="41.350985" xlink:href="#mc264cf3a34" y="241.257184"/>
     <use style="fill:#666666;stroke:#666666;" x="44.43197" xlink:href="#mc264cf3a34" y="260.788142"/>
     <use style="fill:#666666;stroke:#666666;" x="47.512955" xlink:href="#mc264cf3a34" y="267.318662"/>
     <use style="fill:#666666;stroke:#666666;" x="50.593939" xlink:href="#mc264cf3a34" y="274.409847"/>
     <use style="fill:#666666;stroke:#666666;" x="53.674924" xlink:href="#mc264cf3a34" y="272.384806"/>
     <use style="fill:#666666;stroke:#666666;" x="56.755909" xlink:href="#mc264cf3a34" y="268.717641"/>
     <use style="fill:#666666;stroke:#666666;" x="59.836894" xlink:href="#mc264cf3a34" y="281.251364"/>
     <use style="fill:#666666;stroke:#666666;" x="62.917879" xlink:href="#mc264cf3a34" y="264.892571"/>
     <use style="fill:#666666;stroke:#666666;" x="65.998864" xlink:href="#mc264cf3a34" y="211.732538"/>
     <use style="fill:#666666;stroke:#666666;" x="69.079848" xlink:href="#mc264cf3a34" y="146.583766"/>
     <use style="fill:#666666;stroke:#666666;" x="72.160833" xlink:href="#mc264cf3a34" y="157.15343"/>
     <use style="fill:#666666;stroke:#666666;" x="75.241818" xlink:href="#mc264cf3a34" y="165.592985"/>
     <use style="fill:#666666;stroke:#666666;" x="78.322803" xlink:href="#mc264cf3a34" y="199.271443"/>
     <use style="fill:#666666;stroke:#666666;" x="81.403788" xlink:href="#mc264cf3a34" y="245.072933"/>
     <use style="fill:#666666;stroke:#666666;" x="84.484773" xlink:href="#mc264cf3a34" y="272.053554"/>
     <use style="fill:#666666;stroke:#666666;" x="87.565758" xlink:href="#mc264cf3a34" y="267.0777"/>
     <use style="fill:#666666;stroke:#666666;" x="90.646742" xlink:href="#mc264cf3a34" y="265.515972"/>
     <use style="fill:#666666;stroke:#666666;" x="93.727727" xlink:href="#mc264cf3a34" y="263.205721"/>
     <use style="fill:#666666;stroke:#666666;" x="96.808712" xlink:href="#mc264cf3a34" y="217.702562"/>
     <use style="fill:#666666;stroke:#666666;" x="99.889697" xlink:href="#mc264cf3a34" y="221.387925"/>
     <use style="fill:#666666;stroke:#666666;" x="102.970682" xlink:href="#mc264cf3a34" y="207.587576"/>
     <use style="fill:#666666;stroke:#666666;" x="106.051667" xlink:href="#mc264cf3a34" y="182.462955"/>
     <use style="fill:#666666;stroke:#666666;" x="109.132652" xlink:href="#mc264cf3a34" y="148.689446"/>
     <use style="fill:#666666;stroke:#666666;" x="112.213636" xlink:href="#mc264cf3a34" y="171.996013"/>
     <use style="fill:#666666;stroke:#666666;" x="115.294621" xlink:href="#mc264cf3a34" y="152.477095"/>
     <use style="fill:#666666;stroke:#666666;" x="118.375606" xlink:href="#mc264cf3a34" y="188.351802"/>
     <use style="fill:#666666;stroke:#666666;" x="121.456591" xlink:href="#mc264cf3a34" y="192.59495"/>
     <use style="fill:#666666;stroke:#666666;" x="124.537576" xlink:href="#mc264cf3a34" y="185.383273"/>
     <use style="fill:#666666;stroke:#666666;" x="127.618561" xlink:href="#mc264cf3a34" y="200.140626"/>
     <use style="fill:#666666;stroke:#666666;" x="130.699545" xlink:href="#mc264cf3a34" y="250.685796"/>
     <use style="fill:#666666;stroke:#666666;" x="133.78053" xlink:href="#mc264cf3a34" y="248.058487"/>
     <use style="fill:#666666;stroke:#666666;" x="136.861515" xlink:href="#mc264cf3a34" y="251.585716"/>
     <use style="fill:#666666;stroke:#666666;" x="139.9425" xlink:href="#mc264cf3a34" y="249.056962"/>
     <use style="fill:#666666;stroke:#666666;" x="143.023485" xlink:href="#mc264cf3a34" y="239.242923"/>
     <use style="fill:#666666;stroke:#666666;" x="146.10447" xlink:href="#mc264cf3a34" y="240.717581"/>
     <use style="fill:#666666;stroke:#666666;" x="149.185455" xlink:href="#mc264cf3a34" y="224.742324"/>
     <use style="fill:#666666;stroke:#666666;" x="152.266439" xlink:href="#mc264cf3a34" y="219.615763"/>
     <use style="fill:#666666;stroke:#666666;" x="155.347424" xlink:href="#mc264cf3a34" y="233.055054"/>
     <use style="fill:#666666;stroke:#666666;" x="158.428409" xlink:href="#mc264cf3a34" y="261.370496"/>
     <use style="fill:#666666;stroke:#666666;" x="161.509394" xlink:href="#mc264cf3a34" y="264.631616"/>
     <use style="fill:#666666;stroke:#666666;" x="164.590379" xlink:href="#mc264cf3a34" y="265.577809"/>
     <use style="fill:#666666;stroke:#666666;" x="167.671364" xlink:href="#mc264cf3a34" y="266.125116"/>
     <use style="fill:#666666;stroke:#666666;" x="170.752348" xlink:href="#mc264cf3a34" y="257.595891"/>
     <use style="fill:#666666;stroke:#666666;" x="173.833333" xlink:href="#mc264cf3a34" y="260.959568"/>
     <use style="fill:#666666;stroke:#666666;" x="176.914318" xlink:href="#mc264cf3a34" y="269.253846"/>
     <use style="fill:#666666;stroke:#666666;" x="179.995303" xlink:href="#mc264cf3a34" y="264.647809"/>
     <use style="fill:#666666;stroke:#666666;" x="183.076288" xlink:href="#mc264cf3a34" y="252.328684"/>
     <use style="fill:#666666;stroke:#666666;" x="186.157273" xlink:href="#mc264cf3a34" y="265.300311"/>
     <use style="fill:#666666;stroke:#666666;" x="189.238258" xlink:href="#mc264cf3a34" y="268.473714"/>
     <use style="fill:#666666;stroke:#666666;" x="192.319242" xlink:href="#mc264cf3a34" y="252.380296"/>
     <use style="fill:#666666;stroke:#666666;" x="195.400227" xlink:href="#mc264cf3a34" y="243.375284"/>
     <use style="fill:#666666;stroke:#666666;" x="198.481212" xlink:href="#mc264cf3a34" y="242.629026"/>
     <use style="fill:#666666;stroke:#666666;" x="201.562197" xlink:href="#mc264cf3a34" y="212.726943"/>
     <use style="fill:#666666;stroke:#666666;" x="204.643182" xlink:href="#mc264cf3a34" y="214.397099"/>
     <use style="fill:#666666;stroke:#666666;" x="207.724167" xlink:href="#mc264cf3a34" y="174.570736"/>
     <use style="fill:#666666;stroke:#666666;" x="210.805152" xlink:href="#mc264cf3a34" y="194.885988"/>
     <use style="fill:#666666;stroke:#666666;" x="213.886136" xlink:href="#mc264cf3a34" y="195.554652"/>
     <use style="fill:#666666;stroke:#666666;" x="216.967121" xlink:href="#mc264cf3a34" y="231.840835"/>
     <use style="fill:#666666;stroke:#666666;" x="220.048106" xlink:href="#mc264cf3a34" y="243.890057"/>
     <use style="fill:#666666;stroke:#666666;" x="223.129091" xlink:href="#mc264cf3a34" y="217.852884"/>
     <use style="fill:#666666;stroke:#666666;" x="226.210076" xlink:href="#mc264cf3a34" y="217.713225"/>
     <use style="fill:#666666;stroke:#666666;" x="229.291061" xlink:href="#mc264cf3a34" y="227.991859"/>
     <use style="fill:#666666;stroke:#666666;" x="232.372045" xlink:href="#mc264cf3a34" y="242.949484"/>
     <use style="fill:#666666;stroke:#666666;" x="235.45303" xlink:href="#mc264cf3a34" y="230.352248"/>
     <use style="fill:#666666;stroke:#666666;" x="238.534015" xlink:href="#mc264cf3a34" y="237.678815"/>
     <use style="fill:#666666;stroke:#666666;" x="241.615" xlink:href="#mc264cf3a34" y="226.96014"/>
     <use style="fill:#666666;stroke:#666666;" x="244.695985" xlink:href="#mc264cf3a34" y="221.263041"/>
     <use style="fill:#666666;stroke:#666666;" x="247.77697" xlink:href="#mc264cf3a34" y="201.688162"/>
     <use style="fill:#666666;stroke:#666666;" x="250.857955" xlink:href="#mc264cf3a34" y="172.480184"/>
     <use style="fill:#666666;stroke:#666666;" x="253.938939" xlink:href="#mc264cf3a34" y="127.940012"/>
     <use style="fill:#666666;stroke:#666666;" x="257.019924" xlink:href="#mc264cf3a34" y="26.078636"/>
     <use style="fill:#666666;stroke:#666666;" x="260.100909" xlink:href="#mc264cf3a34" y="29.756024"/>
     <use style="fill:#666666;stroke:#666666;" x="263.181894" xlink:href="#mc264cf3a34" y="38.784971"/>
     <use style="fill:#666666;stroke:#666666;" x="266.262879" xlink:href="#mc264cf3a34" y="80.735126"/>
     <use style="fill:#666666;stroke:#666666;" x="269.343864" xlink:href="#mc264cf3a34" y="46.040111"/>
     <use style="fill:#666666;stroke:#666666;" x="272.424848" xlink:href="#mc264cf3a34" y="49.816055"/>
     <use style="fill:#666666;stroke:#666666;" x="275.505833" xlink:href="#mc264cf3a34" y="35.788132"/>
     <use style="fill:#666666;stroke:#666666;" x="278.586818" xlink:href="#mc264cf3a34" y="130.667719"/>
     <use style="fill:#666666;stroke:#666666;" x="281.667803" xlink:href="#mc264cf3a34" y="163.917695"/>
     <use style="fill:#666666;stroke:#666666;" x="284.748788" xlink:href="#mc264cf3a34" y="158.92847"/>
     <use style="fill:#666666;stroke:#666666;" x="287.829773" xlink:href="#mc264cf3a34" y="145.982626"/>
     <use style="fill:#666666;stroke:#666666;" x="290.910758" xlink:href="#mc264cf3a34" y="165.234303"/>
     <use style="fill:#666666;stroke:#666666;" x="293.991742" xlink:href="#mc264cf3a34" y="184.934616"/>
     <use style="fill:#666666;stroke:#666666;" x="297.072727" xlink:href="#mc264cf3a34" y="172.925626"/>
     <use style="fill:#666666;stroke:#666666;" x="300.153712" xlink:href="#mc264cf3a34" y="166.08499"/>
     <use style="fill:#666666;stroke:#666666;" x="303.234697" xlink:href="#mc264cf3a34" y="185.014692"/>
     <use style="fill:#666666;stroke:#666666;" x="306.315682" xlink:href="#mc264cf3a34" y="191.015512"/>
     <use style="fill:#666666;stroke:#666666;" x="309.396667" xlink:href="#mc264cf3a34" y="174.994657"/>
     <use style="fill:#666666;stroke:#666666;" x="312.477652" xlink:href="#mc264cf3a34" y="179.639209"/>
     <use style="fill:#666666;stroke:#666666;" x="315.558636" xlink:href="#mc264cf3a34" y="200.852264"/>
     <use style="fill:#666666;stroke:#666666;" x="318.639621" xlink:href="#mc264cf3a34" y="195.268194"/>
     <use style="fill:#666666;stroke:#666666;" x="321.720606" xlink:href="#mc264cf3a34" y="183.28806"/>
     <use style="fill:#666666;stroke:#666666;" x="324.801591" xlink:href="#mc264cf3a34" y="196.645984"/>
     <use style="fill:#666666;stroke:#666666;" x="327.882576" xlink:href="#mc264cf3a34" y="207.977884"/>
     <use style="fill:#666666;stroke:#666666;" x="330.963561" xlink:href="#mc264cf3a34" y="191.146911"/>
     <use style="fill:#666666;stroke:#666666;" x="334.044545" xlink:href="#mc264cf3a34" y="182.97913"/>
     <use style="fill:#666666;stroke:#666666;" x="337.12553" xlink:href="#mc264cf3a34" y="194.044616"/>
     <use style="fill:#666666;stroke:#666666;" x="340.206515" xlink:href="#mc264cf3a34" y="195.01975"/>
     <use style="fill:#666666;stroke:#666666;" x="343.2875" xlink:href="#mc264cf3a34" y="166.901488"/>
     <use style="fill:#666666;stroke:#666666;" x="346.368485" xlink:href="#mc264cf3a34" y="146.837434"/>
     <use style="fill:#666666;stroke:#666666;" x="349.44947" xlink:href="#mc264cf3a34" y="156.007374"/>
     <use style="fill:#666666;stroke:#666666;" x="352.530455" xlink:href="#mc264cf3a34" y="141.960211"/>
     <use style="fill:#666666;stroke:#666666;" x="355.611439" xlink:href="#mc264cf3a34" y="120.774674"/>
     <use style="fill:#666666;stroke:#666666;" x="358.692424" xlink:href="#mc264cf3a34" y="105.970557"/>
     <use style="fill:#666666;stroke:#666666;" x="361.773409" xlink:href="#mc264cf3a34" y="107.515871"/>
     <use style="fill:#666666;stroke:#666666;" x="364.854394" xlink:href="#mc264cf3a34" y="83.591033"/>
     <use style="fill:#666666;stroke:#666666;" x="367.935379" xlink:href="#mc264cf3a34" y="96.591289"/>
     <use style="fill:#666666;stroke:#666666;" x="371.016364" xlink:href="#mc264cf3a34" y="130.389474"/>
     <use style="fill:#666666;stroke:#666666;" x="374.097348" xlink:href="#mc264cf3a34" y="112.823274"/>
     <use style="fill:#666666;stroke:#666666;" x="377.178333" xlink:href="#mc264cf3a34" y="98.436781"/>
     <use style="fill:#666666;stroke:#666666;" x="380.259318" xlink:href="#mc264cf3a34" y="126.238537"/>
     <use style="fill:#666666;stroke:#666666;" x="383.340303" xlink:href="#mc264cf3a34" y="137.984069"/>
     <use style="fill:#666666;stroke:#666666;" x="386.421288" xlink:href="#mc264cf3a34" y="105.097214"/>
     <use style="fill:#666666;stroke:#666666;" x="389.502273" xlink:href="#mc264cf3a34" y="101.140733"/>
     <use style="fill:#666666;stroke:#666666;" x="392.583258" xlink:href="#mc264cf3a34" y="131.884065"/>
     <use style="fill:#666666;stroke:#666666;" x="395.664242" xlink:href="#mc264cf3a34" y="122.713432"/>
     <use style="fill:#666666;stroke:#666666;" x="398.745227" xlink:href="#mc264cf3a34" y="93.154155"/>
     <use style="fill:#666666;stroke:#666666;" x="401.826212" xlink:href="#mc264cf3a34" y="105.403861"/>
     <use style="fill:#666666;stroke:#666666;" x="404.907197" xlink:href="#mc264cf3a34" y="133.890448"/>
     <use style="fill:#666666;stroke:#666666;" x="407.988182" xlink:href="#mc264cf3a34" y="100.305847"/>
     <use style="fill:#666666;stroke:#666666;" x="411.069167" xlink:href="#mc264cf3a34" y="82.19971"/>
     <use style="fill:#666666;stroke:#666666;" x="414.150152" xlink:href="#mc264cf3a34" y="114.848897"/>
     <use style="fill:#666666;stroke:#666666;" x="417.231136" xlink:href="#mc264cf3a34" y="119.874575"/>
     <use style="fill:#666666;stroke:#666666;" x="420.312121" xlink:href="#mc264cf3a34" y="79.534931"/>
     <use style="fill:#666666;stroke:#666666;" x="423.393106" xlink:href="#mc264cf3a34" y="85.026613"/>
     <use style="fill:#666666;stroke:#666666;" x="426.474091" xlink:href="#mc264cf3a34" y="95.15235"/>
     <use style="fill:#666666;stroke:#666666;" x="429.555076" xlink:href="#mc264cf3a34" y="116.179468"/>
     <use style="fill:#666666;stroke:#666666;" x="432.636061" xlink:href="#mc264cf3a34" y="131.159821"/>
     <use style="fill:#666666;stroke:#666666;" x="435.717045" xlink:href="#mc264cf3a34" y="123.458611"/>
     <use style="fill:#666666;stroke:#666666;" x="438.79803" xlink:href="#mc264cf3a34" y="114.12203"/>
     <use style="fill:#666666;stroke:#666666;" x="441.879015" xlink:href="#mc264cf3a34" y="83.833335"/>
     <use style="fill:#666666;stroke:#666666;" x="444.96" xlink:href="#mc264cf3a34" y="33.583421"/>
    </g>
   </g>
   <g id="patch_3">
    <path d="M 38.27 294.01 
L 38.27 13.32 
" style="fill:none;stroke:#000000;stroke-linecap:square;stroke-linejoin:miter;stroke-width:0.8;"/>
   </g>
   <g id="patch_4">
    <path d="M 444.96 294.01 
L 444.96 13.32 
" style="fill:none;stroke:#000000;stroke-linecap:square;stroke-linejoin:miter;stroke-width:0.8;"/>
   </g>
   <g id="patch_5">
    <path d="M 38.27 294.01 
L 444.96 294.01 
" style="fill:none;stroke:#000000;stroke-linecap:square;stroke-linejoin:miter;stroke-width:0.8;"/>
   </g>
   <g id="patch_6">
    <path d="M 38.27 13.32 
L 444.96 13.32 
" style="fill:none;stroke:#000000;stroke-linecap:square;stroke-linejoin:miter;stroke-width:0.8;"/>
   </g>
  </g>
 </g>
 <defs>
  <clipPath id="p9244a63ab8">
   <rect height="280.69" width="406.69" x="38.27" y="13.32"/>
  </clipPath>
 </defs>
</svg>
