<?xml version="1.0" encoding="utf-8" standalone="no"?>
<!DOCTYPE svg PUBLIC "-//W3C//DTD SVG 1.1//EN"
  "http://www.w3.org/Graphics/SVG/1.1/DTD/svg11.dtd">
<!-- Created with matplotlib (http://matplotlib.org/) -->
<svg height="345.6pt" version="1.1" viewBox="0 0 460.8 345.6" width="460.8pt" xmlns="http://www.w3.org/2000/svg" xmlns:xlink="http://www.w3.org/1999/xlink">
 <defs>
  <style type="text/css">
*{stroke-linecap:butt;stroke-linejoin:round;}
  </style>
 </defs>
 <g id="figure_1">
  <g id="patch_1">
   <path d="M 0 345.6 
L 460.8 345.6 
L 460.8 0 
L 0 0 
z
" style="fill:#ffffff;"/>
  </g>
  <g id="axes_1">
   <g id="patch_2">
    <path d="M 44.57 294.01 
L 447.48 294.01 
L 447.48 13.32 
L 44.57 13.32 
z
" style="fill:#ffffff;"/>
   </g>
   <g id="matplotlib.axis_1">
    <g id="xtick_1">
     <g id="line2d_1">
      <defs>
       <path d="M 0 0 
L 0 3.5 
" id="md56162f9d2" style="stroke:#000000;stroke-width:0.8;"/>
      </defs>
      <g>
       <use style="stroke:#000000;stroke-width:0.8;" x="44.57" xlink:href="#md56162f9d2" y="294.01"/>
      </g>
     </g>
     <g id="text_1">
      <!-- A1 -->
      <defs>
       <path d="M 34.1875 63.1875 
L 20.796875 26.90625 
L 47.609375 26.90625 
z
M 28.609375 72.90625 
L 39.796875 72.90625 
L 67.578125 0 
L 57.328125 0 
L 50.6875 18.703125 
L 17.828125 18.703125 
L 11.1875 0 
L 0.78125 0 
z
" id="DejaVuSans-41"/>
       <path d="M 12.40625 8.296875 
L 28.515625 8.296875 
L 28.515625 63.921875 
L 10.984375 60.40625 
L 10.984375 69.390625 
L 28.421875 72.90625 
L 38.28125 72.90625 
L 38.28125 8.296875 
L 54.390625 8.296875 
L 54.390625 0 
L 12.40625 0 
z
" id="DejaVuSans-31"/>
      </defs>
      <g transform="translate(47.329375 314.213125)rotate(-90)scale(0.1 -0.1)">
       <use xlink:href="#DejaVuSans-41"/>
       <use x="68.408203" xlink:href="#DejaVuSans-31"/>
      </g>
     </g>
    </g>
    <g id="xtick_2">
     <g id="line2d_2">
      <g>
       <use style="stroke:#000000;stroke-width:0.8;" x="62.345441" xlink:href="#md56162f9d2" y="294.01"/>
      </g>
     </g>
     <g id="text_2">
      <!-- A7 -->
      <defs>
       <path d="M 8.203125 72.90625 
L 55.078125 72.90625 
L 55.078125 68.703125 
L 28.609375 0 
L 18.3125 0 
L 43.21875 64.59375 
L 8.203125 64.59375 
z
" id="DejaVuSans-37"/>
      </defs>
      <g transform="translate(65.104816 314.213125)rotate(-90)scale(0.1 -0.1)">
       <use xlink:href="#DejaVuSans-41"/>
       <use x="68.408203" xlink:href="#DejaVuSans-37"/>
      </g>
     </g>
    </g>
    <g id="xtick_3">
     <g id="line2d_3">
      <g>
       <use style="stroke:#000000;stroke-width:0.8;" x="80.120882" xlink:href="#md56162f9d2" y="294.01"/>
      </g>
     </g>
     <g id="text_3">
      <!-- A13 -->
      <defs>
       <path d="M 40.578125 39.3125 
Q 47.65625 37.796875 51.625 33 
Q 55.609375 28.21875 55.609375 21.1875 
Q 55.609375 10.40625 48.1875 4.484375 
Q 40.765625 -1.421875 27.09375 -1.421875 
Q 22.515625 -1.421875 17.65625 -0.515625 
Q 12.796875 0.390625 7.625 2.203125 
L 7.625 11.71875 
Q 11.71875 9.328125 16.59375 8.109375 
Q 21.484375 6.890625 26.8125 6.890625 
Q 36.078125 6.890625 40.9375 10.546875 
Q 45.796875 14.203125 45.796875 21.1875 
Q 45.796875 27.640625 41.28125 31.265625 
Q 36.765625 34.90625 28.71875 34.90625 
L 20.21875 34.90625 
L 20.21875 43.015625 
L 29.109375 43.015625 
Q 36.375 43.015625 40.234375 45.921875 
Q 44.09375 48.828125 44.09375 54.296875 
Q 44.09375 59.90625 40.109375 62.90625 
Q 36.140625 65.921875 28.71875 65.921875 
Q 24.65625 65.921875 20.015625 65.03125 
Q 15.375 64.15625 9.8125 62.3125 
L 9.8125 71.09375 
Q 15.4375 72.65625 20.34375 73.4375 
Q 25.25 74.21875 29.59375 74.21875 
Q 40.828125 74.21875 47.359375 69.109375 
Q 53.90625 64.015625 53.90625 55.328125 
Q 53.90625 49.265625 50.4375 45.09375 
Q 46.96875 40.921875 40.578125 39.3125 
z
" id="DejaVuSans-33"/>
      </defs>
      <g transform="translate(82.880257 320.575625)rotate(-90)scale(0.1 -0.1)">
       <use xlink:href="#DejaVuSans-41"/>
       <use x="68.408203" xlink:href="#DejaVuSans-31"/>
       <use x="132.03125" xlink:href="#DejaVuSans-33"/>
      </g>
     </g>
    </g>
    <g id="xtick_4">
     <g id="line2d_4">
      <g>
       <use style="stroke:#000000;stroke-width:0.8;" x="97.896324" xlink:href="#md56162f9d2" y="294.01"/>
      </g>
     </g>
     <g id="text_4">
      <!-- A19 -->
      <defs>
       <path d="M 10.984375 1.515625 
L 10.984375 10.5 
Q 14.703125 8.734375 18.5 7.8125 
Q 22.3125 6.890625 25.984375 6.890625 
Q 35.75 6.890625 40.890625 13.453125 
Q 46.046875 20.015625 46.78125 33.40625 
Q 43.953125 29.203125 39.59375 26.953125 
Q 35.25 24.703125 29.984375 24.703125 
Q 19.046875 24.703125 12.671875 31.3125 
Q 6.296875 37.9375 6.296875 49.421875 
Q 6.296875 60.640625 12.9375 67.421875 
Q 19.578125 74.21875 30.609375 74.21875 
Q 43.265625 74.21875 49.921875 64.515625 
Q 56.59375 54.828125 56.59375 36.375 
Q 56.59375 19.140625 48.40625 8.859375 
Q 40.234375 -1.421875 26.421875 -1.421875 
Q 22.703125 -1.421875 18.890625 -0.6875 
Q 15.09375 0.046875 10.984375 1.515625 
z
M 30.609375 32.421875 
Q 37.25 32.421875 41.125 36.953125 
Q 45.015625 41.5 45.015625 49.421875 
Q 45.015625 57.28125 41.125 61.84375 
Q 37.25 66.40625 30.609375 66.40625 
Q 23.96875 66.40625 20.09375 61.84375 
Q 16.21875 57.28125 16.21875 49.421875 
Q 16.21875 41.5 20.09375 36.953125 
Q 23.96875 32.421875 30.609375 32.421875 
z
" id="DejaVuSans-39"/>
      </defs>
      <g transform="translate(100.655699 320.575625)rotate(-90)scale(0.1 -0.1)">
       <use xlink:href="#DejaVuSans-41"/>
       <use x="68.408203" xlink:href="#DejaVuSans-31"/>
       <use x="132.03125" xlink:href="#DejaVuSans-39"/>
      </g>
     </g>
    </g>
    <g id="xtick_5">
     <g id="line2d_5">
      <g>
       <use style="stroke:#000000;stroke-width:0.8;" x="115.671765" xlink:href="#md56162f9d2" y="294.01"/>
      </g>
     </g>
     <g id="text_5">
      <!-- A25 -->
      <defs>
       <path d="M 19.1875 8.296875 
L 53.609375 8.296875 
L 53.609375 0 
L 7.328125 0 
L 7.328125 8.296875 
Q 12.9375 14.109375 22.625 23.890625 
Q 32.328125 33.6875 34.8125 36.53125 
Q 39.546875 41.84375 41.421875 45.53125 
Q 43.3125 49.21875 43.3125 52.78125 
Q 43.3125 58.59375 39.234375 62.25 
Q 35.15625 65.921875 28.609375 65.921875 
Q 23.96875 65.921875 18.8125 64.3125 
Q 13.671875 62.703125 7.8125 59.421875 
L 7.8125 69.390625 
Q 13.765625 71.78125 18.9375 73 
Q 24.125 74.21875 28.421875 74.21875 
Q 39.75 74.21875 46.484375 68.546875 
Q 53.21875 62.890625 53.21875 53.421875 
Q 53.21875 48.921875 51.53125 44.890625 
Q 49.859375 40.875 45.40625 35.40625 
Q 44.1875 33.984375 37.640625 27.21875 
Q 31.109375 20.453125 19.1875 8.296875 
z
" id="DejaVuSans-32"/>
       <path d="M 10.796875 72.90625 
L 49.515625 72.90625 
L 49.515625 64.59375 
L 19.828125 64.59375 
L 19.828125 46.734375 
Q 21.96875 47.46875 24.109375 47.828125 
Q 26.265625 48.1875 28.421875 48.1875 
Q 40.625 48.1875 47.75 41.5 
Q 54.890625 34.8125 54.890625 23.390625 
Q 54.890625 11.625 47.5625 5.09375 
Q 40.234375 -1.421875 26.90625 -1.421875 
Q 22.3125 -1.421875 17.546875 -0.640625 
Q 12.796875 0.140625 7.71875 1.703125 
L 7.71875 11.625 
Q 12.109375 9.234375 16.796875 8.0625 
Q 21.484375 6.890625 26.703125 6.890625 
Q 35.15625 6.890625 40.078125 11.328125 
Q 45.015625 15.765625 45.015625 23.390625 
Q 45.015625 31 40.078125 35.4375 
Q 35.15625 39.890625 26.703125 39.890625 
Q 22.75 39.890625 18.8125 39.015625 
Q 14.890625 38.140625 10.796875 36.28125 
z
" id="DejaVuSans-35"/>
      </defs>
      <g transform="translate(118.43114 320.575625)rotate(-90)scale(0.1 -0.1)">
       <use xlink:href="#DejaVuSans-41"/>
       <use x="68.408203" xlink:href="#DejaVuSans-32"/>
       <use x="132.03125" xlink:href="#DejaVuSans-35"/>
      </g>
     </g>
    </g>
    <g id="xtick_6">
     <g id="line2d_6">
      <g>
       <use style="stroke:#000000;stroke-width:0.8;" x="133.447206" xlink:href="#md56162f9d2" y="294.01"/>
      </g>
     </g>
     <g id="text_6">
      <!-- A31 -->
      <g transform="translate(136.206581 320.575625)rotate(-90)scale(0.1 -0.1)">
       <use xlink:href="#DejaVuSans-41"/>
       <use x="68.408203" xlink:href="#DejaVuSans-33"/>
       <use x="132.03125" xlink:href="#DejaVuSans-31"/>
      </g>
     </g>
    </g>
    <g id="xtick_7">
     <g id="line2d_7">
      <g>
       <use style="stroke:#000000;stroke-width:0.8;" x="151.222647" xlink:href="#md56162f9d2" y="294.01"/>
      </g>
     </g>
     <g id="text_7">
      <!-- A37 -->
      <g transform="translate(153.982022 320.575625)rotate(-90)scale(0.1 -0.1)">
       <use xlink:href="#DejaVuSans-41"/>
       <use x="68.408203" xlink:href="#DejaVuSans-33"/>
       <use x="132.03125" xlink:href="#DejaVuSans-37"/>
      </g>
     </g>
    </g>
    <g id="xtick_8">
     <g id="line2d_8">
      <g>
       <use style="stroke:#000000;stroke-width:0.8;" x="168.998088" xlink:href="#md56162f9d2" y="294.01"/>
      </g>
     </g>
     <g id="text_8">
      <!-- A43 -->
      <defs>
       <path d="M 37.796875 64.3125 
L 12.890625 25.390625 
L 37.796875 25.390625 
z
M 35.203125 72.90625 
L 47.609375 72.90625 
L 47.609375 25.390625 
L 58.015625 25.390625 
L 58.015625 17.1875 
L 47.609375 17.1875 
L 47.609375 0 
L 37.796875 0 
L 37.796875 17.1875 
L 4.890625 17.1875 
L 4.890625 26.703125 
z
" id="DejaVuSans-34"/>
      </defs>
      <g transform="translate(171.757463 320.575625)rotate(-90)scale(0.1 -0.1)">
       <use xlink:href="#DejaVuSans-41"/>
       <use x="68.408203" xlink:href="#DejaVuSans-34"/>
       <use x="132.03125" xlink:href="#DejaVuSans-33"/>
      </g>
     </g>
    </g>
    <g id="xtick_9">
     <g id="line2d_9">
      <g>
       <use style="stroke:#000000;stroke-width:0.8;" x="186.773529" xlink:href="#md56162f9d2" y="294.01"/>
      </g>
     </g>
     <g id="text_9">
      <!-- A49 -->
      <g transform="translate(189.532904 320.575625)rotate(-90)scale(0.1 -0.1)">
       <use xlink:href="#DejaVuSans-41"/>
       <use x="68.408203" xlink:href="#DejaVuSans-34"/>
       <use x="132.03125" xlink:href="#DejaVuSans-39"/>
      </g>
     </g>
    </g>
    <g id="xtick_10">
     <g id="line2d_10">
      <g>
       <use style="stroke:#000000;stroke-width:0.8;" x="204.548971" xlink:href="#md56162f9d2" y="294.01"/>
      </g>
     </g>
     <g id="text_10">
      <!-- A55 -->
      <g transform="translate(207.308346 320.575625)rotate(-90)scale(0.1 -0.1)">
       <use xlink:href="#DejaVuSans-41"/>
       <use x="68.408203" xlink:href="#DejaVuSans-35"/>
       <use x="132.03125" xlink:href="#DejaVuSans-35"/>
      </g>
     </g>
    </g>
    <g id="xtick_11">
     <g id="line2d_11">
      <g>
       <use style="stroke:#000000;stroke-width:0.8;" x="222.324412" xlink:href="#md56162f9d2" y="294.01"/>
      </g>
     </g>
     <g id="text_11">
      <!-- A61 -->
      <defs>
       <path d="M 33.015625 40.375 
Q 26.375 40.375 22.484375 35.828125 
Q 18.609375 31.296875 18.609375 23.390625 
Q 18.609375 15.53125 22.484375 10.953125 
Q 26.375 6.390625 33.015625 6.390625 
Q 39.65625 6.390625 43.53125 10.953125 
Q 47.40625 15.53125 47.40625 23.390625 
Q 47.40625 31.296875 43.53125 35.828125 
Q 39.65625 40.375 33.015625 40.375 
z
M 52.59375 71.296875 
L 52.59375 62.3125 
Q 48.875 64.0625 45.09375 64.984375 
Q 41.3125 65.921875 37.59375 65.921875 
Q 27.828125 65.921875 22.671875 59.328125 
Q 17.53125 52.734375 16.796875 39.40625 
Q 19.671875 43.65625 24.015625 45.921875 
Q 28.375 48.1875 33.59375 48.1875 
Q 44.578125 48.1875 50.953125 41.515625 
Q 57.328125 34.859375 57.328125 23.390625 
Q 57.328125 12.15625 50.6875 5.359375 
Q 44.046875 -1.421875 33.015625 -1.421875 
Q 20.359375 -1.421875 13.671875 8.265625 
Q 6.984375 17.96875 6.984375 36.375 
Q 6.984375 53.65625 15.1875 63.9375 
Q 23.390625 74.21875 37.203125 74.21875 
Q 40.921875 74.21875 44.703125 73.484375 
Q 48.484375 72.75 52.59375 71.296875 
z
" id="DejaVuSans-36"/>
      </defs>
      <g transform="translate(225.083787 320.575625)rotate(-90)scale(0.1 -0.1)">
       <use xlink:href="#DejaVuSans-41"/>
       <use x="68.408203" xlink:href="#DejaVuSans-36"/>
       <use x="132.03125" xlink:href="#DejaVuSans-31"/>
      </g>
     </g>
    </g>
    <g id="xtick_12">
     <g id="line2d_12">
      <g>
       <use style="stroke:#000000;stroke-width:0.8;" x="240.099853" xlink:href="#md56162f9d2" y="294.01"/>
      </g>
     </g>
     <g id="text_12">
      <!-- A67 -->
      <g transform="translate(242.859228 320.575625)rotate(-90)scale(0.1 -0.1)">
       <use xlink:href="#DejaVuSans-41"/>
       <use x="68.408203" xlink:href="#DejaVuSans-36"/>
       <use x="132.03125" xlink:href="#DejaVuSans-37"/>
      </g>
     </g>
    </g>
    <g id="xtick_13">
     <g id="line2d_13">
      <g>
       <use style="stroke:#000000;stroke-width:0.8;" x="257.875294" xlink:href="#md56162f9d2" y="294.01"/>
      </g>
     </g>
     <g id="text_13">
      <!-- B2 -->
      <defs>
       <path d="M 19.671875 34.8125 
L 19.671875 8.109375 
L 35.5 8.109375 
Q 43.453125 8.109375 47.28125 11.40625 
Q 51.125 14.703125 51.125 21.484375 
Q 51.125 28.328125 47.28125 31.5625 
Q 43.453125 34.8125 35.5 34.8125 
z
M 19.671875 64.796875 
L 19.671875 42.828125 
L 34.28125 42.828125 
Q 41.5 42.828125 45.03125 45.53125 
Q 48.578125 48.25 48.578125 53.8125 
Q 48.578125 59.328125 45.03125 62.0625 
Q 41.5 64.796875 34.28125 64.796875 
z
M 9.8125 72.90625 
L 35.015625 72.90625 
Q 46.296875 72.90625 52.390625 68.21875 
Q 58.5 63.53125 58.5 54.890625 
Q 58.5 48.1875 55.375 44.234375 
Q 52.25 40.28125 46.1875 39.3125 
Q 53.46875 37.75 57.5 32.78125 
Q 61.53125 27.828125 61.53125 20.40625 
Q 61.53125 10.640625 54.890625 5.3125 
Q 48.25 0 35.984375 0 
L 9.8125 0 
z
" id="DejaVuSans-42"/>
      </defs>
      <g transform="translate(260.634669 314.233437)rotate(-90)scale(0.1 -0.1)">
       <use xlink:href="#DejaVuSans-42"/>
       <use x="68.603516" xlink:href="#DejaVuSans-32"/>
      </g>
     </g>
    </g>
    <g id="xtick_14">
     <g id="line2d_14">
      <g>
       <use style="stroke:#000000;stroke-width:0.8;" x="275.650735" xlink:href="#md56162f9d2" y="294.01"/>
      </g>
     </g>
     <g id="text_14">
      <!-- B8 -->
      <defs>
       <path d="M 31.78125 34.625 
Q 24.75 34.625 20.71875 30.859375 
Q 16.703125 27.09375 16.703125 20.515625 
Q 16.703125 13.921875 20.71875 10.15625 
Q 24.75 6.390625 31.78125 6.390625 
Q 38.8125 6.390625 42.859375 10.171875 
Q 46.921875 13.96875 46.921875 20.515625 
Q 46.921875 27.09375 42.890625 30.859375 
Q 38.875 34.625 31.78125 34.625 
z
M 21.921875 38.8125 
Q 15.578125 40.375 12.03125 44.71875 
Q 8.5 49.078125 8.5 55.328125 
Q 8.5 64.0625 14.71875 69.140625 
Q 20.953125 74.21875 31.78125 74.21875 
Q 42.671875 74.21875 48.875 69.140625 
Q 55.078125 64.0625 55.078125 55.328125 
Q 55.078125 49.078125 51.53125 44.71875 
Q 48 40.375 41.703125 38.8125 
Q 48.828125 37.15625 52.796875 32.3125 
Q 56.78125 27.484375 56.78125 20.515625 
Q 56.78125 9.90625 50.3125 4.234375 
Q 43.84375 -1.421875 31.78125 -1.421875 
Q 19.734375 -1.421875 13.25 4.234375 
Q 6.78125 9.90625 6.78125 20.515625 
Q 6.78125 27.484375 10.78125 32.3125 
Q 14.796875 37.15625 21.921875 38.8125 
z
M 18.3125 54.390625 
Q 18.3125 48.734375 21.84375 45.5625 
Q 25.390625 42.390625 31.78125 42.390625 
Q 38.140625 42.390625 41.71875 45.5625 
Q 45.3125 48.734375 45.3125 54.390625 
Q 45.3125 60.0625 41.71875 63.234375 
Q 38.140625 66.40625 31.78125 66.40625 
Q 25.390625 66.40625 21.84375 63.234375 
Q 18.3125 60.0625 18.3125 54.390625 
z
" id="DejaVuSans-38"/>
      </defs>
      <g transform="translate(278.41011 314.233437)rotate(-90)scale(0.1 -0.1)">
       <use xlink:href="#DejaVuSans-42"/>
       <use x="68.603516" xlink:href="#DejaVuSans-38"/>
      </g>
     </g>
    </g>
    <g id="xtick_15">
     <g id="line2d_15">
      <g>
       <use style="stroke:#000000;stroke-width:0.8;" x="293.426176" xlink:href="#md56162f9d2" y="294.01"/>
      </g>
     </g>
     <g id="text_15">
      <!-- B14 -->
      <g transform="translate(296.185551 320.595937)rotate(-90)scale(0.1 -0.1)">
       <use xlink:href="#DejaVuSans-42"/>
       <use x="68.603516" xlink:href="#DejaVuSans-31"/>
       <use x="132.226562" xlink:href="#DejaVuSans-34"/>
      </g>
     </g>
    </g>
    <g id="xtick_16">
     <g id="line2d_16">
      <g>
       <use style="stroke:#000000;stroke-width:0.8;" x="311.201618" xlink:href="#md56162f9d2" y="294.01"/>
      </g>
     </g>
     <g id="text_16">
      <!-- B20 -->
      <defs>
       <path d="M 31.78125 66.40625 
Q 24.171875 66.40625 20.328125 58.90625 
Q 16.5 51.421875 16.5 36.375 
Q 16.5 21.390625 20.328125 13.890625 
Q 24.171875 6.390625 31.78125 6.390625 
Q 39.453125 6.390625 43.28125 13.890625 
Q 47.125 21.390625 47.125 36.375 
Q 47.125 51.421875 43.28125 58.90625 
Q 39.453125 66.40625 31.78125 66.40625 
z
M 31.78125 74.21875 
Q 44.046875 74.21875 50.515625 64.515625 
Q 56.984375 54.828125 56.984375 36.375 
Q 56.984375 17.96875 50.515625 8.265625 
Q 44.046875 -1.421875 31.78125 -1.421875 
Q 19.53125 -1.421875 13.0625 8.265625 
Q 6.59375 17.96875 6.59375 36.375 
Q 6.59375 54.828125 13.0625 64.515625 
Q 19.53125 74.21875 31.78125 74.21875 
z
" id="DejaVuSans-30"/>
      </defs>
      <g transform="translate(313.960993 320.595937)rotate(-90)scale(0.1 -0.1)">
       <use xlink:href="#DejaVuSans-42"/>
       <use x="68.603516" xlink:href="#DejaVuSans-32"/>
       <use x="132.226562" xlink:href="#DejaVuSans-30"/>
      </g>
     </g>
    </g>
    <g id="xtick_17">
     <g id="line2d_17">
      <g>
       <use style="stroke:#000000;stroke-width:0.8;" x="328.977059" xlink:href="#md56162f9d2" y="294.01"/>
      </g>
     </g>
     <g id="text_17">
      <!-- B26 -->
      <g transform="translate(331.736434 320.595937)rotate(-90)scale(0.1 -0.1)">
       <use xlink:href="#DejaVuSans-42"/>
       <use x="68.603516" xlink:href="#DejaVuSans-32"/>
       <use x="132.226562" xlink:href="#DejaVuSans-36"/>
      </g>
     </g>
    </g>
    <g id="xtick_18">
     <g id="line2d_18">
      <g>
       <use style="stroke:#000000;stroke-width:0.8;" x="346.7525" xlink:href="#md56162f9d2" y="294.01"/>
      </g>
     </g>
     <g id="text_18">
      <!-- B32 -->
      <g transform="translate(349.511875 320.595937)rotate(-90)scale(0.1 -0.1)">
       <use xlink:href="#DejaVuSans-42"/>
       <use x="68.603516" xlink:href="#DejaVuSans-33"/>
       <use x="132.226562" xlink:href="#DejaVuSans-32"/>
      </g>
     </g>
    </g>
    <g id="xtick_19">
     <g id="line2d_19">
      <g>
       <use style="stroke:#000000;stroke-width:0.8;" x="364.527941" xlink:href="#md56162f9d2" y="294.01"/>
      </g>
     </g>
     <g id="text_19">
      <!-- B38 -->
      <g transform="translate(367.287316 320.595937)rotate(-90)scale(0.1 -0.1)">
       <use xlink:href="#DejaVuSans-42"/>
       <use x="68.603516" xlink:href="#DejaVuSans-33"/>
       <use x="132.226562" xlink:href="#DejaVuSans-38"/>
      </g>
     </g>
    </g>
    <g id="xtick_20">
     <g id="line2d_20">
      <g>
       <use style="stroke:#000000;stroke-width:0.8;" x="382.303382" xlink:href="#md56162f9d2" y="294.01"/>
      </g>
     </g>
     <g id="text_20">
      <!-- B44 -->
      <g transform="translate(385.062757 320.595937)rotate(-90)scale(0.1 -0.1)">
       <use xlink:href="#DejaVuSans-42"/>
       <use x="68.603516" xlink:href="#DejaVuSans-34"/>
       <use x="132.226562" xlink:href="#DejaVuSans-34"/>
      </g>
     </g>
    </g>
    <g id="xtick_21">
     <g id="line2d_21">
      <g>
       <use style="stroke:#000000;stroke-width:0.8;" x="400.078824" xlink:href="#md56162f9d2" y="294.01"/>
      </g>
     </g>
     <g id="text_21">
      <!-- B50 -->
      <g transform="translate(402.838199 320.595937)rotate(-90)scale(0.1 -0.1)">
       <use xlink:href="#DejaVuSans-42"/>
       <use x="68.603516" xlink:href="#DejaVuSans-35"/>
       <use x="132.226562" xlink:href="#DejaVuSans-30"/>
      </g>
     </g>
    </g>
    <g id="xtick_22">
     <g id="line2d_22">
      <g>
       <use style="stroke:#000000;stroke-width:0.8;" x="417.854265" xlink:href="#md56162f9d2" y="294.01"/>
      </g>
     </g>
     <g id="text_22">
      <!-- B56 -->
      <g transform="translate(420.61364 320.595937)rotate(-90)scale(0.1 -0.1)">
       <use xlink:href="#DejaVuSans-42"/>
       <use x="68.603516" xlink:href="#DejaVuSans-35"/>
       <use x="132.226562" xlink:href="#DejaVuSans-36"/>
      </g>
     </g>
    </g>
    <g id="xtick_23">
     <g id="line2d_23">
      <g>
       <use style="stroke:#000000;stroke-width:0.8;" x="435.629706" xlink:href="#md56162f9d2" y="294.01"/>
      </g>
     </g>
     <g id="text_23">
      <!-- B62 -->
      <g transform="translate(438.389081 320.595937)rotate(-90)scale(0.1 -0.1)">
       <use xlink:href="#DejaVuSans-42"/>
       <use x="68.603516" xlink:href="#DejaVuSans-36"/>
       <use x="132.226562" xlink:href="#DejaVuSans-32"/>
      </g>
     </g>
    </g>
    <g id="text_24">
     <!-- Residue index -->
     <defs>
      <path d="M 44.390625 34.1875 
Q 47.5625 33.109375 50.5625 29.59375 
Q 53.5625 26.078125 56.59375 19.921875 
L 66.609375 0 
L 56 0 
L 46.6875 18.703125 
Q 43.0625 26.03125 39.671875 28.421875 
Q 36.28125 30.8125 30.421875 30.8125 
L 19.671875 30.8125 
L 19.671875 0 
L 9.8125 0 
L 9.8125 72.90625 
L 32.078125 72.90625 
Q 44.578125 72.90625 50.734375 67.671875 
Q 56.890625 62.453125 56.890625 51.90625 
Q 56.890625 45.015625 53.6875 40.46875 
Q 50.484375 35.9375 44.390625 34.1875 
z
M 19.671875 64.796875 
L 19.671875 38.921875 
L 32.078125 38.921875 
Q 39.203125 38.921875 42.84375 42.21875 
Q 46.484375 45.515625 46.484375 51.90625 
Q 46.484375 58.296875 42.84375 61.546875 
Q 39.203125 64.796875 32.078125 64.796875 
z
" id="DejaVuSans-52"/>
      <path d="M 56.203125 29.59375 
L 56.203125 25.203125 
L 14.890625 25.203125 
Q 15.484375 15.921875 20.484375 11.0625 
Q 25.484375 6.203125 34.421875 6.203125 
Q 39.59375 6.203125 44.453125 7.46875 
Q 49.3125 8.734375 54.109375 11.28125 
L 54.109375 2.78125 
Q 49.265625 0.734375 44.1875 -0.34375 
Q 39.109375 -1.421875 33.890625 -1.421875 
Q 20.796875 -1.421875 13.15625 6.1875 
Q 5.515625 13.8125 5.515625 26.8125 
Q 5.515625 40.234375 12.765625 48.109375 
Q 20.015625 56 32.328125 56 
Q 43.359375 56 49.78125 48.890625 
Q 56.203125 41.796875 56.203125 29.59375 
z
M 47.21875 32.234375 
Q 47.125 39.59375 43.09375 43.984375 
Q 39.0625 48.390625 32.421875 48.390625 
Q 24.90625 48.390625 20.390625 44.140625 
Q 15.875 39.890625 15.1875 32.171875 
z
" id="DejaVuSans-65"/>
      <path d="M 44.28125 53.078125 
L 44.28125 44.578125 
Q 40.484375 46.53125 36.375 47.5 
Q 32.28125 48.484375 27.875 48.484375 
Q 21.1875 48.484375 17.84375 46.4375 
Q 14.5 44.390625 14.5 40.28125 
Q 14.5 37.15625 16.890625 35.375 
Q 19.28125 33.59375 26.515625 31.984375 
L 29.59375 31.296875 
Q 39.15625 29.25 43.1875 25.515625 
Q 47.21875 21.78125 47.21875 15.09375 
Q 47.21875 7.46875 41.1875 3.015625 
Q 35.15625 -1.421875 24.609375 -1.421875 
Q 20.21875 -1.421875 15.453125 -0.5625 
Q 10.6875 0.296875 5.421875 2 
L 5.421875 11.28125 
Q 10.40625 8.6875 15.234375 7.390625 
Q 20.0625 6.109375 24.8125 6.109375 
Q 31.15625 6.109375 34.5625 8.28125 
Q 37.984375 10.453125 37.984375 14.40625 
Q 37.984375 18.0625 35.515625 20.015625 
Q 33.0625 21.96875 24.703125 23.78125 
L 21.578125 24.515625 
Q 13.234375 26.265625 9.515625 29.90625 
Q 5.8125 33.546875 5.8125 39.890625 
Q 5.8125 47.609375 11.28125 51.796875 
Q 16.75 56 26.8125 56 
Q 31.78125 56 36.171875 55.265625 
Q 40.578125 54.546875 44.28125 53.078125 
z
" id="DejaVuSans-73"/>
      <path d="M 9.421875 54.6875 
L 18.40625 54.6875 
L 18.40625 0 
L 9.421875 0 
z
M 9.421875 75.984375 
L 18.40625 75.984375 
L 18.40625 64.59375 
L 9.421875 64.59375 
z
" id="DejaVuSans-69"/>
      <path d="M 45.40625 46.390625 
L 45.40625 75.984375 
L 54.390625 75.984375 
L 54.390625 0 
L 45.40625 0 
L 45.40625 8.203125 
Q 42.578125 3.328125 38.25 0.953125 
Q 33.9375 -1.421875 27.875 -1.421875 
Q 17.96875 -1.421875 11.734375 6.484375 
Q 5.515625 14.40625 5.515625 27.296875 
Q 5.515625 40.1875 11.734375 48.09375 
Q 17.96875 56 27.875 56 
Q 33.9375 56 38.25 53.625 
Q 42.578125 51.265625 45.40625 46.390625 
z
M 14.796875 27.296875 
Q 14.796875 17.390625 18.875 11.75 
Q 22.953125 6.109375 30.078125 6.109375 
Q 37.203125 6.109375 41.296875 11.75 
Q 45.40625 17.390625 45.40625 27.296875 
Q 45.40625 37.203125 41.296875 42.84375 
Q 37.203125 48.484375 30.078125 48.484375 
Q 22.953125 48.484375 18.875 42.84375 
Q 14.796875 37.203125 14.796875 27.296875 
z
" id="DejaVuSans-64"/>
      <path d="M 8.5 21.578125 
L 8.5 54.6875 
L 17.484375 54.6875 
L 17.484375 21.921875 
Q 17.484375 14.15625 20.5 10.265625 
Q 23.53125 6.390625 29.59375 6.390625 
Q 36.859375 6.390625 41.078125 11.03125 
Q 45.3125 15.671875 45.3125 23.6875 
L 45.3125 54.6875 
L 54.296875 54.6875 
L 54.296875 0 
L 45.3125 0 
L 45.3125 8.40625 
Q 42.046875 3.421875 37.71875 1 
Q 33.40625 -1.421875 27.6875 -1.421875 
Q 18.265625 -1.421875 13.375 4.4375 
Q 8.5 10.296875 8.5 21.578125 
z
M 31.109375 56 
z
" id="DejaVuSans-75"/>
      <path id="DejaVuSans-20"/>
      <path d="M 54.890625 33.015625 
L 54.890625 0 
L 45.90625 0 
L 45.90625 32.71875 
Q 45.90625 40.484375 42.875 44.328125 
Q 39.84375 48.1875 33.796875 48.1875 
Q 26.515625 48.1875 22.3125 43.546875 
Q 18.109375 38.921875 18.109375 30.90625 
L 18.109375 0 
L 9.078125 0 
L 9.078125 54.6875 
L 18.109375 54.6875 
L 18.109375 46.1875 
Q 21.34375 51.125 25.703125 53.5625 
Q 30.078125 56 35.796875 56 
Q 45.21875 56 50.046875 50.171875 
Q 54.890625 44.34375 54.890625 33.015625 
z
" id="DejaVuSans-6e"/>
      <path d="M 54.890625 54.6875 
L 35.109375 28.078125 
L 55.90625 0 
L 45.3125 0 
L 29.390625 21.484375 
L 13.484375 0 
L 2.875 0 
L 24.125 28.609375 
L 4.6875 54.6875 
L 15.28125 54.6875 
L 29.78125 35.203125 
L 44.28125 54.6875 
z
" id="DejaVuSans-78"/>
     </defs>
     <g transform="translate(210.707813 332.194375)scale(0.1 -0.1)">
      <use xlink:href="#DejaVuSans-52"/>
      <use x="69.419922" xlink:href="#DejaVuSans-65"/>
      <use x="130.943359" xlink:href="#DejaVuSans-73"/>
      <use x="183.042969" xlink:href="#DejaVuSans-69"/>
      <use x="210.826172" xlink:href="#DejaVuSans-64"/>
      <use x="274.302734" xlink:href="#DejaVuSans-75"/>
      <use x="337.681641" xlink:href="#DejaVuSans-65"/>
      <use x="399.205078" xlink:href="#DejaVuSans-20"/>
      <use x="430.992188" xlink:href="#DejaVuSans-69"/>
      <use x="458.775391" xlink:href="#DejaVuSans-6e"/>
      <use x="522.154297" xlink:href="#DejaVuSans-64"/>
      <use x="585.630859" xlink:href="#DejaVuSans-65"/>
      <use x="647.138672" xlink:href="#DejaVuSans-78"/>
     </g>
    </g>
   </g>
   <g id="matplotlib.axis_2">
    <g id="ytick_1">
     <g id="line2d_24">
      <defs>
       <path d="M 0 0 
L -3.5 0 
" id="m51d77b3f92" style="stroke:#000000;stroke-width:0.8;"/>
      </defs>
      <g>
       <use style="stroke:#000000;stroke-width:0.8;" x="44.57" xlink:href="#m51d77b3f92" y="289.147006"/>
      </g>
     </g>
     <g id="text_25">
      <!-- 0 -->
      <g transform="translate(31.2075 292.946225)scale(0.1 -0.1)">
       <use xlink:href="#DejaVuSans-30"/>
      </g>
     </g>
    </g>
    <g id="ytick_2">
     <g id="line2d_25">
      <g>
       <use style="stroke:#000000;stroke-width:0.8;" x="44.57" xlink:href="#m51d77b3f92" y="250.044351"/>
      </g>
     </g>
     <g id="text_26">
      <!-- 2 -->
      <g transform="translate(31.2075 253.84357)scale(0.1 -0.1)">
       <use xlink:href="#DejaVuSans-32"/>
      </g>
     </g>
    </g>
    <g id="ytick_3">
     <g id="line2d_26">
      <g>
       <use style="stroke:#000000;stroke-width:0.8;" x="44.57" xlink:href="#m51d77b3f92" y="210.941696"/>
      </g>
     </g>
     <g id="text_27">
      <!-- 4 -->
      <g transform="translate(31.2075 214.740914)scale(0.1 -0.1)">
       <use xlink:href="#DejaVuSans-34"/>
      </g>
     </g>
    </g>
    <g id="ytick_4">
     <g id="line2d_27">
      <g>
       <use style="stroke:#000000;stroke-width:0.8;" x="44.57" xlink:href="#m51d77b3f92" y="171.83904"/>
      </g>
     </g>
     <g id="text_28">
      <!-- 6 -->
      <g transform="translate(31.2075 175.638259)scale(0.1 -0.1)">
       <use xlink:href="#DejaVuSans-36"/>
      </g>
     </g>
    </g>
    <g id="ytick_5">
     <g id="line2d_28">
      <g>
       <use style="stroke:#000000;stroke-width:0.8;" x="44.57" xlink:href="#m51d77b3f92" y="132.736385"/>
      </g>
     </g>
     <g id="text_29">
      <!-- 8 -->
      <g transform="translate(31.2075 136.535603)scale(0.1 -0.1)">
       <use xlink:href="#DejaVuSans-38"/>
      </g>
     </g>
    </g>
    <g id="ytick_6">
     <g id="line2d_29">
      <g>
       <use style="stroke:#000000;stroke-width:0.8;" x="44.57" xlink:href="#m51d77b3f92" y="93.633729"/>
      </g>
     </g>
     <g id="text_30">
      <!-- 10 -->
      <g transform="translate(24.845 97.432948)scale(0.1 -0.1)">
       <use xlink:href="#DejaVuSans-31"/>
       <use x="63.623047" xlink:href="#DejaVuSans-30"/>
      </g>
     </g>
    </g>
    <g id="ytick_7">
     <g id="line2d_30">
      <g>
       <use style="stroke:#000000;stroke-width:0.8;" x="44.57" xlink:href="#m51d77b3f92" y="54.531074"/>
      </g>
     </g>
     <g id="text_31">
      <!-- 12 -->
      <g transform="translate(24.845 58.330293)scale(0.1 -0.1)">
       <use xlink:href="#DejaVuSans-31"/>
       <use x="63.623047" xlink:href="#DejaVuSans-32"/>
      </g>
     </g>
    </g>
    <g id="ytick_8">
     <g id="line2d_31">
      <g>
       <use style="stroke:#000000;stroke-width:0.8;" x="44.57" xlink:href="#m51d77b3f92" y="15.428418"/>
      </g>
     </g>
     <g id="text_32">
      <!-- 14 -->
      <g transform="translate(24.845 19.227637)scale(0.1 -0.1)">
       <use xlink:href="#DejaVuSans-31"/>
       <use x="63.623047" xlink:href="#DejaVuSans-34"/>
      </g>
     </g>
    </g>
    <g id="text_33">
     <!-- RMSF -->
     <defs>
      <path d="M 9.8125 72.90625 
L 24.515625 72.90625 
L 43.109375 23.296875 
L 61.8125 72.90625 
L 76.515625 72.90625 
L 76.515625 0 
L 66.890625 0 
L 66.890625 64.015625 
L 48.09375 14.015625 
L 38.1875 14.015625 
L 19.390625 64.015625 
L 19.390625 0 
L 9.8125 0 
z
" id="DejaVuSans-4d"/>
      <path d="M 53.515625 70.515625 
L 53.515625 60.890625 
Q 47.90625 63.578125 42.921875 64.890625 
Q 37.9375 66.21875 33.296875 66.21875 
Q 25.25 66.21875 20.875 63.09375 
Q 16.5 59.96875 16.5 54.203125 
Q 16.5 49.359375 19.40625 46.890625 
Q 22.3125 44.4375 30.421875 42.921875 
L 36.375 41.703125 
Q 47.40625 39.59375 52.65625 34.296875 
Q 57.90625 29 57.90625 20.125 
Q 57.90625 9.515625 50.796875 4.046875 
Q 43.703125 -1.421875 29.984375 -1.421875 
Q 24.8125 -1.421875 18.96875 -0.25 
Q 13.140625 0.921875 6.890625 3.21875 
L 6.890625 13.375 
Q 12.890625 10.015625 18.65625 8.296875 
Q 24.421875 6.59375 29.984375 6.59375 
Q 38.421875 6.59375 43.015625 9.90625 
Q 47.609375 13.234375 47.609375 19.390625 
Q 47.609375 24.75 44.3125 27.78125 
Q 41.015625 30.8125 33.5 32.328125 
L 27.484375 33.5 
Q 16.453125 35.6875 11.515625 40.375 
Q 6.59375 45.0625 6.59375 53.421875 
Q 6.59375 63.09375 13.40625 68.65625 
Q 20.21875 74.21875 32.171875 74.21875 
Q 37.3125 74.21875 42.625 73.28125 
Q 47.953125 72.359375 53.515625 70.515625 
z
" id="DejaVuSans-53"/>
      <path d="M 9.8125 72.90625 
L 51.703125 72.90625 
L 51.703125 64.59375 
L 19.671875 64.59375 
L 19.671875 43.109375 
L 48.578125 43.109375 
L 48.578125 34.8125 
L 19.671875 34.8125 
L 19.671875 0 
L 9.8125 0 
z
" id="DejaVuSans-46"/>
     </defs>
     <g transform="translate(18.765313 167.503281)rotate(-90)scale(0.1 -0.1)">
      <use xlink:href="#DejaVuSans-52"/>
      <use x="69.482422" xlink:href="#DejaVuSans-4d"/>
      <use x="155.761719" xlink:href="#DejaVuSans-53"/>
      <use x="219.238281" xlink:href="#DejaVuSans-46"/>
     </g>
    </g>
   </g>
   <g id="line2d_32">
    <path clip-path="url(#p3e4fd6345c)" d="M 44.57 220.365629 
L 47.532574 258.216128 
L 50.495147 262.417855 
L 53.457721 263.133276 
L 56.420294 271.973842 
L 59.382868 269.459963 
L 62.345441 274.523059 
L 65.308015 278.392815 
L 68.270588 275.833027 
L 71.233162 276.129248 
L 74.195735 273.877257 
L 77.158309 262.967785 
L 80.120882 264.577887 
L 83.083456 265.038266 
L 86.046029 267.107863 
L 89.008603 274.588772 
L 91.971176 271.391167 
L 94.93375 265.338783 
L 97.896324 266.678492 
L 100.858897 254.78586 
L 103.821471 253.920265 
L 106.784044 257.126448 
L 109.746618 254.777374 
L 112.709191 259.182925 
L 115.671765 245.089221 
L 118.634338 239.379745 
L 121.596912 213.540538 
L 124.559485 209.153334 
L 127.522059 225.603636 
L 130.484632 246.071601 
L 133.447206 268.005483 
L 136.409779 270.426534 
L 139.372353 276.061679 
L 142.334926 272.75249 
L 145.2975 267.876859 
L 148.260074 257.364115 
L 151.222647 245.881878 
L 154.185221 246.739601 
L 157.147794 258.32575 
L 160.110368 258.377247 
L 163.072941 269.567054 
L 166.035515 272.525955 
L 168.998088 277.352118 
L 171.960662 276.596704 
L 174.923235 273.431862 
L 177.885809 271.263559 
L 180.848382 266.264284 
L 183.810956 269.425997 
L 186.773529 269.135184 
L 189.736103 273.833535 
L 192.698676 269.253321 
L 195.66125 268.257407 
L 198.623824 269.971717 
L 201.586397 261.556402 
L 204.548971 256.020361 
L 207.511544 247.579906 
L 210.474118 257.440203 
L 213.436691 257.929139 
L 216.399265 258.779023 
L 219.361838 254.590802 
L 222.324412 255.279644 
L 225.286985 254.501818 
L 228.249559 249.634538 
L 231.212132 247.971799 
L 234.174706 244.992072 
L 237.137279 241.424959 
L 240.099853 212.687248 
L 243.062426 203.37376 
L 246.025 171.455151 
L 248.987574 147.220673 
L 251.950147 121.797452 
L 254.912721 26.078636 
L 257.875294 60.12981 
L 260.837868 105.783481 
L 263.800441 118.142381 
L 266.763015 126.473926 
L 269.725588 165.271684 
L 272.688162 183.338289 
L 275.650735 187.087971 
L 278.613309 196.183139 
L 281.575882 220.772973 
L 284.538456 227.695316 
L 287.501029 230.333745 
L 290.463603 242.826346 
L 293.426176 252.847463 
L 296.38875 253.135659 
L 299.351324 250.990947 
L 302.313897 267.020312 
L 305.276471 268.454583 
L 308.239044 267.316646 
L 311.201618 271.234675 
L 314.164191 274.704776 
L 317.126765 274.915692 
L 320.089338 277.980183 
L 323.051912 279.295925 
L 326.014485 281.251364 
L 328.977059 281.140874 
L 331.939632 279.762174 
L 334.902206 280.841058 
L 337.864779 277.172001 
L 340.827353 273.303575 
L 343.789926 275.844876 
L 346.7525 272.696298 
L 349.715074 267.307311 
L 352.677647 267.812482 
L 355.640221 268.656311 
L 358.602794 265.324241 
L 361.565368 258.427447 
L 364.527941 257.140291 
L 367.490515 256.069271 
L 370.453088 239.057461 
L 373.415662 219.247302 
L 376.378235 220.332064 
L 379.340809 211.936092 
L 382.303382 205.792047 
L 385.265956 195.670462 
L 388.228529 187.113764 
L 391.191103 189.69161 
L 394.153676 183.71877 
L 397.11625 179.096632 
L 400.078824 181.086879 
L 403.041397 176.777566 
L 406.003971 164.299871 
L 408.966544 160.883618 
L 411.929118 152.64688 
L 414.891691 145.636238 
L 417.854265 140.150275 
L 420.816838 138.997691 
L 423.779412 136.323462 
L 426.741985 140.993918 
L 429.704559 139.900575 
L 432.667132 145.235122 
L 435.629706 140.56591 
L 438.592279 144.06582 
L 441.554853 129.77094 
L 444.517426 129.506999 
L 447.48 129.979443 
L 447.48 129.979443 
" style="fill:none;stroke:#666666;stroke-dasharray:1,1.65;stroke-dashoffset:0;"/>
    <defs>
     <path d="M 0 0.5 
C 0.132602 0.5 0.25979 0.447317 0.353553 0.353553 
C 0.447317 0.25979 0.5 0.132602 0.5 0 
C 0.5 -0.132602 0.447317 -0.25979 0.353553 -0.353553 
C 0.25979 -0.447317 0.132602 -0.5 0 -0.5 
C -0.132602 -0.5 -0.25979 -0.447317 -0.353553 -0.353553 
C -0.447317 -0.25979 -0.5 -0.132602 -0.5 0 
C -0.5 0.132602 -0.447317 0.25979 -0.353553 0.353553 
C -0.25979 0.447317 -0.132602 0.5 0 0.5 
z
" id="ma1d17fb1c5" style="stroke:#666666;"/>
    </defs>
    <g clip-path="url(#p3e4fd6345c)">
     <use style="fill:#666666;stroke:#666666;" x="44.57" xlink:href="#ma1d17fb1c5" y="220.365629"/>
     <use style="fill:#666666;stroke:#666666;" x="47.532574" xlink:href="#ma1d17fb1c5" y="258.216128"/>
     <use style="fill:#666666;stroke:#666666;" x="50.495147" xlink:href="#ma1d17fb1c5" y="262.417855"/>
     <use style="fill:#666666;stroke:#666666;" x="53.457721" xlink:href="#ma1d17fb1c5" y="263.133276"/>
     <use style="fill:#666666;stroke:#666666;" x="56.420294" xlink:href="#ma1d17fb1c5" y="271.973842"/>
     <use style="fill:#666666;stroke:#666666;" x="59.382868" xlink:href="#ma1d17fb1c5" y="269.459963"/>
     <use style="fill:#666666;stroke:#666666;" x="62.345441" xlink:href="#ma1d17fb1c5" y="274.523059"/>
     <use style="fill:#666666;stroke:#666666;" x="65.308015" xlink:href="#ma1d17fb1c5" y="278.392815"/>
     <use style="fill:#666666;stroke:#666666;" x="68.270588" xlink:href="#ma1d17fb1c5" y="275.833027"/>
     <use style="fill:#666666;stroke:#666666;" x="71.233162" xlink:href="#ma1d17fb1c5" y="276.129248"/>
     <use style="fill:#666666;stroke:#666666;" x="74.195735" xlink:href="#ma1d17fb1c5" y="273.877257"/>
     <use style="fill:#666666;stroke:#666666;" x="77.158309" xlink:href="#ma1d17fb1c5" y="262.967785"/>
     <use style="fill:#666666;stroke:#666666;" x="80.120882" xlink:href="#ma1d17fb1c5" y="264.577887"/>
     <use style="fill:#666666;stroke:#666666;" x="83.083456" xlink:href="#ma1d17fb1c5" y="265.038266"/>
     <use style="fill:#666666;stroke:#666666;" x="86.046029" xlink:href="#ma1d17fb1c5" y="267.107863"/>
     <use style="fill:#666666;stroke:#666666;" x="89.008603" xlink:href="#ma1d17fb1c5" y="274.588772"/>
     <use style="fill:#666666;stroke:#666666;" x="91.971176" xlink:href="#ma1d17fb1c5" y="271.391167"/>
     <use style="fill:#666666;stroke:#666666;" x="94.93375" xlink:href="#ma1d17fb1c5" y="265.338783"/>
     <use style="fill:#666666;stroke:#666666;" x="97.896324" xlink:href="#ma1d17fb1c5" y="266.678492"/>
     <use style="fill:#666666;stroke:#666666;" x="100.858897" xlink:href="#ma1d17fb1c5" y="254.78586"/>
     <use style="fill:#666666;stroke:#666666;" x="103.821471" xlink:href="#ma1d17fb1c5" y="253.920265"/>
     <use style="fill:#666666;stroke:#666666;" x="106.784044" xlink:href="#ma1d17fb1c5" y="257.126448"/>
     <use style="fill:#666666;stroke:#666666;" x="109.746618" xlink:href="#ma1d17fb1c5" y="254.777374"/>
     <use style="fill:#666666;stroke:#666666;" x="112.709191" xlink:href="#ma1d17fb1c5" y="259.182925"/>
     <use style="fill:#666666;stroke:#666666;" x="115.671765" xlink:href="#ma1d17fb1c5" y="245.089221"/>
     <use style="fill:#666666;stroke:#666666;" x="118.634338" xlink:href="#ma1d17fb1c5" y="239.379745"/>
     <use style="fill:#666666;stroke:#666666;" x="121.596912" xlink:href="#ma1d17fb1c5" y="213.540538"/>
     <use style="fill:#666666;stroke:#666666;" x="124.559485" xlink:href="#ma1d17fb1c5" y="209.153334"/>
     <use style="fill:#666666;stroke:#666666;" x="127.522059" xlink:href="#ma1d17fb1c5" y="225.603636"/>
     <use style="fill:#666666;stroke:#666666;" x="130.484632" xlink:href="#ma1d17fb1c5" y="246.071601"/>
     <use style="fill:#666666;stroke:#666666;" x="133.447206" xlink:href="#ma1d17fb1c5" y="268.005483"/>
     <use style="fill:#666666;stroke:#666666;" x="136.409779" xlink:href="#ma1d17fb1c5" y="270.426534"/>
     <use style="fill:#666666;stroke:#666666;" x="139.372353" xlink:href="#ma1d17fb1c5" y="276.061679"/>
     <use style="fill:#666666;stroke:#666666;" x="142.334926" xlink:href="#ma1d17fb1c5" y="272.75249"/>
     <use style="fill:#666666;stroke:#666666;" x="145.2975" xlink:href="#ma1d17fb1c5" y="267.876859"/>
     <use style="fill:#666666;stroke:#666666;" x="148.260074" xlink:href="#ma1d17fb1c5" y="257.364115"/>
     <use style="fill:#666666;stroke:#666666;" x="151.222647" xlink:href="#ma1d17fb1c5" y="245.881878"/>
     <use style="fill:#666666;stroke:#666666;" x="154.185221" xlink:href="#ma1d17fb1c5" y="246.739601"/>
     <use style="fill:#666666;stroke:#666666;" x="157.147794" xlink:href="#ma1d17fb1c5" y="258.32575"/>
     <use style="fill:#666666;stroke:#666666;" x="160.110368" xlink:href="#ma1d17fb1c5" y="258.377247"/>
     <use style="fill:#666666;stroke:#666666;" x="163.072941" xlink:href="#ma1d17fb1c5" y="269.567054"/>
     <use style="fill:#666666;stroke:#666666;" x="166.035515" xlink:href="#ma1d17fb1c5" y="272.525955"/>
     <use style="fill:#666666;stroke:#666666;" x="168.998088" xlink:href="#ma1d17fb1c5" y="277.352118"/>
     <use style="fill:#666666;stroke:#666666;" x="171.960662" xlink:href="#ma1d17fb1c5" y="276.596704"/>
     <use style="fill:#666666;stroke:#666666;" x="174.923235" xlink:href="#ma1d17fb1c5" y="273.431862"/>
     <use style="fill:#666666;stroke:#666666;" x="177.885809" xlink:href="#ma1d17fb1c5" y="271.263559"/>
     <use style="fill:#666666;stroke:#666666;" x="180.848382" xlink:href="#ma1d17fb1c5" y="266.264284"/>
     <use style="fill:#666666;stroke:#666666;" x="183.810956" xlink:href="#ma1d17fb1c5" y="269.425997"/>
     <use style="fill:#666666;stroke:#666666;" x="186.773529" xlink:href="#ma1d17fb1c5" y="269.135184"/>
     <use style="fill:#666666;stroke:#666666;" x="189.736103" xlink:href="#ma1d17fb1c5" y="273.833535"/>
     <use style="fill:#666666;stroke:#666666;" x="192.698676" xlink:href="#ma1d17fb1c5" y="269.253321"/>
     <use style="fill:#666666;stroke:#666666;" x="195.66125" xlink:href="#ma1d17fb1c5" y="268.257407"/>
     <use style="fill:#666666;stroke:#666666;" x="198.623824" xlink:href="#ma1d17fb1c5" y="269.971717"/>
     <use style="fill:#666666;stroke:#666666;" x="201.586397" xlink:href="#ma1d17fb1c5" y="261.556402"/>
     <use style="fill:#666666;stroke:#666666;" x="204.548971" xlink:href="#ma1d17fb1c5" y="256.020361"/>
     <use style="fill:#666666;stroke:#666666;" x="207.511544" xlink:href="#ma1d17fb1c5" y="247.579906"/>
     <use style="fill:#666666;stroke:#666666;" x="210.474118" xlink:href="#ma1d17fb1c5" y="257.440203"/>
     <use style="fill:#666666;stroke:#666666;" x="213.436691" xlink:href="#ma1d17fb1c5" y="257.929139"/>
     <use style="fill:#666666;stroke:#666666;" x="216.399265" xlink:href="#ma1d17fb1c5" y="258.779023"/>
     <use style="fill:#666666;stroke:#666666;" x="219.361838" xlink:href="#ma1d17fb1c5" y="254.590802"/>
     <use style="fill:#666666;stroke:#666666;" x="222.324412" xlink:href="#ma1d17fb1c5" y="255.279644"/>
     <use style="fill:#666666;stroke:#666666;" x="225.286985" xlink:href="#ma1d17fb1c5" y="254.501818"/>
     <use style="fill:#666666;stroke:#666666;" x="228.249559" xlink:href="#ma1d17fb1c5" y="249.634538"/>
     <use style="fill:#666666;stroke:#666666;" x="231.212132" xlink:href="#ma1d17fb1c5" y="247.971799"/>
     <use style="fill:#666666;stroke:#666666;" x="234.174706" xlink:href="#ma1d17fb1c5" y="244.992072"/>
     <use style="fill:#666666;stroke:#666666;" x="237.137279" xlink:href="#ma1d17fb1c5" y="241.424959"/>
     <use style="fill:#666666;stroke:#666666;" x="240.099853" xlink:href="#ma1d17fb1c5" y="212.687248"/>
     <use style="fill:#666666;stroke:#666666;" x="243.062426" xlink:href="#ma1d17fb1c5" y="203.37376"/>
     <use style="fill:#666666;stroke:#666666;" x="246.025" xlink:href="#ma1d17fb1c5" y="171.455151"/>
     <use style="fill:#666666;stroke:#666666;" x="248.987574" xlink:href="#ma1d17fb1c5" y="147.220673"/>
     <use style="fill:#666666;stroke:#666666;" x="251.950147" xlink:href="#ma1d17fb1c5" y="121.797452"/>
     <use style="fill:#666666;stroke:#666666;" x="254.912721" xlink:href="#ma1d17fb1c5" y="26.078636"/>
     <use style="fill:#666666;stroke:#666666;" x="257.875294" xlink:href="#ma1d17fb1c5" y="60.12981"/>
     <use style="fill:#666666;stroke:#666666;" x="260.837868" xlink:href="#ma1d17fb1c5" y="105.783481"/>
     <use style="fill:#666666;stroke:#666666;" x="263.800441" xlink:href="#ma1d17fb1c5" y="118.142381"/>
     <use style="fill:#666666;stroke:#666666;" x="266.763015" xlink:href="#ma1d17fb1c5" y="126.473926"/>
     <use style="fill:#666666;stroke:#666666;" x="269.725588" xlink:href="#ma1d17fb1c5" y="165.271684"/>
     <use style="fill:#666666;stroke:#666666;" x="272.688162" xlink:href="#ma1d17fb1c5" y="183.338289"/>
     <use style="fill:#666666;stroke:#666666;" x="275.650735" xlink:href="#ma1d17fb1c5" y="187.087971"/>
     <use style="fill:#666666;stroke:#666666;" x="278.613309" xlink:href="#ma1d17fb1c5" y="196.183139"/>
     <use style="fill:#666666;stroke:#666666;" x="281.575882" xlink:href="#ma1d17fb1c5" y="220.772973"/>
     <use style="fill:#666666;stroke:#666666;" x="284.538456" xlink:href="#ma1d17fb1c5" y="227.695316"/>
     <use style="fill:#666666;stroke:#666666;" x="287.501029" xlink:href="#ma1d17fb1c5" y="230.333745"/>
     <use style="fill:#666666;stroke:#666666;" x="290.463603" xlink:href="#ma1d17fb1c5" y="242.826346"/>
     <use style="fill:#666666;stroke:#666666;" x="293.426176" xlink:href="#ma1d17fb1c5" y="252.847463"/>
     <use style="fill:#666666;stroke:#666666;" x="296.38875" xlink:href="#ma1d17fb1c5" y="253.135659"/>
     <use style="fill:#666666;stroke:#666666;" x="299.351324" xlink:href="#ma1d17fb1c5" y="250.990947"/>
     <use style="fill:#666666;stroke:#666666;" x="302.313897" xlink:href="#ma1d17fb1c5" y="267.020312"/>
     <use style="fill:#666666;stroke:#666666;" x="305.276471" xlink:href="#ma1d17fb1c5" y="268.454583"/>
     <use style="fill:#666666;stroke:#666666;" x="308.239044" xlink:href="#ma1d17fb1c5" y="267.316646"/>
     <use style="fill:#666666;stroke:#666666;" x="311.201618" xlink:href="#ma1d17fb1c5" y="271.234675"/>
     <use style="fill:#666666;stroke:#666666;" x="314.164191" xlink:href="#ma1d17fb1c5" y="274.704776"/>
     <use style="fill:#666666;stroke:#666666;" x="317.126765" xlink:href="#ma1d17fb1c5" y="274.915692"/>
     <use style="fill:#666666;stroke:#666666;" x="320.089338" xlink:href="#ma1d17fb1c5" y="277.980183"/>
     <use style="fill:#666666;stroke:#666666;" x="323.051912" xlink:href="#ma1d17fb1c5" y="279.295925"/>
     <use style="fill:#666666;stroke:#666666;" x="326.014485" xlink:href="#ma1d17fb1c5" y="281.251364"/>
     <use style="fill:#666666;stroke:#666666;" x="328.977059" xlink:href="#ma1d17fb1c5" y="281.140874"/>
     <use style="fill:#666666;stroke:#666666;" x="331.939632" xlink:href="#ma1d17fb1c5" y="279.762174"/>
     <use style="fill:#666666;stroke:#666666;" x="334.902206" xlink:href="#ma1d17fb1c5" y="280.841058"/>
     <use style="fill:#666666;stroke:#666666;" x="337.864779" xlink:href="#ma1d17fb1c5" y="277.172001"/>
     <use style="fill:#666666;stroke:#666666;" x="340.827353" xlink:href="#ma1d17fb1c5" y="273.303575"/>
     <use style="fill:#666666;stroke:#666666;" x="343.789926" xlink:href="#ma1d17fb1c5" y="275.844876"/>
     <use style="fill:#666666;stroke:#666666;" x="346.7525" xlink:href="#ma1d17fb1c5" y="272.696298"/>
     <use style="fill:#666666;stroke:#666666;" x="349.715074" xlink:href="#ma1d17fb1c5" y="267.307311"/>
     <use style="fill:#666666;stroke:#666666;" x="352.677647" xlink:href="#ma1d17fb1c5" y="267.812482"/>
     <use style="fill:#666666;stroke:#666666;" x="355.640221" xlink:href="#ma1d17fb1c5" y="268.656311"/>
     <use style="fill:#666666;stroke:#666666;" x="358.602794" xlink:href="#ma1d17fb1c5" y="265.324241"/>
     <use style="fill:#666666;stroke:#666666;" x="361.565368" xlink:href="#ma1d17fb1c5" y="258.427447"/>
     <use style="fill:#666666;stroke:#666666;" x="364.527941" xlink:href="#ma1d17fb1c5" y="257.140291"/>
     <use style="fill:#666666;stroke:#666666;" x="367.490515" xlink:href="#ma1d17fb1c5" y="256.069271"/>
     <use style="fill:#666666;stroke:#666666;" x="370.453088" xlink:href="#ma1d17fb1c5" y="239.057461"/>
     <use style="fill:#666666;stroke:#666666;" x="373.415662" xlink:href="#ma1d17fb1c5" y="219.247302"/>
     <use style="fill:#666666;stroke:#666666;" x="376.378235" xlink:href="#ma1d17fb1c5" y="220.332064"/>
     <use style="fill:#666666;stroke:#666666;" x="379.340809" xlink:href="#ma1d17fb1c5" y="211.936092"/>
     <use style="fill:#666666;stroke:#666666;" x="382.303382" xlink:href="#ma1d17fb1c5" y="205.792047"/>
     <use style="fill:#666666;stroke:#666666;" x="385.265956" xlink:href="#ma1d17fb1c5" y="195.670462"/>
     <use style="fill:#666666;stroke:#666666;" x="388.228529" xlink:href="#ma1d17fb1c5" y="187.113764"/>
     <use style="fill:#666666;stroke:#666666;" x="391.191103" xlink:href="#ma1d17fb1c5" y="189.69161"/>
     <use style="fill:#666666;stroke:#666666;" x="394.153676" xlink:href="#ma1d17fb1c5" y="183.71877"/>
     <use style="fill:#666666;stroke:#666666;" x="397.11625" xlink:href="#ma1d17fb1c5" y="179.096632"/>
     <use style="fill:#666666;stroke:#666666;" x="400.078824" xlink:href="#ma1d17fb1c5" y="181.086879"/>
     <use style="fill:#666666;stroke:#666666;" x="403.041397" xlink:href="#ma1d17fb1c5" y="176.777566"/>
     <use style="fill:#666666;stroke:#666666;" x="406.003971" xlink:href="#ma1d17fb1c5" y="164.299871"/>
     <use style="fill:#666666;stroke:#666666;" x="408.966544" xlink:href="#ma1d17fb1c5" y="160.883618"/>
     <use style="fill:#666666;stroke:#666666;" x="411.929118" xlink:href="#ma1d17fb1c5" y="152.64688"/>
     <use style="fill:#666666;stroke:#666666;" x="414.891691" xlink:href="#ma1d17fb1c5" y="145.636238"/>
     <use style="fill:#666666;stroke:#666666;" x="417.854265" xlink:href="#ma1d17fb1c5" y="140.150275"/>
     <use style="fill:#666666;stroke:#666666;" x="420.816838" xlink:href="#ma1d17fb1c5" y="138.997691"/>
     <use style="fill:#666666;stroke:#666666;" x="423.779412" xlink:href="#ma1d17fb1c5" y="136.323462"/>
     <use style="fill:#666666;stroke:#666666;" x="426.741985" xlink:href="#ma1d17fb1c5" y="140.993918"/>
     <use style="fill:#666666;stroke:#666666;" x="429.704559" xlink:href="#ma1d17fb1c5" y="139.900575"/>
     <use style="fill:#666666;stroke:#666666;" x="432.667132" xlink:href="#ma1d17fb1c5" y="145.235122"/>
     <use style="fill:#666666;stroke:#666666;" x="435.629706" xlink:href="#ma1d17fb1c5" y="140.56591"/>
     <use style="fill:#666666;stroke:#666666;" x="438.592279" xlink:href="#ma1d17fb1c5" y="144.06582"/>
     <use style="fill:#666666;stroke:#666666;" x="441.554853" xlink:href="#ma1d17fb1c5" y="129.77094"/>
     <use style="fill:#666666;stroke:#666666;" x="444.517426" xlink:href="#ma1d17fb1c5" y="129.506999"/>
     <use style="fill:#666666;stroke:#666666;" x="447.48" xlink:href="#ma1d17fb1c5" y="129.979443"/>
    </g>
   </g>
   <g id="patch_3">
    <path d="M 44.57 294.01 
L 44.57 13.32 
" style="fill:none;stroke:#000000;stroke-linecap:square;stroke-linejoin:miter;stroke-width:0.8;"/>
   </g>
   <g id="patch_4">
    <path d="M 447.48 294.01 
L 447.48 13.32 
" style="fill:none;stroke:#000000;stroke-linecap:square;stroke-linejoin:miter;stroke-width:0.8;"/>
   </g>
   <g id="patch_5">
    <path d="M 44.57 294.01 
L 447.48 294.01 
" style="fill:none;stroke:#000000;stroke-linecap:square;stroke-linejoin:miter;stroke-width:0.8;"/>
   </g>
   <g id="patch_6">
    <path d="M 44.57 13.32 
L 447.48 13.32 
" style="fill:none;stroke:#000000;stroke-linecap:square;stroke-linejoin:miter;stroke-width:0.8;"/>
   </g>
  </g>
 </g>
 <defs>
  <clipPath id="p3e4fd6345c">
   <rect height="280.69" width="402.91" x="44.57" y="13.32"/>
  </clipPath>
 </defs>
</svg>
