<?xml version="1.0" encoding="utf-8" standalone="no"?>
<!DOCTYPE svg PUBLIC "-//W3C//DTD SVG 1.1//EN"
  "http://www.w3.org/Graphics/SVG/1.1/DTD/svg11.dtd">
<!-- Created with matplotlib (http://matplotlib.org/) -->
<svg height="345.6pt" version="1.1" viewBox="0 0 460.8 345.6" width="460.8pt" xmlns="http://www.w3.org/2000/svg" xmlns:xlink="http://www.w3.org/1999/xlink">
 <defs>
  <style type="text/css">
*{stroke-linecap:butt;stroke-linejoin:round;}
  </style>
 </defs>
 <g id="figure_1">
  <g id="patch_1">
   <path d="M 0 345.6 
L 460.8 345.6 
L 460.8 0 
L 0 0 
z
" style="fill:#ffffff;"/>
  </g>
  <g id="axes_1">
   <g id="patch_2">
    <path d="M 38.27 294.01 
L 447.48 294.01 
L 447.48 13.32 
L 38.27 13.32 
z
" style="fill:#ffffff;"/>
   </g>
   <g id="matplotlib.axis_1">
    <g id="xtick_1">
     <g id="line2d_1">
      <defs>
       <path d="M 0 0 
L 0 3.5 
" id="m3cfedbfbdc" style="stroke:#000000;stroke-width:0.8;"/>
      </defs>
      <g>
       <use style="stroke:#000000;stroke-width:0.8;" x="38.27" xlink:href="#m3cfedbfbdc" y="294.01"/>
      </g>
     </g>
     <g id="text_1">
      <!-- A1 -->
      <defs>
       <path d="M 34.1875 63.1875 
L 20.796875 26.90625 
L 47.609375 26.90625 
z
M 28.609375 72.90625 
L 39.796875 72.90625 
L 67.578125 0 
L 57.328125 0 
L 50.6875 18.703125 
L 17.828125 18.703125 
L 11.1875 0 
L 0.78125 0 
z
" id="DejaVuSans-41"/>
       <path d="M 12.40625 8.296875 
L 28.515625 8.296875 
L 28.515625 63.921875 
L 10.984375 60.40625 
L 10.984375 69.390625 
L 28.421875 72.90625 
L 38.28125 72.90625 
L 38.28125 8.296875 
L 54.390625 8.296875 
L 54.390625 0 
L 12.40625 0 
z
" id="DejaVuSans-31"/>
      </defs>
      <g transform="translate(41.029375 314.213125)rotate(-90)scale(0.1 -0.1)">
       <use xlink:href="#DejaVuSans-41"/>
       <use x="68.408203" xlink:href="#DejaVuSans-31"/>
      </g>
     </g>
    </g>
    <g id="xtick_2">
     <g id="line2d_2">
      <g>
       <use style="stroke:#000000;stroke-width:0.8;" x="56.592836" xlink:href="#m3cfedbfbdc" y="294.01"/>
      </g>
     </g>
     <g id="text_2">
      <!-- A7 -->
      <defs>
       <path d="M 8.203125 72.90625 
L 55.078125 72.90625 
L 55.078125 68.703125 
L 28.609375 0 
L 18.3125 0 
L 43.21875 64.59375 
L 8.203125 64.59375 
z
" id="DejaVuSans-37"/>
      </defs>
      <g transform="translate(59.352211 314.213125)rotate(-90)scale(0.1 -0.1)">
       <use xlink:href="#DejaVuSans-41"/>
       <use x="68.408203" xlink:href="#DejaVuSans-37"/>
      </g>
     </g>
    </g>
    <g id="xtick_3">
     <g id="line2d_3">
      <g>
       <use style="stroke:#000000;stroke-width:0.8;" x="74.915672" xlink:href="#m3cfedbfbdc" y="294.01"/>
      </g>
     </g>
     <g id="text_3">
      <!-- A13 -->
      <defs>
       <path d="M 40.578125 39.3125 
Q 47.65625 37.796875 51.625 33 
Q 55.609375 28.21875 55.609375 21.1875 
Q 55.609375 10.40625 48.1875 4.484375 
Q 40.765625 -1.421875 27.09375 -1.421875 
Q 22.515625 -1.421875 17.65625 -0.515625 
Q 12.796875 0.390625 7.625 2.203125 
L 7.625 11.71875 
Q 11.71875 9.328125 16.59375 8.109375 
Q 21.484375 6.890625 26.8125 6.890625 
Q 36.078125 6.890625 40.9375 10.546875 
Q 45.796875 14.203125 45.796875 21.1875 
Q 45.796875 27.640625 41.28125 31.265625 
Q 36.765625 34.90625 28.71875 34.90625 
L 20.21875 34.90625 
L 20.21875 43.015625 
L 29.109375 43.015625 
Q 36.375 43.015625 40.234375 45.921875 
Q 44.09375 48.828125 44.09375 54.296875 
Q 44.09375 59.90625 40.109375 62.90625 
Q 36.140625 65.921875 28.71875 65.921875 
Q 24.65625 65.921875 20.015625 65.03125 
Q 15.375 64.15625 9.8125 62.3125 
L 9.8125 71.09375 
Q 15.4375 72.65625 20.34375 73.4375 
Q 25.25 74.21875 29.59375 74.21875 
Q 40.828125 74.21875 47.359375 69.109375 
Q 53.90625 64.015625 53.90625 55.328125 
Q 53.90625 49.265625 50.4375 45.09375 
Q 46.96875 40.921875 40.578125 39.3125 
z
" id="DejaVuSans-33"/>
      </defs>
      <g transform="translate(77.675047 320.575625)rotate(-90)scale(0.1 -0.1)">
       <use xlink:href="#DejaVuSans-41"/>
       <use x="68.408203" xlink:href="#DejaVuSans-31"/>
       <use x="132.03125" xlink:href="#DejaVuSans-33"/>
      </g>
     </g>
    </g>
    <g id="xtick_4">
     <g id="line2d_4">
      <g>
       <use style="stroke:#000000;stroke-width:0.8;" x="93.238507" xlink:href="#m3cfedbfbdc" y="294.01"/>
      </g>
     </g>
     <g id="text_4">
      <!-- A19 -->
      <defs>
       <path d="M 10.984375 1.515625 
L 10.984375 10.5 
Q 14.703125 8.734375 18.5 7.8125 
Q 22.3125 6.890625 25.984375 6.890625 
Q 35.75 6.890625 40.890625 13.453125 
Q 46.046875 20.015625 46.78125 33.40625 
Q 43.953125 29.203125 39.59375 26.953125 
Q 35.25 24.703125 29.984375 24.703125 
Q 19.046875 24.703125 12.671875 31.3125 
Q 6.296875 37.9375 6.296875 49.421875 
Q 6.296875 60.640625 12.9375 67.421875 
Q 19.578125 74.21875 30.609375 74.21875 
Q 43.265625 74.21875 49.921875 64.515625 
Q 56.59375 54.828125 56.59375 36.375 
Q 56.59375 19.140625 48.40625 8.859375 
Q 40.234375 -1.421875 26.421875 -1.421875 
Q 22.703125 -1.421875 18.890625 -0.6875 
Q 15.09375 0.046875 10.984375 1.515625 
z
M 30.609375 32.421875 
Q 37.25 32.421875 41.125 36.953125 
Q 45.015625 41.5 45.015625 49.421875 
Q 45.015625 57.28125 41.125 61.84375 
Q 37.25 66.40625 30.609375 66.40625 
Q 23.96875 66.40625 20.09375 61.84375 
Q 16.21875 57.28125 16.21875 49.421875 
Q 16.21875 41.5 20.09375 36.953125 
Q 23.96875 32.421875 30.609375 32.421875 
z
" id="DejaVuSans-39"/>
      </defs>
      <g transform="translate(95.997882 320.575625)rotate(-90)scale(0.1 -0.1)">
       <use xlink:href="#DejaVuSans-41"/>
       <use x="68.408203" xlink:href="#DejaVuSans-31"/>
       <use x="132.03125" xlink:href="#DejaVuSans-39"/>
      </g>
     </g>
    </g>
    <g id="xtick_5">
     <g id="line2d_5">
      <g>
       <use style="stroke:#000000;stroke-width:0.8;" x="111.561343" xlink:href="#m3cfedbfbdc" y="294.01"/>
      </g>
     </g>
     <g id="text_5">
      <!-- A25 -->
      <defs>
       <path d="M 19.1875 8.296875 
L 53.609375 8.296875 
L 53.609375 0 
L 7.328125 0 
L 7.328125 8.296875 
Q 12.9375 14.109375 22.625 23.890625 
Q 32.328125 33.6875 34.8125 36.53125 
Q 39.546875 41.84375 41.421875 45.53125 
Q 43.3125 49.21875 43.3125 52.78125 
Q 43.3125 58.59375 39.234375 62.25 
Q 35.15625 65.921875 28.609375 65.921875 
Q 23.96875 65.921875 18.8125 64.3125 
Q 13.671875 62.703125 7.8125 59.421875 
L 7.8125 69.390625 
Q 13.765625 71.78125 18.9375 73 
Q 24.125 74.21875 28.421875 74.21875 
Q 39.75 74.21875 46.484375 68.546875 
Q 53.21875 62.890625 53.21875 53.421875 
Q 53.21875 48.921875 51.53125 44.890625 
Q 49.859375 40.875 45.40625 35.40625 
Q 44.1875 33.984375 37.640625 27.21875 
Q 31.109375 20.453125 19.1875 8.296875 
z
" id="DejaVuSans-32"/>
       <path d="M 10.796875 72.90625 
L 49.515625 72.90625 
L 49.515625 64.59375 
L 19.828125 64.59375 
L 19.828125 46.734375 
Q 21.96875 47.46875 24.109375 47.828125 
Q 26.265625 48.1875 28.421875 48.1875 
Q 40.625 48.1875 47.75 41.5 
Q 54.890625 34.8125 54.890625 23.390625 
Q 54.890625 11.625 47.5625 5.09375 
Q 40.234375 -1.421875 26.90625 -1.421875 
Q 22.3125 -1.421875 17.546875 -0.640625 
Q 12.796875 0.140625 7.71875 1.703125 
L 7.71875 11.625 
Q 12.109375 9.234375 16.796875 8.0625 
Q 21.484375 6.890625 26.703125 6.890625 
Q 35.15625 6.890625 40.078125 11.328125 
Q 45.015625 15.765625 45.015625 23.390625 
Q 45.015625 31 40.078125 35.4375 
Q 35.15625 39.890625 26.703125 39.890625 
Q 22.75 39.890625 18.8125 39.015625 
Q 14.890625 38.140625 10.796875 36.28125 
z
" id="DejaVuSans-35"/>
      </defs>
      <g transform="translate(114.320718 320.575625)rotate(-90)scale(0.1 -0.1)">
       <use xlink:href="#DejaVuSans-41"/>
       <use x="68.408203" xlink:href="#DejaVuSans-32"/>
       <use x="132.03125" xlink:href="#DejaVuSans-35"/>
      </g>
     </g>
    </g>
    <g id="xtick_6">
     <g id="line2d_6">
      <g>
       <use style="stroke:#000000;stroke-width:0.8;" x="129.884179" xlink:href="#m3cfedbfbdc" y="294.01"/>
      </g>
     </g>
     <g id="text_6">
      <!-- A31 -->
      <g transform="translate(132.643554 320.575625)rotate(-90)scale(0.1 -0.1)">
       <use xlink:href="#DejaVuSans-41"/>
       <use x="68.408203" xlink:href="#DejaVuSans-33"/>
       <use x="132.03125" xlink:href="#DejaVuSans-31"/>
      </g>
     </g>
    </g>
    <g id="xtick_7">
     <g id="line2d_7">
      <g>
       <use style="stroke:#000000;stroke-width:0.8;" x="148.207015" xlink:href="#m3cfedbfbdc" y="294.01"/>
      </g>
     </g>
     <g id="text_7">
      <!-- A37 -->
      <g transform="translate(150.96639 320.575625)rotate(-90)scale(0.1 -0.1)">
       <use xlink:href="#DejaVuSans-41"/>
       <use x="68.408203" xlink:href="#DejaVuSans-33"/>
       <use x="132.03125" xlink:href="#DejaVuSans-37"/>
      </g>
     </g>
    </g>
    <g id="xtick_8">
     <g id="line2d_8">
      <g>
       <use style="stroke:#000000;stroke-width:0.8;" x="166.529851" xlink:href="#m3cfedbfbdc" y="294.01"/>
      </g>
     </g>
     <g id="text_8">
      <!-- A43 -->
      <defs>
       <path d="M 37.796875 64.3125 
L 12.890625 25.390625 
L 37.796875 25.390625 
z
M 35.203125 72.90625 
L 47.609375 72.90625 
L 47.609375 25.390625 
L 58.015625 25.390625 
L 58.015625 17.1875 
L 47.609375 17.1875 
L 47.609375 0 
L 37.796875 0 
L 37.796875 17.1875 
L 4.890625 17.1875 
L 4.890625 26.703125 
z
" id="DejaVuSans-34"/>
      </defs>
      <g transform="translate(169.289226 320.575625)rotate(-90)scale(0.1 -0.1)">
       <use xlink:href="#DejaVuSans-41"/>
       <use x="68.408203" xlink:href="#DejaVuSans-34"/>
       <use x="132.03125" xlink:href="#DejaVuSans-33"/>
      </g>
     </g>
    </g>
    <g id="xtick_9">
     <g id="line2d_9">
      <g>
       <use style="stroke:#000000;stroke-width:0.8;" x="184.852687" xlink:href="#m3cfedbfbdc" y="294.01"/>
      </g>
     </g>
     <g id="text_9">
      <!-- A49 -->
      <g transform="translate(187.612062 320.575625)rotate(-90)scale(0.1 -0.1)">
       <use xlink:href="#DejaVuSans-41"/>
       <use x="68.408203" xlink:href="#DejaVuSans-34"/>
       <use x="132.03125" xlink:href="#DejaVuSans-39"/>
      </g>
     </g>
    </g>
    <g id="xtick_10">
     <g id="line2d_10">
      <g>
       <use style="stroke:#000000;stroke-width:0.8;" x="203.175522" xlink:href="#m3cfedbfbdc" y="294.01"/>
      </g>
     </g>
     <g id="text_10">
      <!-- A55 -->
      <g transform="translate(205.934897 320.575625)rotate(-90)scale(0.1 -0.1)">
       <use xlink:href="#DejaVuSans-41"/>
       <use x="68.408203" xlink:href="#DejaVuSans-35"/>
       <use x="132.03125" xlink:href="#DejaVuSans-35"/>
      </g>
     </g>
    </g>
    <g id="xtick_11">
     <g id="line2d_11">
      <g>
       <use style="stroke:#000000;stroke-width:0.8;" x="221.498358" xlink:href="#m3cfedbfbdc" y="294.01"/>
      </g>
     </g>
     <g id="text_11">
      <!-- A61 -->
      <defs>
       <path d="M 33.015625 40.375 
Q 26.375 40.375 22.484375 35.828125 
Q 18.609375 31.296875 18.609375 23.390625 
Q 18.609375 15.53125 22.484375 10.953125 
Q 26.375 6.390625 33.015625 6.390625 
Q 39.65625 6.390625 43.53125 10.953125 
Q 47.40625 15.53125 47.40625 23.390625 
Q 47.40625 31.296875 43.53125 35.828125 
Q 39.65625 40.375 33.015625 40.375 
z
M 52.59375 71.296875 
L 52.59375 62.3125 
Q 48.875 64.0625 45.09375 64.984375 
Q 41.3125 65.921875 37.59375 65.921875 
Q 27.828125 65.921875 22.671875 59.328125 
Q 17.53125 52.734375 16.796875 39.40625 
Q 19.671875 43.65625 24.015625 45.921875 
Q 28.375 48.1875 33.59375 48.1875 
Q 44.578125 48.1875 50.953125 41.515625 
Q 57.328125 34.859375 57.328125 23.390625 
Q 57.328125 12.15625 50.6875 5.359375 
Q 44.046875 -1.421875 33.015625 -1.421875 
Q 20.359375 -1.421875 13.671875 8.265625 
Q 6.984375 17.96875 6.984375 36.375 
Q 6.984375 53.65625 15.1875 63.9375 
Q 23.390625 74.21875 37.203125 74.21875 
Q 40.921875 74.21875 44.703125 73.484375 
Q 48.484375 72.75 52.59375 71.296875 
z
" id="DejaVuSans-36"/>
      </defs>
      <g transform="translate(224.257733 320.575625)rotate(-90)scale(0.1 -0.1)">
       <use xlink:href="#DejaVuSans-41"/>
       <use x="68.408203" xlink:href="#DejaVuSans-36"/>
       <use x="132.03125" xlink:href="#DejaVuSans-31"/>
      </g>
     </g>
    </g>
    <g id="xtick_12">
     <g id="line2d_12">
      <g>
       <use style="stroke:#000000;stroke-width:0.8;" x="239.821194" xlink:href="#m3cfedbfbdc" y="294.01"/>
      </g>
     </g>
     <g id="text_12">
      <!-- A67 -->
      <g transform="translate(242.580569 320.575625)rotate(-90)scale(0.1 -0.1)">
       <use xlink:href="#DejaVuSans-41"/>
       <use x="68.408203" xlink:href="#DejaVuSans-36"/>
       <use x="132.03125" xlink:href="#DejaVuSans-37"/>
      </g>
     </g>
    </g>
    <g id="xtick_13">
     <g id="line2d_13">
      <g>
       <use style="stroke:#000000;stroke-width:0.8;" x="258.14403" xlink:href="#m3cfedbfbdc" y="294.01"/>
      </g>
     </g>
     <g id="text_13">
      <!-- B2 -->
      <defs>
       <path d="M 19.671875 34.8125 
L 19.671875 8.109375 
L 35.5 8.109375 
Q 43.453125 8.109375 47.28125 11.40625 
Q 51.125 14.703125 51.125 21.484375 
Q 51.125 28.328125 47.28125 31.5625 
Q 43.453125 34.8125 35.5 34.8125 
z
M 19.671875 64.796875 
L 19.671875 42.828125 
L 34.28125 42.828125 
Q 41.5 42.828125 45.03125 45.53125 
Q 48.578125 48.25 48.578125 53.8125 
Q 48.578125 59.328125 45.03125 62.0625 
Q 41.5 64.796875 34.28125 64.796875 
z
M 9.8125 72.90625 
L 35.015625 72.90625 
Q 46.296875 72.90625 52.390625 68.21875 
Q 58.5 63.53125 58.5 54.890625 
Q 58.5 48.1875 55.375 44.234375 
Q 52.25 40.28125 46.1875 39.3125 
Q 53.46875 37.75 57.5 32.78125 
Q 61.53125 27.828125 61.53125 20.40625 
Q 61.53125 10.640625 54.890625 5.3125 
Q 48.25 0 35.984375 0 
L 9.8125 0 
z
" id="DejaVuSans-42"/>
      </defs>
      <g transform="translate(260.903405 314.233437)rotate(-90)scale(0.1 -0.1)">
       <use xlink:href="#DejaVuSans-42"/>
       <use x="68.603516" xlink:href="#DejaVuSans-32"/>
      </g>
     </g>
    </g>
    <g id="xtick_14">
     <g id="line2d_14">
      <g>
       <use style="stroke:#000000;stroke-width:0.8;" x="276.466866" xlink:href="#m3cfedbfbdc" y="294.01"/>
      </g>
     </g>
     <g id="text_14">
      <!-- B8 -->
      <defs>
       <path d="M 31.78125 34.625 
Q 24.75 34.625 20.71875 30.859375 
Q 16.703125 27.09375 16.703125 20.515625 
Q 16.703125 13.921875 20.71875 10.15625 
Q 24.75 6.390625 31.78125 6.390625 
Q 38.8125 6.390625 42.859375 10.171875 
Q 46.921875 13.96875 46.921875 20.515625 
Q 46.921875 27.09375 42.890625 30.859375 
Q 38.875 34.625 31.78125 34.625 
z
M 21.921875 38.8125 
Q 15.578125 40.375 12.03125 44.71875 
Q 8.5 49.078125 8.5 55.328125 
Q 8.5 64.0625 14.71875 69.140625 
Q 20.953125 74.21875 31.78125 74.21875 
Q 42.671875 74.21875 48.875 69.140625 
Q 55.078125 64.0625 55.078125 55.328125 
Q 55.078125 49.078125 51.53125 44.71875 
Q 48 40.375 41.703125 38.8125 
Q 48.828125 37.15625 52.796875 32.3125 
Q 56.78125 27.484375 56.78125 20.515625 
Q 56.78125 9.90625 50.3125 4.234375 
Q 43.84375 -1.421875 31.78125 -1.421875 
Q 19.734375 -1.421875 13.25 4.234375 
Q 6.78125 9.90625 6.78125 20.515625 
Q 6.78125 27.484375 10.78125 32.3125 
Q 14.796875 37.15625 21.921875 38.8125 
z
M 18.3125 54.390625 
Q 18.3125 48.734375 21.84375 45.5625 
Q 25.390625 42.390625 31.78125 42.390625 
Q 38.140625 42.390625 41.71875 45.5625 
Q 45.3125 48.734375 45.3125 54.390625 
Q 45.3125 60.0625 41.71875 63.234375 
Q 38.140625 66.40625 31.78125 66.40625 
Q 25.390625 66.40625 21.84375 63.234375 
Q 18.3125 60.0625 18.3125 54.390625 
z
" id="DejaVuSans-38"/>
      </defs>
      <g transform="translate(279.226241 314.233437)rotate(-90)scale(0.1 -0.1)">
       <use xlink:href="#DejaVuSans-42"/>
       <use x="68.603516" xlink:href="#DejaVuSans-38"/>
      </g>
     </g>
    </g>
    <g id="xtick_15">
     <g id="line2d_15">
      <g>
       <use style="stroke:#000000;stroke-width:0.8;" x="294.789701" xlink:href="#m3cfedbfbdc" y="294.01"/>
      </g>
     </g>
     <g id="text_15">
      <!-- B14 -->
      <g transform="translate(297.549076 320.595937)rotate(-90)scale(0.1 -0.1)">
       <use xlink:href="#DejaVuSans-42"/>
       <use x="68.603516" xlink:href="#DejaVuSans-31"/>
       <use x="132.226562" xlink:href="#DejaVuSans-34"/>
      </g>
     </g>
    </g>
    <g id="xtick_16">
     <g id="line2d_16">
      <g>
       <use style="stroke:#000000;stroke-width:0.8;" x="313.112537" xlink:href="#m3cfedbfbdc" y="294.01"/>
      </g>
     </g>
     <g id="text_16">
      <!-- B20 -->
      <defs>
       <path d="M 31.78125 66.40625 
Q 24.171875 66.40625 20.328125 58.90625 
Q 16.5 51.421875 16.5 36.375 
Q 16.5 21.390625 20.328125 13.890625 
Q 24.171875 6.390625 31.78125 6.390625 
Q 39.453125 6.390625 43.28125 13.890625 
Q 47.125 21.390625 47.125 36.375 
Q 47.125 51.421875 43.28125 58.90625 
Q 39.453125 66.40625 31.78125 66.40625 
z
M 31.78125 74.21875 
Q 44.046875 74.21875 50.515625 64.515625 
Q 56.984375 54.828125 56.984375 36.375 
Q 56.984375 17.96875 50.515625 8.265625 
Q 44.046875 -1.421875 31.78125 -1.421875 
Q 19.53125 -1.421875 13.0625 8.265625 
Q 6.59375 17.96875 6.59375 36.375 
Q 6.59375 54.828125 13.0625 64.515625 
Q 19.53125 74.21875 31.78125 74.21875 
z
" id="DejaVuSans-30"/>
      </defs>
      <g transform="translate(315.871912 320.595937)rotate(-90)scale(0.1 -0.1)">
       <use xlink:href="#DejaVuSans-42"/>
       <use x="68.603516" xlink:href="#DejaVuSans-32"/>
       <use x="132.226562" xlink:href="#DejaVuSans-30"/>
      </g>
     </g>
    </g>
    <g id="xtick_17">
     <g id="line2d_17">
      <g>
       <use style="stroke:#000000;stroke-width:0.8;" x="331.435373" xlink:href="#m3cfedbfbdc" y="294.01"/>
      </g>
     </g>
     <g id="text_17">
      <!-- B26 -->
      <g transform="translate(334.194748 320.595937)rotate(-90)scale(0.1 -0.1)">
       <use xlink:href="#DejaVuSans-42"/>
       <use x="68.603516" xlink:href="#DejaVuSans-32"/>
       <use x="132.226562" xlink:href="#DejaVuSans-36"/>
      </g>
     </g>
    </g>
    <g id="xtick_18">
     <g id="line2d_18">
      <g>
       <use style="stroke:#000000;stroke-width:0.8;" x="349.758209" xlink:href="#m3cfedbfbdc" y="294.01"/>
      </g>
     </g>
     <g id="text_18">
      <!-- B32 -->
      <g transform="translate(352.517584 320.595937)rotate(-90)scale(0.1 -0.1)">
       <use xlink:href="#DejaVuSans-42"/>
       <use x="68.603516" xlink:href="#DejaVuSans-33"/>
       <use x="132.226562" xlink:href="#DejaVuSans-32"/>
      </g>
     </g>
    </g>
    <g id="xtick_19">
     <g id="line2d_19">
      <g>
       <use style="stroke:#000000;stroke-width:0.8;" x="368.081045" xlink:href="#m3cfedbfbdc" y="294.01"/>
      </g>
     </g>
     <g id="text_19">
      <!-- B38 -->
      <g transform="translate(370.84042 320.595937)rotate(-90)scale(0.1 -0.1)">
       <use xlink:href="#DejaVuSans-42"/>
       <use x="68.603516" xlink:href="#DejaVuSans-33"/>
       <use x="132.226562" xlink:href="#DejaVuSans-38"/>
      </g>
     </g>
    </g>
    <g id="xtick_20">
     <g id="line2d_20">
      <g>
       <use style="stroke:#000000;stroke-width:0.8;" x="386.403881" xlink:href="#m3cfedbfbdc" y="294.01"/>
      </g>
     </g>
     <g id="text_20">
      <!-- B44 -->
      <g transform="translate(389.163256 320.595937)rotate(-90)scale(0.1 -0.1)">
       <use xlink:href="#DejaVuSans-42"/>
       <use x="68.603516" xlink:href="#DejaVuSans-34"/>
       <use x="132.226562" xlink:href="#DejaVuSans-34"/>
      </g>
     </g>
    </g>
    <g id="xtick_21">
     <g id="line2d_21">
      <g>
       <use style="stroke:#000000;stroke-width:0.8;" x="404.726716" xlink:href="#m3cfedbfbdc" y="294.01"/>
      </g>
     </g>
     <g id="text_21">
      <!-- B50 -->
      <g transform="translate(407.486091 320.595937)rotate(-90)scale(0.1 -0.1)">
       <use xlink:href="#DejaVuSans-42"/>
       <use x="68.603516" xlink:href="#DejaVuSans-35"/>
       <use x="132.226562" xlink:href="#DejaVuSans-30"/>
      </g>
     </g>
    </g>
    <g id="xtick_22">
     <g id="line2d_22">
      <g>
       <use style="stroke:#000000;stroke-width:0.8;" x="423.049552" xlink:href="#m3cfedbfbdc" y="294.01"/>
      </g>
     </g>
     <g id="text_22">
      <!-- B56 -->
      <g transform="translate(425.808927 320.595937)rotate(-90)scale(0.1 -0.1)">
       <use xlink:href="#DejaVuSans-42"/>
       <use x="68.603516" xlink:href="#DejaVuSans-35"/>
       <use x="132.226562" xlink:href="#DejaVuSans-36"/>
      </g>
     </g>
    </g>
    <g id="xtick_23">
     <g id="line2d_23">
      <g>
       <use style="stroke:#000000;stroke-width:0.8;" x="441.372388" xlink:href="#m3cfedbfbdc" y="294.01"/>
      </g>
     </g>
     <g id="text_23">
      <!-- B62 -->
      <g transform="translate(444.131763 320.595937)rotate(-90)scale(0.1 -0.1)">
       <use xlink:href="#DejaVuSans-42"/>
       <use x="68.603516" xlink:href="#DejaVuSans-36"/>
       <use x="132.226562" xlink:href="#DejaVuSans-32"/>
      </g>
     </g>
    </g>
    <g id="text_24">
     <!-- Residue index -->
     <defs>
      <path d="M 44.390625 34.1875 
Q 47.5625 33.109375 50.5625 29.59375 
Q 53.5625 26.078125 56.59375 19.921875 
L 66.609375 0 
L 56 0 
L 46.6875 18.703125 
Q 43.0625 26.03125 39.671875 28.421875 
Q 36.28125 30.8125 30.421875 30.8125 
L 19.671875 30.8125 
L 19.671875 0 
L 9.8125 0 
L 9.8125 72.90625 
L 32.078125 72.90625 
Q 44.578125 72.90625 50.734375 67.671875 
Q 56.890625 62.453125 56.890625 51.90625 
Q 56.890625 45.015625 53.6875 40.46875 
Q 50.484375 35.9375 44.390625 34.1875 
z
M 19.671875 64.796875 
L 19.671875 38.921875 
L 32.078125 38.921875 
Q 39.203125 38.921875 42.84375 42.21875 
Q 46.484375 45.515625 46.484375 51.90625 
Q 46.484375 58.296875 42.84375 61.546875 
Q 39.203125 64.796875 32.078125 64.796875 
z
" id="DejaVuSans-52"/>
      <path d="M 56.203125 29.59375 
L 56.203125 25.203125 
L 14.890625 25.203125 
Q 15.484375 15.921875 20.484375 11.0625 
Q 25.484375 6.203125 34.421875 6.203125 
Q 39.59375 6.203125 44.453125 7.46875 
Q 49.3125 8.734375 54.109375 11.28125 
L 54.109375 2.78125 
Q 49.265625 0.734375 44.1875 -0.34375 
Q 39.109375 -1.421875 33.890625 -1.421875 
Q 20.796875 -1.421875 13.15625 6.1875 
Q 5.515625 13.8125 5.515625 26.8125 
Q 5.515625 40.234375 12.765625 48.109375 
Q 20.015625 56 32.328125 56 
Q 43.359375 56 49.78125 48.890625 
Q 56.203125 41.796875 56.203125 29.59375 
z
M 47.21875 32.234375 
Q 47.125 39.59375 43.09375 43.984375 
Q 39.0625 48.390625 32.421875 48.390625 
Q 24.90625 48.390625 20.390625 44.140625 
Q 15.875 39.890625 15.1875 32.171875 
z
" id="DejaVuSans-65"/>
      <path d="M 44.28125 53.078125 
L 44.28125 44.578125 
Q 40.484375 46.53125 36.375 47.5 
Q 32.28125 48.484375 27.875 48.484375 
Q 21.1875 48.484375 17.84375 46.4375 
Q 14.5 44.390625 14.5 40.28125 
Q 14.5 37.15625 16.890625 35.375 
Q 19.28125 33.59375 26.515625 31.984375 
L 29.59375 31.296875 
Q 39.15625 29.25 43.1875 25.515625 
Q 47.21875 21.78125 47.21875 15.09375 
Q 47.21875 7.46875 41.1875 3.015625 
Q 35.15625 -1.421875 24.609375 -1.421875 
Q 20.21875 -1.421875 15.453125 -0.5625 
Q 10.6875 0.296875 5.421875 2 
L 5.421875 11.28125 
Q 10.40625 8.6875 15.234375 7.390625 
Q 20.0625 6.109375 24.8125 6.109375 
Q 31.15625 6.109375 34.5625 8.28125 
Q 37.984375 10.453125 37.984375 14.40625 
Q 37.984375 18.0625 35.515625 20.015625 
Q 33.0625 21.96875 24.703125 23.78125 
L 21.578125 24.515625 
Q 13.234375 26.265625 9.515625 29.90625 
Q 5.8125 33.546875 5.8125 39.890625 
Q 5.8125 47.609375 11.28125 51.796875 
Q 16.75 56 26.8125 56 
Q 31.78125 56 36.171875 55.265625 
Q 40.578125 54.546875 44.28125 53.078125 
z
" id="DejaVuSans-73"/>
      <path d="M 9.421875 54.6875 
L 18.40625 54.6875 
L 18.40625 0 
L 9.421875 0 
z
M 9.421875 75.984375 
L 18.40625 75.984375 
L 18.40625 64.59375 
L 9.421875 64.59375 
z
" id="DejaVuSans-69"/>
      <path d="M 45.40625 46.390625 
L 45.40625 75.984375 
L 54.390625 75.984375 
L 54.390625 0 
L 45.40625 0 
L 45.40625 8.203125 
Q 42.578125 3.328125 38.25 0.953125 
Q 33.9375 -1.421875 27.875 -1.421875 
Q 17.96875 -1.421875 11.734375 6.484375 
Q 5.515625 14.40625 5.515625 27.296875 
Q 5.515625 40.1875 11.734375 48.09375 
Q 17.96875 56 27.875 56 
Q 33.9375 56 38.25 53.625 
Q 42.578125 51.265625 45.40625 46.390625 
z
M 14.796875 27.296875 
Q 14.796875 17.390625 18.875 11.75 
Q 22.953125 6.109375 30.078125 6.109375 
Q 37.203125 6.109375 41.296875 11.75 
Q 45.40625 17.390625 45.40625 27.296875 
Q 45.40625 37.203125 41.296875 42.84375 
Q 37.203125 48.484375 30.078125 48.484375 
Q 22.953125 48.484375 18.875 42.84375 
Q 14.796875 37.203125 14.796875 27.296875 
z
" id="DejaVuSans-64"/>
      <path d="M 8.5 21.578125 
L 8.5 54.6875 
L 17.484375 54.6875 
L 17.484375 21.921875 
Q 17.484375 14.15625 20.5 10.265625 
Q 23.53125 6.390625 29.59375 6.390625 
Q 36.859375 6.390625 41.078125 11.03125 
Q 45.3125 15.671875 45.3125 23.6875 
L 45.3125 54.6875 
L 54.296875 54.6875 
L 54.296875 0 
L 45.3125 0 
L 45.3125 8.40625 
Q 42.046875 3.421875 37.71875 1 
Q 33.40625 -1.421875 27.6875 -1.421875 
Q 18.265625 -1.421875 13.375 4.4375 
Q 8.5 10.296875 8.5 21.578125 
z
M 31.109375 56 
z
" id="DejaVuSans-75"/>
      <path id="DejaVuSans-20"/>
      <path d="M 54.890625 33.015625 
L 54.890625 0 
L 45.90625 0 
L 45.90625 32.71875 
Q 45.90625 40.484375 42.875 44.328125 
Q 39.84375 48.1875 33.796875 48.1875 
Q 26.515625 48.1875 22.3125 43.546875 
Q 18.109375 38.921875 18.109375 30.90625 
L 18.109375 0 
L 9.078125 0 
L 9.078125 54.6875 
L 18.109375 54.6875 
L 18.109375 46.1875 
Q 21.34375 51.125 25.703125 53.5625 
Q 30.078125 56 35.796875 56 
Q 45.21875 56 50.046875 50.171875 
Q 54.890625 44.34375 54.890625 33.015625 
z
" id="DejaVuSans-6e"/>
      <path d="M 54.890625 54.6875 
L 35.109375 28.078125 
L 55.90625 0 
L 45.3125 0 
L 29.390625 21.484375 
L 13.484375 0 
L 2.875 0 
L 24.125 28.609375 
L 4.6875 54.6875 
L 15.28125 54.6875 
L 29.78125 35.203125 
L 44.28125 54.6875 
z
" id="DejaVuSans-78"/>
     </defs>
     <g transform="translate(207.557813 332.194375)scale(0.1 -0.1)">
      <use xlink:href="#DejaVuSans-52"/>
      <use x="69.419922" xlink:href="#DejaVuSans-65"/>
      <use x="130.943359" xlink:href="#DejaVuSans-73"/>
      <use x="183.042969" xlink:href="#DejaVuSans-69"/>
      <use x="210.826172" xlink:href="#DejaVuSans-64"/>
      <use x="274.302734" xlink:href="#DejaVuSans-75"/>
      <use x="337.681641" xlink:href="#DejaVuSans-65"/>
      <use x="399.205078" xlink:href="#DejaVuSans-20"/>
      <use x="430.992188" xlink:href="#DejaVuSans-69"/>
      <use x="458.775391" xlink:href="#DejaVuSans-6e"/>
      <use x="522.154297" xlink:href="#DejaVuSans-64"/>
      <use x="585.630859" xlink:href="#DejaVuSans-65"/>
      <use x="647.138672" xlink:href="#DejaVuSans-78"/>
     </g>
    </g>
   </g>
   <g id="matplotlib.axis_2">
    <g id="ytick_1">
     <g id="line2d_24">
      <defs>
       <path d="M 0 0 
L -3.5 0 
" id="mb7e50703a1" style="stroke:#000000;stroke-width:0.8;"/>
      </defs>
      <g>
       <use style="stroke:#000000;stroke-width:0.8;" x="38.27" xlink:href="#mb7e50703a1" y="270.82544"/>
      </g>
     </g>
     <g id="text_25">
      <!-- 1 -->
      <g transform="translate(24.9075 274.624658)scale(0.1 -0.1)">
       <use xlink:href="#DejaVuSans-31"/>
      </g>
     </g>
    </g>
    <g id="ytick_2">
     <g id="line2d_25">
      <g>
       <use style="stroke:#000000;stroke-width:0.8;" x="38.27" xlink:href="#mb7e50703a1" y="222.365669"/>
      </g>
     </g>
     <g id="text_26">
      <!-- 2 -->
      <g transform="translate(24.9075 226.164888)scale(0.1 -0.1)">
       <use xlink:href="#DejaVuSans-32"/>
      </g>
     </g>
    </g>
    <g id="ytick_3">
     <g id="line2d_26">
      <g>
       <use style="stroke:#000000;stroke-width:0.8;" x="38.27" xlink:href="#mb7e50703a1" y="173.905899"/>
      </g>
     </g>
     <g id="text_27">
      <!-- 3 -->
      <g transform="translate(24.9075 177.705118)scale(0.1 -0.1)">
       <use xlink:href="#DejaVuSans-33"/>
      </g>
     </g>
    </g>
    <g id="ytick_4">
     <g id="line2d_27">
      <g>
       <use style="stroke:#000000;stroke-width:0.8;" x="38.27" xlink:href="#mb7e50703a1" y="125.446129"/>
      </g>
     </g>
     <g id="text_28">
      <!-- 4 -->
      <g transform="translate(24.9075 129.245348)scale(0.1 -0.1)">
       <use xlink:href="#DejaVuSans-34"/>
      </g>
     </g>
    </g>
    <g id="ytick_5">
     <g id="line2d_28">
      <g>
       <use style="stroke:#000000;stroke-width:0.8;" x="38.27" xlink:href="#mb7e50703a1" y="76.986359"/>
      </g>
     </g>
     <g id="text_29">
      <!-- 5 -->
      <g transform="translate(24.9075 80.785577)scale(0.1 -0.1)">
       <use xlink:href="#DejaVuSans-35"/>
      </g>
     </g>
    </g>
    <g id="ytick_6">
     <g id="line2d_29">
      <g>
       <use style="stroke:#000000;stroke-width:0.8;" x="38.27" xlink:href="#mb7e50703a1" y="28.526588"/>
      </g>
     </g>
     <g id="text_30">
      <!-- 6 -->
      <g transform="translate(24.9075 32.325807)scale(0.1 -0.1)">
       <use xlink:href="#DejaVuSans-36"/>
      </g>
     </g>
    </g>
    <g id="text_31">
     <!-- RMSF -->
     <defs>
      <path d="M 9.8125 72.90625 
L 24.515625 72.90625 
L 43.109375 23.296875 
L 61.8125 72.90625 
L 76.515625 72.90625 
L 76.515625 0 
L 66.890625 0 
L 66.890625 64.015625 
L 48.09375 14.015625 
L 38.1875 14.015625 
L 19.390625 64.015625 
L 19.390625 0 
L 9.8125 0 
z
" id="DejaVuSans-4d"/>
      <path d="M 53.515625 70.515625 
L 53.515625 60.890625 
Q 47.90625 63.578125 42.921875 64.890625 
Q 37.9375 66.21875 33.296875 66.21875 
Q 25.25 66.21875 20.875 63.09375 
Q 16.5 59.96875 16.5 54.203125 
Q 16.5 49.359375 19.40625 46.890625 
Q 22.3125 44.4375 30.421875 42.921875 
L 36.375 41.703125 
Q 47.40625 39.59375 52.65625 34.296875 
Q 57.90625 29 57.90625 20.125 
Q 57.90625 9.515625 50.796875 4.046875 
Q 43.703125 -1.421875 29.984375 -1.421875 
Q 24.8125 -1.421875 18.96875 -0.25 
Q 13.140625 0.921875 6.890625 3.21875 
L 6.890625 13.375 
Q 12.890625 10.015625 18.65625 8.296875 
Q 24.421875 6.59375 29.984375 6.59375 
Q 38.421875 6.59375 43.015625 9.90625 
Q 47.609375 13.234375 47.609375 19.390625 
Q 47.609375 24.75 44.3125 27.78125 
Q 41.015625 30.8125 33.5 32.328125 
L 27.484375 33.5 
Q 16.453125 35.6875 11.515625 40.375 
Q 6.59375 45.0625 6.59375 53.421875 
Q 6.59375 63.09375 13.40625 68.65625 
Q 20.21875 74.21875 32.171875 74.21875 
Q 37.3125 74.21875 42.625 73.28125 
Q 47.953125 72.359375 53.515625 70.515625 
z
" id="DejaVuSans-53"/>
      <path d="M 9.8125 72.90625 
L 51.703125 72.90625 
L 51.703125 64.59375 
L 19.671875 64.59375 
L 19.671875 43.109375 
L 48.578125 43.109375 
L 48.578125 34.8125 
L 19.671875 34.8125 
L 19.671875 0 
L 9.8125 0 
z
" id="DejaVuSans-46"/>
     </defs>
     <g transform="translate(18.827813 167.503281)rotate(-90)scale(0.1 -0.1)">
      <use xlink:href="#DejaVuSans-52"/>
      <use x="69.482422" xlink:href="#DejaVuSans-4d"/>
      <use x="155.761719" xlink:href="#DejaVuSans-53"/>
      <use x="219.238281" xlink:href="#DejaVuSans-46"/>
     </g>
    </g>
   </g>
   <g id="line2d_30">
    <path clip-path="url(#pfe07d4933c)" d="M 38.27 125.106721 
L 41.323806 207.654014 
L 44.377612 212.948354 
L 47.431418 222.540626 
L 50.485224 244.419167 
L 53.53903 253.703176 
L 56.592836 261.830856 
L 59.646642 256.886758 
L 62.700448 218.32271 
L 65.754254 204.449034 
L 68.80806 126.092379 
L 71.861866 77.733018 
L 74.915672 104.747119 
L 77.969478 157.286697 
L 81.023284 196.570253 
L 84.07709 211.7543 
L 87.130896 234.031359 
L 90.184701 205.78474 
L 93.238507 220.844272 
L 96.292313 194.412468 
L 99.346119 179.958389 
L 102.399925 169.104972 
L 105.453731 146.629142 
L 108.507537 150.380482 
L 111.561343 115.455527 
L 114.615149 133.321692 
L 117.668955 96.813329 
L 120.722761 113.001086 
L 123.776567 140.702039 
L 126.830373 208.124791 
L 129.884179 241.379192 
L 132.937985 234.875665 
L 135.991791 244.011752 
L 139.045597 233.472919 
L 142.099403 235.474185 
L 145.153209 232.119878 
L 148.207015 216.166908 
L 151.260821 212.034822 
L 154.314627 214.438955 
L 157.368433 230.673736 
L 160.422239 238.640475 
L 163.476045 256.180558 
L 166.529851 258.121579 
L 169.583657 255.304982 
L 172.637463 257.408967 
L 175.691269 265.244109 
L 178.745075 259.338743 
L 181.798881 255.063186 
L 184.852687 267.431441 
L 187.906493 274.256588 
L 190.960299 258.774555 
L 194.014104 254.676717 
L 197.06791 262.463965 
L 200.121716 258.055427 
L 203.175522 246.267831 
L 206.229328 233.74557 
L 209.283134 253.527766 
L 212.33694 242.009399 
L 215.390746 236.836916 
L 218.444552 223.220301 
L 221.498358 214.068108 
L 224.552164 211.147417 
L 227.60597 208.393506 
L 230.659776 225.166028 
L 233.713582 216.315356 
L 236.767388 224.345848 
L 239.821194 189.601167 
L 242.875 178.213155 
L 245.928806 129.241995 
L 248.982612 95.290929 
L 252.036418 26.078636 
L 255.090224 58.099843 
L 258.14403 103.371255 
L 264.251642 200.48018 
L 267.305448 199.424857 
L 270.359254 207.903897 
L 273.41306 241.53473 
L 276.466866 240.203824 
L 279.520672 228.068839 
L 282.574478 240.390687 
L 285.628284 263.851839 
L 288.68209 249.504978 
L 291.735896 242.1366 
L 294.789701 260.771042 
L 297.843507 263.654912 
L 300.897313 256.687491 
L 303.951119 259.616924 
L 307.004925 270.395794 
L 310.058731 268.453801 
L 313.112537 271.654768 
L 316.166343 273.234539 
L 319.220149 265.578242 
L 322.273955 262.119173 
L 325.327761 269.887969 
L 328.381567 250.61338 
L 331.435373 240.98956 
L 334.489179 252.925591 
L 337.542985 248.414808 
L 340.596791 230.557315 
L 343.650597 233.764837 
L 346.704403 240.721081 
L 349.758209 199.930371 
L 352.812015 194.686801 
L 355.865821 188.055291 
L 358.919627 224.249152 
L 361.973433 267.849238 
L 365.027239 250.467207 
L 368.081045 249.372442 
L 371.134851 269.269949 
L 374.188657 269.164487 
L 377.242463 268.099598 
L 383.350075 279.022715 
L 386.403881 281.251364 
L 389.457687 279.252203 
L 392.511493 274.002415 
L 395.565299 276.573305 
L 398.619104 277.31687 
L 401.67291 270.962734 
L 404.726716 270.669473 
L 407.780522 274.403693 
L 410.834328 269.701778 
L 413.888134 266.607267 
L 416.94194 272.552226 
L 419.995746 263.035952 
L 423.049552 256.400515 
L 426.103358 252.593749 
L 429.157164 245.973167 
L 432.21097 224.685881 
L 435.264776 212.510012 
L 438.318582 205.106157 
L 441.372388 175.525139 
L 444.426194 93.423859 
L 447.48 36.620761 
L 447.48 36.620761 
" style="fill:none;stroke:#666666;stroke-dasharray:1,1.65;stroke-dashoffset:0;"/>
    <defs>
     <path d="M 0 0.5 
C 0.132602 0.5 0.25979 0.447317 0.353553 0.353553 
C 0.447317 0.25979 0.5 0.132602 0.5 0 
C 0.5 -0.132602 0.447317 -0.25979 0.353553 -0.353553 
C 0.25979 -0.447317 0.132602 -0.5 0 -0.5 
C -0.132602 -0.5 -0.25979 -0.447317 -0.353553 -0.353553 
C -0.447317 -0.25979 -0.5 -0.132602 -0.5 0 
C -0.5 0.132602 -0.447317 0.25979 -0.353553 0.353553 
C -0.25979 0.447317 -0.132602 0.5 0 0.5 
z
" id="m623e27c962" style="stroke:#666666;"/>
    </defs>
    <g clip-path="url(#pfe07d4933c)">
     <use style="fill:#666666;stroke:#666666;" x="38.27" xlink:href="#m623e27c962" y="125.106721"/>
     <use style="fill:#666666;stroke:#666666;" x="41.323806" xlink:href="#m623e27c962" y="207.654014"/>
     <use style="fill:#666666;stroke:#666666;" x="44.377612" xlink:href="#m623e27c962" y="212.948354"/>
     <use style="fill:#666666;stroke:#666666;" x="47.431418" xlink:href="#m623e27c962" y="222.540626"/>
     <use style="fill:#666666;stroke:#666666;" x="50.485224" xlink:href="#m623e27c962" y="244.419167"/>
     <use style="fill:#666666;stroke:#666666;" x="53.53903" xlink:href="#m623e27c962" y="253.703176"/>
     <use style="fill:#666666;stroke:#666666;" x="56.592836" xlink:href="#m623e27c962" y="261.830856"/>
     <use style="fill:#666666;stroke:#666666;" x="59.646642" xlink:href="#m623e27c962" y="256.886758"/>
     <use style="fill:#666666;stroke:#666666;" x="62.700448" xlink:href="#m623e27c962" y="218.32271"/>
     <use style="fill:#666666;stroke:#666666;" x="65.754254" xlink:href="#m623e27c962" y="204.449034"/>
     <use style="fill:#666666;stroke:#666666;" x="68.80806" xlink:href="#m623e27c962" y="126.092379"/>
     <use style="fill:#666666;stroke:#666666;" x="71.861866" xlink:href="#m623e27c962" y="77.733018"/>
     <use style="fill:#666666;stroke:#666666;" x="74.915672" xlink:href="#m623e27c962" y="104.747119"/>
     <use style="fill:#666666;stroke:#666666;" x="77.969478" xlink:href="#m623e27c962" y="157.286697"/>
     <use style="fill:#666666;stroke:#666666;" x="81.023284" xlink:href="#m623e27c962" y="196.570253"/>
     <use style="fill:#666666;stroke:#666666;" x="84.07709" xlink:href="#m623e27c962" y="211.7543"/>
     <use style="fill:#666666;stroke:#666666;" x="87.130896" xlink:href="#m623e27c962" y="234.031359"/>
     <use style="fill:#666666;stroke:#666666;" x="90.184701" xlink:href="#m623e27c962" y="205.78474"/>
     <use style="fill:#666666;stroke:#666666;" x="93.238507" xlink:href="#m623e27c962" y="220.844272"/>
     <use style="fill:#666666;stroke:#666666;" x="96.292313" xlink:href="#m623e27c962" y="194.412468"/>
     <use style="fill:#666666;stroke:#666666;" x="99.346119" xlink:href="#m623e27c962" y="179.958389"/>
     <use style="fill:#666666;stroke:#666666;" x="102.399925" xlink:href="#m623e27c962" y="169.104972"/>
     <use style="fill:#666666;stroke:#666666;" x="105.453731" xlink:href="#m623e27c962" y="146.629142"/>
     <use style="fill:#666666;stroke:#666666;" x="108.507537" xlink:href="#m623e27c962" y="150.380482"/>
     <use style="fill:#666666;stroke:#666666;" x="111.561343" xlink:href="#m623e27c962" y="115.455527"/>
     <use style="fill:#666666;stroke:#666666;" x="114.615149" xlink:href="#m623e27c962" y="133.321692"/>
     <use style="fill:#666666;stroke:#666666;" x="117.668955" xlink:href="#m623e27c962" y="96.813329"/>
     <use style="fill:#666666;stroke:#666666;" x="120.722761" xlink:href="#m623e27c962" y="113.001086"/>
     <use style="fill:#666666;stroke:#666666;" x="123.776567" xlink:href="#m623e27c962" y="140.702039"/>
     <use style="fill:#666666;stroke:#666666;" x="126.830373" xlink:href="#m623e27c962" y="208.124791"/>
     <use style="fill:#666666;stroke:#666666;" x="129.884179" xlink:href="#m623e27c962" y="241.379192"/>
     <use style="fill:#666666;stroke:#666666;" x="132.937985" xlink:href="#m623e27c962" y="234.875665"/>
     <use style="fill:#666666;stroke:#666666;" x="135.991791" xlink:href="#m623e27c962" y="244.011752"/>
     <use style="fill:#666666;stroke:#666666;" x="139.045597" xlink:href="#m623e27c962" y="233.472919"/>
     <use style="fill:#666666;stroke:#666666;" x="142.099403" xlink:href="#m623e27c962" y="235.474185"/>
     <use style="fill:#666666;stroke:#666666;" x="145.153209" xlink:href="#m623e27c962" y="232.119878"/>
     <use style="fill:#666666;stroke:#666666;" x="148.207015" xlink:href="#m623e27c962" y="216.166908"/>
     <use style="fill:#666666;stroke:#666666;" x="151.260821" xlink:href="#m623e27c962" y="212.034822"/>
     <use style="fill:#666666;stroke:#666666;" x="154.314627" xlink:href="#m623e27c962" y="214.438955"/>
     <use style="fill:#666666;stroke:#666666;" x="157.368433" xlink:href="#m623e27c962" y="230.673736"/>
     <use style="fill:#666666;stroke:#666666;" x="160.422239" xlink:href="#m623e27c962" y="238.640475"/>
     <use style="fill:#666666;stroke:#666666;" x="163.476045" xlink:href="#m623e27c962" y="256.180558"/>
     <use style="fill:#666666;stroke:#666666;" x="166.529851" xlink:href="#m623e27c962" y="258.121579"/>
     <use style="fill:#666666;stroke:#666666;" x="169.583657" xlink:href="#m623e27c962" y="255.304982"/>
     <use style="fill:#666666;stroke:#666666;" x="172.637463" xlink:href="#m623e27c962" y="257.408967"/>
     <use style="fill:#666666;stroke:#666666;" x="175.691269" xlink:href="#m623e27c962" y="265.244109"/>
     <use style="fill:#666666;stroke:#666666;" x="178.745075" xlink:href="#m623e27c962" y="259.338743"/>
     <use style="fill:#666666;stroke:#666666;" x="181.798881" xlink:href="#m623e27c962" y="255.063186"/>
     <use style="fill:#666666;stroke:#666666;" x="184.852687" xlink:href="#m623e27c962" y="267.431441"/>
     <use style="fill:#666666;stroke:#666666;" x="187.906493" xlink:href="#m623e27c962" y="274.256588"/>
     <use style="fill:#666666;stroke:#666666;" x="190.960299" xlink:href="#m623e27c962" y="258.774555"/>
     <use style="fill:#666666;stroke:#666666;" x="194.014104" xlink:href="#m623e27c962" y="254.676717"/>
     <use style="fill:#666666;stroke:#666666;" x="197.06791" xlink:href="#m623e27c962" y="262.463965"/>
     <use style="fill:#666666;stroke:#666666;" x="200.121716" xlink:href="#m623e27c962" y="258.055427"/>
     <use style="fill:#666666;stroke:#666666;" x="203.175522" xlink:href="#m623e27c962" y="246.267831"/>
     <use style="fill:#666666;stroke:#666666;" x="206.229328" xlink:href="#m623e27c962" y="233.74557"/>
     <use style="fill:#666666;stroke:#666666;" x="209.283134" xlink:href="#m623e27c962" y="253.527766"/>
     <use style="fill:#666666;stroke:#666666;" x="212.33694" xlink:href="#m623e27c962" y="242.009399"/>
     <use style="fill:#666666;stroke:#666666;" x="215.390746" xlink:href="#m623e27c962" y="236.836916"/>
     <use style="fill:#666666;stroke:#666666;" x="218.444552" xlink:href="#m623e27c962" y="223.220301"/>
     <use style="fill:#666666;stroke:#666666;" x="221.498358" xlink:href="#m623e27c962" y="214.068108"/>
     <use style="fill:#666666;stroke:#666666;" x="224.552164" xlink:href="#m623e27c962" y="211.147417"/>
     <use style="fill:#666666;stroke:#666666;" x="227.60597" xlink:href="#m623e27c962" y="208.393506"/>
     <use style="fill:#666666;stroke:#666666;" x="230.659776" xlink:href="#m623e27c962" y="225.166028"/>
     <use style="fill:#666666;stroke:#666666;" x="233.713582" xlink:href="#m623e27c962" y="216.315356"/>
     <use style="fill:#666666;stroke:#666666;" x="236.767388" xlink:href="#m623e27c962" y="224.345848"/>
     <use style="fill:#666666;stroke:#666666;" x="239.821194" xlink:href="#m623e27c962" y="189.601167"/>
     <use style="fill:#666666;stroke:#666666;" x="242.875" xlink:href="#m623e27c962" y="178.213155"/>
     <use style="fill:#666666;stroke:#666666;" x="245.928806" xlink:href="#m623e27c962" y="129.241995"/>
     <use style="fill:#666666;stroke:#666666;" x="248.982612" xlink:href="#m623e27c962" y="95.290929"/>
     <use style="fill:#666666;stroke:#666666;" x="252.036418" xlink:href="#m623e27c962" y="26.078636"/>
     <use style="fill:#666666;stroke:#666666;" x="255.090224" xlink:href="#m623e27c962" y="58.099843"/>
     <use style="fill:#666666;stroke:#666666;" x="258.14403" xlink:href="#m623e27c962" y="103.371255"/>
     <use style="fill:#666666;stroke:#666666;" x="261.197836" xlink:href="#m623e27c962" y="151.305126"/>
     <use style="fill:#666666;stroke:#666666;" x="264.251642" xlink:href="#m623e27c962" y="200.48018"/>
     <use style="fill:#666666;stroke:#666666;" x="267.305448" xlink:href="#m623e27c962" y="199.424857"/>
     <use style="fill:#666666;stroke:#666666;" x="270.359254" xlink:href="#m623e27c962" y="207.903897"/>
     <use style="fill:#666666;stroke:#666666;" x="273.41306" xlink:href="#m623e27c962" y="241.53473"/>
     <use style="fill:#666666;stroke:#666666;" x="276.466866" xlink:href="#m623e27c962" y="240.203824"/>
     <use style="fill:#666666;stroke:#666666;" x="279.520672" xlink:href="#m623e27c962" y="228.068839"/>
     <use style="fill:#666666;stroke:#666666;" x="282.574478" xlink:href="#m623e27c962" y="240.390687"/>
     <use style="fill:#666666;stroke:#666666;" x="285.628284" xlink:href="#m623e27c962" y="263.851839"/>
     <use style="fill:#666666;stroke:#666666;" x="288.68209" xlink:href="#m623e27c962" y="249.504978"/>
     <use style="fill:#666666;stroke:#666666;" x="291.735896" xlink:href="#m623e27c962" y="242.1366"/>
     <use style="fill:#666666;stroke:#666666;" x="294.789701" xlink:href="#m623e27c962" y="260.771042"/>
     <use style="fill:#666666;stroke:#666666;" x="297.843507" xlink:href="#m623e27c962" y="263.654912"/>
     <use style="fill:#666666;stroke:#666666;" x="300.897313" xlink:href="#m623e27c962" y="256.687491"/>
     <use style="fill:#666666;stroke:#666666;" x="303.951119" xlink:href="#m623e27c962" y="259.616924"/>
     <use style="fill:#666666;stroke:#666666;" x="307.004925" xlink:href="#m623e27c962" y="270.395794"/>
     <use style="fill:#666666;stroke:#666666;" x="310.058731" xlink:href="#m623e27c962" y="268.453801"/>
     <use style="fill:#666666;stroke:#666666;" x="313.112537" xlink:href="#m623e27c962" y="271.654768"/>
     <use style="fill:#666666;stroke:#666666;" x="316.166343" xlink:href="#m623e27c962" y="273.234539"/>
     <use style="fill:#666666;stroke:#666666;" x="319.220149" xlink:href="#m623e27c962" y="265.578242"/>
     <use style="fill:#666666;stroke:#666666;" x="322.273955" xlink:href="#m623e27c962" y="262.119173"/>
     <use style="fill:#666666;stroke:#666666;" x="325.327761" xlink:href="#m623e27c962" y="269.887969"/>
     <use style="fill:#666666;stroke:#666666;" x="328.381567" xlink:href="#m623e27c962" y="250.61338"/>
     <use style="fill:#666666;stroke:#666666;" x="331.435373" xlink:href="#m623e27c962" y="240.98956"/>
     <use style="fill:#666666;stroke:#666666;" x="334.489179" xlink:href="#m623e27c962" y="252.925591"/>
     <use style="fill:#666666;stroke:#666666;" x="337.542985" xlink:href="#m623e27c962" y="248.414808"/>
     <use style="fill:#666666;stroke:#666666;" x="340.596791" xlink:href="#m623e27c962" y="230.557315"/>
     <use style="fill:#666666;stroke:#666666;" x="343.650597" xlink:href="#m623e27c962" y="233.764837"/>
     <use style="fill:#666666;stroke:#666666;" x="346.704403" xlink:href="#m623e27c962" y="240.721081"/>
     <use style="fill:#666666;stroke:#666666;" x="349.758209" xlink:href="#m623e27c962" y="199.930371"/>
     <use style="fill:#666666;stroke:#666666;" x="352.812015" xlink:href="#m623e27c962" y="194.686801"/>
     <use style="fill:#666666;stroke:#666666;" x="355.865821" xlink:href="#m623e27c962" y="188.055291"/>
     <use style="fill:#666666;stroke:#666666;" x="358.919627" xlink:href="#m623e27c962" y="224.249152"/>
     <use style="fill:#666666;stroke:#666666;" x="361.973433" xlink:href="#m623e27c962" y="267.849238"/>
     <use style="fill:#666666;stroke:#666666;" x="365.027239" xlink:href="#m623e27c962" y="250.467207"/>
     <use style="fill:#666666;stroke:#666666;" x="368.081045" xlink:href="#m623e27c962" y="249.372442"/>
     <use style="fill:#666666;stroke:#666666;" x="371.134851" xlink:href="#m623e27c962" y="269.269949"/>
     <use style="fill:#666666;stroke:#666666;" x="374.188657" xlink:href="#m623e27c962" y="269.164487"/>
     <use style="fill:#666666;stroke:#666666;" x="377.242463" xlink:href="#m623e27c962" y="268.099598"/>
     <use style="fill:#666666;stroke:#666666;" x="380.296269" xlink:href="#m623e27c962" y="273.657383"/>
     <use style="fill:#666666;stroke:#666666;" x="383.350075" xlink:href="#m623e27c962" y="279.022715"/>
     <use style="fill:#666666;stroke:#666666;" x="386.403881" xlink:href="#m623e27c962" y="281.251364"/>
     <use style="fill:#666666;stroke:#666666;" x="389.457687" xlink:href="#m623e27c962" y="279.252203"/>
     <use style="fill:#666666;stroke:#666666;" x="392.511493" xlink:href="#m623e27c962" y="274.002415"/>
     <use style="fill:#666666;stroke:#666666;" x="395.565299" xlink:href="#m623e27c962" y="276.573305"/>
     <use style="fill:#666666;stroke:#666666;" x="398.619104" xlink:href="#m623e27c962" y="277.31687"/>
     <use style="fill:#666666;stroke:#666666;" x="401.67291" xlink:href="#m623e27c962" y="270.962734"/>
     <use style="fill:#666666;stroke:#666666;" x="404.726716" xlink:href="#m623e27c962" y="270.669473"/>
     <use style="fill:#666666;stroke:#666666;" x="407.780522" xlink:href="#m623e27c962" y="274.403693"/>
     <use style="fill:#666666;stroke:#666666;" x="410.834328" xlink:href="#m623e27c962" y="269.701778"/>
     <use style="fill:#666666;stroke:#666666;" x="413.888134" xlink:href="#m623e27c962" y="266.607267"/>
     <use style="fill:#666666;stroke:#666666;" x="416.94194" xlink:href="#m623e27c962" y="272.552226"/>
     <use style="fill:#666666;stroke:#666666;" x="419.995746" xlink:href="#m623e27c962" y="263.035952"/>
     <use style="fill:#666666;stroke:#666666;" x="423.049552" xlink:href="#m623e27c962" y="256.400515"/>
     <use style="fill:#666666;stroke:#666666;" x="426.103358" xlink:href="#m623e27c962" y="252.593749"/>
     <use style="fill:#666666;stroke:#666666;" x="429.157164" xlink:href="#m623e27c962" y="245.973167"/>
     <use style="fill:#666666;stroke:#666666;" x="432.21097" xlink:href="#m623e27c962" y="224.685881"/>
     <use style="fill:#666666;stroke:#666666;" x="435.264776" xlink:href="#m623e27c962" y="212.510012"/>
     <use style="fill:#666666;stroke:#666666;" x="438.318582" xlink:href="#m623e27c962" y="205.106157"/>
     <use style="fill:#666666;stroke:#666666;" x="441.372388" xlink:href="#m623e27c962" y="175.525139"/>
     <use style="fill:#666666;stroke:#666666;" x="444.426194" xlink:href="#m623e27c962" y="93.423859"/>
     <use style="fill:#666666;stroke:#666666;" x="447.48" xlink:href="#m623e27c962" y="36.620761"/>
    </g>
   </g>
   <g id="patch_3">
    <path d="M 38.27 294.01 
L 38.27 13.32 
" style="fill:none;stroke:#000000;stroke-linecap:square;stroke-linejoin:miter;stroke-width:0.8;"/>
   </g>
   <g id="patch_4">
    <path d="M 447.48 294.01 
L 447.48 13.32 
" style="fill:none;stroke:#000000;stroke-linecap:square;stroke-linejoin:miter;stroke-width:0.8;"/>
   </g>
   <g id="patch_5">
    <path d="M 38.27 294.01 
L 447.48 294.01 
" style="fill:none;stroke:#000000;stroke-linecap:square;stroke-linejoin:miter;stroke-width:0.8;"/>
   </g>
   <g id="patch_6">
    <path d="M 38.27 13.32 
L 447.48 13.32 
" style="fill:none;stroke:#000000;stroke-linecap:square;stroke-linejoin:miter;stroke-width:0.8;"/>
   </g>
  </g>
 </g>
 <defs>
  <clipPath id="pfe07d4933c">
   <rect height="280.69" width="409.21" x="38.27" y="13.32"/>
  </clipPath>
 </defs>
</svg>
