<?xml version="1.0" encoding="utf-8" standalone="no"?>
<!DOCTYPE svg PUBLIC "-//W3C//DTD SVG 1.1//EN"
  "http://www.w3.org/Graphics/SVG/1.1/DTD/svg11.dtd">
<!-- Created with matplotlib (http://matplotlib.org/) -->
<svg height="345.6pt" version="1.1" viewBox="0 0 460.8 345.6" width="460.8pt" xmlns="http://www.w3.org/2000/svg" xmlns:xlink="http://www.w3.org/1999/xlink">
 <defs>
  <style type="text/css">
*{stroke-linecap:butt;stroke-linejoin:round;}
  </style>
 </defs>
 <g id="figure_1">
  <g id="patch_1">
   <path d="M 0 345.6 
L 460.8 345.6 
L 460.8 0 
L 0 0 
z
" style="fill:#ffffff;"/>
  </g>
  <g id="axes_1">
   <g id="patch_2">
    <path d="M 38.27 294.01 
L 444.96 294.01 
L 444.96 13.32 
L 38.27 13.32 
z
" style="fill:#ffffff;"/>
   </g>
   <g id="matplotlib.axis_1">
    <g id="xtick_1">
     <g id="line2d_1">
      <defs>
       <path d="M 0 0 
L 0 3.5 
" id="m2a54814e61" style="stroke:#000000;stroke-width:0.8;"/>
      </defs>
      <g>
       <use style="stroke:#000000;stroke-width:0.8;" x="38.27" xlink:href="#m2a54814e61" y="294.01"/>
      </g>
     </g>
     <g id="text_1">
      <!-- A1 -->
      <defs>
       <path d="M 34.1875 63.1875 
L 20.796875 26.90625 
L 47.609375 26.90625 
z
M 28.609375 72.90625 
L 39.796875 72.90625 
L 67.578125 0 
L 57.328125 0 
L 50.6875 18.703125 
L 17.828125 18.703125 
L 11.1875 0 
L 0.78125 0 
z
" id="DejaVuSans-41"/>
       <path d="M 12.40625 8.296875 
L 28.515625 8.296875 
L 28.515625 63.921875 
L 10.984375 60.40625 
L 10.984375 69.390625 
L 28.421875 72.90625 
L 38.28125 72.90625 
L 38.28125 8.296875 
L 54.390625 8.296875 
L 54.390625 0 
L 12.40625 0 
z
" id="DejaVuSans-31"/>
      </defs>
      <g transform="translate(41.029375 314.213125)rotate(-90)scale(0.1 -0.1)">
       <use xlink:href="#DejaVuSans-41"/>
       <use x="68.408203" xlink:href="#DejaVuSans-31"/>
      </g>
     </g>
    </g>
    <g id="xtick_2">
     <g id="line2d_2">
      <g>
       <use style="stroke:#000000;stroke-width:0.8;" x="55.215417" xlink:href="#m2a54814e61" y="294.01"/>
      </g>
     </g>
     <g id="text_2">
      <!-- A7 -->
      <defs>
       <path d="M 8.203125 72.90625 
L 55.078125 72.90625 
L 55.078125 68.703125 
L 28.609375 0 
L 18.3125 0 
L 43.21875 64.59375 
L 8.203125 64.59375 
z
" id="DejaVuSans-37"/>
      </defs>
      <g transform="translate(57.974792 314.213125)rotate(-90)scale(0.1 -0.1)">
       <use xlink:href="#DejaVuSans-41"/>
       <use x="68.408203" xlink:href="#DejaVuSans-37"/>
      </g>
     </g>
    </g>
    <g id="xtick_3">
     <g id="line2d_3">
      <g>
       <use style="stroke:#000000;stroke-width:0.8;" x="72.160833" xlink:href="#m2a54814e61" y="294.01"/>
      </g>
     </g>
     <g id="text_3">
      <!-- A13 -->
      <defs>
       <path d="M 40.578125 39.3125 
Q 47.65625 37.796875 51.625 33 
Q 55.609375 28.21875 55.609375 21.1875 
Q 55.609375 10.40625 48.1875 4.484375 
Q 40.765625 -1.421875 27.09375 -1.421875 
Q 22.515625 -1.421875 17.65625 -0.515625 
Q 12.796875 0.390625 7.625 2.203125 
L 7.625 11.71875 
Q 11.71875 9.328125 16.59375 8.109375 
Q 21.484375 6.890625 26.8125 6.890625 
Q 36.078125 6.890625 40.9375 10.546875 
Q 45.796875 14.203125 45.796875 21.1875 
Q 45.796875 27.640625 41.28125 31.265625 
Q 36.765625 34.90625 28.71875 34.90625 
L 20.21875 34.90625 
L 20.21875 43.015625 
L 29.109375 43.015625 
Q 36.375 43.015625 40.234375 45.921875 
Q 44.09375 48.828125 44.09375 54.296875 
Q 44.09375 59.90625 40.109375 62.90625 
Q 36.140625 65.921875 28.71875 65.921875 
Q 24.65625 65.921875 20.015625 65.03125 
Q 15.375 64.15625 9.8125 62.3125 
L 9.8125 71.09375 
Q 15.4375 72.65625 20.34375 73.4375 
Q 25.25 74.21875 29.59375 74.21875 
Q 40.828125 74.21875 47.359375 69.109375 
Q 53.90625 64.015625 53.90625 55.328125 
Q 53.90625 49.265625 50.4375 45.09375 
Q 46.96875 40.921875 40.578125 39.3125 
z
" id="DejaVuSans-33"/>
      </defs>
      <g transform="translate(74.920208 320.575625)rotate(-90)scale(0.1 -0.1)">
       <use xlink:href="#DejaVuSans-41"/>
       <use x="68.408203" xlink:href="#DejaVuSans-31"/>
       <use x="132.03125" xlink:href="#DejaVuSans-33"/>
      </g>
     </g>
    </g>
    <g id="xtick_4">
     <g id="line2d_4">
      <g>
       <use style="stroke:#000000;stroke-width:0.8;" x="89.10625" xlink:href="#m2a54814e61" y="294.01"/>
      </g>
     </g>
     <g id="text_4">
      <!-- A19 -->
      <defs>
       <path d="M 10.984375 1.515625 
L 10.984375 10.5 
Q 14.703125 8.734375 18.5 7.8125 
Q 22.3125 6.890625 25.984375 6.890625 
Q 35.75 6.890625 40.890625 13.453125 
Q 46.046875 20.015625 46.78125 33.40625 
Q 43.953125 29.203125 39.59375 26.953125 
Q 35.25 24.703125 29.984375 24.703125 
Q 19.046875 24.703125 12.671875 31.3125 
Q 6.296875 37.9375 6.296875 49.421875 
Q 6.296875 60.640625 12.9375 67.421875 
Q 19.578125 74.21875 30.609375 74.21875 
Q 43.265625 74.21875 49.921875 64.515625 
Q 56.59375 54.828125 56.59375 36.375 
Q 56.59375 19.140625 48.40625 8.859375 
Q 40.234375 -1.421875 26.421875 -1.421875 
Q 22.703125 -1.421875 18.890625 -0.6875 
Q 15.09375 0.046875 10.984375 1.515625 
z
M 30.609375 32.421875 
Q 37.25 32.421875 41.125 36.953125 
Q 45.015625 41.5 45.015625 49.421875 
Q 45.015625 57.28125 41.125 61.84375 
Q 37.25 66.40625 30.609375 66.40625 
Q 23.96875 66.40625 20.09375 61.84375 
Q 16.21875 57.28125 16.21875 49.421875 
Q 16.21875 41.5 20.09375 36.953125 
Q 23.96875 32.421875 30.609375 32.421875 
z
" id="DejaVuSans-39"/>
      </defs>
      <g transform="translate(91.865625 320.575625)rotate(-90)scale(0.1 -0.1)">
       <use xlink:href="#DejaVuSans-41"/>
       <use x="68.408203" xlink:href="#DejaVuSans-31"/>
       <use x="132.03125" xlink:href="#DejaVuSans-39"/>
      </g>
     </g>
    </g>
    <g id="xtick_5">
     <g id="line2d_5">
      <g>
       <use style="stroke:#000000;stroke-width:0.8;" x="106.051667" xlink:href="#m2a54814e61" y="294.01"/>
      </g>
     </g>
     <g id="text_5">
      <!-- A25 -->
      <defs>
       <path d="M 19.1875 8.296875 
L 53.609375 8.296875 
L 53.609375 0 
L 7.328125 0 
L 7.328125 8.296875 
Q 12.9375 14.109375 22.625 23.890625 
Q 32.328125 33.6875 34.8125 36.53125 
Q 39.546875 41.84375 41.421875 45.53125 
Q 43.3125 49.21875 43.3125 52.78125 
Q 43.3125 58.59375 39.234375 62.25 
Q 35.15625 65.921875 28.609375 65.921875 
Q 23.96875 65.921875 18.8125 64.3125 
Q 13.671875 62.703125 7.8125 59.421875 
L 7.8125 69.390625 
Q 13.765625 71.78125 18.9375 73 
Q 24.125 74.21875 28.421875 74.21875 
Q 39.75 74.21875 46.484375 68.546875 
Q 53.21875 62.890625 53.21875 53.421875 
Q 53.21875 48.921875 51.53125 44.890625 
Q 49.859375 40.875 45.40625 35.40625 
Q 44.1875 33.984375 37.640625 27.21875 
Q 31.109375 20.453125 19.1875 8.296875 
z
" id="DejaVuSans-32"/>
       <path d="M 10.796875 72.90625 
L 49.515625 72.90625 
L 49.515625 64.59375 
L 19.828125 64.59375 
L 19.828125 46.734375 
Q 21.96875 47.46875 24.109375 47.828125 
Q 26.265625 48.1875 28.421875 48.1875 
Q 40.625 48.1875 47.75 41.5 
Q 54.890625 34.8125 54.890625 23.390625 
Q 54.890625 11.625 47.5625 5.09375 
Q 40.234375 -1.421875 26.90625 -1.421875 
Q 22.3125 -1.421875 17.546875 -0.640625 
Q 12.796875 0.140625 7.71875 1.703125 
L 7.71875 11.625 
Q 12.109375 9.234375 16.796875 8.0625 
Q 21.484375 6.890625 26.703125 6.890625 
Q 35.15625 6.890625 40.078125 11.328125 
Q 45.015625 15.765625 45.015625 23.390625 
Q 45.015625 31 40.078125 35.4375 
Q 35.15625 39.890625 26.703125 39.890625 
Q 22.75 39.890625 18.8125 39.015625 
Q 14.890625 38.140625 10.796875 36.28125 
z
" id="DejaVuSans-35"/>
      </defs>
      <g transform="translate(108.811042 320.575625)rotate(-90)scale(0.1 -0.1)">
       <use xlink:href="#DejaVuSans-41"/>
       <use x="68.408203" xlink:href="#DejaVuSans-32"/>
       <use x="132.03125" xlink:href="#DejaVuSans-35"/>
      </g>
     </g>
    </g>
    <g id="xtick_6">
     <g id="line2d_6">
      <g>
       <use style="stroke:#000000;stroke-width:0.8;" x="122.997083" xlink:href="#m2a54814e61" y="294.01"/>
      </g>
     </g>
     <g id="text_6">
      <!-- A31 -->
      <g transform="translate(125.756458 320.575625)rotate(-90)scale(0.1 -0.1)">
       <use xlink:href="#DejaVuSans-41"/>
       <use x="68.408203" xlink:href="#DejaVuSans-33"/>
       <use x="132.03125" xlink:href="#DejaVuSans-31"/>
      </g>
     </g>
    </g>
    <g id="xtick_7">
     <g id="line2d_7">
      <g>
       <use style="stroke:#000000;stroke-width:0.8;" x="139.9425" xlink:href="#m2a54814e61" y="294.01"/>
      </g>
     </g>
     <g id="text_7">
      <!-- A37 -->
      <g transform="translate(142.701875 320.575625)rotate(-90)scale(0.1 -0.1)">
       <use xlink:href="#DejaVuSans-41"/>
       <use x="68.408203" xlink:href="#DejaVuSans-33"/>
       <use x="132.03125" xlink:href="#DejaVuSans-37"/>
      </g>
     </g>
    </g>
    <g id="xtick_8">
     <g id="line2d_8">
      <g>
       <use style="stroke:#000000;stroke-width:0.8;" x="156.887917" xlink:href="#m2a54814e61" y="294.01"/>
      </g>
     </g>
     <g id="text_8">
      <!-- A43 -->
      <defs>
       <path d="M 37.796875 64.3125 
L 12.890625 25.390625 
L 37.796875 25.390625 
z
M 35.203125 72.90625 
L 47.609375 72.90625 
L 47.609375 25.390625 
L 58.015625 25.390625 
L 58.015625 17.1875 
L 47.609375 17.1875 
L 47.609375 0 
L 37.796875 0 
L 37.796875 17.1875 
L 4.890625 17.1875 
L 4.890625 26.703125 
z
" id="DejaVuSans-34"/>
      </defs>
      <g transform="translate(159.647292 320.575625)rotate(-90)scale(0.1 -0.1)">
       <use xlink:href="#DejaVuSans-41"/>
       <use x="68.408203" xlink:href="#DejaVuSans-34"/>
       <use x="132.03125" xlink:href="#DejaVuSans-33"/>
      </g>
     </g>
    </g>
    <g id="xtick_9">
     <g id="line2d_9">
      <g>
       <use style="stroke:#000000;stroke-width:0.8;" x="173.833333" xlink:href="#m2a54814e61" y="294.01"/>
      </g>
     </g>
     <g id="text_9">
      <!-- A49 -->
      <g transform="translate(176.592708 320.575625)rotate(-90)scale(0.1 -0.1)">
       <use xlink:href="#DejaVuSans-41"/>
       <use x="68.408203" xlink:href="#DejaVuSans-34"/>
       <use x="132.03125" xlink:href="#DejaVuSans-39"/>
      </g>
     </g>
    </g>
    <g id="xtick_10">
     <g id="line2d_10">
      <g>
       <use style="stroke:#000000;stroke-width:0.8;" x="190.77875" xlink:href="#m2a54814e61" y="294.01"/>
      </g>
     </g>
     <g id="text_10">
      <!-- A55 -->
      <g transform="translate(193.538125 320.575625)rotate(-90)scale(0.1 -0.1)">
       <use xlink:href="#DejaVuSans-41"/>
       <use x="68.408203" xlink:href="#DejaVuSans-35"/>
       <use x="132.03125" xlink:href="#DejaVuSans-35"/>
      </g>
     </g>
    </g>
    <g id="xtick_11">
     <g id="line2d_11">
      <g>
       <use style="stroke:#000000;stroke-width:0.8;" x="207.724167" xlink:href="#m2a54814e61" y="294.01"/>
      </g>
     </g>
     <g id="text_11">
      <!-- A61 -->
      <defs>
       <path d="M 33.015625 40.375 
Q 26.375 40.375 22.484375 35.828125 
Q 18.609375 31.296875 18.609375 23.390625 
Q 18.609375 15.53125 22.484375 10.953125 
Q 26.375 6.390625 33.015625 6.390625 
Q 39.65625 6.390625 43.53125 10.953125 
Q 47.40625 15.53125 47.40625 23.390625 
Q 47.40625 31.296875 43.53125 35.828125 
Q 39.65625 40.375 33.015625 40.375 
z
M 52.59375 71.296875 
L 52.59375 62.3125 
Q 48.875 64.0625 45.09375 64.984375 
Q 41.3125 65.921875 37.59375 65.921875 
Q 27.828125 65.921875 22.671875 59.328125 
Q 17.53125 52.734375 16.796875 39.40625 
Q 19.671875 43.65625 24.015625 45.921875 
Q 28.375 48.1875 33.59375 48.1875 
Q 44.578125 48.1875 50.953125 41.515625 
Q 57.328125 34.859375 57.328125 23.390625 
Q 57.328125 12.15625 50.6875 5.359375 
Q 44.046875 -1.421875 33.015625 -1.421875 
Q 20.359375 -1.421875 13.671875 8.265625 
Q 6.984375 17.96875 6.984375 36.375 
Q 6.984375 53.65625 15.1875 63.9375 
Q 23.390625 74.21875 37.203125 74.21875 
Q 40.921875 74.21875 44.703125 73.484375 
Q 48.484375 72.75 52.59375 71.296875 
z
" id="DejaVuSans-36"/>
      </defs>
      <g transform="translate(210.483542 320.575625)rotate(-90)scale(0.1 -0.1)">
       <use xlink:href="#DejaVuSans-41"/>
       <use x="68.408203" xlink:href="#DejaVuSans-36"/>
       <use x="132.03125" xlink:href="#DejaVuSans-31"/>
      </g>
     </g>
    </g>
    <g id="xtick_12">
     <g id="line2d_12">
      <g>
       <use style="stroke:#000000;stroke-width:0.8;" x="224.669583" xlink:href="#m2a54814e61" y="294.01"/>
      </g>
     </g>
     <g id="text_12">
      <!-- A67 -->
      <g transform="translate(227.428958 320.575625)rotate(-90)scale(0.1 -0.1)">
       <use xlink:href="#DejaVuSans-41"/>
       <use x="68.408203" xlink:href="#DejaVuSans-36"/>
       <use x="132.03125" xlink:href="#DejaVuSans-37"/>
      </g>
     </g>
    </g>
    <g id="xtick_13">
     <g id="line2d_13">
      <g>
       <use style="stroke:#000000;stroke-width:0.8;" x="241.615" xlink:href="#m2a54814e61" y="294.01"/>
      </g>
     </g>
     <g id="text_13">
      <!-- B2 -->
      <defs>
       <path d="M 19.671875 34.8125 
L 19.671875 8.109375 
L 35.5 8.109375 
Q 43.453125 8.109375 47.28125 11.40625 
Q 51.125 14.703125 51.125 21.484375 
Q 51.125 28.328125 47.28125 31.5625 
Q 43.453125 34.8125 35.5 34.8125 
z
M 19.671875 64.796875 
L 19.671875 42.828125 
L 34.28125 42.828125 
Q 41.5 42.828125 45.03125 45.53125 
Q 48.578125 48.25 48.578125 53.8125 
Q 48.578125 59.328125 45.03125 62.0625 
Q 41.5 64.796875 34.28125 64.796875 
z
M 9.8125 72.90625 
L 35.015625 72.90625 
Q 46.296875 72.90625 52.390625 68.21875 
Q 58.5 63.53125 58.5 54.890625 
Q 58.5 48.1875 55.375 44.234375 
Q 52.25 40.28125 46.1875 39.3125 
Q 53.46875 37.75 57.5 32.78125 
Q 61.53125 27.828125 61.53125 20.40625 
Q 61.53125 10.640625 54.890625 5.3125 
Q 48.25 0 35.984375 0 
L 9.8125 0 
z
" id="DejaVuSans-42"/>
      </defs>
      <g transform="translate(244.374375 314.233437)rotate(-90)scale(0.1 -0.1)">
       <use xlink:href="#DejaVuSans-42"/>
       <use x="68.603516" xlink:href="#DejaVuSans-32"/>
      </g>
     </g>
    </g>
    <g id="xtick_14">
     <g id="line2d_14">
      <g>
       <use style="stroke:#000000;stroke-width:0.8;" x="258.560417" xlink:href="#m2a54814e61" y="294.01"/>
      </g>
     </g>
     <g id="text_14">
      <!-- B8 -->
      <defs>
       <path d="M 31.78125 34.625 
Q 24.75 34.625 20.71875 30.859375 
Q 16.703125 27.09375 16.703125 20.515625 
Q 16.703125 13.921875 20.71875 10.15625 
Q 24.75 6.390625 31.78125 6.390625 
Q 38.8125 6.390625 42.859375 10.171875 
Q 46.921875 13.96875 46.921875 20.515625 
Q 46.921875 27.09375 42.890625 30.859375 
Q 38.875 34.625 31.78125 34.625 
z
M 21.921875 38.8125 
Q 15.578125 40.375 12.03125 44.71875 
Q 8.5 49.078125 8.5 55.328125 
Q 8.5 64.0625 14.71875 69.140625 
Q 20.953125 74.21875 31.78125 74.21875 
Q 42.671875 74.21875 48.875 69.140625 
Q 55.078125 64.0625 55.078125 55.328125 
Q 55.078125 49.078125 51.53125 44.71875 
Q 48 40.375 41.703125 38.8125 
Q 48.828125 37.15625 52.796875 32.3125 
Q 56.78125 27.484375 56.78125 20.515625 
Q 56.78125 9.90625 50.3125 4.234375 
Q 43.84375 -1.421875 31.78125 -1.421875 
Q 19.734375 -1.421875 13.25 4.234375 
Q 6.78125 9.90625 6.78125 20.515625 
Q 6.78125 27.484375 10.78125 32.3125 
Q 14.796875 37.15625 21.921875 38.8125 
z
M 18.3125 54.390625 
Q 18.3125 48.734375 21.84375 45.5625 
Q 25.390625 42.390625 31.78125 42.390625 
Q 38.140625 42.390625 41.71875 45.5625 
Q 45.3125 48.734375 45.3125 54.390625 
Q 45.3125 60.0625 41.71875 63.234375 
Q 38.140625 66.40625 31.78125 66.40625 
Q 25.390625 66.40625 21.84375 63.234375 
Q 18.3125 60.0625 18.3125 54.390625 
z
" id="DejaVuSans-38"/>
      </defs>
      <g transform="translate(261.319792 314.233437)rotate(-90)scale(0.1 -0.1)">
       <use xlink:href="#DejaVuSans-42"/>
       <use x="68.603516" xlink:href="#DejaVuSans-38"/>
      </g>
     </g>
    </g>
    <g id="xtick_15">
     <g id="line2d_15">
      <g>
       <use style="stroke:#000000;stroke-width:0.8;" x="275.505833" xlink:href="#m2a54814e61" y="294.01"/>
      </g>
     </g>
     <g id="text_15">
      <!-- B14 -->
      <g transform="translate(278.265208 320.595937)rotate(-90)scale(0.1 -0.1)">
       <use xlink:href="#DejaVuSans-42"/>
       <use x="68.603516" xlink:href="#DejaVuSans-31"/>
       <use x="132.226562" xlink:href="#DejaVuSans-34"/>
      </g>
     </g>
    </g>
    <g id="xtick_16">
     <g id="line2d_16">
      <g>
       <use style="stroke:#000000;stroke-width:0.8;" x="292.45125" xlink:href="#m2a54814e61" y="294.01"/>
      </g>
     </g>
     <g id="text_16">
      <!-- B20 -->
      <defs>
       <path d="M 31.78125 66.40625 
Q 24.171875 66.40625 20.328125 58.90625 
Q 16.5 51.421875 16.5 36.375 
Q 16.5 21.390625 20.328125 13.890625 
Q 24.171875 6.390625 31.78125 6.390625 
Q 39.453125 6.390625 43.28125 13.890625 
Q 47.125 21.390625 47.125 36.375 
Q 47.125 51.421875 43.28125 58.90625 
Q 39.453125 66.40625 31.78125 66.40625 
z
M 31.78125 74.21875 
Q 44.046875 74.21875 50.515625 64.515625 
Q 56.984375 54.828125 56.984375 36.375 
Q 56.984375 17.96875 50.515625 8.265625 
Q 44.046875 -1.421875 31.78125 -1.421875 
Q 19.53125 -1.421875 13.0625 8.265625 
Q 6.59375 17.96875 6.59375 36.375 
Q 6.59375 54.828125 13.0625 64.515625 
Q 19.53125 74.21875 31.78125 74.21875 
z
" id="DejaVuSans-30"/>
      </defs>
      <g transform="translate(295.210625 320.595937)rotate(-90)scale(0.1 -0.1)">
       <use xlink:href="#DejaVuSans-42"/>
       <use x="68.603516" xlink:href="#DejaVuSans-32"/>
       <use x="132.226562" xlink:href="#DejaVuSans-30"/>
      </g>
     </g>
    </g>
    <g id="xtick_17">
     <g id="line2d_17">
      <g>
       <use style="stroke:#000000;stroke-width:0.8;" x="309.396667" xlink:href="#m2a54814e61" y="294.01"/>
      </g>
     </g>
     <g id="text_17">
      <!-- B26 -->
      <g transform="translate(312.156042 320.595937)rotate(-90)scale(0.1 -0.1)">
       <use xlink:href="#DejaVuSans-42"/>
       <use x="68.603516" xlink:href="#DejaVuSans-32"/>
       <use x="132.226562" xlink:href="#DejaVuSans-36"/>
      </g>
     </g>
    </g>
    <g id="xtick_18">
     <g id="line2d_18">
      <g>
       <use style="stroke:#000000;stroke-width:0.8;" x="326.342083" xlink:href="#m2a54814e61" y="294.01"/>
      </g>
     </g>
     <g id="text_18">
      <!-- B32 -->
      <g transform="translate(329.101458 320.595937)rotate(-90)scale(0.1 -0.1)">
       <use xlink:href="#DejaVuSans-42"/>
       <use x="68.603516" xlink:href="#DejaVuSans-33"/>
       <use x="132.226562" xlink:href="#DejaVuSans-32"/>
      </g>
     </g>
    </g>
    <g id="xtick_19">
     <g id="line2d_19">
      <g>
       <use style="stroke:#000000;stroke-width:0.8;" x="343.2875" xlink:href="#m2a54814e61" y="294.01"/>
      </g>
     </g>
     <g id="text_19">
      <!-- B38 -->
      <g transform="translate(346.046875 320.595937)rotate(-90)scale(0.1 -0.1)">
       <use xlink:href="#DejaVuSans-42"/>
       <use x="68.603516" xlink:href="#DejaVuSans-33"/>
       <use x="132.226562" xlink:href="#DejaVuSans-38"/>
      </g>
     </g>
    </g>
    <g id="xtick_20">
     <g id="line2d_20">
      <g>
       <use style="stroke:#000000;stroke-width:0.8;" x="360.232917" xlink:href="#m2a54814e61" y="294.01"/>
      </g>
     </g>
     <g id="text_20">
      <!-- B44 -->
      <g transform="translate(362.992292 320.595937)rotate(-90)scale(0.1 -0.1)">
       <use xlink:href="#DejaVuSans-42"/>
       <use x="68.603516" xlink:href="#DejaVuSans-34"/>
       <use x="132.226562" xlink:href="#DejaVuSans-34"/>
      </g>
     </g>
    </g>
    <g id="xtick_21">
     <g id="line2d_21">
      <g>
       <use style="stroke:#000000;stroke-width:0.8;" x="377.178333" xlink:href="#m2a54814e61" y="294.01"/>
      </g>
     </g>
     <g id="text_21">
      <!-- B50 -->
      <g transform="translate(379.937708 320.595937)rotate(-90)scale(0.1 -0.1)">
       <use xlink:href="#DejaVuSans-42"/>
       <use x="68.603516" xlink:href="#DejaVuSans-35"/>
       <use x="132.226562" xlink:href="#DejaVuSans-30"/>
      </g>
     </g>
    </g>
    <g id="xtick_22">
     <g id="line2d_22">
      <g>
       <use style="stroke:#000000;stroke-width:0.8;" x="394.12375" xlink:href="#m2a54814e61" y="294.01"/>
      </g>
     </g>
     <g id="text_22">
      <!-- B56 -->
      <g transform="translate(396.883125 320.595937)rotate(-90)scale(0.1 -0.1)">
       <use xlink:href="#DejaVuSans-42"/>
       <use x="68.603516" xlink:href="#DejaVuSans-35"/>
       <use x="132.226562" xlink:href="#DejaVuSans-36"/>
      </g>
     </g>
    </g>
    <g id="xtick_23">
     <g id="line2d_23">
      <g>
       <use style="stroke:#000000;stroke-width:0.8;" x="411.069167" xlink:href="#m2a54814e61" y="294.01"/>
      </g>
     </g>
     <g id="text_23">
      <!-- B62 -->
      <g transform="translate(413.828542 320.595937)rotate(-90)scale(0.1 -0.1)">
       <use xlink:href="#DejaVuSans-42"/>
       <use x="68.603516" xlink:href="#DejaVuSans-36"/>
       <use x="132.226562" xlink:href="#DejaVuSans-32"/>
      </g>
     </g>
    </g>
    <g id="xtick_24">
     <g id="line2d_24">
      <g>
       <use style="stroke:#000000;stroke-width:0.8;" x="428.014583" xlink:href="#m2a54814e61" y="294.01"/>
      </g>
     </g>
     <g id="text_24">
      <!-- B68 -->
      <g transform="translate(430.773958 320.595937)rotate(-90)scale(0.1 -0.1)">
       <use xlink:href="#DejaVuSans-42"/>
       <use x="68.603516" xlink:href="#DejaVuSans-36"/>
       <use x="132.226562" xlink:href="#DejaVuSans-38"/>
      </g>
     </g>
    </g>
    <g id="xtick_25">
     <g id="line2d_25">
      <g>
       <use style="stroke:#000000;stroke-width:0.8;" x="444.96" xlink:href="#m2a54814e61" y="294.01"/>
      </g>
     </g>
     <g id="text_25">
      <!-- B74 -->
      <g transform="translate(447.719375 320.595937)rotate(-90)scale(0.1 -0.1)">
       <use xlink:href="#DejaVuSans-42"/>
       <use x="68.603516" xlink:href="#DejaVuSans-37"/>
       <use x="132.226562" xlink:href="#DejaVuSans-34"/>
      </g>
     </g>
    </g>
    <g id="text_26">
     <!-- Residue index -->
     <defs>
      <path d="M 44.390625 34.1875 
Q 47.5625 33.109375 50.5625 29.59375 
Q 53.5625 26.078125 56.59375 19.921875 
L 66.609375 0 
L 56 0 
L 46.6875 18.703125 
Q 43.0625 26.03125 39.671875 28.421875 
Q 36.28125 30.8125 30.421875 30.8125 
L 19.671875 30.8125 
L 19.671875 0 
L 9.8125 0 
L 9.8125 72.90625 
L 32.078125 72.90625 
Q 44.578125 72.90625 50.734375 67.671875 
Q 56.890625 62.453125 56.890625 51.90625 
Q 56.890625 45.015625 53.6875 40.46875 
Q 50.484375 35.9375 44.390625 34.1875 
z
M 19.671875 64.796875 
L 19.671875 38.921875 
L 32.078125 38.921875 
Q 39.203125 38.921875 42.84375 42.21875 
Q 46.484375 45.515625 46.484375 51.90625 
Q 46.484375 58.296875 42.84375 61.546875 
Q 39.203125 64.796875 32.078125 64.796875 
z
" id="DejaVuSans-52"/>
      <path d="M 56.203125 29.59375 
L 56.203125 25.203125 
L 14.890625 25.203125 
Q 15.484375 15.921875 20.484375 11.0625 
Q 25.484375 6.203125 34.421875 6.203125 
Q 39.59375 6.203125 44.453125 7.46875 
Q 49.3125 8.734375 54.109375 11.28125 
L 54.109375 2.78125 
Q 49.265625 0.734375 44.1875 -0.34375 
Q 39.109375 -1.421875 33.890625 -1.421875 
Q 20.796875 -1.421875 13.15625 6.1875 
Q 5.515625 13.8125 5.515625 26.8125 
Q 5.515625 40.234375 12.765625 48.109375 
Q 20.015625 56 32.328125 56 
Q 43.359375 56 49.78125 48.890625 
Q 56.203125 41.796875 56.203125 29.59375 
z
M 47.21875 32.234375 
Q 47.125 39.59375 43.09375 43.984375 
Q 39.0625 48.390625 32.421875 48.390625 
Q 24.90625 48.390625 20.390625 44.140625 
Q 15.875 39.890625 15.1875 32.171875 
z
" id="DejaVuSans-65"/>
      <path d="M 44.28125 53.078125 
L 44.28125 44.578125 
Q 40.484375 46.53125 36.375 47.5 
Q 32.28125 48.484375 27.875 48.484375 
Q 21.1875 48.484375 17.84375 46.4375 
Q 14.5 44.390625 14.5 40.28125 
Q 14.5 37.15625 16.890625 35.375 
Q 19.28125 33.59375 26.515625 31.984375 
L 29.59375 31.296875 
Q 39.15625 29.25 43.1875 25.515625 
Q 47.21875 21.78125 47.21875 15.09375 
Q 47.21875 7.46875 41.1875 3.015625 
Q 35.15625 -1.421875 24.609375 -1.421875 
Q 20.21875 -1.421875 15.453125 -0.5625 
Q 10.6875 0.296875 5.421875 2 
L 5.421875 11.28125 
Q 10.40625 8.6875 15.234375 7.390625 
Q 20.0625 6.109375 24.8125 6.109375 
Q 31.15625 6.109375 34.5625 8.28125 
Q 37.984375 10.453125 37.984375 14.40625 
Q 37.984375 18.0625 35.515625 20.015625 
Q 33.0625 21.96875 24.703125 23.78125 
L 21.578125 24.515625 
Q 13.234375 26.265625 9.515625 29.90625 
Q 5.8125 33.546875 5.8125 39.890625 
Q 5.8125 47.609375 11.28125 51.796875 
Q 16.75 56 26.8125 56 
Q 31.78125 56 36.171875 55.265625 
Q 40.578125 54.546875 44.28125 53.078125 
z
" id="DejaVuSans-73"/>
      <path d="M 9.421875 54.6875 
L 18.40625 54.6875 
L 18.40625 0 
L 9.421875 0 
z
M 9.421875 75.984375 
L 18.40625 75.984375 
L 18.40625 64.59375 
L 9.421875 64.59375 
z
" id="DejaVuSans-69"/>
      <path d="M 45.40625 46.390625 
L 45.40625 75.984375 
L 54.390625 75.984375 
L 54.390625 0 
L 45.40625 0 
L 45.40625 8.203125 
Q 42.578125 3.328125 38.25 0.953125 
Q 33.9375 -1.421875 27.875 -1.421875 
Q 17.96875 -1.421875 11.734375 6.484375 
Q 5.515625 14.40625 5.515625 27.296875 
Q 5.515625 40.1875 11.734375 48.09375 
Q 17.96875 56 27.875 56 
Q 33.9375 56 38.25 53.625 
Q 42.578125 51.265625 45.40625 46.390625 
z
M 14.796875 27.296875 
Q 14.796875 17.390625 18.875 11.75 
Q 22.953125 6.109375 30.078125 6.109375 
Q 37.203125 6.109375 41.296875 11.75 
Q 45.40625 17.390625 45.40625 27.296875 
Q 45.40625 37.203125 41.296875 42.84375 
Q 37.203125 48.484375 30.078125 48.484375 
Q 22.953125 48.484375 18.875 42.84375 
Q 14.796875 37.203125 14.796875 27.296875 
z
" id="DejaVuSans-64"/>
      <path d="M 8.5 21.578125 
L 8.5 54.6875 
L 17.484375 54.6875 
L 17.484375 21.921875 
Q 17.484375 14.15625 20.5 10.265625 
Q 23.53125 6.390625 29.59375 6.390625 
Q 36.859375 6.390625 41.078125 11.03125 
Q 45.3125 15.671875 45.3125 23.6875 
L 45.3125 54.6875 
L 54.296875 54.6875 
L 54.296875 0 
L 45.3125 0 
L 45.3125 8.40625 
Q 42.046875 3.421875 37.71875 1 
Q 33.40625 -1.421875 27.6875 -1.421875 
Q 18.265625 -1.421875 13.375 4.4375 
Q 8.5 10.296875 8.5 21.578125 
z
M 31.109375 56 
z
" id="DejaVuSans-75"/>
      <path id="DejaVuSans-20"/>
      <path d="M 54.890625 33.015625 
L 54.890625 0 
L 45.90625 0 
L 45.90625 32.71875 
Q 45.90625 40.484375 42.875 44.328125 
Q 39.84375 48.1875 33.796875 48.1875 
Q 26.515625 48.1875 22.3125 43.546875 
Q 18.109375 38.921875 18.109375 30.90625 
L 18.109375 0 
L 9.078125 0 
L 9.078125 54.6875 
L 18.109375 54.6875 
L 18.109375 46.1875 
Q 21.34375 51.125 25.703125 53.5625 
Q 30.078125 56 35.796875 56 
Q 45.21875 56 50.046875 50.171875 
Q 54.890625 44.34375 54.890625 33.015625 
z
" id="DejaVuSans-6e"/>
      <path d="M 54.890625 54.6875 
L 35.109375 28.078125 
L 55.90625 0 
L 45.3125 0 
L 29.390625 21.484375 
L 13.484375 0 
L 2.875 0 
L 24.125 28.609375 
L 4.6875 54.6875 
L 15.28125 54.6875 
L 29.78125 35.203125 
L 44.28125 54.6875 
z
" id="DejaVuSans-78"/>
     </defs>
     <g transform="translate(206.297813 332.194375)scale(0.1 -0.1)">
      <use xlink:href="#DejaVuSans-52"/>
      <use x="69.419922" xlink:href="#DejaVuSans-65"/>
      <use x="130.943359" xlink:href="#DejaVuSans-73"/>
      <use x="183.042969" xlink:href="#DejaVuSans-69"/>
      <use x="210.826172" xlink:href="#DejaVuSans-64"/>
      <use x="274.302734" xlink:href="#DejaVuSans-75"/>
      <use x="337.681641" xlink:href="#DejaVuSans-65"/>
      <use x="399.205078" xlink:href="#DejaVuSans-20"/>
      <use x="430.992188" xlink:href="#DejaVuSans-69"/>
      <use x="458.775391" xlink:href="#DejaVuSans-6e"/>
      <use x="522.154297" xlink:href="#DejaVuSans-64"/>
      <use x="585.630859" xlink:href="#DejaVuSans-65"/>
      <use x="647.138672" xlink:href="#DejaVuSans-78"/>
     </g>
    </g>
   </g>
   <g id="matplotlib.axis_2">
    <g id="ytick_1">
     <g id="line2d_26">
      <defs>
       <path d="M 0 0 
L -3.5 0 
" id="me8c92df03a" style="stroke:#000000;stroke-width:0.8;"/>
      </defs>
      <g>
       <use style="stroke:#000000;stroke-width:0.8;" x="38.27" xlink:href="#me8c92df03a" y="263.033976"/>
      </g>
     </g>
     <g id="text_27">
      <!-- 1 -->
      <g transform="translate(24.9075 266.833195)scale(0.1 -0.1)">
       <use xlink:href="#DejaVuSans-31"/>
      </g>
     </g>
    </g>
    <g id="ytick_2">
     <g id="line2d_27">
      <g>
       <use style="stroke:#000000;stroke-width:0.8;" x="38.27" xlink:href="#me8c92df03a" y="219.063517"/>
      </g>
     </g>
     <g id="text_28">
      <!-- 2 -->
      <g transform="translate(24.9075 222.862736)scale(0.1 -0.1)">
       <use xlink:href="#DejaVuSans-32"/>
      </g>
     </g>
    </g>
    <g id="ytick_3">
     <g id="line2d_28">
      <g>
       <use style="stroke:#000000;stroke-width:0.8;" x="38.27" xlink:href="#me8c92df03a" y="175.093058"/>
      </g>
     </g>
     <g id="text_29">
      <!-- 3 -->
      <g transform="translate(24.9075 178.892276)scale(0.1 -0.1)">
       <use xlink:href="#DejaVuSans-33"/>
      </g>
     </g>
    </g>
    <g id="ytick_4">
     <g id="line2d_29">
      <g>
       <use style="stroke:#000000;stroke-width:0.8;" x="38.27" xlink:href="#me8c92df03a" y="131.122599"/>
      </g>
     </g>
     <g id="text_30">
      <!-- 4 -->
      <g transform="translate(24.9075 134.921817)scale(0.1 -0.1)">
       <use xlink:href="#DejaVuSans-34"/>
      </g>
     </g>
    </g>
    <g id="ytick_5">
     <g id="line2d_30">
      <g>
       <use style="stroke:#000000;stroke-width:0.8;" x="38.27" xlink:href="#me8c92df03a" y="87.152139"/>
      </g>
     </g>
     <g id="text_31">
      <!-- 5 -->
      <g transform="translate(24.9075 90.951358)scale(0.1 -0.1)">
       <use xlink:href="#DejaVuSans-35"/>
      </g>
     </g>
    </g>
    <g id="ytick_6">
     <g id="line2d_31">
      <g>
       <use style="stroke:#000000;stroke-width:0.8;" x="38.27" xlink:href="#me8c92df03a" y="43.18168"/>
      </g>
     </g>
     <g id="text_32">
      <!-- 6 -->
      <g transform="translate(24.9075 46.980899)scale(0.1 -0.1)">
       <use xlink:href="#DejaVuSans-36"/>
      </g>
     </g>
    </g>
    <g id="text_33">
     <!-- RMSF -->
     <defs>
      <path d="M 9.8125 72.90625 
L 24.515625 72.90625 
L 43.109375 23.296875 
L 61.8125 72.90625 
L 76.515625 72.90625 
L 76.515625 0 
L 66.890625 0 
L 66.890625 64.015625 
L 48.09375 14.015625 
L 38.1875 14.015625 
L 19.390625 64.015625 
L 19.390625 0 
L 9.8125 0 
z
" id="DejaVuSans-4d"/>
      <path d="M 53.515625 70.515625 
L 53.515625 60.890625 
Q 47.90625 63.578125 42.921875 64.890625 
Q 37.9375 66.21875 33.296875 66.21875 
Q 25.25 66.21875 20.875 63.09375 
Q 16.5 59.96875 16.5 54.203125 
Q 16.5 49.359375 19.40625 46.890625 
Q 22.3125 44.4375 30.421875 42.921875 
L 36.375 41.703125 
Q 47.40625 39.59375 52.65625 34.296875 
Q 57.90625 29 57.90625 20.125 
Q 57.90625 9.515625 50.796875 4.046875 
Q 43.703125 -1.421875 29.984375 -1.421875 
Q 24.8125 -1.421875 18.96875 -0.25 
Q 13.140625 0.921875 6.890625 3.21875 
L 6.890625 13.375 
Q 12.890625 10.015625 18.65625 8.296875 
Q 24.421875 6.59375 29.984375 6.59375 
Q 38.421875 6.59375 43.015625 9.90625 
Q 47.609375 13.234375 47.609375 19.390625 
Q 47.609375 24.75 44.3125 27.78125 
Q 41.015625 30.8125 33.5 32.328125 
L 27.484375 33.5 
Q 16.453125 35.6875 11.515625 40.375 
Q 6.59375 45.0625 6.59375 53.421875 
Q 6.59375 63.09375 13.40625 68.65625 
Q 20.21875 74.21875 32.171875 74.21875 
Q 37.3125 74.21875 42.625 73.28125 
Q 47.953125 72.359375 53.515625 70.515625 
z
" id="DejaVuSans-53"/>
      <path d="M 9.8125 72.90625 
L 51.703125 72.90625 
L 51.703125 64.59375 
L 19.671875 64.59375 
L 19.671875 43.109375 
L 48.578125 43.109375 
L 48.578125 34.8125 
L 19.671875 34.8125 
L 19.671875 0 
L 9.8125 0 
z
" id="DejaVuSans-46"/>
     </defs>
     <g transform="translate(18.827813 167.503281)rotate(-90)scale(0.1 -0.1)">
      <use xlink:href="#DejaVuSans-52"/>
      <use x="69.482422" xlink:href="#DejaVuSans-4d"/>
      <use x="155.761719" xlink:href="#DejaVuSans-53"/>
      <use x="219.238281" xlink:href="#DejaVuSans-46"/>
     </g>
    </g>
   </g>
   <g id="line2d_32">
    <path clip-path="url(#p7ea87e25d2)" d="M 38.27 166.157165 
L 41.094236 194.074638 
L 43.918472 218.740728 
L 46.742708 260.068915 
L 49.566944 265.423039 
L 52.391181 243.429413 
L 55.215417 271.70129 
L 58.039653 276.221166 
L 60.863889 272.604299 
L 63.688125 265.858647 
L 66.512361 261.851406 
L 69.336597 243.60373 
L 72.160833 232.230769 
L 74.985069 228.630804 
L 77.809306 247.589569 
L 80.633542 262.832431 
L 83.457778 264.486069 
L 86.282014 263.521156 
L 89.10625 250.240615 
L 91.930486 245.52109 
L 94.754722 236.313371 
L 97.578958 238.785239 
L 100.403194 236.075689 
L 103.227431 246.194115 
L 106.051667 204.569602 
L 108.875903 131.347613 
L 111.700139 62.129808 
L 114.524375 49.111991 
L 117.348611 73.072936 
L 120.172847 127.009388 
L 122.997083 190.689748 
L 125.821319 162.425653 
L 128.645556 178.362122 
L 131.469792 176.648918 
L 134.294028 138.006448 
L 137.118264 149.525341 
L 139.9425 138.788845 
L 142.766736 98.060336 
L 145.590972 179.225825 
L 148.415208 202.7913 
L 151.239444 207.346892 
L 156.887917 242.302616 
L 162.536389 257.43367 
L 165.360625 264.348979 
L 168.184861 266.173523 
L 171.009097 265.647266 
L 173.833333 269.651687 
L 176.657569 268.418748 
L 179.481806 262.68919 
L 182.306042 249.167068 
L 185.130278 234.951035 
L 187.954514 218.706887 
L 190.77875 206.955426 
L 193.602986 202.579212 
L 196.427222 206.583152 
L 199.251458 218.674264 
L 202.075694 207.008949 
L 204.899931 208.09257 
L 207.724167 198.122846 
L 210.548403 196.87281 
L 213.372639 204.552027 
L 216.196875 214.425466 
L 219.021111 194.398564 
L 221.845347 198.940175 
L 224.669583 165.736645 
L 227.493819 157.249388 
L 230.318056 109.471439 
L 233.142292 77.007921 
L 235.966528 26.078636 
L 238.790764 127.78251 
L 241.615 198.744452 
L 244.439236 213.0272 
L 247.263472 219.476733 
L 250.087708 237.26862 
L 252.911944 249.12276 
L 255.736181 249.778546 
L 258.560417 258.939384 
L 261.384653 264.136114 
L 264.208889 264.974394 
L 267.033125 263.874414 
L 269.857361 269.552798 
L 272.681597 268.717445 
L 275.505833 267.442511 
L 278.330069 262.437427 
L 281.154306 261.534096 
L 283.978542 266.148965 
L 286.802778 265.819313 
L 289.627014 267.483434 
L 292.45125 270.428846 
L 295.275486 270.155183 
L 298.099722 273.868938 
L 300.923958 274.477663 
L 303.748194 273.595544 
L 306.572431 277.825706 
L 309.396667 274.44123 
L 312.220903 276.949759 
L 315.045139 281.251364 
L 317.869375 273.507795 
L 320.693611 273.893934 
L 323.517847 277.335153 
L 326.342083 259.528357 
L 329.166319 238.708819 
L 331.990556 256.422889 
L 334.814792 233.320426 
L 337.639028 229.991945 
L 340.463264 199.845401 
L 343.2875 225.703854 
L 346.111736 237.313255 
L 348.935972 232.853764 
L 351.760208 247.872409 
L 354.584444 261.193665 
L 357.408681 252.510922 
L 360.232917 252.579342 
L 363.057153 266.329796 
L 368.705625 268.388272 
L 371.529861 270.562212 
L 374.354097 277.227175 
L 377.178333 270.531227 
L 380.002569 266.206953 
L 382.826806 272.790139 
L 385.651042 269.426238 
L 388.475278 264.022779 
L 391.299514 268.254334 
L 394.12375 265.043048 
L 396.947986 263.66871 
L 399.772222 263.98592 
L 402.596458 261.902407 
L 405.420694 254.770875 
L 408.244931 247.964387 
L 411.069167 247.876373 
L 413.893403 247.27714 
L 416.717639 234.984664 
L 419.541875 224.934569 
L 422.366111 218.649733 
L 425.190347 214.384272 
L 428.014583 197.750055 
L 430.838819 179.381786 
L 436.487292 151.374095 
L 439.311528 97.792974 
L 442.135764 53.546325 
L 444.96 29.899313 
L 444.96 29.899313 
" style="fill:none;stroke:#666666;stroke-dasharray:1,1.65;stroke-dashoffset:0;"/>
    <defs>
     <path d="M 0 0.5 
C 0.132602 0.5 0.25979 0.447317 0.353553 0.353553 
C 0.447317 0.25979 0.5 0.132602 0.5 0 
C 0.5 -0.132602 0.447317 -0.25979 0.353553 -0.353553 
C 0.25979 -0.447317 0.132602 -0.5 0 -0.5 
C -0.132602 -0.5 -0.25979 -0.447317 -0.353553 -0.353553 
C -0.447317 -0.25979 -0.5 -0.132602 -0.5 0 
C -0.5 0.132602 -0.447317 0.25979 -0.353553 0.353553 
C -0.25979 0.447317 -0.132602 0.5 0 0.5 
z
" id="m9a4c27f0d1" style="stroke:#666666;"/>
    </defs>
    <g clip-path="url(#p7ea87e25d2)">
     <use style="fill:#666666;stroke:#666666;" x="38.27" xlink:href="#m9a4c27f0d1" y="166.157165"/>
     <use style="fill:#666666;stroke:#666666;" x="41.094236" xlink:href="#m9a4c27f0d1" y="194.074638"/>
     <use style="fill:#666666;stroke:#666666;" x="43.918472" xlink:href="#m9a4c27f0d1" y="218.740728"/>
     <use style="fill:#666666;stroke:#666666;" x="46.742708" xlink:href="#m9a4c27f0d1" y="260.068915"/>
     <use style="fill:#666666;stroke:#666666;" x="49.566944" xlink:href="#m9a4c27f0d1" y="265.423039"/>
     <use style="fill:#666666;stroke:#666666;" x="52.391181" xlink:href="#m9a4c27f0d1" y="243.429413"/>
     <use style="fill:#666666;stroke:#666666;" x="55.215417" xlink:href="#m9a4c27f0d1" y="271.70129"/>
     <use style="fill:#666666;stroke:#666666;" x="58.039653" xlink:href="#m9a4c27f0d1" y="276.221166"/>
     <use style="fill:#666666;stroke:#666666;" x="60.863889" xlink:href="#m9a4c27f0d1" y="272.604299"/>
     <use style="fill:#666666;stroke:#666666;" x="63.688125" xlink:href="#m9a4c27f0d1" y="265.858647"/>
     <use style="fill:#666666;stroke:#666666;" x="66.512361" xlink:href="#m9a4c27f0d1" y="261.851406"/>
     <use style="fill:#666666;stroke:#666666;" x="69.336597" xlink:href="#m9a4c27f0d1" y="243.60373"/>
     <use style="fill:#666666;stroke:#666666;" x="72.160833" xlink:href="#m9a4c27f0d1" y="232.230769"/>
     <use style="fill:#666666;stroke:#666666;" x="74.985069" xlink:href="#m9a4c27f0d1" y="228.630804"/>
     <use style="fill:#666666;stroke:#666666;" x="77.809306" xlink:href="#m9a4c27f0d1" y="247.589569"/>
     <use style="fill:#666666;stroke:#666666;" x="80.633542" xlink:href="#m9a4c27f0d1" y="262.832431"/>
     <use style="fill:#666666;stroke:#666666;" x="83.457778" xlink:href="#m9a4c27f0d1" y="264.486069"/>
     <use style="fill:#666666;stroke:#666666;" x="86.282014" xlink:href="#m9a4c27f0d1" y="263.521156"/>
     <use style="fill:#666666;stroke:#666666;" x="89.10625" xlink:href="#m9a4c27f0d1" y="250.240615"/>
     <use style="fill:#666666;stroke:#666666;" x="91.930486" xlink:href="#m9a4c27f0d1" y="245.52109"/>
     <use style="fill:#666666;stroke:#666666;" x="94.754722" xlink:href="#m9a4c27f0d1" y="236.313371"/>
     <use style="fill:#666666;stroke:#666666;" x="97.578958" xlink:href="#m9a4c27f0d1" y="238.785239"/>
     <use style="fill:#666666;stroke:#666666;" x="100.403194" xlink:href="#m9a4c27f0d1" y="236.075689"/>
     <use style="fill:#666666;stroke:#666666;" x="103.227431" xlink:href="#m9a4c27f0d1" y="246.194115"/>
     <use style="fill:#666666;stroke:#666666;" x="106.051667" xlink:href="#m9a4c27f0d1" y="204.569602"/>
     <use style="fill:#666666;stroke:#666666;" x="108.875903" xlink:href="#m9a4c27f0d1" y="131.347613"/>
     <use style="fill:#666666;stroke:#666666;" x="111.700139" xlink:href="#m9a4c27f0d1" y="62.129808"/>
     <use style="fill:#666666;stroke:#666666;" x="114.524375" xlink:href="#m9a4c27f0d1" y="49.111991"/>
     <use style="fill:#666666;stroke:#666666;" x="117.348611" xlink:href="#m9a4c27f0d1" y="73.072936"/>
     <use style="fill:#666666;stroke:#666666;" x="120.172847" xlink:href="#m9a4c27f0d1" y="127.009388"/>
     <use style="fill:#666666;stroke:#666666;" x="122.997083" xlink:href="#m9a4c27f0d1" y="190.689748"/>
     <use style="fill:#666666;stroke:#666666;" x="125.821319" xlink:href="#m9a4c27f0d1" y="162.425653"/>
     <use style="fill:#666666;stroke:#666666;" x="128.645556" xlink:href="#m9a4c27f0d1" y="178.362122"/>
     <use style="fill:#666666;stroke:#666666;" x="131.469792" xlink:href="#m9a4c27f0d1" y="176.648918"/>
     <use style="fill:#666666;stroke:#666666;" x="134.294028" xlink:href="#m9a4c27f0d1" y="138.006448"/>
     <use style="fill:#666666;stroke:#666666;" x="137.118264" xlink:href="#m9a4c27f0d1" y="149.525341"/>
     <use style="fill:#666666;stroke:#666666;" x="139.9425" xlink:href="#m9a4c27f0d1" y="138.788845"/>
     <use style="fill:#666666;stroke:#666666;" x="142.766736" xlink:href="#m9a4c27f0d1" y="98.060336"/>
     <use style="fill:#666666;stroke:#666666;" x="145.590972" xlink:href="#m9a4c27f0d1" y="179.225825"/>
     <use style="fill:#666666;stroke:#666666;" x="148.415208" xlink:href="#m9a4c27f0d1" y="202.7913"/>
     <use style="fill:#666666;stroke:#666666;" x="151.239444" xlink:href="#m9a4c27f0d1" y="207.346892"/>
     <use style="fill:#666666;stroke:#666666;" x="154.063681" xlink:href="#m9a4c27f0d1" y="224.620607"/>
     <use style="fill:#666666;stroke:#666666;" x="156.887917" xlink:href="#m9a4c27f0d1" y="242.302616"/>
     <use style="fill:#666666;stroke:#666666;" x="159.712153" xlink:href="#m9a4c27f0d1" y="249.994468"/>
     <use style="fill:#666666;stroke:#666666;" x="162.536389" xlink:href="#m9a4c27f0d1" y="257.43367"/>
     <use style="fill:#666666;stroke:#666666;" x="165.360625" xlink:href="#m9a4c27f0d1" y="264.348979"/>
     <use style="fill:#666666;stroke:#666666;" x="168.184861" xlink:href="#m9a4c27f0d1" y="266.173523"/>
     <use style="fill:#666666;stroke:#666666;" x="171.009097" xlink:href="#m9a4c27f0d1" y="265.647266"/>
     <use style="fill:#666666;stroke:#666666;" x="173.833333" xlink:href="#m9a4c27f0d1" y="269.651687"/>
     <use style="fill:#666666;stroke:#666666;" x="176.657569" xlink:href="#m9a4c27f0d1" y="268.418748"/>
     <use style="fill:#666666;stroke:#666666;" x="179.481806" xlink:href="#m9a4c27f0d1" y="262.68919"/>
     <use style="fill:#666666;stroke:#666666;" x="182.306042" xlink:href="#m9a4c27f0d1" y="249.167068"/>
     <use style="fill:#666666;stroke:#666666;" x="185.130278" xlink:href="#m9a4c27f0d1" y="234.951035"/>
     <use style="fill:#666666;stroke:#666666;" x="187.954514" xlink:href="#m9a4c27f0d1" y="218.706887"/>
     <use style="fill:#666666;stroke:#666666;" x="190.77875" xlink:href="#m9a4c27f0d1" y="206.955426"/>
     <use style="fill:#666666;stroke:#666666;" x="193.602986" xlink:href="#m9a4c27f0d1" y="202.579212"/>
     <use style="fill:#666666;stroke:#666666;" x="196.427222" xlink:href="#m9a4c27f0d1" y="206.583152"/>
     <use style="fill:#666666;stroke:#666666;" x="199.251458" xlink:href="#m9a4c27f0d1" y="218.674264"/>
     <use style="fill:#666666;stroke:#666666;" x="202.075694" xlink:href="#m9a4c27f0d1" y="207.008949"/>
     <use style="fill:#666666;stroke:#666666;" x="204.899931" xlink:href="#m9a4c27f0d1" y="208.09257"/>
     <use style="fill:#666666;stroke:#666666;" x="207.724167" xlink:href="#m9a4c27f0d1" y="198.122846"/>
     <use style="fill:#666666;stroke:#666666;" x="210.548403" xlink:href="#m9a4c27f0d1" y="196.87281"/>
     <use style="fill:#666666;stroke:#666666;" x="213.372639" xlink:href="#m9a4c27f0d1" y="204.552027"/>
     <use style="fill:#666666;stroke:#666666;" x="216.196875" xlink:href="#m9a4c27f0d1" y="214.425466"/>
     <use style="fill:#666666;stroke:#666666;" x="219.021111" xlink:href="#m9a4c27f0d1" y="194.398564"/>
     <use style="fill:#666666;stroke:#666666;" x="221.845347" xlink:href="#m9a4c27f0d1" y="198.940175"/>
     <use style="fill:#666666;stroke:#666666;" x="224.669583" xlink:href="#m9a4c27f0d1" y="165.736645"/>
     <use style="fill:#666666;stroke:#666666;" x="227.493819" xlink:href="#m9a4c27f0d1" y="157.249388"/>
     <use style="fill:#666666;stroke:#666666;" x="230.318056" xlink:href="#m9a4c27f0d1" y="109.471439"/>
     <use style="fill:#666666;stroke:#666666;" x="233.142292" xlink:href="#m9a4c27f0d1" y="77.007921"/>
     <use style="fill:#666666;stroke:#666666;" x="235.966528" xlink:href="#m9a4c27f0d1" y="26.078636"/>
     <use style="fill:#666666;stroke:#666666;" x="238.790764" xlink:href="#m9a4c27f0d1" y="127.78251"/>
     <use style="fill:#666666;stroke:#666666;" x="241.615" xlink:href="#m9a4c27f0d1" y="198.744452"/>
     <use style="fill:#666666;stroke:#666666;" x="244.439236" xlink:href="#m9a4c27f0d1" y="213.0272"/>
     <use style="fill:#666666;stroke:#666666;" x="247.263472" xlink:href="#m9a4c27f0d1" y="219.476733"/>
     <use style="fill:#666666;stroke:#666666;" x="250.087708" xlink:href="#m9a4c27f0d1" y="237.26862"/>
     <use style="fill:#666666;stroke:#666666;" x="252.911944" xlink:href="#m9a4c27f0d1" y="249.12276"/>
     <use style="fill:#666666;stroke:#666666;" x="255.736181" xlink:href="#m9a4c27f0d1" y="249.778546"/>
     <use style="fill:#666666;stroke:#666666;" x="258.560417" xlink:href="#m9a4c27f0d1" y="258.939384"/>
     <use style="fill:#666666;stroke:#666666;" x="261.384653" xlink:href="#m9a4c27f0d1" y="264.136114"/>
     <use style="fill:#666666;stroke:#666666;" x="264.208889" xlink:href="#m9a4c27f0d1" y="264.974394"/>
     <use style="fill:#666666;stroke:#666666;" x="267.033125" xlink:href="#m9a4c27f0d1" y="263.874414"/>
     <use style="fill:#666666;stroke:#666666;" x="269.857361" xlink:href="#m9a4c27f0d1" y="269.552798"/>
     <use style="fill:#666666;stroke:#666666;" x="272.681597" xlink:href="#m9a4c27f0d1" y="268.717445"/>
     <use style="fill:#666666;stroke:#666666;" x="275.505833" xlink:href="#m9a4c27f0d1" y="267.442511"/>
     <use style="fill:#666666;stroke:#666666;" x="278.330069" xlink:href="#m9a4c27f0d1" y="262.437427"/>
     <use style="fill:#666666;stroke:#666666;" x="281.154306" xlink:href="#m9a4c27f0d1" y="261.534096"/>
     <use style="fill:#666666;stroke:#666666;" x="283.978542" xlink:href="#m9a4c27f0d1" y="266.148965"/>
     <use style="fill:#666666;stroke:#666666;" x="286.802778" xlink:href="#m9a4c27f0d1" y="265.819313"/>
     <use style="fill:#666666;stroke:#666666;" x="289.627014" xlink:href="#m9a4c27f0d1" y="267.483434"/>
     <use style="fill:#666666;stroke:#666666;" x="292.45125" xlink:href="#m9a4c27f0d1" y="270.428846"/>
     <use style="fill:#666666;stroke:#666666;" x="295.275486" xlink:href="#m9a4c27f0d1" y="270.155183"/>
     <use style="fill:#666666;stroke:#666666;" x="298.099722" xlink:href="#m9a4c27f0d1" y="273.868938"/>
     <use style="fill:#666666;stroke:#666666;" x="300.923958" xlink:href="#m9a4c27f0d1" y="274.477663"/>
     <use style="fill:#666666;stroke:#666666;" x="303.748194" xlink:href="#m9a4c27f0d1" y="273.595544"/>
     <use style="fill:#666666;stroke:#666666;" x="306.572431" xlink:href="#m9a4c27f0d1" y="277.825706"/>
     <use style="fill:#666666;stroke:#666666;" x="309.396667" xlink:href="#m9a4c27f0d1" y="274.44123"/>
     <use style="fill:#666666;stroke:#666666;" x="312.220903" xlink:href="#m9a4c27f0d1" y="276.949759"/>
     <use style="fill:#666666;stroke:#666666;" x="315.045139" xlink:href="#m9a4c27f0d1" y="281.251364"/>
     <use style="fill:#666666;stroke:#666666;" x="317.869375" xlink:href="#m9a4c27f0d1" y="273.507795"/>
     <use style="fill:#666666;stroke:#666666;" x="320.693611" xlink:href="#m9a4c27f0d1" y="273.893934"/>
     <use style="fill:#666666;stroke:#666666;" x="323.517847" xlink:href="#m9a4c27f0d1" y="277.335153"/>
     <use style="fill:#666666;stroke:#666666;" x="326.342083" xlink:href="#m9a4c27f0d1" y="259.528357"/>
     <use style="fill:#666666;stroke:#666666;" x="329.166319" xlink:href="#m9a4c27f0d1" y="238.708819"/>
     <use style="fill:#666666;stroke:#666666;" x="331.990556" xlink:href="#m9a4c27f0d1" y="256.422889"/>
     <use style="fill:#666666;stroke:#666666;" x="334.814792" xlink:href="#m9a4c27f0d1" y="233.320426"/>
     <use style="fill:#666666;stroke:#666666;" x="337.639028" xlink:href="#m9a4c27f0d1" y="229.991945"/>
     <use style="fill:#666666;stroke:#666666;" x="340.463264" xlink:href="#m9a4c27f0d1" y="199.845401"/>
     <use style="fill:#666666;stroke:#666666;" x="343.2875" xlink:href="#m9a4c27f0d1" y="225.703854"/>
     <use style="fill:#666666;stroke:#666666;" x="346.111736" xlink:href="#m9a4c27f0d1" y="237.313255"/>
     <use style="fill:#666666;stroke:#666666;" x="348.935972" xlink:href="#m9a4c27f0d1" y="232.853764"/>
     <use style="fill:#666666;stroke:#666666;" x="351.760208" xlink:href="#m9a4c27f0d1" y="247.872409"/>
     <use style="fill:#666666;stroke:#666666;" x="354.584444" xlink:href="#m9a4c27f0d1" y="261.193665"/>
     <use style="fill:#666666;stroke:#666666;" x="357.408681" xlink:href="#m9a4c27f0d1" y="252.510922"/>
     <use style="fill:#666666;stroke:#666666;" x="360.232917" xlink:href="#m9a4c27f0d1" y="252.579342"/>
     <use style="fill:#666666;stroke:#666666;" x="363.057153" xlink:href="#m9a4c27f0d1" y="266.329796"/>
     <use style="fill:#666666;stroke:#666666;" x="365.881389" xlink:href="#m9a4c27f0d1" y="267.391228"/>
     <use style="fill:#666666;stroke:#666666;" x="368.705625" xlink:href="#m9a4c27f0d1" y="268.388272"/>
     <use style="fill:#666666;stroke:#666666;" x="371.529861" xlink:href="#m9a4c27f0d1" y="270.562212"/>
     <use style="fill:#666666;stroke:#666666;" x="374.354097" xlink:href="#m9a4c27f0d1" y="277.227175"/>
     <use style="fill:#666666;stroke:#666666;" x="377.178333" xlink:href="#m9a4c27f0d1" y="270.531227"/>
     <use style="fill:#666666;stroke:#666666;" x="380.002569" xlink:href="#m9a4c27f0d1" y="266.206953"/>
     <use style="fill:#666666;stroke:#666666;" x="382.826806" xlink:href="#m9a4c27f0d1" y="272.790139"/>
     <use style="fill:#666666;stroke:#666666;" x="385.651042" xlink:href="#m9a4c27f0d1" y="269.426238"/>
     <use style="fill:#666666;stroke:#666666;" x="388.475278" xlink:href="#m9a4c27f0d1" y="264.022779"/>
     <use style="fill:#666666;stroke:#666666;" x="391.299514" xlink:href="#m9a4c27f0d1" y="268.254334"/>
     <use style="fill:#666666;stroke:#666666;" x="394.12375" xlink:href="#m9a4c27f0d1" y="265.043048"/>
     <use style="fill:#666666;stroke:#666666;" x="396.947986" xlink:href="#m9a4c27f0d1" y="263.66871"/>
     <use style="fill:#666666;stroke:#666666;" x="399.772222" xlink:href="#m9a4c27f0d1" y="263.98592"/>
     <use style="fill:#666666;stroke:#666666;" x="402.596458" xlink:href="#m9a4c27f0d1" y="261.902407"/>
     <use style="fill:#666666;stroke:#666666;" x="405.420694" xlink:href="#m9a4c27f0d1" y="254.770875"/>
     <use style="fill:#666666;stroke:#666666;" x="408.244931" xlink:href="#m9a4c27f0d1" y="247.964387"/>
     <use style="fill:#666666;stroke:#666666;" x="411.069167" xlink:href="#m9a4c27f0d1" y="247.876373"/>
     <use style="fill:#666666;stroke:#666666;" x="413.893403" xlink:href="#m9a4c27f0d1" y="247.27714"/>
     <use style="fill:#666666;stroke:#666666;" x="416.717639" xlink:href="#m9a4c27f0d1" y="234.984664"/>
     <use style="fill:#666666;stroke:#666666;" x="419.541875" xlink:href="#m9a4c27f0d1" y="224.934569"/>
     <use style="fill:#666666;stroke:#666666;" x="422.366111" xlink:href="#m9a4c27f0d1" y="218.649733"/>
     <use style="fill:#666666;stroke:#666666;" x="425.190347" xlink:href="#m9a4c27f0d1" y="214.384272"/>
     <use style="fill:#666666;stroke:#666666;" x="428.014583" xlink:href="#m9a4c27f0d1" y="197.750055"/>
     <use style="fill:#666666;stroke:#666666;" x="430.838819" xlink:href="#m9a4c27f0d1" y="179.381786"/>
     <use style="fill:#666666;stroke:#666666;" x="433.663056" xlink:href="#m9a4c27f0d1" y="165.114709"/>
     <use style="fill:#666666;stroke:#666666;" x="436.487292" xlink:href="#m9a4c27f0d1" y="151.374095"/>
     <use style="fill:#666666;stroke:#666666;" x="439.311528" xlink:href="#m9a4c27f0d1" y="97.792974"/>
     <use style="fill:#666666;stroke:#666666;" x="442.135764" xlink:href="#m9a4c27f0d1" y="53.546325"/>
     <use style="fill:#666666;stroke:#666666;" x="444.96" xlink:href="#m9a4c27f0d1" y="29.899313"/>
    </g>
   </g>
   <g id="patch_3">
    <path d="M 38.27 294.01 
L 38.27 13.32 
" style="fill:none;stroke:#000000;stroke-linecap:square;stroke-linejoin:miter;stroke-width:0.8;"/>
   </g>
   <g id="patch_4">
    <path d="M 444.96 294.01 
L 444.96 13.32 
" style="fill:none;stroke:#000000;stroke-linecap:square;stroke-linejoin:miter;stroke-width:0.8;"/>
   </g>
   <g id="patch_5">
    <path d="M 38.27 294.01 
L 444.96 294.01 
" style="fill:none;stroke:#000000;stroke-linecap:square;stroke-linejoin:miter;stroke-width:0.8;"/>
   </g>
   <g id="patch_6">
    <path d="M 38.27 13.32 
L 444.96 13.32 
" style="fill:none;stroke:#000000;stroke-linecap:square;stroke-linejoin:miter;stroke-width:0.8;"/>
   </g>
  </g>
 </g>
 <defs>
  <clipPath id="p7ea87e25d2">
   <rect height="280.69" width="406.69" x="38.27" y="13.32"/>
  </clipPath>
 </defs>
</svg>
