<?xml version="1.0" encoding="utf-8" standalone="no"?>
<!DOCTYPE svg PUBLIC "-//W3C//DTD SVG 1.1//EN"
  "http://www.w3.org/Graphics/SVG/1.1/DTD/svg11.dtd">
<!-- Created with matplotlib (http://matplotlib.org/) -->
<svg height="345.6pt" version="1.1" viewBox="0 0 460.8 345.6" width="460.8pt" xmlns="http://www.w3.org/2000/svg" xmlns:xlink="http://www.w3.org/1999/xlink">
 <defs>
  <style type="text/css">
*{stroke-linecap:butt;stroke-linejoin:round;}
  </style>
 </defs>
 <g id="figure_1">
  <g id="patch_1">
   <path d="M 0 345.6 
L 460.8 345.6 
L 460.8 0 
L 0 0 
z
" style="fill:#ffffff;"/>
  </g>
  <g id="axes_1">
   <g id="patch_2">
    <path d="M 38.27 294.01 
L 447.48 294.01 
L 447.48 13.32 
L 38.27 13.32 
z
" style="fill:#ffffff;"/>
   </g>
   <g id="matplotlib.axis_1">
    <g id="xtick_1">
     <g id="line2d_1">
      <defs>
       <path d="M 0 0 
L 0 3.5 
" id="m977ae10764" style="stroke:#000000;stroke-width:0.8;"/>
      </defs>
      <g>
       <use style="stroke:#000000;stroke-width:0.8;" x="38.27" xlink:href="#m977ae10764" y="294.01"/>
      </g>
     </g>
     <g id="text_1">
      <!-- A1 -->
      <defs>
       <path d="M 34.1875 63.1875 
L 20.796875 26.90625 
L 47.609375 26.90625 
z
M 28.609375 72.90625 
L 39.796875 72.90625 
L 67.578125 0 
L 57.328125 0 
L 50.6875 18.703125 
L 17.828125 18.703125 
L 11.1875 0 
L 0.78125 0 
z
" id="DejaVuSans-41"/>
       <path d="M 12.40625 8.296875 
L 28.515625 8.296875 
L 28.515625 63.921875 
L 10.984375 60.40625 
L 10.984375 69.390625 
L 28.421875 72.90625 
L 38.28125 72.90625 
L 38.28125 8.296875 
L 54.390625 8.296875 
L 54.390625 0 
L 12.40625 0 
z
" id="DejaVuSans-31"/>
      </defs>
      <g transform="translate(41.029375 314.213125)rotate(-90)scale(0.1 -0.1)">
       <use xlink:href="#DejaVuSans-41"/>
       <use x="68.408203" xlink:href="#DejaVuSans-31"/>
      </g>
     </g>
    </g>
    <g id="xtick_2">
     <g id="line2d_2">
      <g>
       <use style="stroke:#000000;stroke-width:0.8;" x="58.231463" xlink:href="#m977ae10764" y="294.01"/>
      </g>
     </g>
     <g id="text_2">
      <!-- A9 -->
      <defs>
       <path d="M 10.984375 1.515625 
L 10.984375 10.5 
Q 14.703125 8.734375 18.5 7.8125 
Q 22.3125 6.890625 25.984375 6.890625 
Q 35.75 6.890625 40.890625 13.453125 
Q 46.046875 20.015625 46.78125 33.40625 
Q 43.953125 29.203125 39.59375 26.953125 
Q 35.25 24.703125 29.984375 24.703125 
Q 19.046875 24.703125 12.671875 31.3125 
Q 6.296875 37.9375 6.296875 49.421875 
Q 6.296875 60.640625 12.9375 67.421875 
Q 19.578125 74.21875 30.609375 74.21875 
Q 43.265625 74.21875 49.921875 64.515625 
Q 56.59375 54.828125 56.59375 36.375 
Q 56.59375 19.140625 48.40625 8.859375 
Q 40.234375 -1.421875 26.421875 -1.421875 
Q 22.703125 -1.421875 18.890625 -0.6875 
Q 15.09375 0.046875 10.984375 1.515625 
z
M 30.609375 32.421875 
Q 37.25 32.421875 41.125 36.953125 
Q 45.015625 41.5 45.015625 49.421875 
Q 45.015625 57.28125 41.125 61.84375 
Q 37.25 66.40625 30.609375 66.40625 
Q 23.96875 66.40625 20.09375 61.84375 
Q 16.21875 57.28125 16.21875 49.421875 
Q 16.21875 41.5 20.09375 36.953125 
Q 23.96875 32.421875 30.609375 32.421875 
z
" id="DejaVuSans-39"/>
      </defs>
      <g transform="translate(60.990838 314.213125)rotate(-90)scale(0.1 -0.1)">
       <use xlink:href="#DejaVuSans-41"/>
       <use x="68.408203" xlink:href="#DejaVuSans-39"/>
      </g>
     </g>
    </g>
    <g id="xtick_3">
     <g id="line2d_3">
      <g>
       <use style="stroke:#000000;stroke-width:0.8;" x="78.192927" xlink:href="#m977ae10764" y="294.01"/>
      </g>
     </g>
     <g id="text_3">
      <!-- A17 -->
      <defs>
       <path d="M 8.203125 72.90625 
L 55.078125 72.90625 
L 55.078125 68.703125 
L 28.609375 0 
L 18.3125 0 
L 43.21875 64.59375 
L 8.203125 64.59375 
z
" id="DejaVuSans-37"/>
      </defs>
      <g transform="translate(80.952302 320.575625)rotate(-90)scale(0.1 -0.1)">
       <use xlink:href="#DejaVuSans-41"/>
       <use x="68.408203" xlink:href="#DejaVuSans-31"/>
       <use x="132.03125" xlink:href="#DejaVuSans-37"/>
      </g>
     </g>
    </g>
    <g id="xtick_4">
     <g id="line2d_4">
      <g>
       <use style="stroke:#000000;stroke-width:0.8;" x="98.15439" xlink:href="#m977ae10764" y="294.01"/>
      </g>
     </g>
     <g id="text_4">
      <!-- A25 -->
      <defs>
       <path d="M 19.1875 8.296875 
L 53.609375 8.296875 
L 53.609375 0 
L 7.328125 0 
L 7.328125 8.296875 
Q 12.9375 14.109375 22.625 23.890625 
Q 32.328125 33.6875 34.8125 36.53125 
Q 39.546875 41.84375 41.421875 45.53125 
Q 43.3125 49.21875 43.3125 52.78125 
Q 43.3125 58.59375 39.234375 62.25 
Q 35.15625 65.921875 28.609375 65.921875 
Q 23.96875 65.921875 18.8125 64.3125 
Q 13.671875 62.703125 7.8125 59.421875 
L 7.8125 69.390625 
Q 13.765625 71.78125 18.9375 73 
Q 24.125 74.21875 28.421875 74.21875 
Q 39.75 74.21875 46.484375 68.546875 
Q 53.21875 62.890625 53.21875 53.421875 
Q 53.21875 48.921875 51.53125 44.890625 
Q 49.859375 40.875 45.40625 35.40625 
Q 44.1875 33.984375 37.640625 27.21875 
Q 31.109375 20.453125 19.1875 8.296875 
z
" id="DejaVuSans-32"/>
       <path d="M 10.796875 72.90625 
L 49.515625 72.90625 
L 49.515625 64.59375 
L 19.828125 64.59375 
L 19.828125 46.734375 
Q 21.96875 47.46875 24.109375 47.828125 
Q 26.265625 48.1875 28.421875 48.1875 
Q 40.625 48.1875 47.75 41.5 
Q 54.890625 34.8125 54.890625 23.390625 
Q 54.890625 11.625 47.5625 5.09375 
Q 40.234375 -1.421875 26.90625 -1.421875 
Q 22.3125 -1.421875 17.546875 -0.640625 
Q 12.796875 0.140625 7.71875 1.703125 
L 7.71875 11.625 
Q 12.109375 9.234375 16.796875 8.0625 
Q 21.484375 6.890625 26.703125 6.890625 
Q 35.15625 6.890625 40.078125 11.328125 
Q 45.015625 15.765625 45.015625 23.390625 
Q 45.015625 31 40.078125 35.4375 
Q 35.15625 39.890625 26.703125 39.890625 
Q 22.75 39.890625 18.8125 39.015625 
Q 14.890625 38.140625 10.796875 36.28125 
z
" id="DejaVuSans-35"/>
      </defs>
      <g transform="translate(100.913765 320.575625)rotate(-90)scale(0.1 -0.1)">
       <use xlink:href="#DejaVuSans-41"/>
       <use x="68.408203" xlink:href="#DejaVuSans-32"/>
       <use x="132.03125" xlink:href="#DejaVuSans-35"/>
      </g>
     </g>
    </g>
    <g id="xtick_5">
     <g id="line2d_5">
      <g>
       <use style="stroke:#000000;stroke-width:0.8;" x="118.115854" xlink:href="#m977ae10764" y="294.01"/>
      </g>
     </g>
     <g id="text_5">
      <!-- A33 -->
      <defs>
       <path d="M 40.578125 39.3125 
Q 47.65625 37.796875 51.625 33 
Q 55.609375 28.21875 55.609375 21.1875 
Q 55.609375 10.40625 48.1875 4.484375 
Q 40.765625 -1.421875 27.09375 -1.421875 
Q 22.515625 -1.421875 17.65625 -0.515625 
Q 12.796875 0.390625 7.625 2.203125 
L 7.625 11.71875 
Q 11.71875 9.328125 16.59375 8.109375 
Q 21.484375 6.890625 26.8125 6.890625 
Q 36.078125 6.890625 40.9375 10.546875 
Q 45.796875 14.203125 45.796875 21.1875 
Q 45.796875 27.640625 41.28125 31.265625 
Q 36.765625 34.90625 28.71875 34.90625 
L 20.21875 34.90625 
L 20.21875 43.015625 
L 29.109375 43.015625 
Q 36.375 43.015625 40.234375 45.921875 
Q 44.09375 48.828125 44.09375 54.296875 
Q 44.09375 59.90625 40.109375 62.90625 
Q 36.140625 65.921875 28.71875 65.921875 
Q 24.65625 65.921875 20.015625 65.03125 
Q 15.375 64.15625 9.8125 62.3125 
L 9.8125 71.09375 
Q 15.4375 72.65625 20.34375 73.4375 
Q 25.25 74.21875 29.59375 74.21875 
Q 40.828125 74.21875 47.359375 69.109375 
Q 53.90625 64.015625 53.90625 55.328125 
Q 53.90625 49.265625 50.4375 45.09375 
Q 46.96875 40.921875 40.578125 39.3125 
z
" id="DejaVuSans-33"/>
      </defs>
      <g transform="translate(120.875229 320.575625)rotate(-90)scale(0.1 -0.1)">
       <use xlink:href="#DejaVuSans-41"/>
       <use x="68.408203" xlink:href="#DejaVuSans-33"/>
       <use x="132.03125" xlink:href="#DejaVuSans-33"/>
      </g>
     </g>
    </g>
    <g id="xtick_6">
     <g id="line2d_6">
      <g>
       <use style="stroke:#000000;stroke-width:0.8;" x="138.077317" xlink:href="#m977ae10764" y="294.01"/>
      </g>
     </g>
     <g id="text_6">
      <!-- A41 -->
      <defs>
       <path d="M 37.796875 64.3125 
L 12.890625 25.390625 
L 37.796875 25.390625 
z
M 35.203125 72.90625 
L 47.609375 72.90625 
L 47.609375 25.390625 
L 58.015625 25.390625 
L 58.015625 17.1875 
L 47.609375 17.1875 
L 47.609375 0 
L 37.796875 0 
L 37.796875 17.1875 
L 4.890625 17.1875 
L 4.890625 26.703125 
z
" id="DejaVuSans-34"/>
      </defs>
      <g transform="translate(140.836692 320.575625)rotate(-90)scale(0.1 -0.1)">
       <use xlink:href="#DejaVuSans-41"/>
       <use x="68.408203" xlink:href="#DejaVuSans-34"/>
       <use x="132.03125" xlink:href="#DejaVuSans-31"/>
      </g>
     </g>
    </g>
    <g id="xtick_7">
     <g id="line2d_7">
      <g>
       <use style="stroke:#000000;stroke-width:0.8;" x="158.03878" xlink:href="#m977ae10764" y="294.01"/>
      </g>
     </g>
     <g id="text_7">
      <!-- A49 -->
      <g transform="translate(160.798155 320.575625)rotate(-90)scale(0.1 -0.1)">
       <use xlink:href="#DejaVuSans-41"/>
       <use x="68.408203" xlink:href="#DejaVuSans-34"/>
       <use x="132.03125" xlink:href="#DejaVuSans-39"/>
      </g>
     </g>
    </g>
    <g id="xtick_8">
     <g id="line2d_8">
      <g>
       <use style="stroke:#000000;stroke-width:0.8;" x="178.000244" xlink:href="#m977ae10764" y="294.01"/>
      </g>
     </g>
     <g id="text_8">
      <!-- A57 -->
      <g transform="translate(180.759619 320.575625)rotate(-90)scale(0.1 -0.1)">
       <use xlink:href="#DejaVuSans-41"/>
       <use x="68.408203" xlink:href="#DejaVuSans-35"/>
       <use x="132.03125" xlink:href="#DejaVuSans-37"/>
      </g>
     </g>
    </g>
    <g id="xtick_9">
     <g id="line2d_9">
      <g>
       <use style="stroke:#000000;stroke-width:0.8;" x="197.961707" xlink:href="#m977ae10764" y="294.01"/>
      </g>
     </g>
     <g id="text_9">
      <!-- A65 -->
      <defs>
       <path d="M 33.015625 40.375 
Q 26.375 40.375 22.484375 35.828125 
Q 18.609375 31.296875 18.609375 23.390625 
Q 18.609375 15.53125 22.484375 10.953125 
Q 26.375 6.390625 33.015625 6.390625 
Q 39.65625 6.390625 43.53125 10.953125 
Q 47.40625 15.53125 47.40625 23.390625 
Q 47.40625 31.296875 43.53125 35.828125 
Q 39.65625 40.375 33.015625 40.375 
z
M 52.59375 71.296875 
L 52.59375 62.3125 
Q 48.875 64.0625 45.09375 64.984375 
Q 41.3125 65.921875 37.59375 65.921875 
Q 27.828125 65.921875 22.671875 59.328125 
Q 17.53125 52.734375 16.796875 39.40625 
Q 19.671875 43.65625 24.015625 45.921875 
Q 28.375 48.1875 33.59375 48.1875 
Q 44.578125 48.1875 50.953125 41.515625 
Q 57.328125 34.859375 57.328125 23.390625 
Q 57.328125 12.15625 50.6875 5.359375 
Q 44.046875 -1.421875 33.015625 -1.421875 
Q 20.359375 -1.421875 13.671875 8.265625 
Q 6.984375 17.96875 6.984375 36.375 
Q 6.984375 53.65625 15.1875 63.9375 
Q 23.390625 74.21875 37.203125 74.21875 
Q 40.921875 74.21875 44.703125 73.484375 
Q 48.484375 72.75 52.59375 71.296875 
z
" id="DejaVuSans-36"/>
      </defs>
      <g transform="translate(200.721082 320.575625)rotate(-90)scale(0.1 -0.1)">
       <use xlink:href="#DejaVuSans-41"/>
       <use x="68.408203" xlink:href="#DejaVuSans-36"/>
       <use x="132.03125" xlink:href="#DejaVuSans-35"/>
      </g>
     </g>
    </g>
    <g id="xtick_10">
     <g id="line2d_10">
      <g>
       <use style="stroke:#000000;stroke-width:0.8;" x="217.923171" xlink:href="#m977ae10764" y="294.01"/>
      </g>
     </g>
     <g id="text_10">
      <!-- B2 -->
      <defs>
       <path d="M 19.671875 34.8125 
L 19.671875 8.109375 
L 35.5 8.109375 
Q 43.453125 8.109375 47.28125 11.40625 
Q 51.125 14.703125 51.125 21.484375 
Q 51.125 28.328125 47.28125 31.5625 
Q 43.453125 34.8125 35.5 34.8125 
z
M 19.671875 64.796875 
L 19.671875 42.828125 
L 34.28125 42.828125 
Q 41.5 42.828125 45.03125 45.53125 
Q 48.578125 48.25 48.578125 53.8125 
Q 48.578125 59.328125 45.03125 62.0625 
Q 41.5 64.796875 34.28125 64.796875 
z
M 9.8125 72.90625 
L 35.015625 72.90625 
Q 46.296875 72.90625 52.390625 68.21875 
Q 58.5 63.53125 58.5 54.890625 
Q 58.5 48.1875 55.375 44.234375 
Q 52.25 40.28125 46.1875 39.3125 
Q 53.46875 37.75 57.5 32.78125 
Q 61.53125 27.828125 61.53125 20.40625 
Q 61.53125 10.640625 54.890625 5.3125 
Q 48.25 0 35.984375 0 
L 9.8125 0 
z
" id="DejaVuSans-42"/>
      </defs>
      <g transform="translate(220.682546 314.233437)rotate(-90)scale(0.1 -0.1)">
       <use xlink:href="#DejaVuSans-42"/>
       <use x="68.603516" xlink:href="#DejaVuSans-32"/>
      </g>
     </g>
    </g>
    <g id="xtick_11">
     <g id="line2d_11">
      <g>
       <use style="stroke:#000000;stroke-width:0.8;" x="237.884634" xlink:href="#m977ae10764" y="294.01"/>
      </g>
     </g>
     <g id="text_11">
      <!-- B10 -->
      <defs>
       <path d="M 31.78125 66.40625 
Q 24.171875 66.40625 20.328125 58.90625 
Q 16.5 51.421875 16.5 36.375 
Q 16.5 21.390625 20.328125 13.890625 
Q 24.171875 6.390625 31.78125 6.390625 
Q 39.453125 6.390625 43.28125 13.890625 
Q 47.125 21.390625 47.125 36.375 
Q 47.125 51.421875 43.28125 58.90625 
Q 39.453125 66.40625 31.78125 66.40625 
z
M 31.78125 74.21875 
Q 44.046875 74.21875 50.515625 64.515625 
Q 56.984375 54.828125 56.984375 36.375 
Q 56.984375 17.96875 50.515625 8.265625 
Q 44.046875 -1.421875 31.78125 -1.421875 
Q 19.53125 -1.421875 13.0625 8.265625 
Q 6.59375 17.96875 6.59375 36.375 
Q 6.59375 54.828125 13.0625 64.515625 
Q 19.53125 74.21875 31.78125 74.21875 
z
" id="DejaVuSans-30"/>
      </defs>
      <g transform="translate(240.644009 320.595937)rotate(-90)scale(0.1 -0.1)">
       <use xlink:href="#DejaVuSans-42"/>
       <use x="68.603516" xlink:href="#DejaVuSans-31"/>
       <use x="132.226562" xlink:href="#DejaVuSans-30"/>
      </g>
     </g>
    </g>
    <g id="xtick_12">
     <g id="line2d_12">
      <g>
       <use style="stroke:#000000;stroke-width:0.8;" x="257.846098" xlink:href="#m977ae10764" y="294.01"/>
      </g>
     </g>
     <g id="text_12">
      <!-- B18 -->
      <defs>
       <path d="M 31.78125 34.625 
Q 24.75 34.625 20.71875 30.859375 
Q 16.703125 27.09375 16.703125 20.515625 
Q 16.703125 13.921875 20.71875 10.15625 
Q 24.75 6.390625 31.78125 6.390625 
Q 38.8125 6.390625 42.859375 10.171875 
Q 46.921875 13.96875 46.921875 20.515625 
Q 46.921875 27.09375 42.890625 30.859375 
Q 38.875 34.625 31.78125 34.625 
z
M 21.921875 38.8125 
Q 15.578125 40.375 12.03125 44.71875 
Q 8.5 49.078125 8.5 55.328125 
Q 8.5 64.0625 14.71875 69.140625 
Q 20.953125 74.21875 31.78125 74.21875 
Q 42.671875 74.21875 48.875 69.140625 
Q 55.078125 64.0625 55.078125 55.328125 
Q 55.078125 49.078125 51.53125 44.71875 
Q 48 40.375 41.703125 38.8125 
Q 48.828125 37.15625 52.796875 32.3125 
Q 56.78125 27.484375 56.78125 20.515625 
Q 56.78125 9.90625 50.3125 4.234375 
Q 43.84375 -1.421875 31.78125 -1.421875 
Q 19.734375 -1.421875 13.25 4.234375 
Q 6.78125 9.90625 6.78125 20.515625 
Q 6.78125 27.484375 10.78125 32.3125 
Q 14.796875 37.15625 21.921875 38.8125 
z
M 18.3125 54.390625 
Q 18.3125 48.734375 21.84375 45.5625 
Q 25.390625 42.390625 31.78125 42.390625 
Q 38.140625 42.390625 41.71875 45.5625 
Q 45.3125 48.734375 45.3125 54.390625 
Q 45.3125 60.0625 41.71875 63.234375 
Q 38.140625 66.40625 31.78125 66.40625 
Q 25.390625 66.40625 21.84375 63.234375 
Q 18.3125 60.0625 18.3125 54.390625 
z
" id="DejaVuSans-38"/>
      </defs>
      <g transform="translate(260.605473 320.595937)rotate(-90)scale(0.1 -0.1)">
       <use xlink:href="#DejaVuSans-42"/>
       <use x="68.603516" xlink:href="#DejaVuSans-31"/>
       <use x="132.226562" xlink:href="#DejaVuSans-38"/>
      </g>
     </g>
    </g>
    <g id="xtick_13">
     <g id="line2d_13">
      <g>
       <use style="stroke:#000000;stroke-width:0.8;" x="277.807561" xlink:href="#m977ae10764" y="294.01"/>
      </g>
     </g>
     <g id="text_13">
      <!-- B26 -->
      <g transform="translate(280.566936 320.595937)rotate(-90)scale(0.1 -0.1)">
       <use xlink:href="#DejaVuSans-42"/>
       <use x="68.603516" xlink:href="#DejaVuSans-32"/>
       <use x="132.226562" xlink:href="#DejaVuSans-36"/>
      </g>
     </g>
    </g>
    <g id="xtick_14">
     <g id="line2d_14">
      <g>
       <use style="stroke:#000000;stroke-width:0.8;" x="297.769024" xlink:href="#m977ae10764" y="294.01"/>
      </g>
     </g>
     <g id="text_14">
      <!-- B34 -->
      <g transform="translate(300.528399 320.595937)rotate(-90)scale(0.1 -0.1)">
       <use xlink:href="#DejaVuSans-42"/>
       <use x="68.603516" xlink:href="#DejaVuSans-33"/>
       <use x="132.226562" xlink:href="#DejaVuSans-34"/>
      </g>
     </g>
    </g>
    <g id="xtick_15">
     <g id="line2d_15">
      <g>
       <use style="stroke:#000000;stroke-width:0.8;" x="317.730488" xlink:href="#m977ae10764" y="294.01"/>
      </g>
     </g>
     <g id="text_15">
      <!-- B42 -->
      <g transform="translate(320.489863 320.595937)rotate(-90)scale(0.1 -0.1)">
       <use xlink:href="#DejaVuSans-42"/>
       <use x="68.603516" xlink:href="#DejaVuSans-34"/>
       <use x="132.226562" xlink:href="#DejaVuSans-32"/>
      </g>
     </g>
    </g>
    <g id="xtick_16">
     <g id="line2d_16">
      <g>
       <use style="stroke:#000000;stroke-width:0.8;" x="337.691951" xlink:href="#m977ae10764" y="294.01"/>
      </g>
     </g>
     <g id="text_16">
      <!-- B50 -->
      <g transform="translate(340.451326 320.595937)rotate(-90)scale(0.1 -0.1)">
       <use xlink:href="#DejaVuSans-42"/>
       <use x="68.603516" xlink:href="#DejaVuSans-35"/>
       <use x="132.226562" xlink:href="#DejaVuSans-30"/>
      </g>
     </g>
    </g>
    <g id="xtick_17">
     <g id="line2d_17">
      <g>
       <use style="stroke:#000000;stroke-width:0.8;" x="357.653415" xlink:href="#m977ae10764" y="294.01"/>
      </g>
     </g>
     <g id="text_17">
      <!-- B58 -->
      <g transform="translate(360.41279 320.595937)rotate(-90)scale(0.1 -0.1)">
       <use xlink:href="#DejaVuSans-42"/>
       <use x="68.603516" xlink:href="#DejaVuSans-35"/>
       <use x="132.226562" xlink:href="#DejaVuSans-38"/>
      </g>
     </g>
    </g>
    <g id="xtick_18">
     <g id="line2d_18">
      <g>
       <use style="stroke:#000000;stroke-width:0.8;" x="377.614878" xlink:href="#m977ae10764" y="294.01"/>
      </g>
     </g>
     <g id="text_18">
      <!-- B66 -->
      <g transform="translate(380.374253 320.595937)rotate(-90)scale(0.1 -0.1)">
       <use xlink:href="#DejaVuSans-42"/>
       <use x="68.603516" xlink:href="#DejaVuSans-36"/>
       <use x="132.226562" xlink:href="#DejaVuSans-36"/>
      </g>
     </g>
    </g>
    <g id="xtick_19">
     <g id="line2d_19">
      <g>
       <use style="stroke:#000000;stroke-width:0.8;" x="397.576341" xlink:href="#m977ae10764" y="294.01"/>
      </g>
     </g>
     <g id="text_19">
      <!-- B74 -->
      <g transform="translate(400.335716 320.595937)rotate(-90)scale(0.1 -0.1)">
       <use xlink:href="#DejaVuSans-42"/>
       <use x="68.603516" xlink:href="#DejaVuSans-37"/>
       <use x="132.226562" xlink:href="#DejaVuSans-34"/>
      </g>
     </g>
    </g>
    <g id="xtick_20">
     <g id="line2d_20">
      <g>
       <use style="stroke:#000000;stroke-width:0.8;" x="417.537805" xlink:href="#m977ae10764" y="294.01"/>
      </g>
     </g>
     <g id="text_20">
      <!-- B82 -->
      <g transform="translate(420.29718 320.595937)rotate(-90)scale(0.1 -0.1)">
       <use xlink:href="#DejaVuSans-42"/>
       <use x="68.603516" xlink:href="#DejaVuSans-38"/>
       <use x="132.226562" xlink:href="#DejaVuSans-32"/>
      </g>
     </g>
    </g>
    <g id="xtick_21">
     <g id="line2d_21">
      <g>
       <use style="stroke:#000000;stroke-width:0.8;" x="437.499268" xlink:href="#m977ae10764" y="294.01"/>
      </g>
     </g>
     <g id="text_21">
      <!-- B90 -->
      <g transform="translate(440.258643 320.595937)rotate(-90)scale(0.1 -0.1)">
       <use xlink:href="#DejaVuSans-42"/>
       <use x="68.603516" xlink:href="#DejaVuSans-39"/>
       <use x="132.226562" xlink:href="#DejaVuSans-30"/>
      </g>
     </g>
    </g>
    <g id="text_22">
     <!-- Residue index -->
     <defs>
      <path d="M 44.390625 34.1875 
Q 47.5625 33.109375 50.5625 29.59375 
Q 53.5625 26.078125 56.59375 19.921875 
L 66.609375 0 
L 56 0 
L 46.6875 18.703125 
Q 43.0625 26.03125 39.671875 28.421875 
Q 36.28125 30.8125 30.421875 30.8125 
L 19.671875 30.8125 
L 19.671875 0 
L 9.8125 0 
L 9.8125 72.90625 
L 32.078125 72.90625 
Q 44.578125 72.90625 50.734375 67.671875 
Q 56.890625 62.453125 56.890625 51.90625 
Q 56.890625 45.015625 53.6875 40.46875 
Q 50.484375 35.9375 44.390625 34.1875 
z
M 19.671875 64.796875 
L 19.671875 38.921875 
L 32.078125 38.921875 
Q 39.203125 38.921875 42.84375 42.21875 
Q 46.484375 45.515625 46.484375 51.90625 
Q 46.484375 58.296875 42.84375 61.546875 
Q 39.203125 64.796875 32.078125 64.796875 
z
" id="DejaVuSans-52"/>
      <path d="M 56.203125 29.59375 
L 56.203125 25.203125 
L 14.890625 25.203125 
Q 15.484375 15.921875 20.484375 11.0625 
Q 25.484375 6.203125 34.421875 6.203125 
Q 39.59375 6.203125 44.453125 7.46875 
Q 49.3125 8.734375 54.109375 11.28125 
L 54.109375 2.78125 
Q 49.265625 0.734375 44.1875 -0.34375 
Q 39.109375 -1.421875 33.890625 -1.421875 
Q 20.796875 -1.421875 13.15625 6.1875 
Q 5.515625 13.8125 5.515625 26.8125 
Q 5.515625 40.234375 12.765625 48.109375 
Q 20.015625 56 32.328125 56 
Q 43.359375 56 49.78125 48.890625 
Q 56.203125 41.796875 56.203125 29.59375 
z
M 47.21875 32.234375 
Q 47.125 39.59375 43.09375 43.984375 
Q 39.0625 48.390625 32.421875 48.390625 
Q 24.90625 48.390625 20.390625 44.140625 
Q 15.875 39.890625 15.1875 32.171875 
z
" id="DejaVuSans-65"/>
      <path d="M 44.28125 53.078125 
L 44.28125 44.578125 
Q 40.484375 46.53125 36.375 47.5 
Q 32.28125 48.484375 27.875 48.484375 
Q 21.1875 48.484375 17.84375 46.4375 
Q 14.5 44.390625 14.5 40.28125 
Q 14.5 37.15625 16.890625 35.375 
Q 19.28125 33.59375 26.515625 31.984375 
L 29.59375 31.296875 
Q 39.15625 29.25 43.1875 25.515625 
Q 47.21875 21.78125 47.21875 15.09375 
Q 47.21875 7.46875 41.1875 3.015625 
Q 35.15625 -1.421875 24.609375 -1.421875 
Q 20.21875 -1.421875 15.453125 -0.5625 
Q 10.6875 0.296875 5.421875 2 
L 5.421875 11.28125 
Q 10.40625 8.6875 15.234375 7.390625 
Q 20.0625 6.109375 24.8125 6.109375 
Q 31.15625 6.109375 34.5625 8.28125 
Q 37.984375 10.453125 37.984375 14.40625 
Q 37.984375 18.0625 35.515625 20.015625 
Q 33.0625 21.96875 24.703125 23.78125 
L 21.578125 24.515625 
Q 13.234375 26.265625 9.515625 29.90625 
Q 5.8125 33.546875 5.8125 39.890625 
Q 5.8125 47.609375 11.28125 51.796875 
Q 16.75 56 26.8125 56 
Q 31.78125 56 36.171875 55.265625 
Q 40.578125 54.546875 44.28125 53.078125 
z
" id="DejaVuSans-73"/>
      <path d="M 9.421875 54.6875 
L 18.40625 54.6875 
L 18.40625 0 
L 9.421875 0 
z
M 9.421875 75.984375 
L 18.40625 75.984375 
L 18.40625 64.59375 
L 9.421875 64.59375 
z
" id="DejaVuSans-69"/>
      <path d="M 45.40625 46.390625 
L 45.40625 75.984375 
L 54.390625 75.984375 
L 54.390625 0 
L 45.40625 0 
L 45.40625 8.203125 
Q 42.578125 3.328125 38.25 0.953125 
Q 33.9375 -1.421875 27.875 -1.421875 
Q 17.96875 -1.421875 11.734375 6.484375 
Q 5.515625 14.40625 5.515625 27.296875 
Q 5.515625 40.1875 11.734375 48.09375 
Q 17.96875 56 27.875 56 
Q 33.9375 56 38.25 53.625 
Q 42.578125 51.265625 45.40625 46.390625 
z
M 14.796875 27.296875 
Q 14.796875 17.390625 18.875 11.75 
Q 22.953125 6.109375 30.078125 6.109375 
Q 37.203125 6.109375 41.296875 11.75 
Q 45.40625 17.390625 45.40625 27.296875 
Q 45.40625 37.203125 41.296875 42.84375 
Q 37.203125 48.484375 30.078125 48.484375 
Q 22.953125 48.484375 18.875 42.84375 
Q 14.796875 37.203125 14.796875 27.296875 
z
" id="DejaVuSans-64"/>
      <path d="M 8.5 21.578125 
L 8.5 54.6875 
L 17.484375 54.6875 
L 17.484375 21.921875 
Q 17.484375 14.15625 20.5 10.265625 
Q 23.53125 6.390625 29.59375 6.390625 
Q 36.859375 6.390625 41.078125 11.03125 
Q 45.3125 15.671875 45.3125 23.6875 
L 45.3125 54.6875 
L 54.296875 54.6875 
L 54.296875 0 
L 45.3125 0 
L 45.3125 8.40625 
Q 42.046875 3.421875 37.71875 1 
Q 33.40625 -1.421875 27.6875 -1.421875 
Q 18.265625 -1.421875 13.375 4.4375 
Q 8.5 10.296875 8.5 21.578125 
z
M 31.109375 56 
z
" id="DejaVuSans-75"/>
      <path id="DejaVuSans-20"/>
      <path d="M 54.890625 33.015625 
L 54.890625 0 
L 45.90625 0 
L 45.90625 32.71875 
Q 45.90625 40.484375 42.875 44.328125 
Q 39.84375 48.1875 33.796875 48.1875 
Q 26.515625 48.1875 22.3125 43.546875 
Q 18.109375 38.921875 18.109375 30.90625 
L 18.109375 0 
L 9.078125 0 
L 9.078125 54.6875 
L 18.109375 54.6875 
L 18.109375 46.1875 
Q 21.34375 51.125 25.703125 53.5625 
Q 30.078125 56 35.796875 56 
Q 45.21875 56 50.046875 50.171875 
Q 54.890625 44.34375 54.890625 33.015625 
z
" id="DejaVuSans-6e"/>
      <path d="M 54.890625 54.6875 
L 35.109375 28.078125 
L 55.90625 0 
L 45.3125 0 
L 29.390625 21.484375 
L 13.484375 0 
L 2.875 0 
L 24.125 28.609375 
L 4.6875 54.6875 
L 15.28125 54.6875 
L 29.78125 35.203125 
L 44.28125 54.6875 
z
" id="DejaVuSans-78"/>
     </defs>
     <g transform="translate(207.557813 332.194375)scale(0.1 -0.1)">
      <use xlink:href="#DejaVuSans-52"/>
      <use x="69.419922" xlink:href="#DejaVuSans-65"/>
      <use x="130.943359" xlink:href="#DejaVuSans-73"/>
      <use x="183.042969" xlink:href="#DejaVuSans-69"/>
      <use x="210.826172" xlink:href="#DejaVuSans-64"/>
      <use x="274.302734" xlink:href="#DejaVuSans-75"/>
      <use x="337.681641" xlink:href="#DejaVuSans-65"/>
      <use x="399.205078" xlink:href="#DejaVuSans-20"/>
      <use x="430.992188" xlink:href="#DejaVuSans-69"/>
      <use x="458.775391" xlink:href="#DejaVuSans-6e"/>
      <use x="522.154297" xlink:href="#DejaVuSans-64"/>
      <use x="585.630859" xlink:href="#DejaVuSans-65"/>
      <use x="647.138672" xlink:href="#DejaVuSans-78"/>
     </g>
    </g>
   </g>
   <g id="matplotlib.axis_2">
    <g id="ytick_1">
     <g id="line2d_22">
      <defs>
       <path d="M 0 0 
L -3.5 0 
" id="mdedca50d53" style="stroke:#000000;stroke-width:0.8;"/>
      </defs>
      <g>
       <use style="stroke:#000000;stroke-width:0.8;" x="38.27" xlink:href="#mdedca50d53" y="265.291944"/>
      </g>
     </g>
     <g id="text_23">
      <!-- 1 -->
      <g transform="translate(24.9075 269.091163)scale(0.1 -0.1)">
       <use xlink:href="#DejaVuSans-31"/>
      </g>
     </g>
    </g>
    <g id="ytick_2">
     <g id="line2d_23">
      <g>
       <use style="stroke:#000000;stroke-width:0.8;" x="38.27" xlink:href="#mdedca50d53" y="222.117758"/>
      </g>
     </g>
     <g id="text_24">
      <!-- 2 -->
      <g transform="translate(24.9075 225.916977)scale(0.1 -0.1)">
       <use xlink:href="#DejaVuSans-32"/>
      </g>
     </g>
    </g>
    <g id="ytick_3">
     <g id="line2d_24">
      <g>
       <use style="stroke:#000000;stroke-width:0.8;" x="38.27" xlink:href="#mdedca50d53" y="178.943573"/>
      </g>
     </g>
     <g id="text_25">
      <!-- 3 -->
      <g transform="translate(24.9075 182.742791)scale(0.1 -0.1)">
       <use xlink:href="#DejaVuSans-33"/>
      </g>
     </g>
    </g>
    <g id="ytick_4">
     <g id="line2d_25">
      <g>
       <use style="stroke:#000000;stroke-width:0.8;" x="38.27" xlink:href="#mdedca50d53" y="135.769387"/>
      </g>
     </g>
     <g id="text_26">
      <!-- 4 -->
      <g transform="translate(24.9075 139.568606)scale(0.1 -0.1)">
       <use xlink:href="#DejaVuSans-34"/>
      </g>
     </g>
    </g>
    <g id="ytick_5">
     <g id="line2d_26">
      <g>
       <use style="stroke:#000000;stroke-width:0.8;" x="38.27" xlink:href="#mdedca50d53" y="92.595201"/>
      </g>
     </g>
     <g id="text_27">
      <!-- 5 -->
      <g transform="translate(24.9075 96.39442)scale(0.1 -0.1)">
       <use xlink:href="#DejaVuSans-35"/>
      </g>
     </g>
    </g>
    <g id="ytick_6">
     <g id="line2d_27">
      <g>
       <use style="stroke:#000000;stroke-width:0.8;" x="38.27" xlink:href="#mdedca50d53" y="49.421015"/>
      </g>
     </g>
     <g id="text_28">
      <!-- 6 -->
      <g transform="translate(24.9075 53.220234)scale(0.1 -0.1)">
       <use xlink:href="#DejaVuSans-36"/>
      </g>
     </g>
    </g>
    <g id="text_29">
     <!-- RMSF -->
     <defs>
      <path d="M 9.8125 72.90625 
L 24.515625 72.90625 
L 43.109375 23.296875 
L 61.8125 72.90625 
L 76.515625 72.90625 
L 76.515625 0 
L 66.890625 0 
L 66.890625 64.015625 
L 48.09375 14.015625 
L 38.1875 14.015625 
L 19.390625 64.015625 
L 19.390625 0 
L 9.8125 0 
z
" id="DejaVuSans-4d"/>
      <path d="M 53.515625 70.515625 
L 53.515625 60.890625 
Q 47.90625 63.578125 42.921875 64.890625 
Q 37.9375 66.21875 33.296875 66.21875 
Q 25.25 66.21875 20.875 63.09375 
Q 16.5 59.96875 16.5 54.203125 
Q 16.5 49.359375 19.40625 46.890625 
Q 22.3125 44.4375 30.421875 42.921875 
L 36.375 41.703125 
Q 47.40625 39.59375 52.65625 34.296875 
Q 57.90625 29 57.90625 20.125 
Q 57.90625 9.515625 50.796875 4.046875 
Q 43.703125 -1.421875 29.984375 -1.421875 
Q 24.8125 -1.421875 18.96875 -0.25 
Q 13.140625 0.921875 6.890625 3.21875 
L 6.890625 13.375 
Q 12.890625 10.015625 18.65625 8.296875 
Q 24.421875 6.59375 29.984375 6.59375 
Q 38.421875 6.59375 43.015625 9.90625 
Q 47.609375 13.234375 47.609375 19.390625 
Q 47.609375 24.75 44.3125 27.78125 
Q 41.015625 30.8125 33.5 32.328125 
L 27.484375 33.5 
Q 16.453125 35.6875 11.515625 40.375 
Q 6.59375 45.0625 6.59375 53.421875 
Q 6.59375 63.09375 13.40625 68.65625 
Q 20.21875 74.21875 32.171875 74.21875 
Q 37.3125 74.21875 42.625 73.28125 
Q 47.953125 72.359375 53.515625 70.515625 
z
" id="DejaVuSans-53"/>
      <path d="M 9.8125 72.90625 
L 51.703125 72.90625 
L 51.703125 64.59375 
L 19.671875 64.59375 
L 19.671875 43.109375 
L 48.578125 43.109375 
L 48.578125 34.8125 
L 19.671875 34.8125 
L 19.671875 0 
L 9.8125 0 
z
" id="DejaVuSans-46"/>
     </defs>
     <g transform="translate(18.827813 167.503281)rotate(-90)scale(0.1 -0.1)">
      <use xlink:href="#DejaVuSans-52"/>
      <use x="69.482422" xlink:href="#DejaVuSans-4d"/>
      <use x="155.761719" xlink:href="#DejaVuSans-53"/>
      <use x="219.238281" xlink:href="#DejaVuSans-46"/>
     </g>
    </g>
   </g>
   <g id="line2d_28">
    <path clip-path="url(#pb15552e473)" d="M 38.27 145.771084 
L 40.765183 179.223565 
L 43.260366 184.738139 
L 45.755549 210.478386 
L 48.250732 243.108267 
L 50.745915 244.977208 
L 53.241098 269.730606 
L 55.73628 255.277556 
L 58.231463 250.570225 
L 60.726646 228.038779 
L 63.221829 209.672671 
L 65.717012 162.996517 
L 68.212195 169.726376 
L 70.707378 214.764802 
L 73.202561 213.157182 
L 75.697744 240.762481 
L 78.192927 242.608968 
L 80.68811 230.090905 
L 83.183293 226.655906 
L 85.678476 222.978937 
L 88.173659 235.657956 
L 93.164024 194.483408 
L 95.659207 183.064307 
L 98.15439 116.913288 
L 100.649573 93.665517 
L 103.144756 88.364543 
L 105.639939 120.744519 
L 108.135122 94.957452 
L 110.630305 152.174817 
L 113.125488 224.674685 
L 115.620671 231.787132 
L 118.115854 235.19236 
L 120.611037 231.147733 
L 123.10622 230.820052 
L 125.601402 213.784462 
L 128.096585 226.492138 
L 130.591768 208.274807 
L 133.086951 218.428019 
L 135.582134 229.911253 
L 138.077317 247.61065 
L 140.5725 254.624217 
L 143.067683 257.649705 
L 145.562866 257.432324 
L 148.058049 243.942969 
L 150.553232 255.116266 
L 153.048415 259.074395 
L 155.543598 249.09701 
L 158.03878 251.734874 
L 160.533963 252.408915 
L 163.029146 207.223576 
L 165.524329 220.087028 
L 168.019512 251.710384 
L 170.514695 230.574385 
L 173.009878 244.58314 
L 175.505061 255.159284 
L 178.000244 258.328755 
L 180.495427 261.121976 
L 182.99061 236.401535 
L 185.485793 238.865011 
L 187.980976 241.775627 
L 190.476159 224.790161 
L 192.971341 217.674579 
L 195.466524 215.467953 
L 197.961707 221.021303 
L 200.45689 206.672458 
L 202.952073 180.545774 
L 205.447256 156.456386 
L 207.942439 144.341822 
L 210.437622 80.027734 
L 212.932805 26.078636 
L 215.427988 168.109529 
L 217.923171 212.579345 
L 220.418354 234.13964 
L 222.913537 216.20042 
L 225.40872 219.443848 
L 227.903902 247.292226 
L 230.399085 249.381733 
L 232.894268 245.121253 
L 235.389451 242.838841 
L 237.884634 260.3917 
L 240.379817 265.891536 
L 242.875 254.436025 
L 245.370183 259.350316 
L 247.865366 271.004745 
L 250.360549 270.451437 
L 252.855732 264.669842 
L 255.350915 271.238425 
L 257.846098 281.251364 
L 260.34128 273.062028 
L 262.836463 265.738107 
L 265.331646 279.755655 
L 267.826829 276.088753 
L 270.322012 271.00963 
L 272.817195 273.812426 
L 275.312378 269.392182 
L 277.807561 272.912828 
L 280.302744 275.084399 
L 285.29311 265.265278 
L 287.788293 266.531691 
L 290.283476 269.226901 
L 292.778659 246.470233 
L 295.273841 230.776013 
L 297.769024 232.253146 
L 300.264207 225.113967 
L 302.75939 196.82017 
L 305.254573 182.125729 
L 307.749756 186.640675 
L 310.244939 165.723646 
L 312.740122 128.552246 
L 315.235305 121.542102 
L 317.730488 92.633494 
L 320.225671 56.091345 
L 322.720854 28.799234 
L 327.71122 33.961382 
L 330.206402 60.842475 
L 332.701585 93.383189 
L 335.196768 122.844801 
L 337.691951 120.030534 
L 340.187134 155.681724 
L 342.682317 188.588672 
L 345.1775 176.455301 
L 347.672683 183.363857 
L 350.167866 214.608597 
L 352.663049 222.496099 
L 355.158232 210.982198 
L 357.653415 228.045762 
L 360.148598 249.19337 
L 362.64378 237.764373 
L 365.138963 241.932523 
L 367.634146 256.800916 
L 370.129329 262.206308 
L 372.624512 256.559824 
L 375.119695 260.192314 
L 377.614878 270.989995 
L 380.110061 264.704336 
L 382.605244 263.633822 
L 385.100427 270.551088 
L 387.59561 276.265816 
L 390.090793 271.659451 
L 392.585976 272.45404 
L 395.081159 278.625735 
L 397.576341 277.257975 
L 400.071524 271.003962 
L 402.566707 270.216943 
L 405.06189 274.080466 
L 407.557073 269.155142 
L 410.052256 251.20162 
L 412.547439 253.737739 
L 415.042622 267.485659 
L 417.537805 261.077939 
L 420.032988 265.745803 
L 422.528171 266.463267 
L 425.023354 267.033109 
L 427.518537 264.360692 
L 430.01372 265.339093 
L 432.508902 260.768739 
L 435.004085 245.461707 
L 437.499268 236.972752 
L 439.994451 229.415678 
L 442.489634 123.14366 
L 444.984817 85.384797 
L 447.48 43.791028 
L 447.48 43.791028 
" style="fill:none;stroke:#666666;stroke-dasharray:1,1.65;stroke-dashoffset:0;"/>
    <defs>
     <path d="M 0 0.5 
C 0.132602 0.5 0.25979 0.447317 0.353553 0.353553 
C 0.447317 0.25979 0.5 0.132602 0.5 0 
C 0.5 -0.132602 0.447317 -0.25979 0.353553 -0.353553 
C 0.25979 -0.447317 0.132602 -0.5 0 -0.5 
C -0.132602 -0.5 -0.25979 -0.447317 -0.353553 -0.353553 
C -0.447317 -0.25979 -0.5 -0.132602 -0.5 0 
C -0.5 0.132602 -0.447317 0.25979 -0.353553 0.353553 
C -0.25979 0.447317 -0.132602 0.5 0 0.5 
z
" id="m65f45cb2a7" style="stroke:#666666;"/>
    </defs>
    <g clip-path="url(#pb15552e473)">
     <use style="fill:#666666;stroke:#666666;" x="38.27" xlink:href="#m65f45cb2a7" y="145.771084"/>
     <use style="fill:#666666;stroke:#666666;" x="40.765183" xlink:href="#m65f45cb2a7" y="179.223565"/>
     <use style="fill:#666666;stroke:#666666;" x="43.260366" xlink:href="#m65f45cb2a7" y="184.738139"/>
     <use style="fill:#666666;stroke:#666666;" x="45.755549" xlink:href="#m65f45cb2a7" y="210.478386"/>
     <use style="fill:#666666;stroke:#666666;" x="48.250732" xlink:href="#m65f45cb2a7" y="243.108267"/>
     <use style="fill:#666666;stroke:#666666;" x="50.745915" xlink:href="#m65f45cb2a7" y="244.977208"/>
     <use style="fill:#666666;stroke:#666666;" x="53.241098" xlink:href="#m65f45cb2a7" y="269.730606"/>
     <use style="fill:#666666;stroke:#666666;" x="55.73628" xlink:href="#m65f45cb2a7" y="255.277556"/>
     <use style="fill:#666666;stroke:#666666;" x="58.231463" xlink:href="#m65f45cb2a7" y="250.570225"/>
     <use style="fill:#666666;stroke:#666666;" x="60.726646" xlink:href="#m65f45cb2a7" y="228.038779"/>
     <use style="fill:#666666;stroke:#666666;" x="63.221829" xlink:href="#m65f45cb2a7" y="209.672671"/>
     <use style="fill:#666666;stroke:#666666;" x="65.717012" xlink:href="#m65f45cb2a7" y="162.996517"/>
     <use style="fill:#666666;stroke:#666666;" x="68.212195" xlink:href="#m65f45cb2a7" y="169.726376"/>
     <use style="fill:#666666;stroke:#666666;" x="70.707378" xlink:href="#m65f45cb2a7" y="214.764802"/>
     <use style="fill:#666666;stroke:#666666;" x="73.202561" xlink:href="#m65f45cb2a7" y="213.157182"/>
     <use style="fill:#666666;stroke:#666666;" x="75.697744" xlink:href="#m65f45cb2a7" y="240.762481"/>
     <use style="fill:#666666;stroke:#666666;" x="78.192927" xlink:href="#m65f45cb2a7" y="242.608968"/>
     <use style="fill:#666666;stroke:#666666;" x="80.68811" xlink:href="#m65f45cb2a7" y="230.090905"/>
     <use style="fill:#666666;stroke:#666666;" x="83.183293" xlink:href="#m65f45cb2a7" y="226.655906"/>
     <use style="fill:#666666;stroke:#666666;" x="85.678476" xlink:href="#m65f45cb2a7" y="222.978937"/>
     <use style="fill:#666666;stroke:#666666;" x="88.173659" xlink:href="#m65f45cb2a7" y="235.657956"/>
     <use style="fill:#666666;stroke:#666666;" x="90.668841" xlink:href="#m65f45cb2a7" y="215.167244"/>
     <use style="fill:#666666;stroke:#666666;" x="93.164024" xlink:href="#m65f45cb2a7" y="194.483408"/>
     <use style="fill:#666666;stroke:#666666;" x="95.659207" xlink:href="#m65f45cb2a7" y="183.064307"/>
     <use style="fill:#666666;stroke:#666666;" x="98.15439" xlink:href="#m65f45cb2a7" y="116.913288"/>
     <use style="fill:#666666;stroke:#666666;" x="100.649573" xlink:href="#m65f45cb2a7" y="93.665517"/>
     <use style="fill:#666666;stroke:#666666;" x="103.144756" xlink:href="#m65f45cb2a7" y="88.364543"/>
     <use style="fill:#666666;stroke:#666666;" x="105.639939" xlink:href="#m65f45cb2a7" y="120.744519"/>
     <use style="fill:#666666;stroke:#666666;" x="108.135122" xlink:href="#m65f45cb2a7" y="94.957452"/>
     <use style="fill:#666666;stroke:#666666;" x="110.630305" xlink:href="#m65f45cb2a7" y="152.174817"/>
     <use style="fill:#666666;stroke:#666666;" x="113.125488" xlink:href="#m65f45cb2a7" y="224.674685"/>
     <use style="fill:#666666;stroke:#666666;" x="115.620671" xlink:href="#m65f45cb2a7" y="231.787132"/>
     <use style="fill:#666666;stroke:#666666;" x="118.115854" xlink:href="#m65f45cb2a7" y="235.19236"/>
     <use style="fill:#666666;stroke:#666666;" x="120.611037" xlink:href="#m65f45cb2a7" y="231.147733"/>
     <use style="fill:#666666;stroke:#666666;" x="123.10622" xlink:href="#m65f45cb2a7" y="230.820052"/>
     <use style="fill:#666666;stroke:#666666;" x="125.601402" xlink:href="#m65f45cb2a7" y="213.784462"/>
     <use style="fill:#666666;stroke:#666666;" x="128.096585" xlink:href="#m65f45cb2a7" y="226.492138"/>
     <use style="fill:#666666;stroke:#666666;" x="130.591768" xlink:href="#m65f45cb2a7" y="208.274807"/>
     <use style="fill:#666666;stroke:#666666;" x="133.086951" xlink:href="#m65f45cb2a7" y="218.428019"/>
     <use style="fill:#666666;stroke:#666666;" x="135.582134" xlink:href="#m65f45cb2a7" y="229.911253"/>
     <use style="fill:#666666;stroke:#666666;" x="138.077317" xlink:href="#m65f45cb2a7" y="247.61065"/>
     <use style="fill:#666666;stroke:#666666;" x="140.5725" xlink:href="#m65f45cb2a7" y="254.624217"/>
     <use style="fill:#666666;stroke:#666666;" x="143.067683" xlink:href="#m65f45cb2a7" y="257.649705"/>
     <use style="fill:#666666;stroke:#666666;" x="145.562866" xlink:href="#m65f45cb2a7" y="257.432324"/>
     <use style="fill:#666666;stroke:#666666;" x="148.058049" xlink:href="#m65f45cb2a7" y="243.942969"/>
     <use style="fill:#666666;stroke:#666666;" x="150.553232" xlink:href="#m65f45cb2a7" y="255.116266"/>
     <use style="fill:#666666;stroke:#666666;" x="153.048415" xlink:href="#m65f45cb2a7" y="259.074395"/>
     <use style="fill:#666666;stroke:#666666;" x="155.543598" xlink:href="#m65f45cb2a7" y="249.09701"/>
     <use style="fill:#666666;stroke:#666666;" x="158.03878" xlink:href="#m65f45cb2a7" y="251.734874"/>
     <use style="fill:#666666;stroke:#666666;" x="160.533963" xlink:href="#m65f45cb2a7" y="252.408915"/>
     <use style="fill:#666666;stroke:#666666;" x="163.029146" xlink:href="#m65f45cb2a7" y="207.223576"/>
     <use style="fill:#666666;stroke:#666666;" x="165.524329" xlink:href="#m65f45cb2a7" y="220.087028"/>
     <use style="fill:#666666;stroke:#666666;" x="168.019512" xlink:href="#m65f45cb2a7" y="251.710384"/>
     <use style="fill:#666666;stroke:#666666;" x="170.514695" xlink:href="#m65f45cb2a7" y="230.574385"/>
     <use style="fill:#666666;stroke:#666666;" x="173.009878" xlink:href="#m65f45cb2a7" y="244.58314"/>
     <use style="fill:#666666;stroke:#666666;" x="175.505061" xlink:href="#m65f45cb2a7" y="255.159284"/>
     <use style="fill:#666666;stroke:#666666;" x="178.000244" xlink:href="#m65f45cb2a7" y="258.328755"/>
     <use style="fill:#666666;stroke:#666666;" x="180.495427" xlink:href="#m65f45cb2a7" y="261.121976"/>
     <use style="fill:#666666;stroke:#666666;" x="182.99061" xlink:href="#m65f45cb2a7" y="236.401535"/>
     <use style="fill:#666666;stroke:#666666;" x="185.485793" xlink:href="#m65f45cb2a7" y="238.865011"/>
     <use style="fill:#666666;stroke:#666666;" x="187.980976" xlink:href="#m65f45cb2a7" y="241.775627"/>
     <use style="fill:#666666;stroke:#666666;" x="190.476159" xlink:href="#m65f45cb2a7" y="224.790161"/>
     <use style="fill:#666666;stroke:#666666;" x="192.971341" xlink:href="#m65f45cb2a7" y="217.674579"/>
     <use style="fill:#666666;stroke:#666666;" x="195.466524" xlink:href="#m65f45cb2a7" y="215.467953"/>
     <use style="fill:#666666;stroke:#666666;" x="197.961707" xlink:href="#m65f45cb2a7" y="221.021303"/>
     <use style="fill:#666666;stroke:#666666;" x="200.45689" xlink:href="#m65f45cb2a7" y="206.672458"/>
     <use style="fill:#666666;stroke:#666666;" x="202.952073" xlink:href="#m65f45cb2a7" y="180.545774"/>
     <use style="fill:#666666;stroke:#666666;" x="205.447256" xlink:href="#m65f45cb2a7" y="156.456386"/>
     <use style="fill:#666666;stroke:#666666;" x="207.942439" xlink:href="#m65f45cb2a7" y="144.341822"/>
     <use style="fill:#666666;stroke:#666666;" x="210.437622" xlink:href="#m65f45cb2a7" y="80.027734"/>
     <use style="fill:#666666;stroke:#666666;" x="212.932805" xlink:href="#m65f45cb2a7" y="26.078636"/>
     <use style="fill:#666666;stroke:#666666;" x="215.427988" xlink:href="#m65f45cb2a7" y="168.109529"/>
     <use style="fill:#666666;stroke:#666666;" x="217.923171" xlink:href="#m65f45cb2a7" y="212.579345"/>
     <use style="fill:#666666;stroke:#666666;" x="220.418354" xlink:href="#m65f45cb2a7" y="234.13964"/>
     <use style="fill:#666666;stroke:#666666;" x="222.913537" xlink:href="#m65f45cb2a7" y="216.20042"/>
     <use style="fill:#666666;stroke:#666666;" x="225.40872" xlink:href="#m65f45cb2a7" y="219.443848"/>
     <use style="fill:#666666;stroke:#666666;" x="227.903902" xlink:href="#m65f45cb2a7" y="247.292226"/>
     <use style="fill:#666666;stroke:#666666;" x="230.399085" xlink:href="#m65f45cb2a7" y="249.381733"/>
     <use style="fill:#666666;stroke:#666666;" x="232.894268" xlink:href="#m65f45cb2a7" y="245.121253"/>
     <use style="fill:#666666;stroke:#666666;" x="235.389451" xlink:href="#m65f45cb2a7" y="242.838841"/>
     <use style="fill:#666666;stroke:#666666;" x="237.884634" xlink:href="#m65f45cb2a7" y="260.3917"/>
     <use style="fill:#666666;stroke:#666666;" x="240.379817" xlink:href="#m65f45cb2a7" y="265.891536"/>
     <use style="fill:#666666;stroke:#666666;" x="242.875" xlink:href="#m65f45cb2a7" y="254.436025"/>
     <use style="fill:#666666;stroke:#666666;" x="245.370183" xlink:href="#m65f45cb2a7" y="259.350316"/>
     <use style="fill:#666666;stroke:#666666;" x="247.865366" xlink:href="#m65f45cb2a7" y="271.004745"/>
     <use style="fill:#666666;stroke:#666666;" x="250.360549" xlink:href="#m65f45cb2a7" y="270.451437"/>
     <use style="fill:#666666;stroke:#666666;" x="252.855732" xlink:href="#m65f45cb2a7" y="264.669842"/>
     <use style="fill:#666666;stroke:#666666;" x="255.350915" xlink:href="#m65f45cb2a7" y="271.238425"/>
     <use style="fill:#666666;stroke:#666666;" x="257.846098" xlink:href="#m65f45cb2a7" y="281.251364"/>
     <use style="fill:#666666;stroke:#666666;" x="260.34128" xlink:href="#m65f45cb2a7" y="273.062028"/>
     <use style="fill:#666666;stroke:#666666;" x="262.836463" xlink:href="#m65f45cb2a7" y="265.738107"/>
     <use style="fill:#666666;stroke:#666666;" x="265.331646" xlink:href="#m65f45cb2a7" y="279.755655"/>
     <use style="fill:#666666;stroke:#666666;" x="267.826829" xlink:href="#m65f45cb2a7" y="276.088753"/>
     <use style="fill:#666666;stroke:#666666;" x="270.322012" xlink:href="#m65f45cb2a7" y="271.00963"/>
     <use style="fill:#666666;stroke:#666666;" x="272.817195" xlink:href="#m65f45cb2a7" y="273.812426"/>
     <use style="fill:#666666;stroke:#666666;" x="275.312378" xlink:href="#m65f45cb2a7" y="269.392182"/>
     <use style="fill:#666666;stroke:#666666;" x="277.807561" xlink:href="#m65f45cb2a7" y="272.912828"/>
     <use style="fill:#666666;stroke:#666666;" x="280.302744" xlink:href="#m65f45cb2a7" y="275.084399"/>
     <use style="fill:#666666;stroke:#666666;" x="282.797927" xlink:href="#m65f45cb2a7" y="270.12718"/>
     <use style="fill:#666666;stroke:#666666;" x="285.29311" xlink:href="#m65f45cb2a7" y="265.265278"/>
     <use style="fill:#666666;stroke:#666666;" x="287.788293" xlink:href="#m65f45cb2a7" y="266.531691"/>
     <use style="fill:#666666;stroke:#666666;" x="290.283476" xlink:href="#m65f45cb2a7" y="269.226901"/>
     <use style="fill:#666666;stroke:#666666;" x="292.778659" xlink:href="#m65f45cb2a7" y="246.470233"/>
     <use style="fill:#666666;stroke:#666666;" x="295.273841" xlink:href="#m65f45cb2a7" y="230.776013"/>
     <use style="fill:#666666;stroke:#666666;" x="297.769024" xlink:href="#m65f45cb2a7" y="232.253146"/>
     <use style="fill:#666666;stroke:#666666;" x="300.264207" xlink:href="#m65f45cb2a7" y="225.113967"/>
     <use style="fill:#666666;stroke:#666666;" x="302.75939" xlink:href="#m65f45cb2a7" y="196.82017"/>
     <use style="fill:#666666;stroke:#666666;" x="305.254573" xlink:href="#m65f45cb2a7" y="182.125729"/>
     <use style="fill:#666666;stroke:#666666;" x="307.749756" xlink:href="#m65f45cb2a7" y="186.640675"/>
     <use style="fill:#666666;stroke:#666666;" x="310.244939" xlink:href="#m65f45cb2a7" y="165.723646"/>
     <use style="fill:#666666;stroke:#666666;" x="312.740122" xlink:href="#m65f45cb2a7" y="128.552246"/>
     <use style="fill:#666666;stroke:#666666;" x="315.235305" xlink:href="#m65f45cb2a7" y="121.542102"/>
     <use style="fill:#666666;stroke:#666666;" x="317.730488" xlink:href="#m65f45cb2a7" y="92.633494"/>
     <use style="fill:#666666;stroke:#666666;" x="320.225671" xlink:href="#m65f45cb2a7" y="56.091345"/>
     <use style="fill:#666666;stroke:#666666;" x="322.720854" xlink:href="#m65f45cb2a7" y="28.799234"/>
     <use style="fill:#666666;stroke:#666666;" x="325.216037" xlink:href="#m65f45cb2a7" y="31.313211"/>
     <use style="fill:#666666;stroke:#666666;" x="327.71122" xlink:href="#m65f45cb2a7" y="33.961382"/>
     <use style="fill:#666666;stroke:#666666;" x="330.206402" xlink:href="#m65f45cb2a7" y="60.842475"/>
     <use style="fill:#666666;stroke:#666666;" x="332.701585" xlink:href="#m65f45cb2a7" y="93.383189"/>
     <use style="fill:#666666;stroke:#666666;" x="335.196768" xlink:href="#m65f45cb2a7" y="122.844801"/>
     <use style="fill:#666666;stroke:#666666;" x="337.691951" xlink:href="#m65f45cb2a7" y="120.030534"/>
     <use style="fill:#666666;stroke:#666666;" x="340.187134" xlink:href="#m65f45cb2a7" y="155.681724"/>
     <use style="fill:#666666;stroke:#666666;" x="342.682317" xlink:href="#m65f45cb2a7" y="188.588672"/>
     <use style="fill:#666666;stroke:#666666;" x="345.1775" xlink:href="#m65f45cb2a7" y="176.455301"/>
     <use style="fill:#666666;stroke:#666666;" x="347.672683" xlink:href="#m65f45cb2a7" y="183.363857"/>
     <use style="fill:#666666;stroke:#666666;" x="350.167866" xlink:href="#m65f45cb2a7" y="214.608597"/>
     <use style="fill:#666666;stroke:#666666;" x="352.663049" xlink:href="#m65f45cb2a7" y="222.496099"/>
     <use style="fill:#666666;stroke:#666666;" x="355.158232" xlink:href="#m65f45cb2a7" y="210.982198"/>
     <use style="fill:#666666;stroke:#666666;" x="357.653415" xlink:href="#m65f45cb2a7" y="228.045762"/>
     <use style="fill:#666666;stroke:#666666;" x="360.148598" xlink:href="#m65f45cb2a7" y="249.19337"/>
     <use style="fill:#666666;stroke:#666666;" x="362.64378" xlink:href="#m65f45cb2a7" y="237.764373"/>
     <use style="fill:#666666;stroke:#666666;" x="365.138963" xlink:href="#m65f45cb2a7" y="241.932523"/>
     <use style="fill:#666666;stroke:#666666;" x="367.634146" xlink:href="#m65f45cb2a7" y="256.800916"/>
     <use style="fill:#666666;stroke:#666666;" x="370.129329" xlink:href="#m65f45cb2a7" y="262.206308"/>
     <use style="fill:#666666;stroke:#666666;" x="372.624512" xlink:href="#m65f45cb2a7" y="256.559824"/>
     <use style="fill:#666666;stroke:#666666;" x="375.119695" xlink:href="#m65f45cb2a7" y="260.192314"/>
     <use style="fill:#666666;stroke:#666666;" x="377.614878" xlink:href="#m65f45cb2a7" y="270.989995"/>
     <use style="fill:#666666;stroke:#666666;" x="380.110061" xlink:href="#m65f45cb2a7" y="264.704336"/>
     <use style="fill:#666666;stroke:#666666;" x="382.605244" xlink:href="#m65f45cb2a7" y="263.633822"/>
     <use style="fill:#666666;stroke:#666666;" x="385.100427" xlink:href="#m65f45cb2a7" y="270.551088"/>
     <use style="fill:#666666;stroke:#666666;" x="387.59561" xlink:href="#m65f45cb2a7" y="276.265816"/>
     <use style="fill:#666666;stroke:#666666;" x="390.090793" xlink:href="#m65f45cb2a7" y="271.659451"/>
     <use style="fill:#666666;stroke:#666666;" x="392.585976" xlink:href="#m65f45cb2a7" y="272.45404"/>
     <use style="fill:#666666;stroke:#666666;" x="395.081159" xlink:href="#m65f45cb2a7" y="278.625735"/>
     <use style="fill:#666666;stroke:#666666;" x="397.576341" xlink:href="#m65f45cb2a7" y="277.257975"/>
     <use style="fill:#666666;stroke:#666666;" x="400.071524" xlink:href="#m65f45cb2a7" y="271.003962"/>
     <use style="fill:#666666;stroke:#666666;" x="402.566707" xlink:href="#m65f45cb2a7" y="270.216943"/>
     <use style="fill:#666666;stroke:#666666;" x="405.06189" xlink:href="#m65f45cb2a7" y="274.080466"/>
     <use style="fill:#666666;stroke:#666666;" x="407.557073" xlink:href="#m65f45cb2a7" y="269.155142"/>
     <use style="fill:#666666;stroke:#666666;" x="410.052256" xlink:href="#m65f45cb2a7" y="251.20162"/>
     <use style="fill:#666666;stroke:#666666;" x="412.547439" xlink:href="#m65f45cb2a7" y="253.737739"/>
     <use style="fill:#666666;stroke:#666666;" x="415.042622" xlink:href="#m65f45cb2a7" y="267.485659"/>
     <use style="fill:#666666;stroke:#666666;" x="417.537805" xlink:href="#m65f45cb2a7" y="261.077939"/>
     <use style="fill:#666666;stroke:#666666;" x="420.032988" xlink:href="#m65f45cb2a7" y="265.745803"/>
     <use style="fill:#666666;stroke:#666666;" x="422.528171" xlink:href="#m65f45cb2a7" y="266.463267"/>
     <use style="fill:#666666;stroke:#666666;" x="425.023354" xlink:href="#m65f45cb2a7" y="267.033109"/>
     <use style="fill:#666666;stroke:#666666;" x="427.518537" xlink:href="#m65f45cb2a7" y="264.360692"/>
     <use style="fill:#666666;stroke:#666666;" x="430.01372" xlink:href="#m65f45cb2a7" y="265.339093"/>
     <use style="fill:#666666;stroke:#666666;" x="432.508902" xlink:href="#m65f45cb2a7" y="260.768739"/>
     <use style="fill:#666666;stroke:#666666;" x="435.004085" xlink:href="#m65f45cb2a7" y="245.461707"/>
     <use style="fill:#666666;stroke:#666666;" x="437.499268" xlink:href="#m65f45cb2a7" y="236.972752"/>
     <use style="fill:#666666;stroke:#666666;" x="439.994451" xlink:href="#m65f45cb2a7" y="229.415678"/>
     <use style="fill:#666666;stroke:#666666;" x="442.489634" xlink:href="#m65f45cb2a7" y="123.14366"/>
     <use style="fill:#666666;stroke:#666666;" x="444.984817" xlink:href="#m65f45cb2a7" y="85.384797"/>
     <use style="fill:#666666;stroke:#666666;" x="447.48" xlink:href="#m65f45cb2a7" y="43.791028"/>
    </g>
   </g>
   <g id="patch_3">
    <path d="M 38.27 294.01 
L 38.27 13.32 
" style="fill:none;stroke:#000000;stroke-linecap:square;stroke-linejoin:miter;stroke-width:0.8;"/>
   </g>
   <g id="patch_4">
    <path d="M 447.48 294.01 
L 447.48 13.32 
" style="fill:none;stroke:#000000;stroke-linecap:square;stroke-linejoin:miter;stroke-width:0.8;"/>
   </g>
   <g id="patch_5">
    <path d="M 38.27 294.01 
L 447.48 294.01 
" style="fill:none;stroke:#000000;stroke-linecap:square;stroke-linejoin:miter;stroke-width:0.8;"/>
   </g>
   <g id="patch_6">
    <path d="M 38.27 13.32 
L 447.48 13.32 
" style="fill:none;stroke:#000000;stroke-linecap:square;stroke-linejoin:miter;stroke-width:0.8;"/>
   </g>
  </g>
 </g>
 <defs>
  <clipPath id="pb15552e473">
   <rect height="280.69" width="409.21" x="38.27" y="13.32"/>
  </clipPath>
 </defs>
</svg>
