<?xml version="1.0" encoding="utf-8" standalone="no"?>
<!DOCTYPE svg PUBLIC "-//W3C//DTD SVG 1.1//EN"
  "http://www.w3.org/Graphics/SVG/1.1/DTD/svg11.dtd">
<!-- Created with matplotlib (http://matplotlib.org/) -->
<svg height="345.6pt" version="1.1" viewBox="0 0 460.8 345.6" width="460.8pt" xmlns="http://www.w3.org/2000/svg" xmlns:xlink="http://www.w3.org/1999/xlink">
 <defs>
  <style type="text/css">
*{stroke-linecap:butt;stroke-linejoin:round;}
  </style>
 </defs>
 <g id="figure_1">
  <g id="patch_1">
   <path d="M 0 345.6 
L 460.8 345.6 
L 460.8 0 
L 0 0 
z
" style="fill:#ffffff;"/>
  </g>
  <g id="axes_1">
   <g id="patch_2">
    <path d="M 38.27 294.01 
L 444.96 294.01 
L 444.96 13.32 
L 38.27 13.32 
z
" style="fill:#ffffff;"/>
   </g>
   <g id="matplotlib.axis_1">
    <g id="xtick_1">
     <g id="line2d_1">
      <defs>
       <path d="M 0 0 
L 0 3.5 
" id="ma04d712281" style="stroke:#000000;stroke-width:0.8;"/>
      </defs>
      <g>
       <use style="stroke:#000000;stroke-width:0.8;" x="38.27" xlink:href="#ma04d712281" y="294.01"/>
      </g>
     </g>
     <g id="text_1">
      <!-- A1 -->
      <defs>
       <path d="M 34.1875 63.1875 
L 20.796875 26.90625 
L 47.609375 26.90625 
z
M 28.609375 72.90625 
L 39.796875 72.90625 
L 67.578125 0 
L 57.328125 0 
L 50.6875 18.703125 
L 17.828125 18.703125 
L 11.1875 0 
L 0.78125 0 
z
" id="DejaVuSans-41"/>
       <path d="M 12.40625 8.296875 
L 28.515625 8.296875 
L 28.515625 63.921875 
L 10.984375 60.40625 
L 10.984375 69.390625 
L 28.421875 72.90625 
L 38.28125 72.90625 
L 38.28125 8.296875 
L 54.390625 8.296875 
L 54.390625 0 
L 12.40625 0 
z
" id="DejaVuSans-31"/>
      </defs>
      <g transform="translate(41.029375 314.213125)rotate(-90)scale(0.1 -0.1)">
       <use xlink:href="#DejaVuSans-41"/>
       <use x="68.408203" xlink:href="#DejaVuSans-31"/>
      </g>
     </g>
    </g>
    <g id="xtick_2">
     <g id="line2d_2">
      <g>
       <use style="stroke:#000000;stroke-width:0.8;" x="58.6045" xlink:href="#ma04d712281" y="294.01"/>
      </g>
     </g>
     <g id="text_2">
      <!-- A9 -->
      <defs>
       <path d="M 10.984375 1.515625 
L 10.984375 10.5 
Q 14.703125 8.734375 18.5 7.8125 
Q 22.3125 6.890625 25.984375 6.890625 
Q 35.75 6.890625 40.890625 13.453125 
Q 46.046875 20.015625 46.78125 33.40625 
Q 43.953125 29.203125 39.59375 26.953125 
Q 35.25 24.703125 29.984375 24.703125 
Q 19.046875 24.703125 12.671875 31.3125 
Q 6.296875 37.9375 6.296875 49.421875 
Q 6.296875 60.640625 12.9375 67.421875 
Q 19.578125 74.21875 30.609375 74.21875 
Q 43.265625 74.21875 49.921875 64.515625 
Q 56.59375 54.828125 56.59375 36.375 
Q 56.59375 19.140625 48.40625 8.859375 
Q 40.234375 -1.421875 26.421875 -1.421875 
Q 22.703125 -1.421875 18.890625 -0.6875 
Q 15.09375 0.046875 10.984375 1.515625 
z
M 30.609375 32.421875 
Q 37.25 32.421875 41.125 36.953125 
Q 45.015625 41.5 45.015625 49.421875 
Q 45.015625 57.28125 41.125 61.84375 
Q 37.25 66.40625 30.609375 66.40625 
Q 23.96875 66.40625 20.09375 61.84375 
Q 16.21875 57.28125 16.21875 49.421875 
Q 16.21875 41.5 20.09375 36.953125 
Q 23.96875 32.421875 30.609375 32.421875 
z
" id="DejaVuSans-39"/>
      </defs>
      <g transform="translate(61.363875 314.213125)rotate(-90)scale(0.1 -0.1)">
       <use xlink:href="#DejaVuSans-41"/>
       <use x="68.408203" xlink:href="#DejaVuSans-39"/>
      </g>
     </g>
    </g>
    <g id="xtick_3">
     <g id="line2d_3">
      <g>
       <use style="stroke:#000000;stroke-width:0.8;" x="78.939" xlink:href="#ma04d712281" y="294.01"/>
      </g>
     </g>
     <g id="text_3">
      <!-- A17 -->
      <defs>
       <path d="M 8.203125 72.90625 
L 55.078125 72.90625 
L 55.078125 68.703125 
L 28.609375 0 
L 18.3125 0 
L 43.21875 64.59375 
L 8.203125 64.59375 
z
" id="DejaVuSans-37"/>
      </defs>
      <g transform="translate(81.698375 320.575625)rotate(-90)scale(0.1 -0.1)">
       <use xlink:href="#DejaVuSans-41"/>
       <use x="68.408203" xlink:href="#DejaVuSans-31"/>
       <use x="132.03125" xlink:href="#DejaVuSans-37"/>
      </g>
     </g>
    </g>
    <g id="xtick_4">
     <g id="line2d_4">
      <g>
       <use style="stroke:#000000;stroke-width:0.8;" x="99.2735" xlink:href="#ma04d712281" y="294.01"/>
      </g>
     </g>
     <g id="text_4">
      <!-- A25 -->
      <defs>
       <path d="M 19.1875 8.296875 
L 53.609375 8.296875 
L 53.609375 0 
L 7.328125 0 
L 7.328125 8.296875 
Q 12.9375 14.109375 22.625 23.890625 
Q 32.328125 33.6875 34.8125 36.53125 
Q 39.546875 41.84375 41.421875 45.53125 
Q 43.3125 49.21875 43.3125 52.78125 
Q 43.3125 58.59375 39.234375 62.25 
Q 35.15625 65.921875 28.609375 65.921875 
Q 23.96875 65.921875 18.8125 64.3125 
Q 13.671875 62.703125 7.8125 59.421875 
L 7.8125 69.390625 
Q 13.765625 71.78125 18.9375 73 
Q 24.125 74.21875 28.421875 74.21875 
Q 39.75 74.21875 46.484375 68.546875 
Q 53.21875 62.890625 53.21875 53.421875 
Q 53.21875 48.921875 51.53125 44.890625 
Q 49.859375 40.875 45.40625 35.40625 
Q 44.1875 33.984375 37.640625 27.21875 
Q 31.109375 20.453125 19.1875 8.296875 
z
" id="DejaVuSans-32"/>
       <path d="M 10.796875 72.90625 
L 49.515625 72.90625 
L 49.515625 64.59375 
L 19.828125 64.59375 
L 19.828125 46.734375 
Q 21.96875 47.46875 24.109375 47.828125 
Q 26.265625 48.1875 28.421875 48.1875 
Q 40.625 48.1875 47.75 41.5 
Q 54.890625 34.8125 54.890625 23.390625 
Q 54.890625 11.625 47.5625 5.09375 
Q 40.234375 -1.421875 26.90625 -1.421875 
Q 22.3125 -1.421875 17.546875 -0.640625 
Q 12.796875 0.140625 7.71875 1.703125 
L 7.71875 11.625 
Q 12.109375 9.234375 16.796875 8.0625 
Q 21.484375 6.890625 26.703125 6.890625 
Q 35.15625 6.890625 40.078125 11.328125 
Q 45.015625 15.765625 45.015625 23.390625 
Q 45.015625 31 40.078125 35.4375 
Q 35.15625 39.890625 26.703125 39.890625 
Q 22.75 39.890625 18.8125 39.015625 
Q 14.890625 38.140625 10.796875 36.28125 
z
" id="DejaVuSans-35"/>
      </defs>
      <g transform="translate(102.032875 320.575625)rotate(-90)scale(0.1 -0.1)">
       <use xlink:href="#DejaVuSans-41"/>
       <use x="68.408203" xlink:href="#DejaVuSans-32"/>
       <use x="132.03125" xlink:href="#DejaVuSans-35"/>
      </g>
     </g>
    </g>
    <g id="xtick_5">
     <g id="line2d_5">
      <g>
       <use style="stroke:#000000;stroke-width:0.8;" x="119.608" xlink:href="#ma04d712281" y="294.01"/>
      </g>
     </g>
     <g id="text_5">
      <!-- A33 -->
      <defs>
       <path d="M 40.578125 39.3125 
Q 47.65625 37.796875 51.625 33 
Q 55.609375 28.21875 55.609375 21.1875 
Q 55.609375 10.40625 48.1875 4.484375 
Q 40.765625 -1.421875 27.09375 -1.421875 
Q 22.515625 -1.421875 17.65625 -0.515625 
Q 12.796875 0.390625 7.625 2.203125 
L 7.625 11.71875 
Q 11.71875 9.328125 16.59375 8.109375 
Q 21.484375 6.890625 26.8125 6.890625 
Q 36.078125 6.890625 40.9375 10.546875 
Q 45.796875 14.203125 45.796875 21.1875 
Q 45.796875 27.640625 41.28125 31.265625 
Q 36.765625 34.90625 28.71875 34.90625 
L 20.21875 34.90625 
L 20.21875 43.015625 
L 29.109375 43.015625 
Q 36.375 43.015625 40.234375 45.921875 
Q 44.09375 48.828125 44.09375 54.296875 
Q 44.09375 59.90625 40.109375 62.90625 
Q 36.140625 65.921875 28.71875 65.921875 
Q 24.65625 65.921875 20.015625 65.03125 
Q 15.375 64.15625 9.8125 62.3125 
L 9.8125 71.09375 
Q 15.4375 72.65625 20.34375 73.4375 
Q 25.25 74.21875 29.59375 74.21875 
Q 40.828125 74.21875 47.359375 69.109375 
Q 53.90625 64.015625 53.90625 55.328125 
Q 53.90625 49.265625 50.4375 45.09375 
Q 46.96875 40.921875 40.578125 39.3125 
z
" id="DejaVuSans-33"/>
      </defs>
      <g transform="translate(122.367375 320.575625)rotate(-90)scale(0.1 -0.1)">
       <use xlink:href="#DejaVuSans-41"/>
       <use x="68.408203" xlink:href="#DejaVuSans-33"/>
       <use x="132.03125" xlink:href="#DejaVuSans-33"/>
      </g>
     </g>
    </g>
    <g id="xtick_6">
     <g id="line2d_6">
      <g>
       <use style="stroke:#000000;stroke-width:0.8;" x="139.9425" xlink:href="#ma04d712281" y="294.01"/>
      </g>
     </g>
     <g id="text_6">
      <!-- A41 -->
      <defs>
       <path d="M 37.796875 64.3125 
L 12.890625 25.390625 
L 37.796875 25.390625 
z
M 35.203125 72.90625 
L 47.609375 72.90625 
L 47.609375 25.390625 
L 58.015625 25.390625 
L 58.015625 17.1875 
L 47.609375 17.1875 
L 47.609375 0 
L 37.796875 0 
L 37.796875 17.1875 
L 4.890625 17.1875 
L 4.890625 26.703125 
z
" id="DejaVuSans-34"/>
      </defs>
      <g transform="translate(142.701875 320.575625)rotate(-90)scale(0.1 -0.1)">
       <use xlink:href="#DejaVuSans-41"/>
       <use x="68.408203" xlink:href="#DejaVuSans-34"/>
       <use x="132.03125" xlink:href="#DejaVuSans-31"/>
      </g>
     </g>
    </g>
    <g id="xtick_7">
     <g id="line2d_7">
      <g>
       <use style="stroke:#000000;stroke-width:0.8;" x="160.277" xlink:href="#ma04d712281" y="294.01"/>
      </g>
     </g>
     <g id="text_7">
      <!-- A49 -->
      <g transform="translate(163.036375 320.575625)rotate(-90)scale(0.1 -0.1)">
       <use xlink:href="#DejaVuSans-41"/>
       <use x="68.408203" xlink:href="#DejaVuSans-34"/>
       <use x="132.03125" xlink:href="#DejaVuSans-39"/>
      </g>
     </g>
    </g>
    <g id="xtick_8">
     <g id="line2d_8">
      <g>
       <use style="stroke:#000000;stroke-width:0.8;" x="180.6115" xlink:href="#ma04d712281" y="294.01"/>
      </g>
     </g>
     <g id="text_8">
      <!-- A57 -->
      <g transform="translate(183.370875 320.575625)rotate(-90)scale(0.1 -0.1)">
       <use xlink:href="#DejaVuSans-41"/>
       <use x="68.408203" xlink:href="#DejaVuSans-35"/>
       <use x="132.03125" xlink:href="#DejaVuSans-37"/>
      </g>
     </g>
    </g>
    <g id="xtick_9">
     <g id="line2d_9">
      <g>
       <use style="stroke:#000000;stroke-width:0.8;" x="200.946" xlink:href="#ma04d712281" y="294.01"/>
      </g>
     </g>
     <g id="text_9">
      <!-- A65 -->
      <defs>
       <path d="M 33.015625 40.375 
Q 26.375 40.375 22.484375 35.828125 
Q 18.609375 31.296875 18.609375 23.390625 
Q 18.609375 15.53125 22.484375 10.953125 
Q 26.375 6.390625 33.015625 6.390625 
Q 39.65625 6.390625 43.53125 10.953125 
Q 47.40625 15.53125 47.40625 23.390625 
Q 47.40625 31.296875 43.53125 35.828125 
Q 39.65625 40.375 33.015625 40.375 
z
M 52.59375 71.296875 
L 52.59375 62.3125 
Q 48.875 64.0625 45.09375 64.984375 
Q 41.3125 65.921875 37.59375 65.921875 
Q 27.828125 65.921875 22.671875 59.328125 
Q 17.53125 52.734375 16.796875 39.40625 
Q 19.671875 43.65625 24.015625 45.921875 
Q 28.375 48.1875 33.59375 48.1875 
Q 44.578125 48.1875 50.953125 41.515625 
Q 57.328125 34.859375 57.328125 23.390625 
Q 57.328125 12.15625 50.6875 5.359375 
Q 44.046875 -1.421875 33.015625 -1.421875 
Q 20.359375 -1.421875 13.671875 8.265625 
Q 6.984375 17.96875 6.984375 36.375 
Q 6.984375 53.65625 15.1875 63.9375 
Q 23.390625 74.21875 37.203125 74.21875 
Q 40.921875 74.21875 44.703125 73.484375 
Q 48.484375 72.75 52.59375 71.296875 
z
" id="DejaVuSans-36"/>
      </defs>
      <g transform="translate(203.705375 320.575625)rotate(-90)scale(0.1 -0.1)">
       <use xlink:href="#DejaVuSans-41"/>
       <use x="68.408203" xlink:href="#DejaVuSans-36"/>
       <use x="132.03125" xlink:href="#DejaVuSans-35"/>
      </g>
     </g>
    </g>
    <g id="xtick_10">
     <g id="line2d_10">
      <g>
       <use style="stroke:#000000;stroke-width:0.8;" x="221.2805" xlink:href="#ma04d712281" y="294.01"/>
      </g>
     </g>
     <g id="text_10">
      <!-- B2 -->
      <defs>
       <path d="M 19.671875 34.8125 
L 19.671875 8.109375 
L 35.5 8.109375 
Q 43.453125 8.109375 47.28125 11.40625 
Q 51.125 14.703125 51.125 21.484375 
Q 51.125 28.328125 47.28125 31.5625 
Q 43.453125 34.8125 35.5 34.8125 
z
M 19.671875 64.796875 
L 19.671875 42.828125 
L 34.28125 42.828125 
Q 41.5 42.828125 45.03125 45.53125 
Q 48.578125 48.25 48.578125 53.8125 
Q 48.578125 59.328125 45.03125 62.0625 
Q 41.5 64.796875 34.28125 64.796875 
z
M 9.8125 72.90625 
L 35.015625 72.90625 
Q 46.296875 72.90625 52.390625 68.21875 
Q 58.5 63.53125 58.5 54.890625 
Q 58.5 48.1875 55.375 44.234375 
Q 52.25 40.28125 46.1875 39.3125 
Q 53.46875 37.75 57.5 32.78125 
Q 61.53125 27.828125 61.53125 20.40625 
Q 61.53125 10.640625 54.890625 5.3125 
Q 48.25 0 35.984375 0 
L 9.8125 0 
z
" id="DejaVuSans-42"/>
      </defs>
      <g transform="translate(224.039875 314.233437)rotate(-90)scale(0.1 -0.1)">
       <use xlink:href="#DejaVuSans-42"/>
       <use x="68.603516" xlink:href="#DejaVuSans-32"/>
      </g>
     </g>
    </g>
    <g id="xtick_11">
     <g id="line2d_11">
      <g>
       <use style="stroke:#000000;stroke-width:0.8;" x="241.615" xlink:href="#ma04d712281" y="294.01"/>
      </g>
     </g>
     <g id="text_11">
      <!-- B10 -->
      <defs>
       <path d="M 31.78125 66.40625 
Q 24.171875 66.40625 20.328125 58.90625 
Q 16.5 51.421875 16.5 36.375 
Q 16.5 21.390625 20.328125 13.890625 
Q 24.171875 6.390625 31.78125 6.390625 
Q 39.453125 6.390625 43.28125 13.890625 
Q 47.125 21.390625 47.125 36.375 
Q 47.125 51.421875 43.28125 58.90625 
Q 39.453125 66.40625 31.78125 66.40625 
z
M 31.78125 74.21875 
Q 44.046875 74.21875 50.515625 64.515625 
Q 56.984375 54.828125 56.984375 36.375 
Q 56.984375 17.96875 50.515625 8.265625 
Q 44.046875 -1.421875 31.78125 -1.421875 
Q 19.53125 -1.421875 13.0625 8.265625 
Q 6.59375 17.96875 6.59375 36.375 
Q 6.59375 54.828125 13.0625 64.515625 
Q 19.53125 74.21875 31.78125 74.21875 
z
" id="DejaVuSans-30"/>
      </defs>
      <g transform="translate(244.374375 320.595937)rotate(-90)scale(0.1 -0.1)">
       <use xlink:href="#DejaVuSans-42"/>
       <use x="68.603516" xlink:href="#DejaVuSans-31"/>
       <use x="132.226562" xlink:href="#DejaVuSans-30"/>
      </g>
     </g>
    </g>
    <g id="xtick_12">
     <g id="line2d_12">
      <g>
       <use style="stroke:#000000;stroke-width:0.8;" x="261.9495" xlink:href="#ma04d712281" y="294.01"/>
      </g>
     </g>
     <g id="text_12">
      <!-- B18 -->
      <defs>
       <path d="M 31.78125 34.625 
Q 24.75 34.625 20.71875 30.859375 
Q 16.703125 27.09375 16.703125 20.515625 
Q 16.703125 13.921875 20.71875 10.15625 
Q 24.75 6.390625 31.78125 6.390625 
Q 38.8125 6.390625 42.859375 10.171875 
Q 46.921875 13.96875 46.921875 20.515625 
Q 46.921875 27.09375 42.890625 30.859375 
Q 38.875 34.625 31.78125 34.625 
z
M 21.921875 38.8125 
Q 15.578125 40.375 12.03125 44.71875 
Q 8.5 49.078125 8.5 55.328125 
Q 8.5 64.0625 14.71875 69.140625 
Q 20.953125 74.21875 31.78125 74.21875 
Q 42.671875 74.21875 48.875 69.140625 
Q 55.078125 64.0625 55.078125 55.328125 
Q 55.078125 49.078125 51.53125 44.71875 
Q 48 40.375 41.703125 38.8125 
Q 48.828125 37.15625 52.796875 32.3125 
Q 56.78125 27.484375 56.78125 20.515625 
Q 56.78125 9.90625 50.3125 4.234375 
Q 43.84375 -1.421875 31.78125 -1.421875 
Q 19.734375 -1.421875 13.25 4.234375 
Q 6.78125 9.90625 6.78125 20.515625 
Q 6.78125 27.484375 10.78125 32.3125 
Q 14.796875 37.15625 21.921875 38.8125 
z
M 18.3125 54.390625 
Q 18.3125 48.734375 21.84375 45.5625 
Q 25.390625 42.390625 31.78125 42.390625 
Q 38.140625 42.390625 41.71875 45.5625 
Q 45.3125 48.734375 45.3125 54.390625 
Q 45.3125 60.0625 41.71875 63.234375 
Q 38.140625 66.40625 31.78125 66.40625 
Q 25.390625 66.40625 21.84375 63.234375 
Q 18.3125 60.0625 18.3125 54.390625 
z
" id="DejaVuSans-38"/>
      </defs>
      <g transform="translate(264.708875 320.595937)rotate(-90)scale(0.1 -0.1)">
       <use xlink:href="#DejaVuSans-42"/>
       <use x="68.603516" xlink:href="#DejaVuSans-31"/>
       <use x="132.226562" xlink:href="#DejaVuSans-38"/>
      </g>
     </g>
    </g>
    <g id="xtick_13">
     <g id="line2d_13">
      <g>
       <use style="stroke:#000000;stroke-width:0.8;" x="282.284" xlink:href="#ma04d712281" y="294.01"/>
      </g>
     </g>
     <g id="text_13">
      <!-- B26 -->
      <g transform="translate(285.043375 320.595937)rotate(-90)scale(0.1 -0.1)">
       <use xlink:href="#DejaVuSans-42"/>
       <use x="68.603516" xlink:href="#DejaVuSans-32"/>
       <use x="132.226562" xlink:href="#DejaVuSans-36"/>
      </g>
     </g>
    </g>
    <g id="xtick_14">
     <g id="line2d_14">
      <g>
       <use style="stroke:#000000;stroke-width:0.8;" x="302.6185" xlink:href="#ma04d712281" y="294.01"/>
      </g>
     </g>
     <g id="text_14">
      <!-- B34 -->
      <g transform="translate(305.377875 320.595937)rotate(-90)scale(0.1 -0.1)">
       <use xlink:href="#DejaVuSans-42"/>
       <use x="68.603516" xlink:href="#DejaVuSans-33"/>
       <use x="132.226562" xlink:href="#DejaVuSans-34"/>
      </g>
     </g>
    </g>
    <g id="xtick_15">
     <g id="line2d_15">
      <g>
       <use style="stroke:#000000;stroke-width:0.8;" x="322.953" xlink:href="#ma04d712281" y="294.01"/>
      </g>
     </g>
     <g id="text_15">
      <!-- B42 -->
      <g transform="translate(325.712375 320.595937)rotate(-90)scale(0.1 -0.1)">
       <use xlink:href="#DejaVuSans-42"/>
       <use x="68.603516" xlink:href="#DejaVuSans-34"/>
       <use x="132.226562" xlink:href="#DejaVuSans-32"/>
      </g>
     </g>
    </g>
    <g id="xtick_16">
     <g id="line2d_16">
      <g>
       <use style="stroke:#000000;stroke-width:0.8;" x="343.2875" xlink:href="#ma04d712281" y="294.01"/>
      </g>
     </g>
     <g id="text_16">
      <!-- B50 -->
      <g transform="translate(346.046875 320.595937)rotate(-90)scale(0.1 -0.1)">
       <use xlink:href="#DejaVuSans-42"/>
       <use x="68.603516" xlink:href="#DejaVuSans-35"/>
       <use x="132.226562" xlink:href="#DejaVuSans-30"/>
      </g>
     </g>
    </g>
    <g id="xtick_17">
     <g id="line2d_17">
      <g>
       <use style="stroke:#000000;stroke-width:0.8;" x="363.622" xlink:href="#ma04d712281" y="294.01"/>
      </g>
     </g>
     <g id="text_17">
      <!-- B58 -->
      <g transform="translate(366.381375 320.595937)rotate(-90)scale(0.1 -0.1)">
       <use xlink:href="#DejaVuSans-42"/>
       <use x="68.603516" xlink:href="#DejaVuSans-35"/>
       <use x="132.226562" xlink:href="#DejaVuSans-38"/>
      </g>
     </g>
    </g>
    <g id="xtick_18">
     <g id="line2d_18">
      <g>
       <use style="stroke:#000000;stroke-width:0.8;" x="383.9565" xlink:href="#ma04d712281" y="294.01"/>
      </g>
     </g>
     <g id="text_18">
      <!-- B66 -->
      <g transform="translate(386.715875 320.595937)rotate(-90)scale(0.1 -0.1)">
       <use xlink:href="#DejaVuSans-42"/>
       <use x="68.603516" xlink:href="#DejaVuSans-36"/>
       <use x="132.226562" xlink:href="#DejaVuSans-36"/>
      </g>
     </g>
    </g>
    <g id="xtick_19">
     <g id="line2d_19">
      <g>
       <use style="stroke:#000000;stroke-width:0.8;" x="404.291" xlink:href="#ma04d712281" y="294.01"/>
      </g>
     </g>
     <g id="text_19">
      <!-- B74 -->
      <g transform="translate(407.050375 320.595937)rotate(-90)scale(0.1 -0.1)">
       <use xlink:href="#DejaVuSans-42"/>
       <use x="68.603516" xlink:href="#DejaVuSans-37"/>
       <use x="132.226562" xlink:href="#DejaVuSans-34"/>
      </g>
     </g>
    </g>
    <g id="xtick_20">
     <g id="line2d_20">
      <g>
       <use style="stroke:#000000;stroke-width:0.8;" x="424.6255" xlink:href="#ma04d712281" y="294.01"/>
      </g>
     </g>
     <g id="text_20">
      <!-- B82 -->
      <g transform="translate(427.384875 320.595937)rotate(-90)scale(0.1 -0.1)">
       <use xlink:href="#DejaVuSans-42"/>
       <use x="68.603516" xlink:href="#DejaVuSans-38"/>
       <use x="132.226562" xlink:href="#DejaVuSans-32"/>
      </g>
     </g>
    </g>
    <g id="xtick_21">
     <g id="line2d_21">
      <g>
       <use style="stroke:#000000;stroke-width:0.8;" x="444.96" xlink:href="#ma04d712281" y="294.01"/>
      </g>
     </g>
     <g id="text_21">
      <!-- B90 -->
      <g transform="translate(447.719375 320.595937)rotate(-90)scale(0.1 -0.1)">
       <use xlink:href="#DejaVuSans-42"/>
       <use x="68.603516" xlink:href="#DejaVuSans-39"/>
       <use x="132.226562" xlink:href="#DejaVuSans-30"/>
      </g>
     </g>
    </g>
    <g id="text_22">
     <!-- Residue index -->
     <defs>
      <path d="M 44.390625 34.1875 
Q 47.5625 33.109375 50.5625 29.59375 
Q 53.5625 26.078125 56.59375 19.921875 
L 66.609375 0 
L 56 0 
L 46.6875 18.703125 
Q 43.0625 26.03125 39.671875 28.421875 
Q 36.28125 30.8125 30.421875 30.8125 
L 19.671875 30.8125 
L 19.671875 0 
L 9.8125 0 
L 9.8125 72.90625 
L 32.078125 72.90625 
Q 44.578125 72.90625 50.734375 67.671875 
Q 56.890625 62.453125 56.890625 51.90625 
Q 56.890625 45.015625 53.6875 40.46875 
Q 50.484375 35.9375 44.390625 34.1875 
z
M 19.671875 64.796875 
L 19.671875 38.921875 
L 32.078125 38.921875 
Q 39.203125 38.921875 42.84375 42.21875 
Q 46.484375 45.515625 46.484375 51.90625 
Q 46.484375 58.296875 42.84375 61.546875 
Q 39.203125 64.796875 32.078125 64.796875 
z
" id="DejaVuSans-52"/>
      <path d="M 56.203125 29.59375 
L 56.203125 25.203125 
L 14.890625 25.203125 
Q 15.484375 15.921875 20.484375 11.0625 
Q 25.484375 6.203125 34.421875 6.203125 
Q 39.59375 6.203125 44.453125 7.46875 
Q 49.3125 8.734375 54.109375 11.28125 
L 54.109375 2.78125 
Q 49.265625 0.734375 44.1875 -0.34375 
Q 39.109375 -1.421875 33.890625 -1.421875 
Q 20.796875 -1.421875 13.15625 6.1875 
Q 5.515625 13.8125 5.515625 26.8125 
Q 5.515625 40.234375 12.765625 48.109375 
Q 20.015625 56 32.328125 56 
Q 43.359375 56 49.78125 48.890625 
Q 56.203125 41.796875 56.203125 29.59375 
z
M 47.21875 32.234375 
Q 47.125 39.59375 43.09375 43.984375 
Q 39.0625 48.390625 32.421875 48.390625 
Q 24.90625 48.390625 20.390625 44.140625 
Q 15.875 39.890625 15.1875 32.171875 
z
" id="DejaVuSans-65"/>
      <path d="M 44.28125 53.078125 
L 44.28125 44.578125 
Q 40.484375 46.53125 36.375 47.5 
Q 32.28125 48.484375 27.875 48.484375 
Q 21.1875 48.484375 17.84375 46.4375 
Q 14.5 44.390625 14.5 40.28125 
Q 14.5 37.15625 16.890625 35.375 
Q 19.28125 33.59375 26.515625 31.984375 
L 29.59375 31.296875 
Q 39.15625 29.25 43.1875 25.515625 
Q 47.21875 21.78125 47.21875 15.09375 
Q 47.21875 7.46875 41.1875 3.015625 
Q 35.15625 -1.421875 24.609375 -1.421875 
Q 20.21875 -1.421875 15.453125 -0.5625 
Q 10.6875 0.296875 5.421875 2 
L 5.421875 11.28125 
Q 10.40625 8.6875 15.234375 7.390625 
Q 20.0625 6.109375 24.8125 6.109375 
Q 31.15625 6.109375 34.5625 8.28125 
Q 37.984375 10.453125 37.984375 14.40625 
Q 37.984375 18.0625 35.515625 20.015625 
Q 33.0625 21.96875 24.703125 23.78125 
L 21.578125 24.515625 
Q 13.234375 26.265625 9.515625 29.90625 
Q 5.8125 33.546875 5.8125 39.890625 
Q 5.8125 47.609375 11.28125 51.796875 
Q 16.75 56 26.8125 56 
Q 31.78125 56 36.171875 55.265625 
Q 40.578125 54.546875 44.28125 53.078125 
z
" id="DejaVuSans-73"/>
      <path d="M 9.421875 54.6875 
L 18.40625 54.6875 
L 18.40625 0 
L 9.421875 0 
z
M 9.421875 75.984375 
L 18.40625 75.984375 
L 18.40625 64.59375 
L 9.421875 64.59375 
z
" id="DejaVuSans-69"/>
      <path d="M 45.40625 46.390625 
L 45.40625 75.984375 
L 54.390625 75.984375 
L 54.390625 0 
L 45.40625 0 
L 45.40625 8.203125 
Q 42.578125 3.328125 38.25 0.953125 
Q 33.9375 -1.421875 27.875 -1.421875 
Q 17.96875 -1.421875 11.734375 6.484375 
Q 5.515625 14.40625 5.515625 27.296875 
Q 5.515625 40.1875 11.734375 48.09375 
Q 17.96875 56 27.875 56 
Q 33.9375 56 38.25 53.625 
Q 42.578125 51.265625 45.40625 46.390625 
z
M 14.796875 27.296875 
Q 14.796875 17.390625 18.875 11.75 
Q 22.953125 6.109375 30.078125 6.109375 
Q 37.203125 6.109375 41.296875 11.75 
Q 45.40625 17.390625 45.40625 27.296875 
Q 45.40625 37.203125 41.296875 42.84375 
Q 37.203125 48.484375 30.078125 48.484375 
Q 22.953125 48.484375 18.875 42.84375 
Q 14.796875 37.203125 14.796875 27.296875 
z
" id="DejaVuSans-64"/>
      <path d="M 8.5 21.578125 
L 8.5 54.6875 
L 17.484375 54.6875 
L 17.484375 21.921875 
Q 17.484375 14.15625 20.5 10.265625 
Q 23.53125 6.390625 29.59375 6.390625 
Q 36.859375 6.390625 41.078125 11.03125 
Q 45.3125 15.671875 45.3125 23.6875 
L 45.3125 54.6875 
L 54.296875 54.6875 
L 54.296875 0 
L 45.3125 0 
L 45.3125 8.40625 
Q 42.046875 3.421875 37.71875 1 
Q 33.40625 -1.421875 27.6875 -1.421875 
Q 18.265625 -1.421875 13.375 4.4375 
Q 8.5 10.296875 8.5 21.578125 
z
M 31.109375 56 
z
" id="DejaVuSans-75"/>
      <path id="DejaVuSans-20"/>
      <path d="M 54.890625 33.015625 
L 54.890625 0 
L 45.90625 0 
L 45.90625 32.71875 
Q 45.90625 40.484375 42.875 44.328125 
Q 39.84375 48.1875 33.796875 48.1875 
Q 26.515625 48.1875 22.3125 43.546875 
Q 18.109375 38.921875 18.109375 30.90625 
L 18.109375 0 
L 9.078125 0 
L 9.078125 54.6875 
L 18.109375 54.6875 
L 18.109375 46.1875 
Q 21.34375 51.125 25.703125 53.5625 
Q 30.078125 56 35.796875 56 
Q 45.21875 56 50.046875 50.171875 
Q 54.890625 44.34375 54.890625 33.015625 
z
" id="DejaVuSans-6e"/>
      <path d="M 54.890625 54.6875 
L 35.109375 28.078125 
L 55.90625 0 
L 45.3125 0 
L 29.390625 21.484375 
L 13.484375 0 
L 2.875 0 
L 24.125 28.609375 
L 4.6875 54.6875 
L 15.28125 54.6875 
L 29.78125 35.203125 
L 44.28125 54.6875 
z
" id="DejaVuSans-78"/>
     </defs>
     <g transform="translate(206.297813 332.194375)scale(0.1 -0.1)">
      <use xlink:href="#DejaVuSans-52"/>
      <use x="69.419922" xlink:href="#DejaVuSans-65"/>
      <use x="130.943359" xlink:href="#DejaVuSans-73"/>
      <use x="183.042969" xlink:href="#DejaVuSans-69"/>
      <use x="210.826172" xlink:href="#DejaVuSans-64"/>
      <use x="274.302734" xlink:href="#DejaVuSans-75"/>
      <use x="337.681641" xlink:href="#DejaVuSans-65"/>
      <use x="399.205078" xlink:href="#DejaVuSans-20"/>
      <use x="430.992188" xlink:href="#DejaVuSans-69"/>
      <use x="458.775391" xlink:href="#DejaVuSans-6e"/>
      <use x="522.154297" xlink:href="#DejaVuSans-64"/>
      <use x="585.630859" xlink:href="#DejaVuSans-65"/>
      <use x="647.138672" xlink:href="#DejaVuSans-78"/>
     </g>
    </g>
   </g>
   <g id="matplotlib.axis_2">
    <g id="ytick_1">
     <g id="line2d_22">
      <defs>
       <path d="M 0 0 
L -3.5 0 
" id="m433bf95f27" style="stroke:#000000;stroke-width:0.8;"/>
      </defs>
      <g>
       <use style="stroke:#000000;stroke-width:0.8;" x="38.27" xlink:href="#m433bf95f27" y="258.007072"/>
      </g>
     </g>
     <g id="text_23">
      <!-- 1 -->
      <g transform="translate(24.9075 261.806291)scale(0.1 -0.1)">
       <use xlink:href="#DejaVuSans-31"/>
      </g>
     </g>
    </g>
    <g id="ytick_2">
     <g id="line2d_23">
      <g>
       <use style="stroke:#000000;stroke-width:0.8;" x="38.27" xlink:href="#m433bf95f27" y="216.229087"/>
      </g>
     </g>
     <g id="text_24">
      <!-- 2 -->
      <g transform="translate(24.9075 220.028306)scale(0.1 -0.1)">
       <use xlink:href="#DejaVuSans-32"/>
      </g>
     </g>
    </g>
    <g id="ytick_3">
     <g id="line2d_24">
      <g>
       <use style="stroke:#000000;stroke-width:0.8;" x="38.27" xlink:href="#m433bf95f27" y="174.451102"/>
      </g>
     </g>
     <g id="text_25">
      <!-- 3 -->
      <g transform="translate(24.9075 178.250321)scale(0.1 -0.1)">
       <use xlink:href="#DejaVuSans-33"/>
      </g>
     </g>
    </g>
    <g id="ytick_4">
     <g id="line2d_25">
      <g>
       <use style="stroke:#000000;stroke-width:0.8;" x="38.27" xlink:href="#m433bf95f27" y="132.673118"/>
      </g>
     </g>
     <g id="text_26">
      <!-- 4 -->
      <g transform="translate(24.9075 136.472336)scale(0.1 -0.1)">
       <use xlink:href="#DejaVuSans-34"/>
      </g>
     </g>
    </g>
    <g id="ytick_5">
     <g id="line2d_26">
      <g>
       <use style="stroke:#000000;stroke-width:0.8;" x="38.27" xlink:href="#m433bf95f27" y="90.895133"/>
      </g>
     </g>
     <g id="text_27">
      <!-- 5 -->
      <g transform="translate(24.9075 94.694352)scale(0.1 -0.1)">
       <use xlink:href="#DejaVuSans-35"/>
      </g>
     </g>
    </g>
    <g id="ytick_6">
     <g id="line2d_27">
      <g>
       <use style="stroke:#000000;stroke-width:0.8;" x="38.27" xlink:href="#m433bf95f27" y="49.117148"/>
      </g>
     </g>
     <g id="text_28">
      <!-- 6 -->
      <g transform="translate(24.9075 52.916367)scale(0.1 -0.1)">
       <use xlink:href="#DejaVuSans-36"/>
      </g>
     </g>
    </g>
    <g id="text_29">
     <!-- RMSF -->
     <defs>
      <path d="M 9.8125 72.90625 
L 24.515625 72.90625 
L 43.109375 23.296875 
L 61.8125 72.90625 
L 76.515625 72.90625 
L 76.515625 0 
L 66.890625 0 
L 66.890625 64.015625 
L 48.09375 14.015625 
L 38.1875 14.015625 
L 19.390625 64.015625 
L 19.390625 0 
L 9.8125 0 
z
" id="DejaVuSans-4d"/>
      <path d="M 53.515625 70.515625 
L 53.515625 60.890625 
Q 47.90625 63.578125 42.921875 64.890625 
Q 37.9375 66.21875 33.296875 66.21875 
Q 25.25 66.21875 20.875 63.09375 
Q 16.5 59.96875 16.5 54.203125 
Q 16.5 49.359375 19.40625 46.890625 
Q 22.3125 44.4375 30.421875 42.921875 
L 36.375 41.703125 
Q 47.40625 39.59375 52.65625 34.296875 
Q 57.90625 29 57.90625 20.125 
Q 57.90625 9.515625 50.796875 4.046875 
Q 43.703125 -1.421875 29.984375 -1.421875 
Q 24.8125 -1.421875 18.96875 -0.25 
Q 13.140625 0.921875 6.890625 3.21875 
L 6.890625 13.375 
Q 12.890625 10.015625 18.65625 8.296875 
Q 24.421875 6.59375 29.984375 6.59375 
Q 38.421875 6.59375 43.015625 9.90625 
Q 47.609375 13.234375 47.609375 19.390625 
Q 47.609375 24.75 44.3125 27.78125 
Q 41.015625 30.8125 33.5 32.328125 
L 27.484375 33.5 
Q 16.453125 35.6875 11.515625 40.375 
Q 6.59375 45.0625 6.59375 53.421875 
Q 6.59375 63.09375 13.40625 68.65625 
Q 20.21875 74.21875 32.171875 74.21875 
Q 37.3125 74.21875 42.625 73.28125 
Q 47.953125 72.359375 53.515625 70.515625 
z
" id="DejaVuSans-53"/>
      <path d="M 9.8125 72.90625 
L 51.703125 72.90625 
L 51.703125 64.59375 
L 19.671875 64.59375 
L 19.671875 43.109375 
L 48.578125 43.109375 
L 48.578125 34.8125 
L 19.671875 34.8125 
L 19.671875 0 
L 9.8125 0 
z
" id="DejaVuSans-46"/>
     </defs>
     <g transform="translate(18.827813 167.503281)rotate(-90)scale(0.1 -0.1)">
      <use xlink:href="#DejaVuSans-52"/>
      <use x="69.482422" xlink:href="#DejaVuSans-4d"/>
      <use x="155.761719" xlink:href="#DejaVuSans-53"/>
      <use x="219.238281" xlink:href="#DejaVuSans-46"/>
     </g>
    </g>
   </g>
   <g id="line2d_28">
    <path clip-path="url(#pacda1f14cb)" d="M 38.27 248.858463 
L 40.811813 262.20664 
L 43.353625 261.139056 
L 45.895437 268.180084 
L 48.43725 272.431675 
L 50.979063 264.333498 
L 53.520875 273.121782 
L 56.062688 266.323408 
L 58.6045 271.042403 
L 61.146313 267.323837 
L 63.688125 267.058615 
L 66.229938 258.411379 
L 68.77175 258.429655 
L 71.313563 245.018388 
L 73.855375 257.17744 
L 76.397188 261.500573 
L 78.939 258.997549 
L 81.480813 259.594651 
L 84.022625 254.994307 
L 86.564438 251.10174 
L 89.10625 247.80683 
L 91.648063 242.34471 
L 94.189875 237.30043 
L 96.731688 237.793555 
L 99.2735 207.02787 
L 101.815313 139.257075 
L 104.357125 162.670341 
L 106.898938 164.238265 
L 109.44075 195.82899 
L 111.982563 223.20448 
L 114.524375 248.192732 
L 117.066188 252.808075 
L 119.608 264.401964 
L 122.149813 257.561269 
L 124.691625 236.162497 
L 127.233438 226.275636 
L 129.77525 233.394438 
L 132.317063 229.395102 
L 134.858875 245.419808 
L 137.400688 254.165527 
L 139.9425 263.860668 
L 142.484313 268.112836 
L 145.026125 269.46939 
L 147.567938 258.544184 
L 150.10975 256.341297 
L 152.651563 260.673837 
L 155.193375 259.350432 
L 157.735188 249.871962 
L 160.277 249.276295 
L 162.818813 250.964948 
L 165.360625 243.836883 
L 167.902438 240.346846 
L 170.44425 242.587305 
L 172.986063 239.39333 
L 175.527875 244.577714 
L 178.069688 241.292006 
L 180.6115 244.580939 
L 183.153313 231.763138 
L 185.695125 251.358396 
L 188.236938 237.470076 
L 190.77875 196.773173 
L 193.320563 206.814394 
L 195.862375 220.497551 
L 198.404188 242.727853 
L 200.946 241.227852 
L 203.487813 241.963943 
L 206.029625 238.247669 
L 208.571438 224.620282 
L 211.11325 159.612987 
L 213.655063 123.87658 
L 216.196875 84.813764 
L 218.738688 150.024697 
L 221.2805 166.245693 
L 223.822313 229.998851 
L 226.364125 232.519408 
L 228.905938 237.532796 
L 231.44775 250.240262 
L 233.989563 251.236848 
L 236.531375 247.691967 
L 239.073188 253.085832 
L 241.615 257.611881 
L 244.156813 260.724313 
L 246.698625 259.656399 
L 251.78225 271.217565 
L 254.324063 270.967336 
L 256.865875 274.364678 
L 259.407688 279.147906 
L 261.9495 281.251364 
L 264.491312 278.072878 
L 267.033125 277.375539 
L 269.574938 276.495802 
L 272.11675 273.279554 
L 274.658563 271.481645 
L 277.200375 273.003295 
L 279.742188 274.775353 
L 282.284 261.465148 
L 284.825813 249.658275 
L 287.367625 245.535348 
L 289.909438 243.247985 
L 292.45125 232.090395 
L 294.993063 220.061264 
L 297.534875 230.268787 
L 300.076687 216.471448 
L 302.6185 223.364898 
L 305.160313 224.062424 
L 307.702125 248.210402 
L 310.243938 265.980793 
L 312.78575 258.915763 
L 315.327562 260.546358 
L 317.869375 264.57228 
L 320.411187 263.184506 
L 322.953 264.953412 
L 325.494813 264.493496 
L 328.036625 273.060912 
L 330.578438 270.211795 
L 333.12025 268.368369 
L 335.662062 273.40407 
L 338.203875 276.567661 
L 340.745688 272.240788 
L 343.2875 269.586613 
L 345.829313 270.71067 
L 348.371125 265.140053 
L 350.912937 262.151342 
L 353.45475 261.806472 
L 355.996563 243.41988 
L 358.538375 240.159636 
L 361.080188 237.947792 
L 363.622 223.554944 
L 366.163813 206.077622 
L 368.705625 214.250548 
L 371.247437 193.347471 
L 373.78925 243.669065 
L 376.331063 253.457637 
L 378.872875 250.888072 
L 381.414688 255.688445 
L 383.9565 261.395734 
L 386.498312 265.451662 
L 389.040125 266.578579 
L 391.581938 273.908695 
L 394.12375 278.906447 
L 396.665563 268.358375 
L 399.207375 272.272434 
L 401.749188 273.484798 
L 404.291 267.999573 
L 406.832813 266.000592 
L 409.374625 269.343995 
L 411.916438 278.369853 
L 414.45825 270.125713 
L 417.000063 269.96888 
L 419.541875 270.713515 
L 422.083687 263.258392 
L 424.6255 252.076236 
L 427.167313 254.75241 
L 429.709125 248.52596 
L 432.250938 233.976392 
L 434.79275 225.380617 
L 437.334563 212.502848 
L 439.876375 197.788007 
L 442.418188 89.783293 
L 444.96 26.078636 
L 444.96 26.078636 
" style="fill:none;stroke:#666666;stroke-dasharray:1,1.65;stroke-dashoffset:0;"/>
    <defs>
     <path d="M 0 0.5 
C 0.132602 0.5 0.25979 0.447317 0.353553 0.353553 
C 0.447317 0.25979 0.5 0.132602 0.5 0 
C 0.5 -0.132602 0.447317 -0.25979 0.353553 -0.353553 
C 0.25979 -0.447317 0.132602 -0.5 0 -0.5 
C -0.132602 -0.5 -0.25979 -0.447317 -0.353553 -0.353553 
C -0.447317 -0.25979 -0.5 -0.132602 -0.5 0 
C -0.5 0.132602 -0.447317 0.25979 -0.353553 0.353553 
C -0.25979 0.447317 -0.132602 0.5 0 0.5 
z
" id="m0dcf3d77fc" style="stroke:#666666;"/>
    </defs>
    <g clip-path="url(#pacda1f14cb)">
     <use style="fill:#666666;stroke:#666666;" x="38.27" xlink:href="#m0dcf3d77fc" y="248.858463"/>
     <use style="fill:#666666;stroke:#666666;" x="40.811813" xlink:href="#m0dcf3d77fc" y="262.20664"/>
     <use style="fill:#666666;stroke:#666666;" x="43.353625" xlink:href="#m0dcf3d77fc" y="261.139056"/>
     <use style="fill:#666666;stroke:#666666;" x="45.895437" xlink:href="#m0dcf3d77fc" y="268.180084"/>
     <use style="fill:#666666;stroke:#666666;" x="48.43725" xlink:href="#m0dcf3d77fc" y="272.431675"/>
     <use style="fill:#666666;stroke:#666666;" x="50.979063" xlink:href="#m0dcf3d77fc" y="264.333498"/>
     <use style="fill:#666666;stroke:#666666;" x="53.520875" xlink:href="#m0dcf3d77fc" y="273.121782"/>
     <use style="fill:#666666;stroke:#666666;" x="56.062688" xlink:href="#m0dcf3d77fc" y="266.323408"/>
     <use style="fill:#666666;stroke:#666666;" x="58.6045" xlink:href="#m0dcf3d77fc" y="271.042403"/>
     <use style="fill:#666666;stroke:#666666;" x="61.146313" xlink:href="#m0dcf3d77fc" y="267.323837"/>
     <use style="fill:#666666;stroke:#666666;" x="63.688125" xlink:href="#m0dcf3d77fc" y="267.058615"/>
     <use style="fill:#666666;stroke:#666666;" x="66.229938" xlink:href="#m0dcf3d77fc" y="258.411379"/>
     <use style="fill:#666666;stroke:#666666;" x="68.77175" xlink:href="#m0dcf3d77fc" y="258.429655"/>
     <use style="fill:#666666;stroke:#666666;" x="71.313563" xlink:href="#m0dcf3d77fc" y="245.018388"/>
     <use style="fill:#666666;stroke:#666666;" x="73.855375" xlink:href="#m0dcf3d77fc" y="257.17744"/>
     <use style="fill:#666666;stroke:#666666;" x="76.397188" xlink:href="#m0dcf3d77fc" y="261.500573"/>
     <use style="fill:#666666;stroke:#666666;" x="78.939" xlink:href="#m0dcf3d77fc" y="258.997549"/>
     <use style="fill:#666666;stroke:#666666;" x="81.480813" xlink:href="#m0dcf3d77fc" y="259.594651"/>
     <use style="fill:#666666;stroke:#666666;" x="84.022625" xlink:href="#m0dcf3d77fc" y="254.994307"/>
     <use style="fill:#666666;stroke:#666666;" x="86.564438" xlink:href="#m0dcf3d77fc" y="251.10174"/>
     <use style="fill:#666666;stroke:#666666;" x="89.10625" xlink:href="#m0dcf3d77fc" y="247.80683"/>
     <use style="fill:#666666;stroke:#666666;" x="91.648063" xlink:href="#m0dcf3d77fc" y="242.34471"/>
     <use style="fill:#666666;stroke:#666666;" x="94.189875" xlink:href="#m0dcf3d77fc" y="237.30043"/>
     <use style="fill:#666666;stroke:#666666;" x="96.731688" xlink:href="#m0dcf3d77fc" y="237.793555"/>
     <use style="fill:#666666;stroke:#666666;" x="99.2735" xlink:href="#m0dcf3d77fc" y="207.02787"/>
     <use style="fill:#666666;stroke:#666666;" x="101.815313" xlink:href="#m0dcf3d77fc" y="139.257075"/>
     <use style="fill:#666666;stroke:#666666;" x="104.357125" xlink:href="#m0dcf3d77fc" y="162.670341"/>
     <use style="fill:#666666;stroke:#666666;" x="106.898938" xlink:href="#m0dcf3d77fc" y="164.238265"/>
     <use style="fill:#666666;stroke:#666666;" x="109.44075" xlink:href="#m0dcf3d77fc" y="195.82899"/>
     <use style="fill:#666666;stroke:#666666;" x="111.982563" xlink:href="#m0dcf3d77fc" y="223.20448"/>
     <use style="fill:#666666;stroke:#666666;" x="114.524375" xlink:href="#m0dcf3d77fc" y="248.192732"/>
     <use style="fill:#666666;stroke:#666666;" x="117.066188" xlink:href="#m0dcf3d77fc" y="252.808075"/>
     <use style="fill:#666666;stroke:#666666;" x="119.608" xlink:href="#m0dcf3d77fc" y="264.401964"/>
     <use style="fill:#666666;stroke:#666666;" x="122.149813" xlink:href="#m0dcf3d77fc" y="257.561269"/>
     <use style="fill:#666666;stroke:#666666;" x="124.691625" xlink:href="#m0dcf3d77fc" y="236.162497"/>
     <use style="fill:#666666;stroke:#666666;" x="127.233438" xlink:href="#m0dcf3d77fc" y="226.275636"/>
     <use style="fill:#666666;stroke:#666666;" x="129.77525" xlink:href="#m0dcf3d77fc" y="233.394438"/>
     <use style="fill:#666666;stroke:#666666;" x="132.317063" xlink:href="#m0dcf3d77fc" y="229.395102"/>
     <use style="fill:#666666;stroke:#666666;" x="134.858875" xlink:href="#m0dcf3d77fc" y="245.419808"/>
     <use style="fill:#666666;stroke:#666666;" x="137.400688" xlink:href="#m0dcf3d77fc" y="254.165527"/>
     <use style="fill:#666666;stroke:#666666;" x="139.9425" xlink:href="#m0dcf3d77fc" y="263.860668"/>
     <use style="fill:#666666;stroke:#666666;" x="142.484313" xlink:href="#m0dcf3d77fc" y="268.112836"/>
     <use style="fill:#666666;stroke:#666666;" x="145.026125" xlink:href="#m0dcf3d77fc" y="269.46939"/>
     <use style="fill:#666666;stroke:#666666;" x="147.567938" xlink:href="#m0dcf3d77fc" y="258.544184"/>
     <use style="fill:#666666;stroke:#666666;" x="150.10975" xlink:href="#m0dcf3d77fc" y="256.341297"/>
     <use style="fill:#666666;stroke:#666666;" x="152.651563" xlink:href="#m0dcf3d77fc" y="260.673837"/>
     <use style="fill:#666666;stroke:#666666;" x="155.193375" xlink:href="#m0dcf3d77fc" y="259.350432"/>
     <use style="fill:#666666;stroke:#666666;" x="157.735188" xlink:href="#m0dcf3d77fc" y="249.871962"/>
     <use style="fill:#666666;stroke:#666666;" x="160.277" xlink:href="#m0dcf3d77fc" y="249.276295"/>
     <use style="fill:#666666;stroke:#666666;" x="162.818813" xlink:href="#m0dcf3d77fc" y="250.964948"/>
     <use style="fill:#666666;stroke:#666666;" x="165.360625" xlink:href="#m0dcf3d77fc" y="243.836883"/>
     <use style="fill:#666666;stroke:#666666;" x="167.902438" xlink:href="#m0dcf3d77fc" y="240.346846"/>
     <use style="fill:#666666;stroke:#666666;" x="170.44425" xlink:href="#m0dcf3d77fc" y="242.587305"/>
     <use style="fill:#666666;stroke:#666666;" x="172.986063" xlink:href="#m0dcf3d77fc" y="239.39333"/>
     <use style="fill:#666666;stroke:#666666;" x="175.527875" xlink:href="#m0dcf3d77fc" y="244.577714"/>
     <use style="fill:#666666;stroke:#666666;" x="178.069688" xlink:href="#m0dcf3d77fc" y="241.292006"/>
     <use style="fill:#666666;stroke:#666666;" x="180.6115" xlink:href="#m0dcf3d77fc" y="244.580939"/>
     <use style="fill:#666666;stroke:#666666;" x="183.153313" xlink:href="#m0dcf3d77fc" y="231.763138"/>
     <use style="fill:#666666;stroke:#666666;" x="185.695125" xlink:href="#m0dcf3d77fc" y="251.358396"/>
     <use style="fill:#666666;stroke:#666666;" x="188.236938" xlink:href="#m0dcf3d77fc" y="237.470076"/>
     <use style="fill:#666666;stroke:#666666;" x="190.77875" xlink:href="#m0dcf3d77fc" y="196.773173"/>
     <use style="fill:#666666;stroke:#666666;" x="193.320563" xlink:href="#m0dcf3d77fc" y="206.814394"/>
     <use style="fill:#666666;stroke:#666666;" x="195.862375" xlink:href="#m0dcf3d77fc" y="220.497551"/>
     <use style="fill:#666666;stroke:#666666;" x="198.404188" xlink:href="#m0dcf3d77fc" y="242.727853"/>
     <use style="fill:#666666;stroke:#666666;" x="200.946" xlink:href="#m0dcf3d77fc" y="241.227852"/>
     <use style="fill:#666666;stroke:#666666;" x="203.487813" xlink:href="#m0dcf3d77fc" y="241.963943"/>
     <use style="fill:#666666;stroke:#666666;" x="206.029625" xlink:href="#m0dcf3d77fc" y="238.247669"/>
     <use style="fill:#666666;stroke:#666666;" x="208.571438" xlink:href="#m0dcf3d77fc" y="224.620282"/>
     <use style="fill:#666666;stroke:#666666;" x="211.11325" xlink:href="#m0dcf3d77fc" y="159.612987"/>
     <use style="fill:#666666;stroke:#666666;" x="213.655063" xlink:href="#m0dcf3d77fc" y="123.87658"/>
     <use style="fill:#666666;stroke:#666666;" x="216.196875" xlink:href="#m0dcf3d77fc" y="84.813764"/>
     <use style="fill:#666666;stroke:#666666;" x="218.738688" xlink:href="#m0dcf3d77fc" y="150.024697"/>
     <use style="fill:#666666;stroke:#666666;" x="221.2805" xlink:href="#m0dcf3d77fc" y="166.245693"/>
     <use style="fill:#666666;stroke:#666666;" x="223.822313" xlink:href="#m0dcf3d77fc" y="229.998851"/>
     <use style="fill:#666666;stroke:#666666;" x="226.364125" xlink:href="#m0dcf3d77fc" y="232.519408"/>
     <use style="fill:#666666;stroke:#666666;" x="228.905938" xlink:href="#m0dcf3d77fc" y="237.532796"/>
     <use style="fill:#666666;stroke:#666666;" x="231.44775" xlink:href="#m0dcf3d77fc" y="250.240262"/>
     <use style="fill:#666666;stroke:#666666;" x="233.989563" xlink:href="#m0dcf3d77fc" y="251.236848"/>
     <use style="fill:#666666;stroke:#666666;" x="236.531375" xlink:href="#m0dcf3d77fc" y="247.691967"/>
     <use style="fill:#666666;stroke:#666666;" x="239.073188" xlink:href="#m0dcf3d77fc" y="253.085832"/>
     <use style="fill:#666666;stroke:#666666;" x="241.615" xlink:href="#m0dcf3d77fc" y="257.611881"/>
     <use style="fill:#666666;stroke:#666666;" x="244.156813" xlink:href="#m0dcf3d77fc" y="260.724313"/>
     <use style="fill:#666666;stroke:#666666;" x="246.698625" xlink:href="#m0dcf3d77fc" y="259.656399"/>
     <use style="fill:#666666;stroke:#666666;" x="249.240438" xlink:href="#m0dcf3d77fc" y="265.383076"/>
     <use style="fill:#666666;stroke:#666666;" x="251.78225" xlink:href="#m0dcf3d77fc" y="271.217565"/>
     <use style="fill:#666666;stroke:#666666;" x="254.324063" xlink:href="#m0dcf3d77fc" y="270.967336"/>
     <use style="fill:#666666;stroke:#666666;" x="256.865875" xlink:href="#m0dcf3d77fc" y="274.364678"/>
     <use style="fill:#666666;stroke:#666666;" x="259.407688" xlink:href="#m0dcf3d77fc" y="279.147906"/>
     <use style="fill:#666666;stroke:#666666;" x="261.9495" xlink:href="#m0dcf3d77fc" y="281.251364"/>
     <use style="fill:#666666;stroke:#666666;" x="264.491312" xlink:href="#m0dcf3d77fc" y="278.072878"/>
     <use style="fill:#666666;stroke:#666666;" x="267.033125" xlink:href="#m0dcf3d77fc" y="277.375539"/>
     <use style="fill:#666666;stroke:#666666;" x="269.574938" xlink:href="#m0dcf3d77fc" y="276.495802"/>
     <use style="fill:#666666;stroke:#666666;" x="272.11675" xlink:href="#m0dcf3d77fc" y="273.279554"/>
     <use style="fill:#666666;stroke:#666666;" x="274.658563" xlink:href="#m0dcf3d77fc" y="271.481645"/>
     <use style="fill:#666666;stroke:#666666;" x="277.200375" xlink:href="#m0dcf3d77fc" y="273.003295"/>
     <use style="fill:#666666;stroke:#666666;" x="279.742188" xlink:href="#m0dcf3d77fc" y="274.775353"/>
     <use style="fill:#666666;stroke:#666666;" x="282.284" xlink:href="#m0dcf3d77fc" y="261.465148"/>
     <use style="fill:#666666;stroke:#666666;" x="284.825813" xlink:href="#m0dcf3d77fc" y="249.658275"/>
     <use style="fill:#666666;stroke:#666666;" x="287.367625" xlink:href="#m0dcf3d77fc" y="245.535348"/>
     <use style="fill:#666666;stroke:#666666;" x="289.909438" xlink:href="#m0dcf3d77fc" y="243.247985"/>
     <use style="fill:#666666;stroke:#666666;" x="292.45125" xlink:href="#m0dcf3d77fc" y="232.090395"/>
     <use style="fill:#666666;stroke:#666666;" x="294.993063" xlink:href="#m0dcf3d77fc" y="220.061264"/>
     <use style="fill:#666666;stroke:#666666;" x="297.534875" xlink:href="#m0dcf3d77fc" y="230.268787"/>
     <use style="fill:#666666;stroke:#666666;" x="300.076687" xlink:href="#m0dcf3d77fc" y="216.471448"/>
     <use style="fill:#666666;stroke:#666666;" x="302.6185" xlink:href="#m0dcf3d77fc" y="223.364898"/>
     <use style="fill:#666666;stroke:#666666;" x="305.160313" xlink:href="#m0dcf3d77fc" y="224.062424"/>
     <use style="fill:#666666;stroke:#666666;" x="307.702125" xlink:href="#m0dcf3d77fc" y="248.210402"/>
     <use style="fill:#666666;stroke:#666666;" x="310.243938" xlink:href="#m0dcf3d77fc" y="265.980793"/>
     <use style="fill:#666666;stroke:#666666;" x="312.78575" xlink:href="#m0dcf3d77fc" y="258.915763"/>
     <use style="fill:#666666;stroke:#666666;" x="315.327562" xlink:href="#m0dcf3d77fc" y="260.546358"/>
     <use style="fill:#666666;stroke:#666666;" x="317.869375" xlink:href="#m0dcf3d77fc" y="264.57228"/>
     <use style="fill:#666666;stroke:#666666;" x="320.411187" xlink:href="#m0dcf3d77fc" y="263.184506"/>
     <use style="fill:#666666;stroke:#666666;" x="322.953" xlink:href="#m0dcf3d77fc" y="264.953412"/>
     <use style="fill:#666666;stroke:#666666;" x="325.494813" xlink:href="#m0dcf3d77fc" y="264.493496"/>
     <use style="fill:#666666;stroke:#666666;" x="328.036625" xlink:href="#m0dcf3d77fc" y="273.060912"/>
     <use style="fill:#666666;stroke:#666666;" x="330.578438" xlink:href="#m0dcf3d77fc" y="270.211795"/>
     <use style="fill:#666666;stroke:#666666;" x="333.12025" xlink:href="#m0dcf3d77fc" y="268.368369"/>
     <use style="fill:#666666;stroke:#666666;" x="335.662062" xlink:href="#m0dcf3d77fc" y="273.40407"/>
     <use style="fill:#666666;stroke:#666666;" x="338.203875" xlink:href="#m0dcf3d77fc" y="276.567661"/>
     <use style="fill:#666666;stroke:#666666;" x="340.745688" xlink:href="#m0dcf3d77fc" y="272.240788"/>
     <use style="fill:#666666;stroke:#666666;" x="343.2875" xlink:href="#m0dcf3d77fc" y="269.586613"/>
     <use style="fill:#666666;stroke:#666666;" x="345.829313" xlink:href="#m0dcf3d77fc" y="270.71067"/>
     <use style="fill:#666666;stroke:#666666;" x="348.371125" xlink:href="#m0dcf3d77fc" y="265.140053"/>
     <use style="fill:#666666;stroke:#666666;" x="350.912937" xlink:href="#m0dcf3d77fc" y="262.151342"/>
     <use style="fill:#666666;stroke:#666666;" x="353.45475" xlink:href="#m0dcf3d77fc" y="261.806472"/>
     <use style="fill:#666666;stroke:#666666;" x="355.996563" xlink:href="#m0dcf3d77fc" y="243.41988"/>
     <use style="fill:#666666;stroke:#666666;" x="358.538375" xlink:href="#m0dcf3d77fc" y="240.159636"/>
     <use style="fill:#666666;stroke:#666666;" x="361.080188" xlink:href="#m0dcf3d77fc" y="237.947792"/>
     <use style="fill:#666666;stroke:#666666;" x="363.622" xlink:href="#m0dcf3d77fc" y="223.554944"/>
     <use style="fill:#666666;stroke:#666666;" x="366.163813" xlink:href="#m0dcf3d77fc" y="206.077622"/>
     <use style="fill:#666666;stroke:#666666;" x="368.705625" xlink:href="#m0dcf3d77fc" y="214.250548"/>
     <use style="fill:#666666;stroke:#666666;" x="371.247437" xlink:href="#m0dcf3d77fc" y="193.347471"/>
     <use style="fill:#666666;stroke:#666666;" x="373.78925" xlink:href="#m0dcf3d77fc" y="243.669065"/>
     <use style="fill:#666666;stroke:#666666;" x="376.331063" xlink:href="#m0dcf3d77fc" y="253.457637"/>
     <use style="fill:#666666;stroke:#666666;" x="378.872875" xlink:href="#m0dcf3d77fc" y="250.888072"/>
     <use style="fill:#666666;stroke:#666666;" x="381.414688" xlink:href="#m0dcf3d77fc" y="255.688445"/>
     <use style="fill:#666666;stroke:#666666;" x="383.9565" xlink:href="#m0dcf3d77fc" y="261.395734"/>
     <use style="fill:#666666;stroke:#666666;" x="386.498312" xlink:href="#m0dcf3d77fc" y="265.451662"/>
     <use style="fill:#666666;stroke:#666666;" x="389.040125" xlink:href="#m0dcf3d77fc" y="266.578579"/>
     <use style="fill:#666666;stroke:#666666;" x="391.581938" xlink:href="#m0dcf3d77fc" y="273.908695"/>
     <use style="fill:#666666;stroke:#666666;" x="394.12375" xlink:href="#m0dcf3d77fc" y="278.906447"/>
     <use style="fill:#666666;stroke:#666666;" x="396.665563" xlink:href="#m0dcf3d77fc" y="268.358375"/>
     <use style="fill:#666666;stroke:#666666;" x="399.207375" xlink:href="#m0dcf3d77fc" y="272.272434"/>
     <use style="fill:#666666;stroke:#666666;" x="401.749188" xlink:href="#m0dcf3d77fc" y="273.484798"/>
     <use style="fill:#666666;stroke:#666666;" x="404.291" xlink:href="#m0dcf3d77fc" y="267.999573"/>
     <use style="fill:#666666;stroke:#666666;" x="406.832813" xlink:href="#m0dcf3d77fc" y="266.000592"/>
     <use style="fill:#666666;stroke:#666666;" x="409.374625" xlink:href="#m0dcf3d77fc" y="269.343995"/>
     <use style="fill:#666666;stroke:#666666;" x="411.916438" xlink:href="#m0dcf3d77fc" y="278.369853"/>
     <use style="fill:#666666;stroke:#666666;" x="414.45825" xlink:href="#m0dcf3d77fc" y="270.125713"/>
     <use style="fill:#666666;stroke:#666666;" x="417.000063" xlink:href="#m0dcf3d77fc" y="269.96888"/>
     <use style="fill:#666666;stroke:#666666;" x="419.541875" xlink:href="#m0dcf3d77fc" y="270.713515"/>
     <use style="fill:#666666;stroke:#666666;" x="422.083687" xlink:href="#m0dcf3d77fc" y="263.258392"/>
     <use style="fill:#666666;stroke:#666666;" x="424.6255" xlink:href="#m0dcf3d77fc" y="252.076236"/>
     <use style="fill:#666666;stroke:#666666;" x="427.167313" xlink:href="#m0dcf3d77fc" y="254.75241"/>
     <use style="fill:#666666;stroke:#666666;" x="429.709125" xlink:href="#m0dcf3d77fc" y="248.52596"/>
     <use style="fill:#666666;stroke:#666666;" x="432.250938" xlink:href="#m0dcf3d77fc" y="233.976392"/>
     <use style="fill:#666666;stroke:#666666;" x="434.79275" xlink:href="#m0dcf3d77fc" y="225.380617"/>
     <use style="fill:#666666;stroke:#666666;" x="437.334563" xlink:href="#m0dcf3d77fc" y="212.502848"/>
     <use style="fill:#666666;stroke:#666666;" x="439.876375" xlink:href="#m0dcf3d77fc" y="197.788007"/>
     <use style="fill:#666666;stroke:#666666;" x="442.418188" xlink:href="#m0dcf3d77fc" y="89.783293"/>
     <use style="fill:#666666;stroke:#666666;" x="444.96" xlink:href="#m0dcf3d77fc" y="26.078636"/>
    </g>
   </g>
   <g id="patch_3">
    <path d="M 38.27 294.01 
L 38.27 13.32 
" style="fill:none;stroke:#000000;stroke-linecap:square;stroke-linejoin:miter;stroke-width:0.8;"/>
   </g>
   <g id="patch_4">
    <path d="M 444.96 294.01 
L 444.96 13.32 
" style="fill:none;stroke:#000000;stroke-linecap:square;stroke-linejoin:miter;stroke-width:0.8;"/>
   </g>
   <g id="patch_5">
    <path d="M 38.27 294.01 
L 444.96 294.01 
" style="fill:none;stroke:#000000;stroke-linecap:square;stroke-linejoin:miter;stroke-width:0.8;"/>
   </g>
   <g id="patch_6">
    <path d="M 38.27 13.32 
L 444.96 13.32 
" style="fill:none;stroke:#000000;stroke-linecap:square;stroke-linejoin:miter;stroke-width:0.8;"/>
   </g>
  </g>
 </g>
 <defs>
  <clipPath id="pacda1f14cb">
   <rect height="280.69" width="406.69" x="38.27" y="13.32"/>
  </clipPath>
 </defs>
</svg>
