<?xml version="1.0" encoding="utf-8" standalone="no"?>
<!DOCTYPE svg PUBLIC "-//W3C//DTD SVG 1.1//EN"
  "http://www.w3.org/Graphics/SVG/1.1/DTD/svg11.dtd">
<!-- Created with matplotlib (http://matplotlib.org/) -->
<svg height="345.6pt" version="1.1" viewBox="0 0 460.8 345.6" width="460.8pt" xmlns="http://www.w3.org/2000/svg" xmlns:xlink="http://www.w3.org/1999/xlink">
 <defs>
  <style type="text/css">
*{stroke-linecap:butt;stroke-linejoin:round;}
  </style>
 </defs>
 <g id="figure_1">
  <g id="patch_1">
   <path d="M 0 345.6 
L 460.8 345.6 
L 460.8 0 
L 0 0 
z
" style="fill:#ffffff;"/>
  </g>
  <g id="axes_1">
   <g id="patch_2">
    <path d="M 38.27 294.01 
L 444.96 294.01 
L 444.96 13.32 
L 38.27 13.32 
z
" style="fill:#ffffff;"/>
   </g>
   <g id="matplotlib.axis_1">
    <g id="xtick_1">
     <g id="line2d_1">
      <defs>
       <path d="M 0 0 
L 0 3.5 
" id="me9fc82c5e2" style="stroke:#000000;stroke-width:0.8;"/>
      </defs>
      <g>
       <use style="stroke:#000000;stroke-width:0.8;" x="38.27" xlink:href="#me9fc82c5e2" y="294.01"/>
      </g>
     </g>
     <g id="text_1">
      <!-- A1 -->
      <defs>
       <path d="M 34.1875 63.1875 
L 20.796875 26.90625 
L 47.609375 26.90625 
z
M 28.609375 72.90625 
L 39.796875 72.90625 
L 67.578125 0 
L 57.328125 0 
L 50.6875 18.703125 
L 17.828125 18.703125 
L 11.1875 0 
L 0.78125 0 
z
" id="DejaVuSans-41"/>
       <path d="M 12.40625 8.296875 
L 28.515625 8.296875 
L 28.515625 63.921875 
L 10.984375 60.40625 
L 10.984375 69.390625 
L 28.421875 72.90625 
L 38.28125 72.90625 
L 38.28125 8.296875 
L 54.390625 8.296875 
L 54.390625 0 
L 12.40625 0 
z
" id="DejaVuSans-31"/>
      </defs>
      <g transform="translate(41.029375 314.213125)rotate(-90)scale(0.1 -0.1)">
       <use xlink:href="#DejaVuSans-41"/>
       <use x="68.408203" xlink:href="#DejaVuSans-31"/>
      </g>
     </g>
    </g>
    <g id="xtick_2">
     <g id="line2d_2">
      <g>
       <use style="stroke:#000000;stroke-width:0.8;" x="58.6045" xlink:href="#me9fc82c5e2" y="294.01"/>
      </g>
     </g>
     <g id="text_2">
      <!-- A9 -->
      <defs>
       <path d="M 10.984375 1.515625 
L 10.984375 10.5 
Q 14.703125 8.734375 18.5 7.8125 
Q 22.3125 6.890625 25.984375 6.890625 
Q 35.75 6.890625 40.890625 13.453125 
Q 46.046875 20.015625 46.78125 33.40625 
Q 43.953125 29.203125 39.59375 26.953125 
Q 35.25 24.703125 29.984375 24.703125 
Q 19.046875 24.703125 12.671875 31.3125 
Q 6.296875 37.9375 6.296875 49.421875 
Q 6.296875 60.640625 12.9375 67.421875 
Q 19.578125 74.21875 30.609375 74.21875 
Q 43.265625 74.21875 49.921875 64.515625 
Q 56.59375 54.828125 56.59375 36.375 
Q 56.59375 19.140625 48.40625 8.859375 
Q 40.234375 -1.421875 26.421875 -1.421875 
Q 22.703125 -1.421875 18.890625 -0.6875 
Q 15.09375 0.046875 10.984375 1.515625 
z
M 30.609375 32.421875 
Q 37.25 32.421875 41.125 36.953125 
Q 45.015625 41.5 45.015625 49.421875 
Q 45.015625 57.28125 41.125 61.84375 
Q 37.25 66.40625 30.609375 66.40625 
Q 23.96875 66.40625 20.09375 61.84375 
Q 16.21875 57.28125 16.21875 49.421875 
Q 16.21875 41.5 20.09375 36.953125 
Q 23.96875 32.421875 30.609375 32.421875 
z
" id="DejaVuSans-39"/>
      </defs>
      <g transform="translate(61.363875 314.213125)rotate(-90)scale(0.1 -0.1)">
       <use xlink:href="#DejaVuSans-41"/>
       <use x="68.408203" xlink:href="#DejaVuSans-39"/>
      </g>
     </g>
    </g>
    <g id="xtick_3">
     <g id="line2d_3">
      <g>
       <use style="stroke:#000000;stroke-width:0.8;" x="78.939" xlink:href="#me9fc82c5e2" y="294.01"/>
      </g>
     </g>
     <g id="text_3">
      <!-- A17 -->
      <defs>
       <path d="M 8.203125 72.90625 
L 55.078125 72.90625 
L 55.078125 68.703125 
L 28.609375 0 
L 18.3125 0 
L 43.21875 64.59375 
L 8.203125 64.59375 
z
" id="DejaVuSans-37"/>
      </defs>
      <g transform="translate(81.698375 320.575625)rotate(-90)scale(0.1 -0.1)">
       <use xlink:href="#DejaVuSans-41"/>
       <use x="68.408203" xlink:href="#DejaVuSans-31"/>
       <use x="132.03125" xlink:href="#DejaVuSans-37"/>
      </g>
     </g>
    </g>
    <g id="xtick_4">
     <g id="line2d_4">
      <g>
       <use style="stroke:#000000;stroke-width:0.8;" x="99.2735" xlink:href="#me9fc82c5e2" y="294.01"/>
      </g>
     </g>
     <g id="text_4">
      <!-- A25 -->
      <defs>
       <path d="M 19.1875 8.296875 
L 53.609375 8.296875 
L 53.609375 0 
L 7.328125 0 
L 7.328125 8.296875 
Q 12.9375 14.109375 22.625 23.890625 
Q 32.328125 33.6875 34.8125 36.53125 
Q 39.546875 41.84375 41.421875 45.53125 
Q 43.3125 49.21875 43.3125 52.78125 
Q 43.3125 58.59375 39.234375 62.25 
Q 35.15625 65.921875 28.609375 65.921875 
Q 23.96875 65.921875 18.8125 64.3125 
Q 13.671875 62.703125 7.8125 59.421875 
L 7.8125 69.390625 
Q 13.765625 71.78125 18.9375 73 
Q 24.125 74.21875 28.421875 74.21875 
Q 39.75 74.21875 46.484375 68.546875 
Q 53.21875 62.890625 53.21875 53.421875 
Q 53.21875 48.921875 51.53125 44.890625 
Q 49.859375 40.875 45.40625 35.40625 
Q 44.1875 33.984375 37.640625 27.21875 
Q 31.109375 20.453125 19.1875 8.296875 
z
" id="DejaVuSans-32"/>
       <path d="M 10.796875 72.90625 
L 49.515625 72.90625 
L 49.515625 64.59375 
L 19.828125 64.59375 
L 19.828125 46.734375 
Q 21.96875 47.46875 24.109375 47.828125 
Q 26.265625 48.1875 28.421875 48.1875 
Q 40.625 48.1875 47.75 41.5 
Q 54.890625 34.8125 54.890625 23.390625 
Q 54.890625 11.625 47.5625 5.09375 
Q 40.234375 -1.421875 26.90625 -1.421875 
Q 22.3125 -1.421875 17.546875 -0.640625 
Q 12.796875 0.140625 7.71875 1.703125 
L 7.71875 11.625 
Q 12.109375 9.234375 16.796875 8.0625 
Q 21.484375 6.890625 26.703125 6.890625 
Q 35.15625 6.890625 40.078125 11.328125 
Q 45.015625 15.765625 45.015625 23.390625 
Q 45.015625 31 40.078125 35.4375 
Q 35.15625 39.890625 26.703125 39.890625 
Q 22.75 39.890625 18.8125 39.015625 
Q 14.890625 38.140625 10.796875 36.28125 
z
" id="DejaVuSans-35"/>
      </defs>
      <g transform="translate(102.032875 320.575625)rotate(-90)scale(0.1 -0.1)">
       <use xlink:href="#DejaVuSans-41"/>
       <use x="68.408203" xlink:href="#DejaVuSans-32"/>
       <use x="132.03125" xlink:href="#DejaVuSans-35"/>
      </g>
     </g>
    </g>
    <g id="xtick_5">
     <g id="line2d_5">
      <g>
       <use style="stroke:#000000;stroke-width:0.8;" x="119.608" xlink:href="#me9fc82c5e2" y="294.01"/>
      </g>
     </g>
     <g id="text_5">
      <!-- A33 -->
      <defs>
       <path d="M 40.578125 39.3125 
Q 47.65625 37.796875 51.625 33 
Q 55.609375 28.21875 55.609375 21.1875 
Q 55.609375 10.40625 48.1875 4.484375 
Q 40.765625 -1.421875 27.09375 -1.421875 
Q 22.515625 -1.421875 17.65625 -0.515625 
Q 12.796875 0.390625 7.625 2.203125 
L 7.625 11.71875 
Q 11.71875 9.328125 16.59375 8.109375 
Q 21.484375 6.890625 26.8125 6.890625 
Q 36.078125 6.890625 40.9375 10.546875 
Q 45.796875 14.203125 45.796875 21.1875 
Q 45.796875 27.640625 41.28125 31.265625 
Q 36.765625 34.90625 28.71875 34.90625 
L 20.21875 34.90625 
L 20.21875 43.015625 
L 29.109375 43.015625 
Q 36.375 43.015625 40.234375 45.921875 
Q 44.09375 48.828125 44.09375 54.296875 
Q 44.09375 59.90625 40.109375 62.90625 
Q 36.140625 65.921875 28.71875 65.921875 
Q 24.65625 65.921875 20.015625 65.03125 
Q 15.375 64.15625 9.8125 62.3125 
L 9.8125 71.09375 
Q 15.4375 72.65625 20.34375 73.4375 
Q 25.25 74.21875 29.59375 74.21875 
Q 40.828125 74.21875 47.359375 69.109375 
Q 53.90625 64.015625 53.90625 55.328125 
Q 53.90625 49.265625 50.4375 45.09375 
Q 46.96875 40.921875 40.578125 39.3125 
z
" id="DejaVuSans-33"/>
      </defs>
      <g transform="translate(122.367375 320.575625)rotate(-90)scale(0.1 -0.1)">
       <use xlink:href="#DejaVuSans-41"/>
       <use x="68.408203" xlink:href="#DejaVuSans-33"/>
       <use x="132.03125" xlink:href="#DejaVuSans-33"/>
      </g>
     </g>
    </g>
    <g id="xtick_6">
     <g id="line2d_6">
      <g>
       <use style="stroke:#000000;stroke-width:0.8;" x="139.9425" xlink:href="#me9fc82c5e2" y="294.01"/>
      </g>
     </g>
     <g id="text_6">
      <!-- A41 -->
      <defs>
       <path d="M 37.796875 64.3125 
L 12.890625 25.390625 
L 37.796875 25.390625 
z
M 35.203125 72.90625 
L 47.609375 72.90625 
L 47.609375 25.390625 
L 58.015625 25.390625 
L 58.015625 17.1875 
L 47.609375 17.1875 
L 47.609375 0 
L 37.796875 0 
L 37.796875 17.1875 
L 4.890625 17.1875 
L 4.890625 26.703125 
z
" id="DejaVuSans-34"/>
      </defs>
      <g transform="translate(142.701875 320.575625)rotate(-90)scale(0.1 -0.1)">
       <use xlink:href="#DejaVuSans-41"/>
       <use x="68.408203" xlink:href="#DejaVuSans-34"/>
       <use x="132.03125" xlink:href="#DejaVuSans-31"/>
      </g>
     </g>
    </g>
    <g id="xtick_7">
     <g id="line2d_7">
      <g>
       <use style="stroke:#000000;stroke-width:0.8;" x="160.277" xlink:href="#me9fc82c5e2" y="294.01"/>
      </g>
     </g>
     <g id="text_7">
      <!-- A49 -->
      <g transform="translate(163.036375 320.575625)rotate(-90)scale(0.1 -0.1)">
       <use xlink:href="#DejaVuSans-41"/>
       <use x="68.408203" xlink:href="#DejaVuSans-34"/>
       <use x="132.03125" xlink:href="#DejaVuSans-39"/>
      </g>
     </g>
    </g>
    <g id="xtick_8">
     <g id="line2d_8">
      <g>
       <use style="stroke:#000000;stroke-width:0.8;" x="180.6115" xlink:href="#me9fc82c5e2" y="294.01"/>
      </g>
     </g>
     <g id="text_8">
      <!-- A57 -->
      <g transform="translate(183.370875 320.575625)rotate(-90)scale(0.1 -0.1)">
       <use xlink:href="#DejaVuSans-41"/>
       <use x="68.408203" xlink:href="#DejaVuSans-35"/>
       <use x="132.03125" xlink:href="#DejaVuSans-37"/>
      </g>
     </g>
    </g>
    <g id="xtick_9">
     <g id="line2d_9">
      <g>
       <use style="stroke:#000000;stroke-width:0.8;" x="200.946" xlink:href="#me9fc82c5e2" y="294.01"/>
      </g>
     </g>
     <g id="text_9">
      <!-- A65 -->
      <defs>
       <path d="M 33.015625 40.375 
Q 26.375 40.375 22.484375 35.828125 
Q 18.609375 31.296875 18.609375 23.390625 
Q 18.609375 15.53125 22.484375 10.953125 
Q 26.375 6.390625 33.015625 6.390625 
Q 39.65625 6.390625 43.53125 10.953125 
Q 47.40625 15.53125 47.40625 23.390625 
Q 47.40625 31.296875 43.53125 35.828125 
Q 39.65625 40.375 33.015625 40.375 
z
M 52.59375 71.296875 
L 52.59375 62.3125 
Q 48.875 64.0625 45.09375 64.984375 
Q 41.3125 65.921875 37.59375 65.921875 
Q 27.828125 65.921875 22.671875 59.328125 
Q 17.53125 52.734375 16.796875 39.40625 
Q 19.671875 43.65625 24.015625 45.921875 
Q 28.375 48.1875 33.59375 48.1875 
Q 44.578125 48.1875 50.953125 41.515625 
Q 57.328125 34.859375 57.328125 23.390625 
Q 57.328125 12.15625 50.6875 5.359375 
Q 44.046875 -1.421875 33.015625 -1.421875 
Q 20.359375 -1.421875 13.671875 8.265625 
Q 6.984375 17.96875 6.984375 36.375 
Q 6.984375 53.65625 15.1875 63.9375 
Q 23.390625 74.21875 37.203125 74.21875 
Q 40.921875 74.21875 44.703125 73.484375 
Q 48.484375 72.75 52.59375 71.296875 
z
" id="DejaVuSans-36"/>
      </defs>
      <g transform="translate(203.705375 320.575625)rotate(-90)scale(0.1 -0.1)">
       <use xlink:href="#DejaVuSans-41"/>
       <use x="68.408203" xlink:href="#DejaVuSans-36"/>
       <use x="132.03125" xlink:href="#DejaVuSans-35"/>
      </g>
     </g>
    </g>
    <g id="xtick_10">
     <g id="line2d_10">
      <g>
       <use style="stroke:#000000;stroke-width:0.8;" x="221.2805" xlink:href="#me9fc82c5e2" y="294.01"/>
      </g>
     </g>
     <g id="text_10">
      <!-- B2 -->
      <defs>
       <path d="M 19.671875 34.8125 
L 19.671875 8.109375 
L 35.5 8.109375 
Q 43.453125 8.109375 47.28125 11.40625 
Q 51.125 14.703125 51.125 21.484375 
Q 51.125 28.328125 47.28125 31.5625 
Q 43.453125 34.8125 35.5 34.8125 
z
M 19.671875 64.796875 
L 19.671875 42.828125 
L 34.28125 42.828125 
Q 41.5 42.828125 45.03125 45.53125 
Q 48.578125 48.25 48.578125 53.8125 
Q 48.578125 59.328125 45.03125 62.0625 
Q 41.5 64.796875 34.28125 64.796875 
z
M 9.8125 72.90625 
L 35.015625 72.90625 
Q 46.296875 72.90625 52.390625 68.21875 
Q 58.5 63.53125 58.5 54.890625 
Q 58.5 48.1875 55.375 44.234375 
Q 52.25 40.28125 46.1875 39.3125 
Q 53.46875 37.75 57.5 32.78125 
Q 61.53125 27.828125 61.53125 20.40625 
Q 61.53125 10.640625 54.890625 5.3125 
Q 48.25 0 35.984375 0 
L 9.8125 0 
z
" id="DejaVuSans-42"/>
      </defs>
      <g transform="translate(224.039875 314.233437)rotate(-90)scale(0.1 -0.1)">
       <use xlink:href="#DejaVuSans-42"/>
       <use x="68.603516" xlink:href="#DejaVuSans-32"/>
      </g>
     </g>
    </g>
    <g id="xtick_11">
     <g id="line2d_11">
      <g>
       <use style="stroke:#000000;stroke-width:0.8;" x="241.615" xlink:href="#me9fc82c5e2" y="294.01"/>
      </g>
     </g>
     <g id="text_11">
      <!-- B10 -->
      <defs>
       <path d="M 31.78125 66.40625 
Q 24.171875 66.40625 20.328125 58.90625 
Q 16.5 51.421875 16.5 36.375 
Q 16.5 21.390625 20.328125 13.890625 
Q 24.171875 6.390625 31.78125 6.390625 
Q 39.453125 6.390625 43.28125 13.890625 
Q 47.125 21.390625 47.125 36.375 
Q 47.125 51.421875 43.28125 58.90625 
Q 39.453125 66.40625 31.78125 66.40625 
z
M 31.78125 74.21875 
Q 44.046875 74.21875 50.515625 64.515625 
Q 56.984375 54.828125 56.984375 36.375 
Q 56.984375 17.96875 50.515625 8.265625 
Q 44.046875 -1.421875 31.78125 -1.421875 
Q 19.53125 -1.421875 13.0625 8.265625 
Q 6.59375 17.96875 6.59375 36.375 
Q 6.59375 54.828125 13.0625 64.515625 
Q 19.53125 74.21875 31.78125 74.21875 
z
" id="DejaVuSans-30"/>
      </defs>
      <g transform="translate(244.374375 320.595937)rotate(-90)scale(0.1 -0.1)">
       <use xlink:href="#DejaVuSans-42"/>
       <use x="68.603516" xlink:href="#DejaVuSans-31"/>
       <use x="132.226562" xlink:href="#DejaVuSans-30"/>
      </g>
     </g>
    </g>
    <g id="xtick_12">
     <g id="line2d_12">
      <g>
       <use style="stroke:#000000;stroke-width:0.8;" x="261.9495" xlink:href="#me9fc82c5e2" y="294.01"/>
      </g>
     </g>
     <g id="text_12">
      <!-- B18 -->
      <defs>
       <path d="M 31.78125 34.625 
Q 24.75 34.625 20.71875 30.859375 
Q 16.703125 27.09375 16.703125 20.515625 
Q 16.703125 13.921875 20.71875 10.15625 
Q 24.75 6.390625 31.78125 6.390625 
Q 38.8125 6.390625 42.859375 10.171875 
Q 46.921875 13.96875 46.921875 20.515625 
Q 46.921875 27.09375 42.890625 30.859375 
Q 38.875 34.625 31.78125 34.625 
z
M 21.921875 38.8125 
Q 15.578125 40.375 12.03125 44.71875 
Q 8.5 49.078125 8.5 55.328125 
Q 8.5 64.0625 14.71875 69.140625 
Q 20.953125 74.21875 31.78125 74.21875 
Q 42.671875 74.21875 48.875 69.140625 
Q 55.078125 64.0625 55.078125 55.328125 
Q 55.078125 49.078125 51.53125 44.71875 
Q 48 40.375 41.703125 38.8125 
Q 48.828125 37.15625 52.796875 32.3125 
Q 56.78125 27.484375 56.78125 20.515625 
Q 56.78125 9.90625 50.3125 4.234375 
Q 43.84375 -1.421875 31.78125 -1.421875 
Q 19.734375 -1.421875 13.25 4.234375 
Q 6.78125 9.90625 6.78125 20.515625 
Q 6.78125 27.484375 10.78125 32.3125 
Q 14.796875 37.15625 21.921875 38.8125 
z
M 18.3125 54.390625 
Q 18.3125 48.734375 21.84375 45.5625 
Q 25.390625 42.390625 31.78125 42.390625 
Q 38.140625 42.390625 41.71875 45.5625 
Q 45.3125 48.734375 45.3125 54.390625 
Q 45.3125 60.0625 41.71875 63.234375 
Q 38.140625 66.40625 31.78125 66.40625 
Q 25.390625 66.40625 21.84375 63.234375 
Q 18.3125 60.0625 18.3125 54.390625 
z
" id="DejaVuSans-38"/>
      </defs>
      <g transform="translate(264.708875 320.595937)rotate(-90)scale(0.1 -0.1)">
       <use xlink:href="#DejaVuSans-42"/>
       <use x="68.603516" xlink:href="#DejaVuSans-31"/>
       <use x="132.226562" xlink:href="#DejaVuSans-38"/>
      </g>
     </g>
    </g>
    <g id="xtick_13">
     <g id="line2d_13">
      <g>
       <use style="stroke:#000000;stroke-width:0.8;" x="282.284" xlink:href="#me9fc82c5e2" y="294.01"/>
      </g>
     </g>
     <g id="text_13">
      <!-- B26 -->
      <g transform="translate(285.043375 320.595937)rotate(-90)scale(0.1 -0.1)">
       <use xlink:href="#DejaVuSans-42"/>
       <use x="68.603516" xlink:href="#DejaVuSans-32"/>
       <use x="132.226562" xlink:href="#DejaVuSans-36"/>
      </g>
     </g>
    </g>
    <g id="xtick_14">
     <g id="line2d_14">
      <g>
       <use style="stroke:#000000;stroke-width:0.8;" x="302.6185" xlink:href="#me9fc82c5e2" y="294.01"/>
      </g>
     </g>
     <g id="text_14">
      <!-- B34 -->
      <g transform="translate(305.377875 320.595937)rotate(-90)scale(0.1 -0.1)">
       <use xlink:href="#DejaVuSans-42"/>
       <use x="68.603516" xlink:href="#DejaVuSans-33"/>
       <use x="132.226562" xlink:href="#DejaVuSans-34"/>
      </g>
     </g>
    </g>
    <g id="xtick_15">
     <g id="line2d_15">
      <g>
       <use style="stroke:#000000;stroke-width:0.8;" x="322.953" xlink:href="#me9fc82c5e2" y="294.01"/>
      </g>
     </g>
     <g id="text_15">
      <!-- B42 -->
      <g transform="translate(325.712375 320.595937)rotate(-90)scale(0.1 -0.1)">
       <use xlink:href="#DejaVuSans-42"/>
       <use x="68.603516" xlink:href="#DejaVuSans-34"/>
       <use x="132.226562" xlink:href="#DejaVuSans-32"/>
      </g>
     </g>
    </g>
    <g id="xtick_16">
     <g id="line2d_16">
      <g>
       <use style="stroke:#000000;stroke-width:0.8;" x="343.2875" xlink:href="#me9fc82c5e2" y="294.01"/>
      </g>
     </g>
     <g id="text_16">
      <!-- B50 -->
      <g transform="translate(346.046875 320.595937)rotate(-90)scale(0.1 -0.1)">
       <use xlink:href="#DejaVuSans-42"/>
       <use x="68.603516" xlink:href="#DejaVuSans-35"/>
       <use x="132.226562" xlink:href="#DejaVuSans-30"/>
      </g>
     </g>
    </g>
    <g id="xtick_17">
     <g id="line2d_17">
      <g>
       <use style="stroke:#000000;stroke-width:0.8;" x="363.622" xlink:href="#me9fc82c5e2" y="294.01"/>
      </g>
     </g>
     <g id="text_17">
      <!-- B58 -->
      <g transform="translate(366.381375 320.595937)rotate(-90)scale(0.1 -0.1)">
       <use xlink:href="#DejaVuSans-42"/>
       <use x="68.603516" xlink:href="#DejaVuSans-35"/>
       <use x="132.226562" xlink:href="#DejaVuSans-38"/>
      </g>
     </g>
    </g>
    <g id="xtick_18">
     <g id="line2d_18">
      <g>
       <use style="stroke:#000000;stroke-width:0.8;" x="383.9565" xlink:href="#me9fc82c5e2" y="294.01"/>
      </g>
     </g>
     <g id="text_18">
      <!-- B66 -->
      <g transform="translate(386.715875 320.595937)rotate(-90)scale(0.1 -0.1)">
       <use xlink:href="#DejaVuSans-42"/>
       <use x="68.603516" xlink:href="#DejaVuSans-36"/>
       <use x="132.226562" xlink:href="#DejaVuSans-36"/>
      </g>
     </g>
    </g>
    <g id="xtick_19">
     <g id="line2d_19">
      <g>
       <use style="stroke:#000000;stroke-width:0.8;" x="404.291" xlink:href="#me9fc82c5e2" y="294.01"/>
      </g>
     </g>
     <g id="text_19">
      <!-- B74 -->
      <g transform="translate(407.050375 320.595937)rotate(-90)scale(0.1 -0.1)">
       <use xlink:href="#DejaVuSans-42"/>
       <use x="68.603516" xlink:href="#DejaVuSans-37"/>
       <use x="132.226562" xlink:href="#DejaVuSans-34"/>
      </g>
     </g>
    </g>
    <g id="xtick_20">
     <g id="line2d_20">
      <g>
       <use style="stroke:#000000;stroke-width:0.8;" x="424.6255" xlink:href="#me9fc82c5e2" y="294.01"/>
      </g>
     </g>
     <g id="text_20">
      <!-- B82 -->
      <g transform="translate(427.384875 320.595937)rotate(-90)scale(0.1 -0.1)">
       <use xlink:href="#DejaVuSans-42"/>
       <use x="68.603516" xlink:href="#DejaVuSans-38"/>
       <use x="132.226562" xlink:href="#DejaVuSans-32"/>
      </g>
     </g>
    </g>
    <g id="xtick_21">
     <g id="line2d_21">
      <g>
       <use style="stroke:#000000;stroke-width:0.8;" x="444.96" xlink:href="#me9fc82c5e2" y="294.01"/>
      </g>
     </g>
     <g id="text_21">
      <!-- B90 -->
      <g transform="translate(447.719375 320.595937)rotate(-90)scale(0.1 -0.1)">
       <use xlink:href="#DejaVuSans-42"/>
       <use x="68.603516" xlink:href="#DejaVuSans-39"/>
       <use x="132.226562" xlink:href="#DejaVuSans-30"/>
      </g>
     </g>
    </g>
    <g id="text_22">
     <!-- Residue index -->
     <defs>
      <path d="M 44.390625 34.1875 
Q 47.5625 33.109375 50.5625 29.59375 
Q 53.5625 26.078125 56.59375 19.921875 
L 66.609375 0 
L 56 0 
L 46.6875 18.703125 
Q 43.0625 26.03125 39.671875 28.421875 
Q 36.28125 30.8125 30.421875 30.8125 
L 19.671875 30.8125 
L 19.671875 0 
L 9.8125 0 
L 9.8125 72.90625 
L 32.078125 72.90625 
Q 44.578125 72.90625 50.734375 67.671875 
Q 56.890625 62.453125 56.890625 51.90625 
Q 56.890625 45.015625 53.6875 40.46875 
Q 50.484375 35.9375 44.390625 34.1875 
z
M 19.671875 64.796875 
L 19.671875 38.921875 
L 32.078125 38.921875 
Q 39.203125 38.921875 42.84375 42.21875 
Q 46.484375 45.515625 46.484375 51.90625 
Q 46.484375 58.296875 42.84375 61.546875 
Q 39.203125 64.796875 32.078125 64.796875 
z
" id="DejaVuSans-52"/>
      <path d="M 56.203125 29.59375 
L 56.203125 25.203125 
L 14.890625 25.203125 
Q 15.484375 15.921875 20.484375 11.0625 
Q 25.484375 6.203125 34.421875 6.203125 
Q 39.59375 6.203125 44.453125 7.46875 
Q 49.3125 8.734375 54.109375 11.28125 
L 54.109375 2.78125 
Q 49.265625 0.734375 44.1875 -0.34375 
Q 39.109375 -1.421875 33.890625 -1.421875 
Q 20.796875 -1.421875 13.15625 6.1875 
Q 5.515625 13.8125 5.515625 26.8125 
Q 5.515625 40.234375 12.765625 48.109375 
Q 20.015625 56 32.328125 56 
Q 43.359375 56 49.78125 48.890625 
Q 56.203125 41.796875 56.203125 29.59375 
z
M 47.21875 32.234375 
Q 47.125 39.59375 43.09375 43.984375 
Q 39.0625 48.390625 32.421875 48.390625 
Q 24.90625 48.390625 20.390625 44.140625 
Q 15.875 39.890625 15.1875 32.171875 
z
" id="DejaVuSans-65"/>
      <path d="M 44.28125 53.078125 
L 44.28125 44.578125 
Q 40.484375 46.53125 36.375 47.5 
Q 32.28125 48.484375 27.875 48.484375 
Q 21.1875 48.484375 17.84375 46.4375 
Q 14.5 44.390625 14.5 40.28125 
Q 14.5 37.15625 16.890625 35.375 
Q 19.28125 33.59375 26.515625 31.984375 
L 29.59375 31.296875 
Q 39.15625 29.25 43.1875 25.515625 
Q 47.21875 21.78125 47.21875 15.09375 
Q 47.21875 7.46875 41.1875 3.015625 
Q 35.15625 -1.421875 24.609375 -1.421875 
Q 20.21875 -1.421875 15.453125 -0.5625 
Q 10.6875 0.296875 5.421875 2 
L 5.421875 11.28125 
Q 10.40625 8.6875 15.234375 7.390625 
Q 20.0625 6.109375 24.8125 6.109375 
Q 31.15625 6.109375 34.5625 8.28125 
Q 37.984375 10.453125 37.984375 14.40625 
Q 37.984375 18.0625 35.515625 20.015625 
Q 33.0625 21.96875 24.703125 23.78125 
L 21.578125 24.515625 
Q 13.234375 26.265625 9.515625 29.90625 
Q 5.8125 33.546875 5.8125 39.890625 
Q 5.8125 47.609375 11.28125 51.796875 
Q 16.75 56 26.8125 56 
Q 31.78125 56 36.171875 55.265625 
Q 40.578125 54.546875 44.28125 53.078125 
z
" id="DejaVuSans-73"/>
      <path d="M 9.421875 54.6875 
L 18.40625 54.6875 
L 18.40625 0 
L 9.421875 0 
z
M 9.421875 75.984375 
L 18.40625 75.984375 
L 18.40625 64.59375 
L 9.421875 64.59375 
z
" id="DejaVuSans-69"/>
      <path d="M 45.40625 46.390625 
L 45.40625 75.984375 
L 54.390625 75.984375 
L 54.390625 0 
L 45.40625 0 
L 45.40625 8.203125 
Q 42.578125 3.328125 38.25 0.953125 
Q 33.9375 -1.421875 27.875 -1.421875 
Q 17.96875 -1.421875 11.734375 6.484375 
Q 5.515625 14.40625 5.515625 27.296875 
Q 5.515625 40.1875 11.734375 48.09375 
Q 17.96875 56 27.875 56 
Q 33.9375 56 38.25 53.625 
Q 42.578125 51.265625 45.40625 46.390625 
z
M 14.796875 27.296875 
Q 14.796875 17.390625 18.875 11.75 
Q 22.953125 6.109375 30.078125 6.109375 
Q 37.203125 6.109375 41.296875 11.75 
Q 45.40625 17.390625 45.40625 27.296875 
Q 45.40625 37.203125 41.296875 42.84375 
Q 37.203125 48.484375 30.078125 48.484375 
Q 22.953125 48.484375 18.875 42.84375 
Q 14.796875 37.203125 14.796875 27.296875 
z
" id="DejaVuSans-64"/>
      <path d="M 8.5 21.578125 
L 8.5 54.6875 
L 17.484375 54.6875 
L 17.484375 21.921875 
Q 17.484375 14.15625 20.5 10.265625 
Q 23.53125 6.390625 29.59375 6.390625 
Q 36.859375 6.390625 41.078125 11.03125 
Q 45.3125 15.671875 45.3125 23.6875 
L 45.3125 54.6875 
L 54.296875 54.6875 
L 54.296875 0 
L 45.3125 0 
L 45.3125 8.40625 
Q 42.046875 3.421875 37.71875 1 
Q 33.40625 -1.421875 27.6875 -1.421875 
Q 18.265625 -1.421875 13.375 4.4375 
Q 8.5 10.296875 8.5 21.578125 
z
M 31.109375 56 
z
" id="DejaVuSans-75"/>
      <path id="DejaVuSans-20"/>
      <path d="M 54.890625 33.015625 
L 54.890625 0 
L 45.90625 0 
L 45.90625 32.71875 
Q 45.90625 40.484375 42.875 44.328125 
Q 39.84375 48.1875 33.796875 48.1875 
Q 26.515625 48.1875 22.3125 43.546875 
Q 18.109375 38.921875 18.109375 30.90625 
L 18.109375 0 
L 9.078125 0 
L 9.078125 54.6875 
L 18.109375 54.6875 
L 18.109375 46.1875 
Q 21.34375 51.125 25.703125 53.5625 
Q 30.078125 56 35.796875 56 
Q 45.21875 56 50.046875 50.171875 
Q 54.890625 44.34375 54.890625 33.015625 
z
" id="DejaVuSans-6e"/>
      <path d="M 54.890625 54.6875 
L 35.109375 28.078125 
L 55.90625 0 
L 45.3125 0 
L 29.390625 21.484375 
L 13.484375 0 
L 2.875 0 
L 24.125 28.609375 
L 4.6875 54.6875 
L 15.28125 54.6875 
L 29.78125 35.203125 
L 44.28125 54.6875 
z
" id="DejaVuSans-78"/>
     </defs>
     <g transform="translate(206.297813 332.194375)scale(0.1 -0.1)">
      <use xlink:href="#DejaVuSans-52"/>
      <use x="69.419922" xlink:href="#DejaVuSans-65"/>
      <use x="130.943359" xlink:href="#DejaVuSans-73"/>
      <use x="183.042969" xlink:href="#DejaVuSans-69"/>
      <use x="210.826172" xlink:href="#DejaVuSans-64"/>
      <use x="274.302734" xlink:href="#DejaVuSans-75"/>
      <use x="337.681641" xlink:href="#DejaVuSans-65"/>
      <use x="399.205078" xlink:href="#DejaVuSans-20"/>
      <use x="430.992188" xlink:href="#DejaVuSans-69"/>
      <use x="458.775391" xlink:href="#DejaVuSans-6e"/>
      <use x="522.154297" xlink:href="#DejaVuSans-64"/>
      <use x="585.630859" xlink:href="#DejaVuSans-65"/>
      <use x="647.138672" xlink:href="#DejaVuSans-78"/>
     </g>
    </g>
   </g>
   <g id="matplotlib.axis_2">
    <g id="ytick_1">
     <g id="line2d_22">
      <defs>
       <path d="M 0 0 
L -3.5 0 
" id="m78c16f7433" style="stroke:#000000;stroke-width:0.8;"/>
      </defs>
      <g>
       <use style="stroke:#000000;stroke-width:0.8;" x="38.27" xlink:href="#m78c16f7433" y="258.224914"/>
      </g>
     </g>
     <g id="text_23">
      <!-- 1 -->
      <g transform="translate(24.9075 262.024133)scale(0.1 -0.1)">
       <use xlink:href="#DejaVuSans-31"/>
      </g>
     </g>
    </g>
    <g id="ytick_2">
     <g id="line2d_23">
      <g>
       <use style="stroke:#000000;stroke-width:0.8;" x="38.27" xlink:href="#m78c16f7433" y="216.540577"/>
      </g>
     </g>
     <g id="text_24">
      <!-- 2 -->
      <g transform="translate(24.9075 220.339795)scale(0.1 -0.1)">
       <use xlink:href="#DejaVuSans-32"/>
      </g>
     </g>
    </g>
    <g id="ytick_3">
     <g id="line2d_24">
      <g>
       <use style="stroke:#000000;stroke-width:0.8;" x="38.27" xlink:href="#m78c16f7433" y="174.856239"/>
      </g>
     </g>
     <g id="text_25">
      <!-- 3 -->
      <g transform="translate(24.9075 178.655458)scale(0.1 -0.1)">
       <use xlink:href="#DejaVuSans-33"/>
      </g>
     </g>
    </g>
    <g id="ytick_4">
     <g id="line2d_25">
      <g>
       <use style="stroke:#000000;stroke-width:0.8;" x="38.27" xlink:href="#m78c16f7433" y="133.171901"/>
      </g>
     </g>
     <g id="text_26">
      <!-- 4 -->
      <g transform="translate(24.9075 136.97112)scale(0.1 -0.1)">
       <use xlink:href="#DejaVuSans-34"/>
      </g>
     </g>
    </g>
    <g id="ytick_5">
     <g id="line2d_26">
      <g>
       <use style="stroke:#000000;stroke-width:0.8;" x="38.27" xlink:href="#m78c16f7433" y="91.487564"/>
      </g>
     </g>
     <g id="text_27">
      <!-- 5 -->
      <g transform="translate(24.9075 95.286782)scale(0.1 -0.1)">
       <use xlink:href="#DejaVuSans-35"/>
      </g>
     </g>
    </g>
    <g id="ytick_6">
     <g id="line2d_27">
      <g>
       <use style="stroke:#000000;stroke-width:0.8;" x="38.27" xlink:href="#m78c16f7433" y="49.803226"/>
      </g>
     </g>
     <g id="text_28">
      <!-- 6 -->
      <g transform="translate(24.9075 53.602445)scale(0.1 -0.1)">
       <use xlink:href="#DejaVuSans-36"/>
      </g>
     </g>
    </g>
    <g id="text_29">
     <!-- RMSF -->
     <defs>
      <path d="M 9.8125 72.90625 
L 24.515625 72.90625 
L 43.109375 23.296875 
L 61.8125 72.90625 
L 76.515625 72.90625 
L 76.515625 0 
L 66.890625 0 
L 66.890625 64.015625 
L 48.09375 14.015625 
L 38.1875 14.015625 
L 19.390625 64.015625 
L 19.390625 0 
L 9.8125 0 
z
" id="DejaVuSans-4d"/>
      <path d="M 53.515625 70.515625 
L 53.515625 60.890625 
Q 47.90625 63.578125 42.921875 64.890625 
Q 37.9375 66.21875 33.296875 66.21875 
Q 25.25 66.21875 20.875 63.09375 
Q 16.5 59.96875 16.5 54.203125 
Q 16.5 49.359375 19.40625 46.890625 
Q 22.3125 44.4375 30.421875 42.921875 
L 36.375 41.703125 
Q 47.40625 39.59375 52.65625 34.296875 
Q 57.90625 29 57.90625 20.125 
Q 57.90625 9.515625 50.796875 4.046875 
Q 43.703125 -1.421875 29.984375 -1.421875 
Q 24.8125 -1.421875 18.96875 -0.25 
Q 13.140625 0.921875 6.890625 3.21875 
L 6.890625 13.375 
Q 12.890625 10.015625 18.65625 8.296875 
Q 24.421875 6.59375 29.984375 6.59375 
Q 38.421875 6.59375 43.015625 9.90625 
Q 47.609375 13.234375 47.609375 19.390625 
Q 47.609375 24.75 44.3125 27.78125 
Q 41.015625 30.8125 33.5 32.328125 
L 27.484375 33.5 
Q 16.453125 35.6875 11.515625 40.375 
Q 6.59375 45.0625 6.59375 53.421875 
Q 6.59375 63.09375 13.40625 68.65625 
Q 20.21875 74.21875 32.171875 74.21875 
Q 37.3125 74.21875 42.625 73.28125 
Q 47.953125 72.359375 53.515625 70.515625 
z
" id="DejaVuSans-53"/>
      <path d="M 9.8125 72.90625 
L 51.703125 72.90625 
L 51.703125 64.59375 
L 19.671875 64.59375 
L 19.671875 43.109375 
L 48.578125 43.109375 
L 48.578125 34.8125 
L 19.671875 34.8125 
L 19.671875 0 
L 9.8125 0 
z
" id="DejaVuSans-46"/>
     </defs>
     <g transform="translate(18.827813 167.503281)rotate(-90)scale(0.1 -0.1)">
      <use xlink:href="#DejaVuSans-52"/>
      <use x="69.482422" xlink:href="#DejaVuSans-4d"/>
      <use x="155.761719" xlink:href="#DejaVuSans-53"/>
      <use x="219.238281" xlink:href="#DejaVuSans-46"/>
     </g>
    </g>
   </g>
   <g id="line2d_28">
    <path clip-path="url(#pd97b7e6a79)" d="M 38.27 176.085058 
L 40.811813 205.761144 
L 43.353625 190.965267 
L 45.895437 214.429396 
L 48.43725 242.390443 
L 50.979063 249.648742 
L 53.520875 251.66663 
L 56.062688 262.000064 
L 58.6045 257.273984 
L 61.146313 227.831212 
L 63.688125 203.751889 
L 66.229938 157.146979 
L 68.77175 154.645005 
L 71.313563 188.180417 
L 73.855375 202.191531 
L 76.397188 240.831846 
L 78.939 227.86639 
L 81.480813 245.688888 
L 84.022625 249.143494 
L 86.564438 235.416717 
L 89.10625 236.534008 
L 91.648063 235.524797 
L 94.189875 214.159429 
L 96.731688 201.769412 
L 99.2735 161.007113 
L 101.815313 179.270107 
L 104.357125 148.092797 
L 106.898938 168.791395 
L 109.44075 192.436787 
L 111.982563 208.583001 
L 114.524375 233.780646 
L 117.066188 233.336419 
L 119.608 244.707312 
L 122.149813 240.980794 
L 124.691625 230.442811 
L 127.233438 227.879926 
L 129.77525 207.938798 
L 132.317063 204.245412 
L 134.858875 220.895311 
L 137.400688 222.065567 
L 139.9425 227.685109 
L 142.484313 239.855584 
L 145.026125 250.548705 
L 147.567938 253.08009 
L 150.10975 257.941153 
L 152.651563 254.425456 
L 155.193375 243.18854 
L 157.735188 245.809309 
L 160.277 235.687541 
L 162.818813 237.234809 
L 165.360625 236.589892 
L 167.902438 225.91592 
L 170.44425 225.872197 
L 172.986063 219.533234 
L 175.527875 212.450082 
L 178.069688 223.120193 
L 180.6115 212.292666 
L 183.153313 241.532117 
L 185.695125 240.150014 
L 188.236938 240.066351 
L 190.77875 204.096195 
L 193.320563 227.718527 
L 195.862375 228.169109 
L 198.404188 218.415255 
L 200.946 214.688932 
L 203.487813 224.36648 
L 206.029625 203.768858 
L 208.571438 187.2791 
L 211.11325 150.7489 
L 213.655063 99.826834 
L 216.196875 26.078636 
L 218.738688 167.146011 
L 221.2805 188.478604 
L 223.822313 247.278541 
L 226.364125 255.899698 
L 228.905938 260.670502 
L 231.44775 258.68999 
L 233.989563 264.176931 
L 236.531375 271.00464 
L 239.073188 271.148409 
L 241.615 272.628852 
L 244.156813 272.547597 
L 246.698625 278.75102 
L 249.240438 270.570427 
L 251.78225 276.080932 
L 254.324063 281.251364 
L 256.865875 275.312599 
L 259.407688 278.049817 
L 261.9495 281.013322 
L 264.491312 273.167123 
L 267.033125 273.247874 
L 269.574938 277.734231 
L 272.11675 276.119304 
L 274.658563 267.65077 
L 277.200375 270.663429 
L 279.742188 276.33262 
L 282.284 261.581303 
L 284.825813 259.477327 
L 287.367625 266.3106 
L 289.909438 258.217726 
L 292.45125 242.590215 
L 294.993063 233.892645 
L 297.534875 252.042578 
L 300.076687 236.364804 
L 302.6185 242.292846 
L 305.160313 243.151798 
L 307.702125 253.223805 
L 310.243938 269.693401 
L 312.78575 261.889038 
L 315.327562 262.470435 
L 317.869375 271.573514 
L 320.411187 271.426686 
L 322.953 265.661596 
L 325.494813 268.032382 
L 328.036625 279.239956 
L 330.578438 274.403374 
L 333.12025 275.045617 
L 335.662062 277.042266 
L 338.203875 278.831439 
L 340.745688 273.993778 
L 343.2875 271.02643 
L 345.829313 273.715901 
L 348.371125 270.766351 
L 350.912937 260.768544 
L 353.45475 268.336595 
L 355.996563 237.664008 
L 358.538375 239.533582 
L 361.080188 205.393102 
L 363.622 232.929166 
L 366.163813 246.964815 
L 368.705625 251.668819 
L 371.247437 257.921197 
L 373.78925 271.965733 
L 376.331063 272.092542 
L 378.872875 271.327382 
L 381.414688 274.504114 
L 383.9565 276.818911 
L 386.498312 265.898045 
L 389.040125 267.228697 
L 391.581938 271.152607 
L 394.12375 274.60372 
L 396.665563 266.845171 
L 399.207375 272.488912 
L 401.749188 275.63699 
L 404.291 271.725207 
L 406.832813 272.096964 
L 409.374625 272.713964 
L 411.916438 272.056319 
L 414.45825 263.341087 
L 417.000063 264.57324 
L 419.541875 268.161496 
L 422.083687 256.912453 
L 424.6255 255.776541 
L 427.167313 260.803695 
L 429.709125 257.117765 
L 432.250938 236.011632 
L 434.79275 227.102914 
L 437.334563 223.195275 
L 439.876375 205.563064 
L 442.418188 180.32143 
L 444.96 148.099178 
L 444.96 148.099178 
" style="fill:none;stroke:#666666;stroke-dasharray:1,1.65;stroke-dashoffset:0;"/>
    <defs>
     <path d="M 0 0.5 
C 0.132602 0.5 0.25979 0.447317 0.353553 0.353553 
C 0.447317 0.25979 0.5 0.132602 0.5 0 
C 0.5 -0.132602 0.447317 -0.25979 0.353553 -0.353553 
C 0.25979 -0.447317 0.132602 -0.5 0 -0.5 
C -0.132602 -0.5 -0.25979 -0.447317 -0.353553 -0.353553 
C -0.447317 -0.25979 -0.5 -0.132602 -0.5 0 
C -0.5 0.132602 -0.447317 0.25979 -0.353553 0.353553 
C -0.25979 0.447317 -0.132602 0.5 0 0.5 
z
" id="me9ae038222" style="stroke:#666666;"/>
    </defs>
    <g clip-path="url(#pd97b7e6a79)">
     <use style="fill:#666666;stroke:#666666;" x="38.27" xlink:href="#me9ae038222" y="176.085058"/>
     <use style="fill:#666666;stroke:#666666;" x="40.811813" xlink:href="#me9ae038222" y="205.761144"/>
     <use style="fill:#666666;stroke:#666666;" x="43.353625" xlink:href="#me9ae038222" y="190.965267"/>
     <use style="fill:#666666;stroke:#666666;" x="45.895437" xlink:href="#me9ae038222" y="214.429396"/>
     <use style="fill:#666666;stroke:#666666;" x="48.43725" xlink:href="#me9ae038222" y="242.390443"/>
     <use style="fill:#666666;stroke:#666666;" x="50.979063" xlink:href="#me9ae038222" y="249.648742"/>
     <use style="fill:#666666;stroke:#666666;" x="53.520875" xlink:href="#me9ae038222" y="251.66663"/>
     <use style="fill:#666666;stroke:#666666;" x="56.062688" xlink:href="#me9ae038222" y="262.000064"/>
     <use style="fill:#666666;stroke:#666666;" x="58.6045" xlink:href="#me9ae038222" y="257.273984"/>
     <use style="fill:#666666;stroke:#666666;" x="61.146313" xlink:href="#me9ae038222" y="227.831212"/>
     <use style="fill:#666666;stroke:#666666;" x="63.688125" xlink:href="#me9ae038222" y="203.751889"/>
     <use style="fill:#666666;stroke:#666666;" x="66.229938" xlink:href="#me9ae038222" y="157.146979"/>
     <use style="fill:#666666;stroke:#666666;" x="68.77175" xlink:href="#me9ae038222" y="154.645005"/>
     <use style="fill:#666666;stroke:#666666;" x="71.313563" xlink:href="#me9ae038222" y="188.180417"/>
     <use style="fill:#666666;stroke:#666666;" x="73.855375" xlink:href="#me9ae038222" y="202.191531"/>
     <use style="fill:#666666;stroke:#666666;" x="76.397188" xlink:href="#me9ae038222" y="240.831846"/>
     <use style="fill:#666666;stroke:#666666;" x="78.939" xlink:href="#me9ae038222" y="227.86639"/>
     <use style="fill:#666666;stroke:#666666;" x="81.480813" xlink:href="#me9ae038222" y="245.688888"/>
     <use style="fill:#666666;stroke:#666666;" x="84.022625" xlink:href="#me9ae038222" y="249.143494"/>
     <use style="fill:#666666;stroke:#666666;" x="86.564438" xlink:href="#me9ae038222" y="235.416717"/>
     <use style="fill:#666666;stroke:#666666;" x="89.10625" xlink:href="#me9ae038222" y="236.534008"/>
     <use style="fill:#666666;stroke:#666666;" x="91.648063" xlink:href="#me9ae038222" y="235.524797"/>
     <use style="fill:#666666;stroke:#666666;" x="94.189875" xlink:href="#me9ae038222" y="214.159429"/>
     <use style="fill:#666666;stroke:#666666;" x="96.731688" xlink:href="#me9ae038222" y="201.769412"/>
     <use style="fill:#666666;stroke:#666666;" x="99.2735" xlink:href="#me9ae038222" y="161.007113"/>
     <use style="fill:#666666;stroke:#666666;" x="101.815313" xlink:href="#me9ae038222" y="179.270107"/>
     <use style="fill:#666666;stroke:#666666;" x="104.357125" xlink:href="#me9ae038222" y="148.092797"/>
     <use style="fill:#666666;stroke:#666666;" x="106.898938" xlink:href="#me9ae038222" y="168.791395"/>
     <use style="fill:#666666;stroke:#666666;" x="109.44075" xlink:href="#me9ae038222" y="192.436787"/>
     <use style="fill:#666666;stroke:#666666;" x="111.982563" xlink:href="#me9ae038222" y="208.583001"/>
     <use style="fill:#666666;stroke:#666666;" x="114.524375" xlink:href="#me9ae038222" y="233.780646"/>
     <use style="fill:#666666;stroke:#666666;" x="117.066188" xlink:href="#me9ae038222" y="233.336419"/>
     <use style="fill:#666666;stroke:#666666;" x="119.608" xlink:href="#me9ae038222" y="244.707312"/>
     <use style="fill:#666666;stroke:#666666;" x="122.149813" xlink:href="#me9ae038222" y="240.980794"/>
     <use style="fill:#666666;stroke:#666666;" x="124.691625" xlink:href="#me9ae038222" y="230.442811"/>
     <use style="fill:#666666;stroke:#666666;" x="127.233438" xlink:href="#me9ae038222" y="227.879926"/>
     <use style="fill:#666666;stroke:#666666;" x="129.77525" xlink:href="#me9ae038222" y="207.938798"/>
     <use style="fill:#666666;stroke:#666666;" x="132.317063" xlink:href="#me9ae038222" y="204.245412"/>
     <use style="fill:#666666;stroke:#666666;" x="134.858875" xlink:href="#me9ae038222" y="220.895311"/>
     <use style="fill:#666666;stroke:#666666;" x="137.400688" xlink:href="#me9ae038222" y="222.065567"/>
     <use style="fill:#666666;stroke:#666666;" x="139.9425" xlink:href="#me9ae038222" y="227.685109"/>
     <use style="fill:#666666;stroke:#666666;" x="142.484313" xlink:href="#me9ae038222" y="239.855584"/>
     <use style="fill:#666666;stroke:#666666;" x="145.026125" xlink:href="#me9ae038222" y="250.548705"/>
     <use style="fill:#666666;stroke:#666666;" x="147.567938" xlink:href="#me9ae038222" y="253.08009"/>
     <use style="fill:#666666;stroke:#666666;" x="150.10975" xlink:href="#me9ae038222" y="257.941153"/>
     <use style="fill:#666666;stroke:#666666;" x="152.651563" xlink:href="#me9ae038222" y="254.425456"/>
     <use style="fill:#666666;stroke:#666666;" x="155.193375" xlink:href="#me9ae038222" y="243.18854"/>
     <use style="fill:#666666;stroke:#666666;" x="157.735188" xlink:href="#me9ae038222" y="245.809309"/>
     <use style="fill:#666666;stroke:#666666;" x="160.277" xlink:href="#me9ae038222" y="235.687541"/>
     <use style="fill:#666666;stroke:#666666;" x="162.818813" xlink:href="#me9ae038222" y="237.234809"/>
     <use style="fill:#666666;stroke:#666666;" x="165.360625" xlink:href="#me9ae038222" y="236.589892"/>
     <use style="fill:#666666;stroke:#666666;" x="167.902438" xlink:href="#me9ae038222" y="225.91592"/>
     <use style="fill:#666666;stroke:#666666;" x="170.44425" xlink:href="#me9ae038222" y="225.872197"/>
     <use style="fill:#666666;stroke:#666666;" x="172.986063" xlink:href="#me9ae038222" y="219.533234"/>
     <use style="fill:#666666;stroke:#666666;" x="175.527875" xlink:href="#me9ae038222" y="212.450082"/>
     <use style="fill:#666666;stroke:#666666;" x="178.069688" xlink:href="#me9ae038222" y="223.120193"/>
     <use style="fill:#666666;stroke:#666666;" x="180.6115" xlink:href="#me9ae038222" y="212.292666"/>
     <use style="fill:#666666;stroke:#666666;" x="183.153313" xlink:href="#me9ae038222" y="241.532117"/>
     <use style="fill:#666666;stroke:#666666;" x="185.695125" xlink:href="#me9ae038222" y="240.150014"/>
     <use style="fill:#666666;stroke:#666666;" x="188.236938" xlink:href="#me9ae038222" y="240.066351"/>
     <use style="fill:#666666;stroke:#666666;" x="190.77875" xlink:href="#me9ae038222" y="204.096195"/>
     <use style="fill:#666666;stroke:#666666;" x="193.320563" xlink:href="#me9ae038222" y="227.718527"/>
     <use style="fill:#666666;stroke:#666666;" x="195.862375" xlink:href="#me9ae038222" y="228.169109"/>
     <use style="fill:#666666;stroke:#666666;" x="198.404188" xlink:href="#me9ae038222" y="218.415255"/>
     <use style="fill:#666666;stroke:#666666;" x="200.946" xlink:href="#me9ae038222" y="214.688932"/>
     <use style="fill:#666666;stroke:#666666;" x="203.487813" xlink:href="#me9ae038222" y="224.36648"/>
     <use style="fill:#666666;stroke:#666666;" x="206.029625" xlink:href="#me9ae038222" y="203.768858"/>
     <use style="fill:#666666;stroke:#666666;" x="208.571438" xlink:href="#me9ae038222" y="187.2791"/>
     <use style="fill:#666666;stroke:#666666;" x="211.11325" xlink:href="#me9ae038222" y="150.7489"/>
     <use style="fill:#666666;stroke:#666666;" x="213.655063" xlink:href="#me9ae038222" y="99.826834"/>
     <use style="fill:#666666;stroke:#666666;" x="216.196875" xlink:href="#me9ae038222" y="26.078636"/>
     <use style="fill:#666666;stroke:#666666;" x="218.738688" xlink:href="#me9ae038222" y="167.146011"/>
     <use style="fill:#666666;stroke:#666666;" x="221.2805" xlink:href="#me9ae038222" y="188.478604"/>
     <use style="fill:#666666;stroke:#666666;" x="223.822313" xlink:href="#me9ae038222" y="247.278541"/>
     <use style="fill:#666666;stroke:#666666;" x="226.364125" xlink:href="#me9ae038222" y="255.899698"/>
     <use style="fill:#666666;stroke:#666666;" x="228.905938" xlink:href="#me9ae038222" y="260.670502"/>
     <use style="fill:#666666;stroke:#666666;" x="231.44775" xlink:href="#me9ae038222" y="258.68999"/>
     <use style="fill:#666666;stroke:#666666;" x="233.989563" xlink:href="#me9ae038222" y="264.176931"/>
     <use style="fill:#666666;stroke:#666666;" x="236.531375" xlink:href="#me9ae038222" y="271.00464"/>
     <use style="fill:#666666;stroke:#666666;" x="239.073188" xlink:href="#me9ae038222" y="271.148409"/>
     <use style="fill:#666666;stroke:#666666;" x="241.615" xlink:href="#me9ae038222" y="272.628852"/>
     <use style="fill:#666666;stroke:#666666;" x="244.156813" xlink:href="#me9ae038222" y="272.547597"/>
     <use style="fill:#666666;stroke:#666666;" x="246.698625" xlink:href="#me9ae038222" y="278.75102"/>
     <use style="fill:#666666;stroke:#666666;" x="249.240438" xlink:href="#me9ae038222" y="270.570427"/>
     <use style="fill:#666666;stroke:#666666;" x="251.78225" xlink:href="#me9ae038222" y="276.080932"/>
     <use style="fill:#666666;stroke:#666666;" x="254.324063" xlink:href="#me9ae038222" y="281.251364"/>
     <use style="fill:#666666;stroke:#666666;" x="256.865875" xlink:href="#me9ae038222" y="275.312599"/>
     <use style="fill:#666666;stroke:#666666;" x="259.407688" xlink:href="#me9ae038222" y="278.049817"/>
     <use style="fill:#666666;stroke:#666666;" x="261.9495" xlink:href="#me9ae038222" y="281.013322"/>
     <use style="fill:#666666;stroke:#666666;" x="264.491312" xlink:href="#me9ae038222" y="273.167123"/>
     <use style="fill:#666666;stroke:#666666;" x="267.033125" xlink:href="#me9ae038222" y="273.247874"/>
     <use style="fill:#666666;stroke:#666666;" x="269.574938" xlink:href="#me9ae038222" y="277.734231"/>
     <use style="fill:#666666;stroke:#666666;" x="272.11675" xlink:href="#me9ae038222" y="276.119304"/>
     <use style="fill:#666666;stroke:#666666;" x="274.658563" xlink:href="#me9ae038222" y="267.65077"/>
     <use style="fill:#666666;stroke:#666666;" x="277.200375" xlink:href="#me9ae038222" y="270.663429"/>
     <use style="fill:#666666;stroke:#666666;" x="279.742188" xlink:href="#me9ae038222" y="276.33262"/>
     <use style="fill:#666666;stroke:#666666;" x="282.284" xlink:href="#me9ae038222" y="261.581303"/>
     <use style="fill:#666666;stroke:#666666;" x="284.825813" xlink:href="#me9ae038222" y="259.477327"/>
     <use style="fill:#666666;stroke:#666666;" x="287.367625" xlink:href="#me9ae038222" y="266.3106"/>
     <use style="fill:#666666;stroke:#666666;" x="289.909438" xlink:href="#me9ae038222" y="258.217726"/>
     <use style="fill:#666666;stroke:#666666;" x="292.45125" xlink:href="#me9ae038222" y="242.590215"/>
     <use style="fill:#666666;stroke:#666666;" x="294.993063" xlink:href="#me9ae038222" y="233.892645"/>
     <use style="fill:#666666;stroke:#666666;" x="297.534875" xlink:href="#me9ae038222" y="252.042578"/>
     <use style="fill:#666666;stroke:#666666;" x="300.076687" xlink:href="#me9ae038222" y="236.364804"/>
     <use style="fill:#666666;stroke:#666666;" x="302.6185" xlink:href="#me9ae038222" y="242.292846"/>
     <use style="fill:#666666;stroke:#666666;" x="305.160313" xlink:href="#me9ae038222" y="243.151798"/>
     <use style="fill:#666666;stroke:#666666;" x="307.702125" xlink:href="#me9ae038222" y="253.223805"/>
     <use style="fill:#666666;stroke:#666666;" x="310.243938" xlink:href="#me9ae038222" y="269.693401"/>
     <use style="fill:#666666;stroke:#666666;" x="312.78575" xlink:href="#me9ae038222" y="261.889038"/>
     <use style="fill:#666666;stroke:#666666;" x="315.327562" xlink:href="#me9ae038222" y="262.470435"/>
     <use style="fill:#666666;stroke:#666666;" x="317.869375" xlink:href="#me9ae038222" y="271.573514"/>
     <use style="fill:#666666;stroke:#666666;" x="320.411187" xlink:href="#me9ae038222" y="271.426686"/>
     <use style="fill:#666666;stroke:#666666;" x="322.953" xlink:href="#me9ae038222" y="265.661596"/>
     <use style="fill:#666666;stroke:#666666;" x="325.494813" xlink:href="#me9ae038222" y="268.032382"/>
     <use style="fill:#666666;stroke:#666666;" x="328.036625" xlink:href="#me9ae038222" y="279.239956"/>
     <use style="fill:#666666;stroke:#666666;" x="330.578438" xlink:href="#me9ae038222" y="274.403374"/>
     <use style="fill:#666666;stroke:#666666;" x="333.12025" xlink:href="#me9ae038222" y="275.045617"/>
     <use style="fill:#666666;stroke:#666666;" x="335.662062" xlink:href="#me9ae038222" y="277.042266"/>
     <use style="fill:#666666;stroke:#666666;" x="338.203875" xlink:href="#me9ae038222" y="278.831439"/>
     <use style="fill:#666666;stroke:#666666;" x="340.745688" xlink:href="#me9ae038222" y="273.993778"/>
     <use style="fill:#666666;stroke:#666666;" x="343.2875" xlink:href="#me9ae038222" y="271.02643"/>
     <use style="fill:#666666;stroke:#666666;" x="345.829313" xlink:href="#me9ae038222" y="273.715901"/>
     <use style="fill:#666666;stroke:#666666;" x="348.371125" xlink:href="#me9ae038222" y="270.766351"/>
     <use style="fill:#666666;stroke:#666666;" x="350.912937" xlink:href="#me9ae038222" y="260.768544"/>
     <use style="fill:#666666;stroke:#666666;" x="353.45475" xlink:href="#me9ae038222" y="268.336595"/>
     <use style="fill:#666666;stroke:#666666;" x="355.996563" xlink:href="#me9ae038222" y="237.664008"/>
     <use style="fill:#666666;stroke:#666666;" x="358.538375" xlink:href="#me9ae038222" y="239.533582"/>
     <use style="fill:#666666;stroke:#666666;" x="361.080188" xlink:href="#me9ae038222" y="205.393102"/>
     <use style="fill:#666666;stroke:#666666;" x="363.622" xlink:href="#me9ae038222" y="232.929166"/>
     <use style="fill:#666666;stroke:#666666;" x="366.163813" xlink:href="#me9ae038222" y="246.964815"/>
     <use style="fill:#666666;stroke:#666666;" x="368.705625" xlink:href="#me9ae038222" y="251.668819"/>
     <use style="fill:#666666;stroke:#666666;" x="371.247437" xlink:href="#me9ae038222" y="257.921197"/>
     <use style="fill:#666666;stroke:#666666;" x="373.78925" xlink:href="#me9ae038222" y="271.965733"/>
     <use style="fill:#666666;stroke:#666666;" x="376.331063" xlink:href="#me9ae038222" y="272.092542"/>
     <use style="fill:#666666;stroke:#666666;" x="378.872875" xlink:href="#me9ae038222" y="271.327382"/>
     <use style="fill:#666666;stroke:#666666;" x="381.414688" xlink:href="#me9ae038222" y="274.504114"/>
     <use style="fill:#666666;stroke:#666666;" x="383.9565" xlink:href="#me9ae038222" y="276.818911"/>
     <use style="fill:#666666;stroke:#666666;" x="386.498312" xlink:href="#me9ae038222" y="265.898045"/>
     <use style="fill:#666666;stroke:#666666;" x="389.040125" xlink:href="#me9ae038222" y="267.228697"/>
     <use style="fill:#666666;stroke:#666666;" x="391.581938" xlink:href="#me9ae038222" y="271.152607"/>
     <use style="fill:#666666;stroke:#666666;" x="394.12375" xlink:href="#me9ae038222" y="274.60372"/>
     <use style="fill:#666666;stroke:#666666;" x="396.665563" xlink:href="#me9ae038222" y="266.845171"/>
     <use style="fill:#666666;stroke:#666666;" x="399.207375" xlink:href="#me9ae038222" y="272.488912"/>
     <use style="fill:#666666;stroke:#666666;" x="401.749188" xlink:href="#me9ae038222" y="275.63699"/>
     <use style="fill:#666666;stroke:#666666;" x="404.291" xlink:href="#me9ae038222" y="271.725207"/>
     <use style="fill:#666666;stroke:#666666;" x="406.832813" xlink:href="#me9ae038222" y="272.096964"/>
     <use style="fill:#666666;stroke:#666666;" x="409.374625" xlink:href="#me9ae038222" y="272.713964"/>
     <use style="fill:#666666;stroke:#666666;" x="411.916438" xlink:href="#me9ae038222" y="272.056319"/>
     <use style="fill:#666666;stroke:#666666;" x="414.45825" xlink:href="#me9ae038222" y="263.341087"/>
     <use style="fill:#666666;stroke:#666666;" x="417.000063" xlink:href="#me9ae038222" y="264.57324"/>
     <use style="fill:#666666;stroke:#666666;" x="419.541875" xlink:href="#me9ae038222" y="268.161496"/>
     <use style="fill:#666666;stroke:#666666;" x="422.083687" xlink:href="#me9ae038222" y="256.912453"/>
     <use style="fill:#666666;stroke:#666666;" x="424.6255" xlink:href="#me9ae038222" y="255.776541"/>
     <use style="fill:#666666;stroke:#666666;" x="427.167313" xlink:href="#me9ae038222" y="260.803695"/>
     <use style="fill:#666666;stroke:#666666;" x="429.709125" xlink:href="#me9ae038222" y="257.117765"/>
     <use style="fill:#666666;stroke:#666666;" x="432.250938" xlink:href="#me9ae038222" y="236.011632"/>
     <use style="fill:#666666;stroke:#666666;" x="434.79275" xlink:href="#me9ae038222" y="227.102914"/>
     <use style="fill:#666666;stroke:#666666;" x="437.334563" xlink:href="#me9ae038222" y="223.195275"/>
     <use style="fill:#666666;stroke:#666666;" x="439.876375" xlink:href="#me9ae038222" y="205.563064"/>
     <use style="fill:#666666;stroke:#666666;" x="442.418188" xlink:href="#me9ae038222" y="180.32143"/>
     <use style="fill:#666666;stroke:#666666;" x="444.96" xlink:href="#me9ae038222" y="148.099178"/>
    </g>
   </g>
   <g id="patch_3">
    <path d="M 38.27 294.01 
L 38.27 13.32 
" style="fill:none;stroke:#000000;stroke-linecap:square;stroke-linejoin:miter;stroke-width:0.8;"/>
   </g>
   <g id="patch_4">
    <path d="M 444.96 294.01 
L 444.96 13.32 
" style="fill:none;stroke:#000000;stroke-linecap:square;stroke-linejoin:miter;stroke-width:0.8;"/>
   </g>
   <g id="patch_5">
    <path d="M 38.27 294.01 
L 444.96 294.01 
" style="fill:none;stroke:#000000;stroke-linecap:square;stroke-linejoin:miter;stroke-width:0.8;"/>
   </g>
   <g id="patch_6">
    <path d="M 38.27 13.32 
L 444.96 13.32 
" style="fill:none;stroke:#000000;stroke-linecap:square;stroke-linejoin:miter;stroke-width:0.8;"/>
   </g>
  </g>
 </g>
 <defs>
  <clipPath id="pd97b7e6a79">
   <rect height="280.69" width="406.69" x="38.27" y="13.32"/>
  </clipPath>
 </defs>
</svg>
